<svg width="24" height="24" viewBox="0 0 24 24" fill="none" xmlns="http://www.w3.org/2000/svg">
<path d="M12.9544 0.795028C12.7519 0.975028 11.1769 4.10065 11.1769 4.10065L10.005 8.82753L14.565 8.4094C14.565 8.4094 18.3581 1.35565 18.435 1.19253C18.5719 0.896278 18.645 0.774403 18.1219 0.774403C17.5988 0.772528 13.1438 0.626278 12.9544 0.795028Z" fill="#176CC7"/>
<path d="M15.315 8.1169C15.0881 7.99502 8.40563 7.89002 8.24813 8.1169C8.10563 8.32315 8.12625 9.26627 8.19563 9.38815C8.265 9.51002 10.5113 10.5544 10.5113 10.5544L10.5094 10.935C10.5094 10.935 10.6331 11.2331 11.8856 11.2331C13.1381 11.2331 13.2675 10.98 13.2675 10.98L13.2788 10.5956C13.2788 10.5956 15.2456 9.61315 15.3488 9.5269C15.4538 9.43877 15.5419 8.23877 15.315 8.1169ZM13.2563 9.67877C13.2563 9.67877 13.2506 9.41627 13.1213 9.35065C12.9919 9.28502 10.9088 9.29627 10.7325 9.30565C10.5563 9.31502 10.5563 9.63002 10.5563 9.63002L9.13125 8.93627V8.79752L14.4375 8.83502L14.4469 8.99252L13.2563 9.67877Z" fill="#FCC417"/>
<path d="M11.1112 9.59436C10.935 9.59436 10.8337 9.77811 10.8337 10.095C10.8337 10.3912 10.935 10.6406 11.1581 10.6219C11.3419 10.6069 11.4056 10.3256 11.3887 10.0762C11.3719 9.77999 11.3344 9.59436 11.1112 9.59436Z" fill="#FDFFFF"/>
<path d="M5.43378 17.01C5.43378 21.5025 9.49503 23.5031 12.195 23.4075C15.1725 23.3006 18.7388 20.9793 18.5232 16.6931C18.3188 12.6318 14.9025 10.7062 11.9438 10.7268C8.50503 10.7512 5.43378 13.0856 5.43378 17.01Z" fill="#FCC417"/>
<path d="M12.0994 22.6257C12.0525 22.6257 12.0038 22.6257 11.9569 22.6238C10.5506 22.5769 9.16126 21.9844 8.14501 21C7.05751 19.9463 6.46126 18.5213 6.46876 16.9894C6.48563 13.2488 9.75563 11.5144 11.9738 11.5144H11.9925C14.9981 11.5275 17.4656 13.8638 17.535 17.0307C17.565 18.4407 16.9875 19.92 15.855 21.0338C14.7975 22.0707 13.395 22.6257 12.0994 22.6257ZM11.97 12.1369C9.98063 12.1369 7.03876 13.7644 7.03126 16.9894C7.02563 19.4007 8.89313 21.8794 12.0038 21.9844C13.1888 22.0219 14.4094 21.5682 15.3956 20.5988C16.4194 19.5919 16.995 18.2944 16.9744 17.0382C16.9294 14.3138 14.7019 12.1463 11.9981 12.135C11.9906 12.135 11.9756 12.1369 11.97 12.1369Z" fill="#FA912C"/>
<path d="M10.8413 11.3643C10.7119 11.1862 9.24563 11.22 7.86001 12.5737C6.52313 13.8806 6.37876 15.1125 6.63563 15.1837C6.92626 15.2643 7.28063 13.9593 8.50501 12.8625C9.63001 11.8575 11.1 11.7187 10.8413 11.3643ZM16.5131 16.215C16.0613 16.2787 16.53 17.6325 15.4819 19.1475C14.5725 20.4618 13.5413 20.9381 13.6613 21.2268C13.8225 21.6131 15.4744 20.6512 16.2394 19.0837C16.9331 17.6643 16.8506 16.1662 16.5131 16.215Z" fill="#FEFFFA"/>
<path d="M10.4719 14.4413C10.3744 14.5856 10.4625 15.8513 10.5206 15.9075C10.6331 16.02 11.4881 15.6169 11.4881 15.6169L11.4562 19.0013C11.4562 19.0013 10.8281 18.9938 10.7625 19.0181C10.6331 19.0669 10.65 20.3719 10.7456 20.4356C10.8412 20.4994 13.4044 20.5331 13.5019 20.4038C13.5994 20.2744 13.575 19.1325 13.53 19.08C13.4494 18.9825 12.8362 19.0219 12.8362 19.0219C12.8362 19.0219 12.8887 14.0381 12.8719 13.8788C12.855 13.7194 12.6787 13.62 12.4687 13.6688C12.2587 13.7175 10.5337 14.3475 10.4719 14.4413Z" fill="#D26A06"/>
<path d="M4.7831 0.697517C4.66497 0.806267 9.18185 8.85002 9.18185 8.85002C9.18185 8.85002 9.93935 8.94752 11.6306 8.96252C13.3218 8.97752 14.16 8.86502 14.16 8.86502C14.16 8.86502 10.6481 0.778142 10.4381 0.697517C10.335 0.656267 8.94373 0.641267 7.58435 0.626267C6.2231 0.609392 4.8956 0.592517 4.7831 0.697517Z" fill="#2E9DF4"/>
</svg>
