<svg width="24" height="24" viewBox="0 0 24 24" fill="none" xmlns="http://www.w3.org/2000/svg">
<path d="M12.9544 0.795028C12.7519 0.975028 11.1769 4.10065 11.1769 4.10065L10.005 8.82753L14.565 8.4094C14.565 8.4094 18.3581 1.35565 18.435 1.19253C18.5719 0.896278 18.645 0.774403 18.1219 0.774403C17.5988 0.772528 13.1438 0.626278 12.9544 0.795028Z" fill="#176CC7"/>
<path d="M15.315 8.1169C15.0881 7.99502 8.40561 7.89002 8.24811 8.1169C8.10561 8.32315 8.18623 9.40502 8.24061 9.5344C8.33811 9.7594 10.4962 10.74 10.4962 10.74L10.455 11.1863C10.455 11.1863 10.6312 11.2313 11.8856 11.2313C13.14 11.2313 13.3875 11.1675 13.3875 11.1675L13.3912 10.7644C13.3912 10.7644 15.3337 9.8194 15.4312 9.68815C15.5137 9.5794 15.5419 8.23877 15.315 8.1169ZM13.3256 9.8269C13.3256 9.8269 13.3875 9.55127 13.2581 9.48752C13.1287 9.4219 10.9087 9.4519 10.7325 9.46127C10.5562 9.47065 10.5562 9.78565 10.5562 9.78565L9.13123 8.93627V8.79752L14.4375 8.83502L14.4469 8.99252L13.3256 9.8269Z" fill="#CECDD2"/>
<path d="M11.1112 9.59436C10.935 9.59436 10.8337 9.77811 10.8337 10.095C10.8337 10.3912 10.935 10.6406 11.1581 10.6219C11.3419 10.6069 11.4056 10.3256 11.3887 10.0762C11.3719 9.77999 11.3344 9.59436 11.1112 9.59436Z" fill="#FDFFFF"/>
<path d="M5.43188 17.2293C5.43188 21.7218 9.56626 23.6287 12.2681 23.5481C15.4163 23.4543 18.7388 21.0656 18.5231 16.7793C18.3188 12.7181 14.8744 10.9125 11.9156 10.9331C8.47689 10.9593 5.43188 13.305 5.43188 17.2293Z" fill="#CECDD2"/>
<path d="M12.0994 22.7119C12.0525 22.7119 12.0038 22.7119 11.9569 22.71C10.5506 22.6631 9.16126 22.0706 8.14501 21.0863C7.05751 20.0325 6.46126 18.6075 6.46876 17.0756C6.48563 13.335 9.75563 11.6006 11.9738 11.6006H11.9925C14.9981 11.6138 17.4656 13.95 17.535 17.1169C17.565 18.5269 16.9875 20.0063 15.855 21.12C14.7975 22.1569 13.395 22.7119 12.0994 22.7119ZM11.97 12.2231C9.98063 12.2231 7.03876 13.8506 7.03126 17.0756C7.02563 19.4869 8.89313 21.9656 12.0038 22.0706C13.1888 22.1081 14.4094 21.6544 15.3956 20.685C16.4194 19.6781 16.995 18.3806 16.9744 17.1244C16.9256 14.4 14.6981 12.2325 11.9944 12.2194C11.9906 12.2194 11.9756 12.2231 11.97 12.2231Z" fill="#9B9B9D"/>
<path d="M10.8918 11.5256C10.7625 11.3475 9.43685 11.3981 8.00997 12.6262C6.59247 13.8469 6.38059 15.1969 6.63559 15.2681C6.92622 15.3487 7.28059 14.0437 8.50497 12.9469C9.62997 11.9437 11.1487 11.88 10.8918 11.5256ZM16.4775 16.4475C16.0256 16.5112 16.4943 17.865 15.4462 19.38C14.5368 20.6944 13.5056 21.1706 13.6256 21.4594C13.7868 21.8456 15.4387 20.8837 16.2037 19.3162C16.8956 17.8987 16.8131 16.4006 16.4775 16.4475Z" fill="#FEFFFA"/>
<path d="M4.7831 0.697517C4.66497 0.806267 9.18185 8.85002 9.18185 8.85002C9.18185 8.85002 9.93935 8.94752 11.6306 8.96252C13.3218 8.97752 14.16 8.86502 14.16 8.86502C14.16 8.86502 10.6481 0.778142 10.4381 0.697517C10.335 0.656267 8.94373 0.641267 7.58435 0.626267C6.2231 0.609392 4.8956 0.592517 4.7831 0.697517Z" fill="#2E9DF4"/>
<path d="M10.6594 16.1906C10.8544 16.1925 11.0287 15.9281 11.19 15.7669C11.5331 15.4219 11.8931 15.1481 12.3037 15.5194C13.3125 16.4362 11.2875 17.3662 10.5187 18.6375C9.94498 19.5862 9.82873 20.3156 9.9881 20.5106C10.1475 20.7056 14.0269 20.6962 14.0794 20.5987C14.1319 20.5012 14.1862 19.2019 14.0962 19.14C14.0062 19.0781 12.0994 19.1137 12.0994 19.1137C12.0994 19.1137 12.2587 18.7425 12.9131 18.1762C13.6312 17.5556 14.2069 16.7025 14.0531 15.6937C13.7344 13.6087 11.6344 13.5319 10.725 14.2575C9.8381 14.9644 10.0294 16.1831 10.6594 16.1906Z" fill="#7F7F7F"/>
</svg>
