<svg width="24" height="24" viewBox="0 0 24 24" fill="none" xmlns="http://www.w3.org/2000/svg">
<path d="M12.9544 0.795028C12.7519 0.975028 11.1769 4.10065 11.1769 4.10065L10.005 8.82753L14.565 8.4094C14.565 8.4094 18.3581 1.35565 18.435 1.19253C18.5719 0.896278 18.645 0.774403 18.1219 0.774403C17.5988 0.772528 13.1438 0.626278 12.9544 0.795028Z" fill="#176CC7"/>
<path d="M15.315 8.1169C15.0881 7.99502 8.40561 7.89002 8.24811 8.1169C8.10561 8.32315 8.18623 9.40502 8.24061 9.5344C8.33811 9.7594 10.4962 10.74 10.4962 10.74L10.455 11.1863C10.455 11.1863 10.6312 11.2313 11.8856 11.2313C13.14 11.2313 13.3875 11.1675 13.3875 11.1675L13.3912 10.7644C13.3912 10.7644 15.3337 9.8194 15.4312 9.68815C15.5137 9.5794 15.5419 8.23877 15.315 8.1169ZM13.3256 9.8269C13.3256 9.8269 13.3875 9.55127 13.2581 9.48752C13.1287 9.4219 10.9087 9.4519 10.7325 9.46127C10.5562 9.47065 10.5562 9.78565 10.5562 9.78565L9.15748 9.06565L9.13123 8.79752L14.4375 8.83502L14.4187 9.08815L13.3256 9.8269Z" fill="#F79429"/>
<path d="M11.1112 9.72937C10.935 9.72937 10.8337 9.91312 10.8337 10.23C10.8337 10.5262 10.935 10.7756 11.1581 10.7569C11.3419 10.7419 11.4056 10.4606 11.3887 10.2112C11.3719 9.91312 11.3344 9.72937 11.1112 9.72937Z" fill="#FDFFFF"/>
<path d="M5.49561 17.2669C5.49561 21.7594 9.56623 23.6288 12.2681 23.5482C15.4162 23.4544 18.8025 21.0657 18.5231 16.7794C18.2606 12.7575 14.8744 10.9125 11.9156 10.9332C8.47686 10.9594 5.49561 13.3425 5.49561 17.2669Z" fill="#F79429"/>
<path d="M12.1256 22.8694C12.0788 22.8694 12.03 22.8694 11.9831 22.8675C10.5769 22.8206 9.1875 22.2281 8.17125 21.2437C7.08375 20.19 6.4875 18.765 6.495 17.2331C6.51188 13.4925 9.78188 11.7581 12 11.7581H12.0188C15.0244 11.7712 17.4919 14.1075 17.5613 17.2744C17.5913 18.6844 17.1413 20.0869 16.0088 21.2006C14.9513 22.2356 13.4213 22.8694 12.1256 22.8694ZM11.9963 12.3806C10.0069 12.3806 7.065 14.0081 7.0575 17.2331C7.05188 19.6444 8.91938 22.1231 12.03 22.2281C13.215 22.2656 14.5519 21.8269 15.5363 20.8594C16.56 19.8525 17.0194 18.54 16.9988 17.2837C16.9538 14.5594 14.7263 12.3919 12.0225 12.3806C12.0169 12.3769 12.0019 12.3806 11.9963 12.3806Z" fill="#D25116"/>
<path d="M10.8918 11.5256C10.7625 11.3475 9.43684 11.3981 8.00997 12.6262C6.59247 13.8469 6.38059 15.1969 6.63559 15.2681C6.92622 15.3487 7.28059 14.0437 8.50497 12.9469C9.62997 11.9437 11.1487 11.88 10.8918 11.5256ZM16.59 16.4325C16.1381 16.4962 16.6068 17.85 15.5587 19.365C14.6493 20.6794 13.6181 21.1556 13.7381 21.4444C13.8993 21.8306 15.5512 20.8687 16.3162 19.3012C17.0081 17.8819 16.9256 16.3837 16.59 16.4325Z" fill="#FEFFFA"/>
<path d="M4.7831 0.697517C4.66497 0.806267 9.18185 8.85002 9.18185 8.85002C9.18185 8.85002 9.93935 8.94752 11.6306 8.96252C13.3218 8.97752 14.16 8.86502 14.16 8.86502C14.16 8.86502 10.6481 0.778142 10.4381 0.697517C10.335 0.656267 8.94373 0.641267 7.58435 0.626267C6.2231 0.609392 4.8956 0.592517 4.7831 0.697517Z" fill="#2E9DF4"/>
<path d="M14.0531 15.6956C13.8356 13.8112 11.6419 13.6537 10.7325 14.3775C9.84751 15.0825 9.93189 16.065 10.5525 16.1794C11.0419 16.2694 11.1694 15.8812 11.3119 15.7031C11.6344 15.3037 12.1481 15.2662 12.4838 15.5869C12.8644 15.9525 12.63 16.8262 12.0581 16.8619C11.6325 16.8881 11.4169 16.8656 11.3625 16.9387C11.2856 17.0419 11.2969 17.8537 11.3756 17.9437C11.4656 18.0469 11.8256 17.9831 12.135 17.9944C12.5606 18.0112 13.0125 18.6412 12.7144 19.1137C12.405 19.6031 11.5819 19.3837 11.2856 19.0875C10.8938 18.6956 10.5019 18.9206 10.3706 19.0744C10.1644 19.3181 9.94501 19.8731 10.7063 20.4131C11.4656 20.9531 13.77 21.0562 14.235 19.3837C14.64 17.9231 13.695 17.3231 13.695 17.3231C13.695 17.3231 14.1769 16.77 14.0531 15.6956Z" fill="#9F3F13"/>
</svg>
