<svg width="94" height="87" viewBox="0 0 94 87" fill="none" xmlns="http://www.w3.org/2000/svg">
<path fill-rule="evenodd" clip-rule="evenodd" d="M37.0129 6.05919C37.2068 6.10347 37.7875 6.2241 38.3036 6.3273C41.1685 6.90119 44.3341 9.26769 44.8702 11.2364C45.022 11.7939 45.0116 12.1784 44.824 12.9376C44.6024 13.8351 44.6093 13.962 44.9056 14.4292C45.3883 15.1898 45.2457 16.62 44.6228 17.2629C44.2651 17.6319 44.1528 17.9241 44.1528 18.4848C44.1528 18.9237 44.2419 19.2476 44.3732 19.286C49.5811 20.8068 54.7485 23.812 59.2098 27.9147C61.6928 30.1982 64.3229 33.1515 66.0134 35.5544C66.1589 35.7612 66.4876 35.9796 66.7442 36.0397C67.1597 36.1372 67.2334 36.0809 67.419 35.5246C67.6995 34.6842 68.231 34.5646 69.3092 35.0992C69.7651 35.3253 70.2946 35.7233 70.4857 35.984L70.8335 36.4574L70.2663 37.3594C69.7008 38.2591 69.7001 38.2635 69.9719 39.0525C70.4837 40.5379 70.2842 41.423 69.0996 42.9192C68.758 43.3507 68.3964 43.9075 68.2959 44.1566C68.1954 44.4057 67.6626 44.9941 67.1119 45.4641C66.1925 46.2487 66.0388 46.3176 65.2317 46.3052C64.4573 46.2932 64.2996 46.3552 63.9049 46.8271C63.6586 47.1218 63.2449 47.5591 62.9855 47.7994C62.2927 48.4412 57.4797 56.6083 57.0134 57.9334C56.796 58.5514 56.8066 58.581 57.4797 59.2545C57.8584 59.6333 58.6046 60.1526 59.1379 60.4083C59.6712 60.6641 61.1389 61.6243 62.3994 62.5421C67.1997 66.0375 69.6234 67.6379 70.4208 67.8389C72.3803 68.3326 73.4134 68.9638 73.8584 69.9397C74.2517 70.8021 74.1233 71.3673 72.7692 74.7341C70.4739 80.4409 70.1498 80.7386 66.0744 80.8842C63.2401 80.9855 61.9784 80.8443 61.224 80.3415C59.5848 79.2492 60.513 76.5905 62.759 75.9448C64.0497 75.5738 64.1784 75.38 63.8679 74.2763L63.617 73.3844L60.3945 72.2494L57.172 71.1143L56.0836 72.2537C54.2085 74.2165 52.3511 75.1523 50.0386 75.2994C48.2244 75.4148 47.0938 75.15 45.7598 74.2975C43.4191 72.8016 42.3211 69.7823 42.8481 66.2919C42.9724 65.4699 43.2007 64.4986 43.3556 64.1332L43.6375 63.469L42.7051 62.3057C42.1925 61.6659 41.3332 60.6609 40.7958 60.0724C40.2585 59.4837 39.5549 58.5125 39.2323 57.9141L38.6458 56.8261L37.7412 56.943C37.2437 57.0074 36.3083 57.2178 35.6623 57.4108L34.488 57.7617L35.0624 59.0132C35.9611 60.9718 36.5697 63.6071 37.7451 70.632C38.2189 73.4632 38.5192 74.4687 39.7624 77.3884C40.9455 80.1663 40.6842 80.4437 36.5722 80.7756C35.3601 80.8734 32.1075 80.9197 29.3441 80.8788C24.2575 80.8035 23.5101 80.7133 22.7782 80.0873C22.3242 79.6993 22.1137 78.7663 22.3165 78.0402C22.5719 77.1257 23.5396 76.5398 26.1974 75.691C28.4809 74.9616 29.3441 74.453 29.3441 73.8368C29.3441 73.5685 26.9824 65.4201 26.1868 62.9436C24.1534 56.6134 23.8874 55.0118 24.6331 53.5919C25.7357 51.493 28.7533 48.9841 32.7378 46.8536C33.5861 46.4 34.2803 45.933 34.2803 45.8159C34.2803 45.2706 32.9788 41.8673 32.4095 40.9239C31.8931 40.0681 30.5099 37.3184 29.6863 35.5103C29.212 34.469 28.1009 31.4549 28.005 30.9499C27.9438 30.6276 27.8354 30.3281 27.7638 30.2843C27.6924 30.2407 26.8939 31.0456 25.9897 32.0731C23.5602 34.8336 20.9098 37.3575 19.8175 37.9509C18.972 38.4101 18.6825 38.4735 17.4442 38.4713C15.8309 38.4683 14.8377 38.1848 12.5961 37.0873C11.361 36.4825 10.9655 36.367 10.3464 36.4299C9.30236 36.5359 7.20867 35.5558 6.49433 34.6265C6.00934 33.9957 5.9859 33.883 6.00405 32.2657C6.01957 30.8938 6.09221 30.4517 6.38204 29.966C6.57931 29.6353 6.79491 29.1207 6.86119 28.8224C7.04031 28.016 7.71077 27.5784 8.76695 27.5784C9.92239 27.5784 12.0058 28.5545 13.0462 29.5833C13.6852 30.2151 14.0017 30.3783 15.0427 30.6124C15.723 30.7655 16.3196 30.8906 16.3684 30.8906C16.4173 30.8906 16.7531 30.3612 17.1145 29.7139C18.6761 26.9177 21.5104 23.3691 23.6425 21.5404C24.9651 20.4058 26.7392 19.268 27.4135 19.1216C27.6996 19.0595 27.9337 18.9445 27.9337 18.8662C27.9337 18.7877 27.5684 18.4218 27.1219 18.0529C26.0181 17.1407 25.6199 16.3159 25.6199 14.9424C25.6199 14.0678 25.5483 13.7767 25.2726 13.53C23.9364 12.3343 23.7612 10.0999 24.9367 9.24921C25.1791 9.07384 26.0121 8.80224 26.7878 8.64569C27.5635 8.48897 28.3965 8.22347 28.6389 8.05542C29.3945 7.53139 30.9734 6.79311 32.0767 6.44794C33.0953 6.12909 36.2339 5.88207 37.0129 6.05919ZM32.827 6.99637C31.5063 7.33021 30.0519 7.96355 29.1325 8.60472C28.8707 8.78724 27.9584 9.08726 27.1051 9.27118C24.8852 9.74953 24.3655 10.4407 25.0339 12.0252C25.1842 12.3817 25.5497 12.9211 25.8459 13.2239C26.3441 13.7327 26.3758 13.8382 26.2667 14.622C26.1219 15.6629 26.3116 16.1876 27.1765 17.1391C28.6512 18.7614 30.8687 19.7406 32.2277 19.3696C33.0875 19.1348 33.0398 18.7713 32.1191 18.5421C31.2957 18.3371 30.3629 17.5094 30.06 16.7151C29.7984 16.0288 29.827 14.6016 30.1161 13.9174C30.4539 13.1179 31.1943 12.586 31.9682 12.5869C32.6621 12.5876 33.6991 13.12 33.8713 13.564C33.9545 13.7784 34.0298 13.7244 34.198 13.3288C34.4057 12.8405 34.4831 12.8095 35.764 12.7025C38.1817 12.5003 39.5043 11.4426 39.8331 9.44829C39.9043 9.01683 39.9972 8.60559 40.0399 8.53429C40.1739 8.31028 41.5234 9.09947 42.4128 9.92212C42.8826 10.3567 43.4863 11.1536 43.7541 11.6928C44.1601 12.5104 44.2509 12.6043 44.3002 12.2586C44.4131 11.4703 43.8147 10.3707 42.7353 9.3824C40.2268 7.08598 36.2547 6.12944 32.827 6.99637ZM40.3079 10.4149C39.8391 12.0491 38.1592 13.199 35.9412 13.4038C34.918 13.4983 34.7974 13.5485 34.8445 13.8604C34.8824 14.1114 35.1675 14.3014 35.849 14.5298C36.7518 14.8324 36.8125 14.8333 37.0334 14.5455C37.1614 14.3788 37.2687 14.1855 37.2717 14.1161C37.283 13.8611 38.3369 13.4578 38.9924 13.4578C39.7978 13.4578 40.3489 13.8037 40.7423 14.5559C41.0141 15.0754 41.0439 15.0887 41.2262 14.77C41.6937 13.9517 42.3589 13.4578 42.9934 13.4578C43.7236 13.4578 43.7555 13.3253 43.2765 12.282C42.8402 11.3316 41.9458 10.2329 41.2574 9.80183C40.64 9.41535 40.5843 9.45126 40.3079 10.4149ZM53.7339 13.4739C60.2237 14.003 68.3597 16.4882 74.2182 19.7308C79.1953 22.4856 83.0638 25.6834 85.4954 29.0532C87.9025 32.3886 88.6433 36.0026 87.4175 38.431C86.9204 39.4163 85.8298 40.653 85.4582 40.653C85.0363 40.653 85.2278 40.0481 85.8341 39.4656C87.0722 38.2762 87.5725 36.3673 87.1903 34.29C86.9583 33.0293 85.7137 30.4952 84.6213 29.0602C82.8564 26.7416 79.3767 23.6586 76.4069 21.7823C69.7183 17.5566 60.8243 14.6945 52.3946 14.0547C51.4405 13.9824 51.0283 13.8823 51.0283 13.7232C51.0283 13.4863 51.4344 13.2656 51.7921 13.3079C51.9052 13.3213 52.7791 13.3959 53.7339 13.4739ZM31.0346 13.8199C30.7835 14.1149 30.5697 14.5659 30.5595 14.8223C30.48 16.8079 31.1486 17.7686 32.7591 17.9816C33.4748 18.0763 33.4854 18.0883 33.621 18.9492C33.6966 19.4286 33.4751 20.5377 34.0192 21.1323C33.7535 21.1391 33.6045 21.1429 33.3388 21.1497C33.2503 20.7156 33.1124 20.0382 33.1124 20.0382L31.6248 20.0166C30.5683 20.0014 29.9481 19.902 29.4837 19.6737C28.8623 19.3681 28.7858 19.3667 27.9388 19.6447C26.0349 20.2702 23.1836 22.643 20.8345 25.5571L19.4425 27.2838L21.967 29.7845C23.3553 31.16 24.5845 32.2852 24.6984 32.2852C24.8122 32.2852 25.1187 32.0302 25.3796 31.7187C26.2164 30.7184 27.7915 29.1473 27.957 29.1473C28.1492 29.1473 28.257 29.4081 29.003 31.6751C29.9662 34.6026 31.4499 37.8426 33.1743 40.7837L33.6087 41.5246L36.3685 41.5218C41.9271 41.5164 48.0359 40.1715 51.3568 38.2222C52.0849 37.7949 52.1711 37.6788 52.1448 37.1622C52.1281 36.8312 51.5606 35.5084 50.8226 34.0806L49.5298 31.579L47.9873 30.7909C47.1388 30.3573 46.4447 29.9254 46.4447 29.8311C46.4447 29.3794 47.0968 29.5605 48.9662 30.5313C50.0853 31.1124 51.0666 31.5871 51.1468 31.5858C51.2272 31.5848 51.5632 31.0944 51.8938 30.4963C52.5113 29.3787 54.727 26.3143 55.0681 26.1057C55.5124 25.8342 55.1558 25.4497 53.3643 24.2679C51.4604 23.0122 47.2195 20.8502 45.7395 20.3809C44.0058 19.8311 44.0966 19.8076 43.5681 20.9461C43.0009 22.168 41.8455 23.2458 40.6178 23.6987C40.0129 23.9219 39.6087 24.2264 39.2286 24.7452C38.238 26.0973 36.6418 26.5387 35.3462 25.8187C34.6774 25.4469 34.104 24.6978 34.104 24.1957C34.104 23.7409 34.5339 23.8788 34.8699 24.4414C35.5565 25.5907 37.0499 25.8264 38.0645 24.9453C38.4072 24.6478 38.6877 24.3368 38.6877 24.2541C38.6877 24.1715 33.7585 22.4993 33.3388 21.1497C33.6045 21.1429 33.7535 21.1391 34.0192 21.1323C34.5143 21.4718 39.6025 23.4374 40.7583 22.8663C42.3465 22.0815 43.4477 20.4003 43.4477 18.7604C43.4477 18.0983 43.3965 17.9904 43.0833 17.9904C42.883 17.9904 42.4664 18.1795 42.1577 18.4105C41.4347 18.952 40.9237 19.0428 40.8408 18.6446C40.8006 18.4506 40.9289 18.2832 41.1943 18.1833C41.763 17.9696 42.1175 17.5369 41.8554 17.3767C41.7457 17.3098 41.512 17.0206 41.3357 16.734L41.0153 16.2129L40.777 16.6937C40.4064 17.4416 39.6571 17.8995 38.839 17.8784C37.8745 17.8533 37.247 17.3581 36.9248 16.3675C36.7025 15.684 36.5521 15.5116 35.9809 15.2848C35.6073 15.1366 34.9529 14.9679 34.5264 14.9102C34.1002 14.8523 33.7515 14.74 33.7515 14.6605C33.7515 14.581 33.5052 14.2386 33.2042 13.8998C32.4735 13.0768 31.6914 13.0478 31.0346 13.8199ZM37.8503 14.6072C37.2698 15.2498 37.3182 16.14 37.969 16.7835C38.5576 17.3656 38.9529 17.4184 39.5739 16.9981C40.1911 16.5804 40.2685 16.4263 40.2717 15.6089C40.2738 15.0071 40.1795 14.8045 39.7176 14.4201C39.0576 13.871 38.4615 13.9308 37.8503 14.6072ZM42.269 14.5341C41.8305 14.9415 41.7087 15.9886 42.0306 16.5834C42.242 16.9737 43.2368 17.4013 43.4369 17.1874C43.5171 17.1016 43.637 16.3843 43.7037 15.5934L43.8244 14.1551H43.2507C42.9043 14.1551 42.5154 14.3052 42.269 14.5341ZM44.384 16.0292C44.4282 16.197 44.4645 16.0597 44.4645 15.7241C44.4645 15.3885 44.4282 15.2511 44.384 15.419C44.3395 15.5869 44.3395 15.8613 44.384 16.0292ZM59.7549 17.5477C68.2492 19.8884 75.7183 23.853 80.0616 28.3268C84.5577 32.9576 85.4771 37.236 82.7207 40.6995C82.077 41.5084 81.5679 41.8088 81.2961 41.54C81.1559 41.4014 81.3022 41.1456 81.8292 40.6087C86.0847 36.2723 82.2267 29.1269 72.6372 23.5844C68.508 21.1978 63.1504 19.0635 58.5209 17.9612C56.9485 17.5868 56.4935 17.3929 56.4935 17.0975C56.4935 16.8074 57.6454 16.9664 59.7549 17.5477ZM54.8746 27.4476C53.0304 29.8692 51.9098 31.59 51.9098 32.0009C51.9098 32.044 52.6039 32.4502 53.4524 32.9036C57.462 35.0462 61.4236 38.1282 61.9595 39.5219C62.0678 39.8038 62.0725 40.3812 61.9722 41.0815C61.8296 42.0771 61.9426 43.3101 62.1996 43.5643C62.2522 43.6162 62.4718 43.2991 62.6876 42.8596C62.9036 42.4203 63.1899 42.019 63.3239 41.9683C63.6914 41.8288 64.4611 42.2906 64.9532 42.9459C65.4077 43.5512 65.5494 44.7614 65.2409 45.4034C65.1214 45.6522 65.1772 45.7085 65.5438 45.7085C66.4578 45.7085 66.7917 44.534 66.283 43.108C66.0506 42.4566 66.0524 42.3705 66.3008 42.2763C66.4533 42.2184 66.6498 42.2807 66.738 42.4144C66.8892 42.6443 66.94 42.8193 67.1644 43.8852C67.2157 44.1287 67.3347 44.2811 67.4289 44.2236C67.6923 44.0627 67.6323 42.9639 67.3041 41.9343C67.1413 41.4237 67.0585 40.956 67.1202 40.8951C67.3996 40.6186 67.7859 41.0675 68.0544 41.9807C68.2934 42.7939 68.3788 42.9203 68.5201 42.6706C68.731 42.2979 68.5656 41.0841 68.2122 40.4105C67.8636 39.7461 67.8816 39.3936 68.2605 39.4658C68.4424 39.5003 68.719 39.8981 68.9364 40.4373C69.3279 41.4083 69.54 41.4587 69.5382 40.5803C69.5354 39.0024 68.7135 37.862 66.9005 36.9199C65.7966 36.3462 65.5103 36.0823 64.3982 34.6129C62.5746 32.2031 60.1477 29.6093 58.0073 27.782C56.9776 26.903 56.0681 26.1838 55.9861 26.1838C55.9041 26.1838 55.404 26.7524 54.8746 27.4476ZM18.082 29.4524L17.1591 30.9778L17.6103 31.1422C18.0244 31.2931 18.1866 31.5803 17.9755 31.7889C17.9285 31.8355 16.8747 31.6721 15.6342 31.4256C13.4178 30.9856 13.3665 30.9649 12.7013 30.236C11.8599 29.3136 9.74062 28.2393 8.71053 28.2126C7.84828 28.1901 7.48352 28.5567 7.48352 29.446C7.48352 30.1 8.29431 31.9725 8.86392 32.6339C9.18495 33.0066 9.26622 33.0319 9.42559 32.8082C9.52802 32.6644 9.56504 32.2722 9.50792 31.9366C9.192 30.083 9.19112 30.019 9.48271 30.019C9.65231 30.019 9.82684 30.2454 9.91957 30.5855L10.0736 31.1521L10.3693 30.4675C10.5849 29.9681 10.7177 29.8351 10.8596 29.9754C11.0015 30.1157 10.996 30.4728 10.8391 31.2949C10.5243 32.9452 11.0246 33.6649 11.8909 32.8082C12.3311 32.3729 12.5961 32.3628 12.5961 32.7812C12.5961 33.5327 11.4517 34.0109 10.6269 33.604C10.321 33.4532 10.0595 33.3497 10.046 33.3741C10.0324 33.3985 9.86703 33.6537 9.67857 33.9414C9.49011 34.229 9.24048 34.6795 9.12395 34.9423C8.9362 35.366 8.95401 35.4427 9.28033 35.6154C9.49453 35.7287 9.98833 35.7666 10.4612 35.7059C11.1341 35.6194 11.4103 35.6792 12.0672 36.0535C13.7443 37.0094 15.8053 37.715 17.1797 37.8039C18.3454 37.8794 18.5947 37.8392 19.2857 37.4635C20.2185 36.9565 22.0303 35.3829 23.2809 33.9935L24.1815 32.993L21.6943 30.4857C20.3264 29.1065 19.1617 27.9668 19.1059 27.9527C19.0502 27.9386 18.5896 28.6135 18.082 29.4524ZM6.78222 31.0214C6.78733 31.6512 7.31428 32.7449 7.97891 33.5055C8.39267 33.9788 8.56033 34.0693 8.72676 33.9093C8.89423 33.748 8.7992 33.5388 8.29359 32.9547C7.93747 32.5432 7.51155 31.832 7.34707 31.3742C7.01317 30.4447 6.7764 30.2967 6.78222 31.0214ZM51.5567 33.9576C52.0346 34.8773 52.5907 36.0736 52.7922 36.6161C52.9939 37.1584 53.6312 38.5436 54.2084 39.6942C55.7892 42.8446 56.0871 44.6719 55.4325 47.2028C54.9786 48.958 54.2225 50.196 52.8308 51.4623L51.7245 52.4693L52.4311 54.0804C53.7011 56.9758 54.3423 57.7497 55.0144 57.1983C55.7208 56.6184 61.0202 47.5977 61.3442 46.4236C61.4659 45.9823 61.6508 45.4086 61.7552 45.1485C61.9072 44.7696 61.8767 44.5238 61.6015 43.9084C61.2233 43.0631 61.1383 42.0744 61.3285 40.7316C61.4475 39.8906 61.423 39.8152 60.7803 39.0452C60.0215 38.136 58.5408 36.9028 56.8514 35.7725C55.5718 34.9165 51.0195 32.2852 50.8182 32.2852C50.7465 32.2852 51.0789 33.0378 51.5567 33.9576ZM6.60205 33.2435C6.60205 33.7234 7.72293 35.0745 8.121 35.0745C8.54235 35.0745 8.38969 34.7469 7.66741 34.1017C7.28361 33.7588 6.92131 33.3275 6.86208 33.1433C6.71381 32.681 6.60205 32.724 6.60205 33.2435ZM67.972 35.9662C67.8003 36.4532 67.8259 36.5448 68.2201 36.8512C68.462 37.0393 68.7821 37.3142 68.9316 37.4621C69.0811 37.6099 69.2246 37.702 69.2505 37.6666C69.2763 37.6312 69.4709 37.376 69.6828 37.0993C69.8947 36.8226 70.0682 36.5313 70.0682 36.4518C70.0682 36.2355 68.7964 35.4231 68.4579 35.4231C68.2867 35.4231 68.0833 35.6506 67.972 35.9662ZM50.9049 39.239C47.2237 41.0548 42.8183 42.0051 37.3126 42.1709C34.9457 42.2422 33.9318 42.3318 33.9815 42.4655C34.021 42.5713 34.2329 43.2461 34.4526 43.9652C34.6722 44.6843 34.9203 45.3457 35.0037 45.4351C35.0952 45.5329 35.8524 45.2669 36.9112 44.7647C38.5282 43.9978 39.0403 43.8922 39.0403 44.3252C39.0403 44.416 38.2073 44.8999 37.1892 45.4006C36.1711 45.9013 35.3381 46.3816 35.3381 46.4677C35.3381 46.554 35.8852 47.2617 36.5537 48.0405C38.2926 50.0662 39.9452 52.5855 40.7364 54.4167L41.4203 55.9994L42.1255 55.8889C45.4765 55.364 50.4693 52.8662 52.7578 50.5701C54.9038 48.4167 55.5861 45.012 54.488 41.9346C54.2057 41.1434 52.8243 38.3867 52.71 38.3867C52.6675 38.3867 51.8552 38.7702 50.9049 39.239ZM63.0681 43.7473C62.7759 44.2987 62.375 46.3455 62.4634 46.6081C62.1099 46.3052 61.5122 47.7551 58.9147 52.1586C56.5626 56.146 55.6568 57.529 55.2183 57.8025C55.0063 57.9348 54.6921 57.9269 54.1183 57.7753C52.4375 57.3307 50.491 57.6058 48.7101 58.5395C47.2604 59.2996 45.2499 61.4018 44.4756 62.9669C42.9445 66.0625 42.7723 68.9821 43.9764 71.4335C44.9354 73.3862 46.4154 74.4759 48.5602 74.8082C52.2651 75.3824 56.1829 72.6826 58.1062 68.2301C58.66 66.9479 58.6855 66.7901 58.6912 64.623C58.6966 62.5268 58.6619 62.2825 58.2282 61.3675C57.9701 60.8234 57.4347 60.03 57.0382 59.6047C56.6416 59.1793 56.3172 58.6858 56.3172 58.508C56.3172 57.8614 56.9573 56.5416 58.7624 53.4661C59.7752 51.7402 60.8011 49.9752 61.0421 49.5437C61.6321 48.4871 62.7284 46.6956 62.4634 46.6081C62.6401 46.4768 63.2444 46.6497 63.8025 45.989C64.718 44.9055 64.8076 44.7279 64.7173 44.1772C64.6265 43.6242 64.013 42.7449 63.7177 42.7449C63.6525 42.7449 63.3602 43.1959 63.0681 43.7473ZM32.5345 47.7574C28.9534 49.7973 26.078 52.2052 25.3008 53.8147C24.7349 54.9869 24.7662 55.8845 25.4499 58.0858C25.7625 59.0925 26.5008 61.5035 27.0905 63.4434L28.1625 66.9704L28.7974 67.1043C29.1466 67.1778 30.4636 67.238 31.7241 67.238C34.1081 67.238 36.0059 66.927 36.1677 66.51C36.4341 65.8233 35.178 60.875 34.2534 58.9682C33.5958 57.6123 33.5633 57.4794 33.8407 57.279C34.2872 56.9561 37.8648 56.15 39.3416 56.0397C40.0485 55.9867 40.627 55.9075 40.627 55.8636C40.627 55.8197 40.3107 55.1164 39.9242 54.3009C38.9283 52.1992 37.7272 50.4936 34.9506 47.2372C34.7274 46.9753 34.4885 46.7597 34.42 46.7578C34.3512 46.756 33.5029 47.2058 32.5345 47.7574ZM50.1062 53.4429C47.4171 55.1417 44.5227 56.2255 41.5966 56.6292C40.53 56.7764 39.6297 56.9237 39.5958 56.9565C39.469 57.0795 40.5118 58.7759 40.9965 59.2349C41.4936 59.706 41.5132 59.7091 42.5179 59.4901C43.9854 59.1703 45.4953 58.6328 46.6152 58.0321C47.7133 57.4428 50.2757 55.7287 51.193 54.9697L51.7984 54.4686L51.4869 53.6624C51.3157 53.2189 51.144 52.8559 51.1054 52.8559C51.0668 52.8559 50.6172 53.12 50.1062 53.4429ZM50.2955 56.5104C48.2246 58.0364 45.7138 59.339 43.8884 59.8339C43.1127 60.0443 42.3756 60.2457 42.2503 60.2816C42.1052 60.3231 42.3562 60.7584 42.9431 61.4825C43.4493 62.1071 43.9101 62.6183 43.967 62.6183C44.024 62.6183 44.324 62.199 44.634 61.6869C45.3739 60.4636 47.3512 58.6483 48.6244 58.0237C49.865 57.4149 51.2203 57.0447 52.2183 57.0419C52.6303 57.0407 52.9676 56.9967 52.9676 56.9439C52.9676 56.6932 52.1411 55.2965 51.9927 55.2965C51.9652 55.2965 51.2013 55.8427 50.2955 56.5104ZM53.9372 58.2383C56.3218 58.8647 58.072 61.1069 58.362 63.9073C58.7506 67.6574 56.2639 71.9649 52.7068 73.7033C51.3949 74.3444 51.2418 74.3781 49.6226 74.3818C48.0726 74.3851 47.8252 74.3382 46.8835 73.8619C42.5699 71.6811 42.5167 64.6881 46.7819 60.5264C48.4451 58.9034 49.8937 58.2315 51.8911 58.1564C52.7257 58.125 53.6463 58.1619 53.9372 58.2383ZM52.3067 58.7778C52.1207 59.0723 52.1441 59.1502 52.4706 59.323C52.7857 59.4896 52.8921 59.4697 53.0859 59.2076C53.4563 58.7067 53.4106 58.6342 52.6134 58.4546C52.5639 58.4435 52.4258 58.589 52.3067 58.7778ZM51.578 58.7958C51.8234 58.9457 52.0861 58.8523 52.0861 58.6148C52.0861 58.5336 51.9208 58.5099 51.7185 58.562C51.4508 58.6314 51.4125 58.6947 51.578 58.7958ZM53.3893 59.0881C53.0642 59.5116 53.0878 59.7105 53.4924 59.9605C53.8006 60.1507 53.873 60.1146 54.1167 59.6486C54.2683 59.3587 54.3448 59.0453 54.2866 58.9523C54.1186 58.6837 53.6447 58.7554 53.3893 59.0881ZM50.6758 59.3726C50.6758 59.4816 50.8321 59.6674 51.0231 59.7853C51.3208 59.9692 51.3996 59.946 51.5743 59.6232C51.7425 59.3123 51.723 59.2065 51.4619 59.0177C51.125 58.7742 50.6758 58.9769 50.6758 59.3726ZM50.152 58.9506C50.0094 59.0399 49.9464 59.1659 50.0122 59.2309C50.1735 59.3904 50.6758 59.1875 50.6758 58.9628C50.6758 58.7414 50.4933 58.7372 50.152 58.9506ZM54.2776 59.6779C54.0419 60.1285 54.0335 60.2499 54.2292 60.3724C54.6457 60.6336 54.891 60.5392 55.1667 60.0121C55.4135 59.5404 55.4102 59.483 55.1272 59.32C54.6634 59.0529 54.5879 59.0847 54.2776 59.6779ZM51.7644 59.6707C51.5664 59.984 51.5791 60.0691 51.8541 60.2753C52.2781 60.5931 52.3155 60.5872 52.5842 60.1617C52.7821 59.8484 52.7694 59.7633 52.4944 59.5571C52.0704 59.2393 52.033 59.2452 51.7644 59.6707ZM49.2839 59.6204C49.1533 59.862 49.1965 59.9858 49.4702 60.1549C49.7719 60.341 49.8639 60.3262 50.0693 60.0585C50.3738 59.6612 50.3806 59.5323 50.1028 59.4215C49.6804 59.2529 49.453 59.3081 49.2839 59.6204ZM55.087 60.651C55.0849 60.7674 55.2391 60.9453 55.4297 61.0462C55.7225 61.2012 55.8165 61.1525 56.0369 60.7312C56.2712 60.283 56.2677 60.2035 56.002 59.9406C55.7255 59.6673 55.6866 59.6739 55.3987 60.0438C55.2295 60.2612 55.0891 60.5345 55.087 60.651ZM52.7187 60.6499C53.0018 61.0936 53.2749 61.1102 53.4984 60.697C53.665 60.3891 53.6439 60.2818 53.3782 60.0869C52.9373 59.7635 52.4297 60.1969 52.7187 60.6499ZM50.2444 60.1296C50.1707 60.3192 50.2442 60.5141 50.4437 60.6585C50.7108 60.8516 50.7937 60.841 50.9792 60.5901C51.1406 60.3719 51.1472 60.2321 51.0038 60.0612C50.7338 59.7394 50.3835 59.771 50.2444 60.1296ZM47.9853 60.0731C47.7105 60.2795 47.7054 60.3311 47.9413 60.5248C48.1539 60.6993 48.261 60.6996 48.4721 60.5264C49.0801 60.0274 48.6187 59.5979 47.9853 60.0731ZM48.7245 60.5485C48.5174 60.9313 48.7219 61.2148 49.2095 61.221C49.5302 61.2251 49.6971 60.5089 49.4165 60.3328C49.0567 60.1074 48.9442 60.1425 48.7245 60.5485ZM51.2191 60.674C51.0992 60.8954 51.1082 61.0586 51.2482 61.197C51.5315 61.4771 51.7446 61.4482 52.014 61.0929C52.221 60.8199 52.2414 60.8421 52.2097 61.304C52.167 61.9266 52.6682 62.1255 52.9531 61.599C53.1141 61.3016 53.0397 61.197 52.392 60.8108C51.4892 60.2725 51.4395 60.2666 51.2191 60.674ZM56.1471 60.8635C55.8997 61.3206 55.9094 61.3565 56.3396 61.5842C56.6317 61.7388 56.7523 61.7304 56.8852 61.5467C57.0155 61.3663 57.0328 61.3813 56.9586 61.6103C56.8651 61.8988 57.1288 62.2224 57.3108 62.0425C57.4397 61.915 56.6934 60.5264 56.4961 60.5264C56.4045 60.5264 56.2476 60.678 56.1471 60.8635ZM53.708 60.7355C53.4083 61.0319 53.4436 61.1834 53.8635 61.4057C54.1618 61.5636 54.2746 61.5402 54.4659 61.2815C54.8675 60.7387 54.195 60.254 53.708 60.7355ZM46.9736 61.2226C46.9736 61.2883 47.1703 61.4308 47.411 61.539C47.7895 61.7097 47.8755 61.686 48.0504 61.3629C48.2164 61.056 48.1958 60.9489 47.9337 60.7594C47.665 60.5652 47.565 60.5741 47.2944 60.8162C47.118 60.9742 46.9736 61.1571 46.9736 61.2226ZM49.6964 61.0797C49.6118 61.3434 49.6707 61.5279 49.8904 61.6869C50.1615 61.8828 50.2431 61.8628 50.469 61.5437C50.7066 61.2083 50.7006 61.1497 50.4057 60.9365C49.9595 60.6139 49.838 60.6384 49.6964 61.0797ZM58.9131 61.6762C59.1561 62.2121 59.2197 62.8202 59.212 64.5359C59.2019 66.8034 59.0653 67.4295 58.1757 69.2863C57.9576 69.7418 57.827 70.1144 57.8855 70.1144C57.944 70.1144 58.618 69.7176 59.3833 69.2328C61.0907 68.1511 62.3913 66.8457 63.1514 65.4509L63.7272 64.3945L61.8169 62.9999C59.8401 61.5568 58.7532 60.8485 58.6589 60.9418C58.6289 60.9716 58.7434 61.3021 58.9131 61.6762ZM54.5985 61.3928C54.4125 61.6872 54.4359 61.7651 54.7624 61.9379C55.0785 62.1052 55.1841 62.0841 55.3837 61.8143C55.591 61.534 55.5822 61.459 55.3199 61.2693C54.9171 60.978 54.8536 60.9888 54.5985 61.3928ZM48.0313 61.7738C48.0313 61.8479 48.1778 61.9862 48.3569 62.081C48.9659 62.4033 49.38 61.5809 48.7806 61.2397C48.55 61.1084 48.4164 61.1367 48.2517 61.3516C48.1304 61.5096 48.0313 61.6996 48.0313 61.7738ZM50.4995 61.9482C50.4995 62.0223 50.646 62.1605 50.8251 62.2553C51.434 62.5777 51.8481 61.7552 51.2487 61.414C51.0181 61.2828 50.8845 61.311 50.7198 61.5259C50.5985 61.6839 50.4995 61.8739 50.4995 61.9482ZM52.9676 62.0868C52.9676 62.1411 53.124 62.2824 53.3149 62.4002C53.6126 62.5841 53.6915 62.5609 53.8662 62.2381C54.0354 61.9255 54.0141 61.8211 53.7412 61.6237C53.4577 61.4187 53.3819 61.4275 53.1901 61.6869C53.0677 61.8523 52.9676 62.0322 52.9676 62.0868ZM46.2042 61.9593C46.27 62.0646 46.3719 62.0397 46.4641 61.896C46.7049 61.52 46.6451 61.3354 46.3585 61.5707C46.2141 61.6893 46.1446 61.8641 46.2042 61.9593ZM55.6 61.9431C55.3939 62.3238 55.5969 62.6092 56.078 62.6157C56.3807 62.6197 56.5275 62.0845 56.2987 61.8117C56.0182 61.4775 55.8331 61.5124 55.6 61.9431ZM46.6249 61.9137C46.4741 62.1924 46.5108 62.2923 46.8251 62.4588C47.1444 62.6277 47.2496 62.609 47.4415 62.3496C47.6121 62.1188 47.6216 61.9759 47.4779 61.8045C47.1987 61.4719 46.8391 61.5179 46.6249 61.9137ZM51.5789 62.2187C51.4065 62.5465 51.4314 62.6327 51.7457 62.7991C52.0466 62.9582 52.1603 62.9354 52.3595 62.6756C52.5739 62.396 52.5582 62.3188 52.2319 62.0474C52.0272 61.8772 51.8421 61.7595 51.8206 61.7859C51.7989 61.8122 51.6902 62.0071 51.5789 62.2187ZM49.093 62.088C48.9423 62.3667 48.9789 62.4666 49.2933 62.6331C49.6125 62.802 49.7178 62.7834 49.9096 62.524C50.0802 62.2932 50.0898 62.1502 49.9461 61.9789C49.6668 61.6462 49.3072 61.6923 49.093 62.088ZM54.0945 62.226C53.7733 62.6444 53.7888 62.7095 54.2586 62.9211C54.598 63.074 54.7059 63.0463 54.8873 62.7588C55.0713 62.4675 55.0551 62.3735 54.7863 62.172C54.3758 61.8643 54.372 61.8647 54.0945 62.226ZM56.5196 62.4673C56.3237 62.7776 56.3239 62.8639 56.5213 62.9877C56.9007 63.2255 57.1729 63.1658 57.3698 62.8018C57.5142 62.5353 57.4873 62.4244 57.244 62.2843C56.8166 62.0383 56.7858 62.046 56.5196 62.4673ZM47.5836 62.4657C47.4656 62.8336 47.7152 63.1329 48.1447 63.1387C48.4474 63.1427 48.5942 62.6075 48.3654 62.3347C48.0708 61.9837 47.7195 62.0425 47.5836 62.4657ZM50.0746 62.5533C49.9496 62.8754 50.2514 63.3156 50.5973 63.3156C50.9354 63.3156 51.1179 62.6073 50.8268 62.4248C50.4605 62.1954 50.1959 62.2405 50.0746 62.5533ZM45.6274 62.9141C45.6997 62.9856 45.8324 62.9286 45.9227 62.7876C46.1942 62.3631 46.1127 62.1746 45.7942 62.4896C45.6302 62.6518 45.5551 62.8428 45.6274 62.9141ZM54.9068 63.1685C54.9068 63.2426 55.0622 63.3855 55.252 63.4861C55.5339 63.6351 55.6349 63.5989 55.8033 63.288C55.975 62.9706 55.9547 62.8679 55.6804 62.6697C55.3969 62.4647 55.3211 62.4734 55.1293 62.7328C55.007 62.8983 54.9068 63.0942 54.9068 63.1685ZM52.5427 62.7276C52.4318 63.0131 52.7072 63.4899 52.9829 63.4899C53.0647 63.4899 53.2218 63.3231 53.3322 63.1191C53.4887 62.8299 53.4804 62.7154 53.2943 62.5988C52.9286 62.3697 52.664 62.415 52.5427 62.7276ZM46.1229 62.8086C45.925 63.1219 45.9377 63.207 46.2127 63.4132C46.6367 63.731 46.674 63.7251 46.9427 63.2996C47.1407 62.9863 47.128 62.9012 46.853 62.695C46.429 62.3772 46.3916 62.3831 46.1229 62.8086ZM48.5911 62.983C48.3931 63.2962 48.4058 63.3813 48.6808 63.5877C48.9606 63.7974 49.0403 63.7816 49.3121 63.462C49.6094 63.1125 49.6094 63.086 49.3121 62.8629C48.898 62.5522 48.859 62.5587 48.5911 62.983ZM51.0164 63.1634C50.8598 63.4526 50.8681 63.5671 51.0543 63.6838C51.4356 63.9226 51.7076 63.8637 51.9047 63.4992C52.0491 63.2326 52.0221 63.1217 51.7788 62.9816C51.3347 62.7258 51.2411 62.7482 51.0164 63.1634ZM57.4536 63.4748C57.6562 63.7988 57.8756 63.6826 57.7755 63.3041C57.7134 63.0691 57.6204 63.0032 57.5077 63.1146C57.4129 63.2084 57.3885 63.3705 57.4536 63.4748ZM53.5063 63.2973C53.2934 63.6907 53.6841 64.1128 54.1112 63.9507C54.4331 63.8286 54.4663 63.2056 54.1576 63.0823C53.7757 62.93 53.6899 62.9584 53.5063 63.2973ZM47.1439 63.3267C46.9993 63.5938 47.0032 63.7511 47.1592 63.9369C47.4476 64.2805 47.6319 64.251 47.8628 63.8243C48.0223 63.5295 47.9987 63.416 47.7367 63.2197C47.3284 62.9138 47.3716 62.9059 47.1439 63.3267ZM55.9646 63.4028C55.7895 63.6114 55.7895 63.7171 55.9646 63.9257C56.2527 64.269 56.4919 64.2561 56.768 63.8827C57.1856 63.318 56.4198 62.8604 55.9646 63.4028ZM49.6252 64.1423C49.8278 64.2824 50.0108 64.3696 50.0319 64.3358C50.0531 64.3019 50.1786 64.1346 50.311 63.9639C50.5194 63.6951 50.5067 63.6196 50.217 63.4028C49.9188 63.1793 49.8486 63.192 49.5699 63.5197C49.2687 63.8736 49.2709 63.8966 49.6252 64.1423ZM45.0343 63.8719C45.0343 64.1215 45.3457 64.022 45.4562 63.7371C45.6489 63.2405 45.5574 63.047 45.2931 63.3925C45.1508 63.5787 45.0343 63.7943 45.0343 63.8719ZM51.9359 63.6876C51.7401 63.9979 51.7402 64.0842 51.9377 64.208C52.2918 64.4299 52.5455 64.3929 52.8072 64.0812C53.0071 63.8429 52.9919 63.7643 52.7068 63.5583C52.2665 63.2398 52.2131 63.2488 51.9359 63.6876ZM54.4222 63.8333C54.2362 64.1278 54.2597 64.2057 54.5862 64.3785C54.9023 64.5458 55.0079 64.5247 55.2074 64.2549C55.4147 63.9746 55.4059 63.8996 55.1436 63.7099C54.7408 63.4186 54.6773 63.4294 54.4222 63.8333ZM48.1251 64.4743C48.5713 64.797 48.6928 64.7725 48.8344 64.3312C48.919 64.0675 48.8601 63.883 48.6404 63.724C48.3693 63.5281 48.2877 63.5481 48.0618 63.8672C47.8242 64.2026 47.8302 64.2611 48.1251 64.4743ZM45.5555 63.8529C45.3959 64.1478 45.4195 64.2603 45.6815 64.4536C45.9634 64.6616 46.0411 64.6436 46.3001 64.3117C46.5129 64.0385 46.5441 63.8698 46.4107 63.711C46.1356 63.3831 45.7776 63.4425 45.5555 63.8529ZM56.8903 64.0077C56.7043 64.3021 56.7278 64.38 57.0543 64.5528C57.3686 64.7191 57.4756 64.6998 57.6666 64.4416C57.8372 64.2108 57.8467 64.0678 57.703 63.8965C57.428 63.5689 57.1428 63.6079 56.8903 64.0077ZM50.3232 64.3888C50.3232 64.4628 50.4697 64.6011 50.6488 64.6959C51.2577 65.0183 51.6718 64.1958 51.0724 63.8546C50.8418 63.7233 50.7082 63.7516 50.5435 63.9665C50.4222 64.1245 50.3232 64.3145 50.3232 64.3888ZM52.7913 64.5631C52.7913 64.6372 52.9466 64.7801 53.1365 64.8807C53.4184 65.0298 53.5194 64.9935 53.6878 64.6827C53.8595 64.3652 53.8392 64.2625 53.5649 64.0643C53.2814 63.8593 53.2056 63.868 53.0138 64.1274C52.8914 64.2929 52.7913 64.4888 52.7913 64.5631ZM55.2594 64.7374C55.2594 64.8115 55.4147 64.9544 55.6046 65.055C55.8865 65.2041 55.9875 65.1678 56.1559 64.857C56.3276 64.5396 56.3073 64.4369 56.033 64.2387C55.7495 64.0337 55.6737 64.0424 55.4819 64.3018C55.3596 64.4672 55.2594 64.6631 55.2594 64.7374ZM46.4903 64.3539C46.3072 64.6441 46.3327 64.735 46.6626 64.9635C47.0229 65.213 47.0652 65.2044 47.2674 64.8403C47.4489 64.5132 47.437 64.4128 47.1955 64.2308C46.8112 63.9414 46.7435 63.9533 46.4903 64.3539ZM48.9273 64.5092C48.8074 64.7306 48.8164 64.8938 48.9564 65.0322C49.258 65.3305 49.582 65.2766 49.7892 64.8938C49.9336 64.6272 49.9066 64.5164 49.6633 64.3762C49.2273 64.1252 49.1251 64.1436 48.9273 64.5092ZM53.8827 64.7941C53.7114 65.1659 53.7343 65.2534 54.0458 65.4183C54.245 65.5238 54.4238 65.5841 54.443 65.5524C54.462 65.5207 54.586 65.3549 54.7184 65.1842C54.9268 64.9154 54.9141 64.8399 54.6244 64.6232C54.1697 64.2828 54.1121 64.296 53.8827 64.7941ZM51.3848 64.7029C51.235 64.9801 51.2695 65.081 51.5694 65.2396C51.8705 65.399 51.9821 65.3763 52.1741 65.1167C52.3398 64.8927 52.3551 64.7336 52.2263 64.58C51.958 64.2603 51.5958 64.3131 51.3848 64.7029ZM56.5294 65.5568C56.8311 65.7656 56.9076 65.7663 57.0389 65.5615C57.2769 65.1898 57.2283 64.9184 56.8901 64.731C56.6499 64.5979 56.5365 64.6431 56.3782 64.9354C56.2074 65.2505 56.2317 65.3505 56.5294 65.5568ZM47.5377 64.7451C47.2338 65.0456 47.2761 65.2926 47.6735 65.5381C47.9696 65.721 48.0493 65.6999 48.2147 65.3946C48.358 65.1296 48.3538 64.9715 48.1983 64.7862C47.9423 64.4813 47.8127 64.4731 47.5377 64.7451ZM50.0058 64.9194C49.8895 65.0345 49.7943 65.2222 49.7943 65.3366C49.7943 65.6756 50.3634 65.7911 50.6479 65.5099C50.8632 65.297 50.8695 65.2025 50.6832 64.9804C50.4103 64.6555 50.2842 64.6441 50.0058 64.9194ZM63.7225 65.8507C63.1082 67.0337 60.8797 69.1988 59.4343 70.0169C58.636 70.4688 58.3104 70.7397 58.4646 70.8237C58.9921 71.1105 63.967 72.7291 64.3146 72.727C64.8668 72.7239 66.7156 71.7518 67.3947 71.1077C68.0988 70.44 68.7567 69.3592 68.914 68.6119C69.0251 68.0831 68.9787 68.0345 67.2124 66.8311C66.2135 66.1507 65.198 65.4361 64.9556 65.2433C64.7132 65.0505 64.4359 64.917 64.3395 64.9464C64.2431 64.9761 63.9654 65.3829 63.7225 65.8507ZM52.3435 65.255C52.2689 65.4874 52.3139 65.6812 52.4639 65.7752C52.7714 65.9676 52.9838 65.8967 53.2195 65.5229C53.3628 65.2954 53.3447 65.1832 53.1439 65.0566C52.725 64.7925 52.4718 64.8553 52.3435 65.255ZM46.3576 65.2342C46.5335 65.4267 46.7243 65.5379 46.7812 65.4814C46.8382 65.4251 46.731 65.2677 46.5429 65.1317C46.0598 64.7826 45.983 64.8251 46.3576 65.2342ZM44.9472 65.2342C45.1232 65.4267 45.3055 65.5461 45.3522 65.4999C45.4707 65.3828 45.031 64.8845 44.8092 64.8845C44.7091 64.8845 44.7711 65.042 44.9472 65.2342ZM54.8116 65.4293C54.7371 65.6617 54.782 65.8555 54.932 65.9497C55.2645 66.158 55.3606 66.143 55.612 65.8433C55.7871 65.6347 55.7871 65.529 55.612 65.3204C55.3003 64.949 54.9506 64.9966 54.8116 65.4293ZM48.4777 66.0433C48.9239 66.366 49.0454 66.3414 49.1869 65.9002C49.2716 65.6364 49.2127 65.452 48.993 65.293C48.7219 65.097 48.6403 65.1171 48.4144 65.4361C48.1768 65.7715 48.1828 65.8301 48.4777 66.0433ZM57.2172 65.5475C57.0881 65.7862 57.1266 65.911 57.3771 66.0656C57.6526 66.2358 57.7251 66.2129 57.8168 65.9272C58.0225 65.2865 57.528 64.9735 57.2172 65.5475ZM50.8401 65.604C50.6835 65.8932 50.6918 66.0077 50.878 66.1244C51.2445 66.354 51.5084 66.3079 51.6307 65.9927C51.6917 65.8352 51.791 65.7548 51.8509 65.8142C51.9109 65.8735 51.8576 66.0442 51.7325 66.1932C51.5426 66.4195 51.5604 66.506 51.8397 66.7148C52.2899 67.052 52.3927 67.0385 52.6231 66.6128C52.8491 66.1953 52.8315 66.1702 51.9491 65.6518C51.1137 65.1609 51.0807 65.1595 50.8401 65.604ZM53.0612 66.2311C52.6275 66.9984 52.6164 67.0694 52.8994 67.2741C53.1229 67.4357 53.265 67.4426 53.4379 67.3009C53.7629 67.0342 53.7315 66.6789 53.3643 66.4674C53.1947 66.3696 53.1391 66.2874 53.2408 66.2844C53.3426 66.2816 53.512 66.3642 53.6171 66.4681C53.7544 66.6039 53.8884 66.544 54.0931 66.2551C54.2498 66.0339 54.3779 65.9443 54.3779 66.0557C54.3779 66.1673 54.2986 66.3071 54.2017 66.3663C53.9169 66.5403 53.9968 66.7333 54.4349 66.9306C54.7758 67.0844 54.8823 67.0554 55.0703 66.7579C55.2554 66.4646 55.2531 66.375 55.0574 66.2596C54.926 66.1821 54.5807 65.9645 54.2898 65.7759C53.9989 65.5873 53.7082 65.4272 53.6437 65.4202C53.5793 65.4133 53.3172 65.7782 53.0612 66.2311ZM47.2276 66.0294C47.6403 66.3306 47.855 66.348 47.855 66.0804C47.855 65.7583 47.2646 65.4047 47.0617 65.6054C46.9441 65.7215 46.9995 65.8629 47.2276 66.0294ZM44.3464 65.9565C44.1243 66.5867 44.0888 67.4995 44.2866 67.4995C44.3603 67.4995 44.5243 67.3354 44.6509 67.1348C44.8487 66.8217 44.836 66.7342 44.5611 66.5157C44.2592 66.2757 44.263 66.2671 44.6269 66.3656C45.0994 66.4938 45.4978 65.9356 45.1671 65.6085C44.8222 65.2676 44.5485 65.3836 44.3464 65.9565ZM55.5163 66.3947C55.0586 67.1672 55.0505 67.219 55.3529 67.4377C55.5879 67.6075 55.7328 67.6175 55.9061 67.4752C56.2238 67.2144 56.2014 66.9747 55.8324 66.688C55.5538 66.4714 55.5693 66.4584 55.9921 66.5527C56.3697 66.6372 56.4841 66.583 56.5839 66.2722C56.6634 66.0241 56.6224 65.8336 56.4683 65.737C56.0848 65.4968 56.0233 65.5393 55.5163 66.3947ZM49.3691 66.4028C49.6522 66.8464 49.9253 66.863 50.1488 66.4498C50.3154 66.142 50.2943 66.0346 50.0286 65.8397C49.5877 65.5163 49.0801 65.9497 49.3691 66.4028ZM45.4222 66.1397C45.1182 66.4402 45.1606 66.6873 45.5579 66.9327C45.8541 67.1156 45.9338 67.0945 46.0991 66.7892C46.2425 66.5243 46.2382 66.3662 46.0827 66.1809C45.8268 65.876 45.6972 65.8678 45.4222 66.1397ZM56.7479 66.4094C56.4822 66.7687 56.7151 67.1508 57.1997 67.1508C57.6237 67.1508 57.7762 66.4997 57.4026 66.284C57.0121 66.0586 57.0065 66.0597 56.7479 66.4094ZM47.9074 66.3852C47.8757 66.4793 48.2404 66.7652 48.718 67.0202C49.423 67.3966 49.6046 67.4367 49.6837 67.2329C49.7922 66.9535 49.1845 66.549 48.9091 66.7173C48.8143 66.7753 48.7365 66.707 48.7365 66.5654C48.7365 66.1489 48.0384 65.9969 47.9074 66.3852ZM50.2444 66.5797C50.1712 66.768 50.2426 66.9632 50.4355 67.1027C50.8609 67.4102 50.9859 67.3834 51.1235 66.9547C51.3157 66.356 50.4709 65.9955 50.2444 66.5797ZM45.7517 68.2984C46.0385 68.6403 46.3209 68.6071 46.5767 68.202C46.762 67.9088 46.7402 67.8302 46.4278 67.6649C46.2266 67.5584 46.1064 67.4271 46.1608 67.3732C46.2153 67.3196 46.3833 67.3767 46.5341 67.5005C46.7629 67.6883 46.8503 67.6707 47.0617 67.3945C47.2879 67.0994 47.2745 67.0298 46.938 66.75C46.566 66.4408 46.5538 66.4476 46.0526 67.2439C45.6507 67.8826 45.5877 68.103 45.7517 68.2984ZM51.2085 67.1435C51.0578 67.4222 51.0945 67.5221 51.4088 67.6886C51.7281 67.8575 51.8333 67.8389 52.0251 67.5795C52.1958 67.3487 52.2053 67.2057 52.0616 67.0344C51.7824 66.7017 51.4227 66.7478 51.2085 67.1435ZM44.852 67.162C44.7075 67.429 44.7114 67.5863 44.8674 67.7721C45.1558 68.1157 45.34 68.0862 45.571 67.6595C45.7305 67.3647 45.7069 67.2512 45.4449 67.0549C45.0366 66.749 45.0798 66.7411 44.852 67.162ZM53.6766 67.3178C53.5268 67.595 53.5614 67.6959 53.8612 67.8546C54.1623 68.0139 54.2739 67.9912 54.4659 67.7317C54.6316 67.5077 54.647 67.3485 54.5181 67.1949C54.2498 66.8752 53.8877 66.928 53.6766 67.3178ZM56.1448 67.4921C55.9955 67.7681 56.0288 67.8697 56.3186 68.0231C56.5157 68.1276 56.7671 68.1579 56.8769 68.0908C56.9994 68.0158 57.0282 68.0465 56.951 68.1698C56.8819 68.2805 56.912 68.3711 57.018 68.3711C57.2251 68.3711 57.19 67.7263 56.9635 67.3687C56.7578 67.0443 56.3544 67.1051 56.1448 67.4921ZM50.0682 67.7486C50.2969 67.9156 50.47 67.9409 50.5876 67.8246C50.7052 67.7085 50.6495 67.5669 50.4208 67.3999C50.192 67.2329 50.0189 67.2076 49.9013 67.3239C49.7839 67.44 49.8394 67.5816 50.0682 67.7486ZM47.2474 67.4513C47.174 67.64 47.2459 67.8352 47.4407 67.9759C47.698 68.1621 47.7972 68.1535 48.0234 67.9264C48.2693 67.679 48.2625 67.6281 47.9536 67.4017C47.5106 67.0769 47.3893 67.0854 47.2474 67.4513ZM52.1748 67.6722C52.1134 67.8631 52.1231 68.115 52.1961 68.2318C52.2693 68.3488 52.0248 68.2669 51.6528 68.0498C51.193 67.7817 50.9189 67.7123 50.7967 67.8331C50.6192 68.0087 50.8499 68.1698 51.4113 68.2621C51.54 68.2834 51.8289 68.4004 52.0533 68.5222C52.3527 68.6851 52.5235 68.6929 52.6954 68.5519C53.0772 68.2384 53.1418 67.6907 52.819 67.5043C52.3952 67.2598 52.2991 67.2849 52.1748 67.6722ZM34.2803 67.7918C32.9403 68.0521 29.4594 68.0235 28.7447 67.7463C28.3385 67.5887 28.3341 67.5657 29.3837 71.21L30.1261 73.7876L31.0132 74.0334C31.5012 74.1687 32.343 74.3302 32.8843 74.3924C33.9103 74.5102 36.3262 74.2273 37.0402 73.9057C37.533 73.6836 37.5585 73.3086 37.2054 71.4841C37.069 70.7787 36.8613 69.6132 36.7439 68.8941C36.4867 67.319 36.4574 67.2624 35.9793 67.4149C35.7722 67.481 35.0076 67.6506 34.2803 67.7918ZM54.5985 67.8429C54.413 68.1366 54.4354 68.2149 54.7529 68.383C55.0465 68.5383 55.1813 68.5229 55.3971 68.3097C55.6217 68.0876 55.6298 67.9921 55.4431 67.7697C55.1374 67.4055 54.8594 67.4296 54.5985 67.8429ZM48.3235 68.4998C48.7291 68.7932 48.9017 68.7771 49.0352 68.433C49.1037 68.2562 49.0179 68.0535 48.8113 67.9041C48.5191 67.6928 48.4469 67.7013 48.2476 67.9708C48.0555 68.2308 48.0675 68.3148 48.3235 68.4998ZM44.2034 68.205C44.161 68.8045 44.5319 69.0599 44.9485 68.7178C45.324 68.4096 45.2758 68.2428 44.7258 67.9478C44.4591 67.8047 44.241 67.6811 44.241 67.6811C44.241 67.6811 44.2241 67.9133 44.2034 68.205ZM52.9676 68.5726C52.9676 68.6467 53.1181 68.7872 53.3022 68.8845C53.5716 69.0271 53.6897 68.9818 53.9087 68.6512C54.1629 68.2676 54.1555 68.2292 53.7944 68.0618C53.4958 67.9234 53.3584 67.9457 53.188 68.1603C53.0667 68.3129 52.9676 68.4984 52.9676 68.5726ZM55.6182 68.3596C55.3647 68.8282 55.3693 68.8371 55.9849 69.0492C56.5539 69.2454 56.8461 69.1821 56.8461 68.8625C56.8461 68.7527 56.7246 68.7748 56.5487 68.9164C56.2862 69.1275 56.2657 69.1172 56.3754 68.8284C56.4974 68.5071 56.2412 68.0224 55.9493 68.0224C55.8675 68.0224 55.7187 68.1741 55.6182 68.3596ZM46.6991 68.327C46.2709 68.9063 47.0508 69.3451 47.5183 68.7881C47.7182 68.5498 47.7031 68.4712 47.418 68.2651C46.9933 67.9579 46.9706 67.9599 46.6991 68.327ZM49.1702 68.5672C49.0956 68.7996 49.1406 68.9934 49.2906 69.0876C49.624 69.2964 49.719 69.2809 49.9752 68.9758C50.1604 68.7551 50.1412 68.6655 49.8644 68.4584C49.4108 68.1188 49.3091 68.1347 49.1702 68.5672ZM69.5354 68.7633C69.5294 69.3798 68.947 70.4775 68.1639 71.349C67.4767 72.1136 65.5244 73.2523 64.9003 73.2523C64.4548 73.2523 64.3834 73.5591 64.6182 74.4651C64.9116 75.5973 64.6002 76.0996 63.3833 76.457C62.1614 76.8159 61.8121 77.0308 61.4209 77.6652C60.9631 78.4077 60.9774 79.2483 61.4555 79.6888C61.9683 80.1612 62.8941 80.2705 65.7751 80.1989C68.9052 80.1211 69.5758 79.8515 70.3832 78.3463C71.2254 76.7763 72.8316 72.9247 73.1435 71.7273C73.4003 70.7414 73.4014 70.5887 73.1544 70.1165C72.8115 69.4608 72.2865 69.1188 70.9973 68.7114C69.6701 68.292 69.54 68.2965 69.5354 68.7633ZM54.1935 69.3111C54.4742 69.435 54.6433 69.4036 54.8622 69.1873C55.1353 68.9171 55.132 68.88 54.8108 68.6397C54.4991 68.4067 54.4351 68.4185 54.1419 68.7637C53.8253 69.1364 53.8265 69.1493 54.1935 69.3111ZM45.0343 69.0956C45.0343 69.1697 45.1896 69.3126 45.3795 69.4132C45.6614 69.5623 45.7624 69.526 45.9308 69.2152C46.1025 68.8977 46.0822 68.7951 45.8079 68.5969C45.5244 68.3918 45.4486 68.4006 45.2568 68.66C45.1345 68.8254 45.0343 69.0213 45.0343 69.0956ZM47.671 68.9084C47.5113 69.2033 47.5349 69.3149 47.7965 69.5041C48.023 69.6679 48.184 69.6831 48.3393 69.5557C48.6514 69.2996 48.6133 68.942 48.2517 68.7337C47.8529 68.5041 47.897 68.4909 47.671 68.9084ZM50.1714 69.5335C50.4415 69.8553 50.7918 69.8238 50.9309 69.4652C51.0045 69.2755 50.931 69.0806 50.7315 68.9363C50.4644 68.7431 50.3815 68.7537 50.1961 69.0046C50.0346 69.2229 50.0281 69.3627 50.1714 69.5335ZM55.0687 69.6468C55.3053 69.8808 56.3172 69.966 56.3172 69.7519C56.3172 69.6524 56.2379 69.6193 56.1409 69.6786C56.0439 69.7378 55.9646 69.6923 55.9646 69.5773C55.9646 69.4624 55.8257 69.2652 55.6561 69.1392C55.3962 68.9462 55.3127 68.9554 55.1265 69.1978C54.9909 69.3742 54.9687 69.548 55.0687 69.6468ZM45.9214 69.6289C45.9183 69.6974 46.081 69.8409 46.2828 69.9477C46.581 70.1055 46.6957 70.0821 46.8944 69.8231C47.1088 69.5436 47.0933 69.4662 46.7691 69.1965C46.4156 68.9026 46.3888 68.9026 46.1631 69.1965C46.0332 69.3658 45.9244 69.5604 45.9214 69.6289ZM44.2283 69.5499C44.287 69.6078 44.4323 69.5591 44.5509 69.4418C44.7214 69.2732 44.7115 69.1939 44.504 69.0658C44.3166 68.95 44.2239 68.9811 44.1814 69.1739C44.1484 69.3226 44.1696 69.4918 44.2283 69.5499ZM48.5911 69.4331C48.3931 69.7464 48.4058 69.8314 48.6808 70.0377C49.1048 70.3555 49.1422 70.3495 49.4108 69.924C49.6088 69.6107 49.5961 69.5257 49.3211 69.3194C48.8971 69.0016 48.8597 69.0076 48.5911 69.4331ZM51.0592 69.6074C50.8612 69.9207 50.8739 70.0058 51.1489 70.212C51.5745 70.531 51.6098 70.5247 51.8883 70.0835C52.0979 69.7518 52.0879 69.6752 51.809 69.4734C51.3873 69.1686 51.3298 69.1789 51.0592 69.6074ZM44.5865 69.7875C44.512 70.0199 44.5569 70.2137 44.7069 70.3079C45.0668 70.5333 45.1792 70.4982 45.3989 70.0922C45.5554 69.803 45.5472 69.6885 45.361 69.5719C44.9672 69.325 44.7122 69.396 44.5865 69.7875ZM52.1843 69.9789C51.8291 70.4803 51.8381 70.5872 52.255 70.8079C52.5353 70.956 52.6374 70.9219 52.7978 70.6253C52.9586 70.3283 52.9353 70.2124 52.673 70.0039C52.3687 69.7621 52.373 69.7537 52.7472 69.8557C52.9791 69.9186 53.1439 69.8862 53.1439 69.7774C53.1439 69.4408 52.4644 69.5834 52.1843 69.9789ZM49.612 69.9512C49.4674 70.2183 49.4713 70.3755 49.6273 70.5614C49.9158 70.905 50.1 70.8755 50.3309 70.4487C50.4905 70.1539 50.4669 70.0405 50.2049 69.8442C49.7966 69.5382 49.8398 69.5304 49.612 69.9512ZM47.0711 69.8919C46.9138 70.2969 47.464 70.7116 47.7965 70.4388C48.0922 70.196 48.0996 69.822 47.811 69.7068C47.3939 69.5405 47.1872 69.5921 47.0711 69.8919ZM53.3202 70.0863C53.3202 70.1669 53.5185 70.3222 53.7609 70.4313C54.1006 70.5844 54.2043 70.5807 54.2128 70.4158C54.2189 70.2979 54.2958 70.378 54.3834 70.5938C54.4754 70.8202 54.6944 70.986 54.9012 70.986C55.492 70.986 55.3061 70.5293 54.5983 70.2422C53.8441 69.9362 53.3202 69.8724 53.3202 70.0863ZM45.5512 70.3108C45.3947 70.6001 45.403 70.7146 45.5891 70.8312C45.9704 71.07 46.2425 71.0111 46.4396 70.6466C46.584 70.3801 46.557 70.2692 46.3137 70.129C45.8696 69.8733 45.776 69.8956 45.5512 70.3108ZM48.0352 70.4557C47.8854 70.7329 47.9199 70.8338 48.2198 70.9925C48.5207 71.1516 48.6344 71.1288 48.8335 70.869C48.968 70.6937 49.0805 70.6327 49.0835 70.7332C49.0866 70.8338 49.0031 71.0014 48.898 71.1053C48.7607 71.2411 48.819 71.3722 49.1057 71.5705C49.477 71.8277 49.5217 71.8224 49.7555 71.4923C50.0416 71.0884 50.0325 71.0739 49.1348 70.5282C48.3212 70.0335 48.2658 70.0298 48.0352 70.4557ZM50.4995 70.5502C50.3244 70.7589 50.3244 70.8645 50.4995 71.0732C50.7977 71.4285 51.0775 71.4016 51.3356 70.993C51.5153 70.7087 51.5003 70.622 51.2457 70.4754C50.8337 70.238 50.7549 70.2458 50.4995 70.5502ZM52.8888 70.7636C52.8156 70.9519 52.887 71.1471 53.0799 71.2866C53.5053 71.5941 53.6303 71.5672 53.768 71.1386C53.9601 70.5399 53.1153 70.1794 52.8888 70.7636ZM46.4447 71.0884C46.4447 71.2172 46.6 71.4046 46.7899 71.5052C47.0718 71.6542 47.1728 71.618 47.3411 71.3071C47.512 70.9914 47.4931 70.8873 47.2308 70.6977C46.8808 70.4447 46.4447 70.6616 46.4447 71.0884ZM44.6179 70.7245C44.7253 71.001 45.0343 71.0873 45.0343 70.8408C45.0343 70.6564 44.8416 70.463 44.6579 70.463C44.5802 70.463 44.5622 70.5807 44.6179 70.7245ZM51.4252 71.1551C51.2397 71.4489 51.2621 71.5271 51.5796 71.6952C51.8732 71.8505 52.008 71.8352 52.2238 71.622C52.4484 71.3999 52.4565 71.3043 52.2698 71.0819C51.9641 70.7177 51.6861 70.7418 51.4252 71.1551ZM45.0343 71.3237C45.0343 71.498 45.1593 71.7433 45.3122 71.8686C45.5426 72.0576 45.6175 72.0539 45.7503 71.8465C45.9932 71.4668 45.9481 71.1956 45.611 71.009C45.2337 70.8002 45.0343 70.909 45.0343 71.3237ZM53.8993 71.3199C53.7304 71.5875 53.7401 71.6959 53.9485 71.8669C54.3134 72.1664 55.0071 71.577 54.7083 71.221C54.4331 70.8931 54.1468 70.928 53.8993 71.3199ZM47.3262 71.7105C47.3262 71.7846 47.4815 71.9276 47.6713 72.0282C47.9532 72.1772 48.0543 72.1409 48.2226 71.8301C48.3943 71.5127 48.3741 71.41 48.0997 71.2118C47.8163 71.0068 47.7404 71.0155 47.5486 71.2749C47.4263 71.4403 47.3262 71.6363 47.3262 71.7105ZM49.9767 71.4975C49.7313 71.9509 49.7407 71.9914 50.1395 72.2025C50.4194 72.3505 50.5217 72.3167 50.6805 72.0231C50.8265 71.7534 50.823 71.5972 50.6664 71.4107C50.3822 71.0721 50.1941 71.0958 49.9767 71.4975ZM52.3631 71.7423C52.1692 72.0499 52.4435 72.3719 52.9047 72.378C53.2103 72.382 53.3533 71.8456 53.1204 71.5683C52.8749 71.2756 52.6205 71.334 52.3631 71.7423ZM48.4777 72.4934C48.9135 72.8086 49.0429 72.7915 49.2598 72.3909C49.4073 72.1184 49.368 72.0008 49.0584 71.7862C48.7041 71.5409 48.6533 71.5489 48.4127 71.8887C48.1771 72.221 48.1837 72.2808 48.4777 72.4934ZM45.8749 71.964C45.6951 72.3541 45.7127 72.4532 45.9992 72.6603C46.2978 72.8763 46.366 72.852 46.6451 72.4314C46.8736 72.0871 46.9064 71.9004 46.7675 71.7349C46.4669 71.3769 46.1023 71.4705 45.8749 71.964ZM51.0356 72.6843C51.2381 72.8245 51.4211 72.9116 51.4423 72.8778C51.4634 72.844 51.589 72.6766 51.7214 72.506C51.9297 72.2372 51.917 72.1617 51.6274 71.9448C51.3291 71.7213 51.2589 71.734 50.9802 72.0618C50.6791 72.4157 50.6812 72.4387 51.0356 72.6843ZM53.3893 72.1627C53.0859 72.5579 53.0852 72.7293 53.3868 72.7293C53.7121 72.7293 54.0842 72.2671 53.942 72.0396C53.7822 71.7841 53.6588 71.8116 53.3893 72.1627ZM46.7906 72.571C46.6019 73.0211 46.6058 73.1358 46.8131 73.2657C47.189 73.501 47.2925 73.465 47.6073 72.9899C47.8406 72.638 47.8543 72.5027 47.678 72.2926C47.3383 71.8878 47.0372 71.9823 46.7906 72.571ZM49.3465 72.5768C49.2287 72.9439 49.478 73.2439 49.9059 73.2497C50.1857 73.2533 50.3223 72.6238 50.0912 72.3953C49.7897 72.0972 49.4759 72.1735 49.3465 72.5768ZM51.7843 72.7138C51.5641 73.0624 51.7707 73.2523 52.3705 73.2523C52.7277 73.2523 52.8946 72.7265 52.5967 72.54C52.2208 72.3048 52.0147 72.3489 51.7843 72.7138ZM47.7687 73.0128C47.5187 73.3898 47.5074 73.4969 47.7043 73.6201C48.0927 73.8636 48.3469 73.7993 48.6417 73.383C48.8964 73.0236 48.8945 72.9728 48.618 72.7729C48.1976 72.469 48.1131 72.4929 47.7687 73.0128ZM50.2396 73.2436C49.9209 73.853 49.9096 73.9496 50.1573 73.9496C50.2599 73.9496 50.293 73.868 50.2306 73.7683C50.1576 73.6513 50.274 73.6259 50.5583 73.6965C50.8919 73.7793 51.0462 73.7195 51.1912 73.4512C51.3455 73.1663 51.3224 73.0616 51.0736 72.9183C50.6112 72.6521 50.533 72.6826 50.2396 73.2436ZM48.8435 73.3537C48.6586 73.83 48.7235 73.9496 49.1669 73.9496C49.7372 73.9496 49.9291 73.6065 49.5231 73.313C49.1027 73.0091 48.9743 73.0168 48.8435 73.3537ZM51.3809 73.4266C51.3809 73.5225 51.5047 73.6009 51.6558 73.6009C51.8069 73.6009 51.8816 73.5225 51.8217 73.4266C51.7617 73.3307 51.6382 73.2523 51.5468 73.2523C51.4555 73.2523 51.3809 73.3307 51.3809 73.4266ZM34.9659 74.9772C33.4556 75.1444 31.4647 74.9666 30.5036 74.5787C30.0018 74.3763 29.9364 74.4001 29.3494 74.9966C28.8605 75.4934 28.387 75.7312 27.1404 76.1059C24.3139 76.955 23.4121 77.3905 23.09 78.0616C22.8462 78.5696 22.8379 78.7307 23.0341 79.1357C23.5077 80.1126 23.7101 80.1382 30.9307 80.1382C37.6925 80.1382 39.4662 79.9961 39.6832 79.4369C39.7337 79.3069 39.319 78.1111 38.7617 76.7796L37.7486 74.3587L37.073 74.5888C36.7016 74.7154 35.7533 74.8903 34.9659 74.9772Z" fill="#3F3F46"/>
<path d="M33.1124 20.0382L33.3388 21.1497C33.7585 22.4993 38.6877 24.1715 38.6877 24.2541C38.6877 24.3368 38.4072 24.6478 38.0645 24.9453C37.0499 25.8264 35.5565 25.5907 34.8699 24.4414C34.5339 23.8788 34.104 23.7409 34.104 24.1957C34.104 24.6978 34.6774 25.4469 35.3462 25.8187C36.6418 26.5387 38.238 26.0973 39.2286 24.7452C39.6087 24.2264 40.0129 23.9219 40.6178 23.6987C41.8455 23.2458 43.0009 22.168 43.5681 20.9461C44.0966 19.8076 44.0058 19.8311 45.7395 20.3809C47.2195 20.8502 51.4604 23.0122 53.3643 24.2679C55.1558 25.4497 55.5124 25.8342 55.0681 26.1057C54.727 26.3143 52.5113 29.3787 51.8938 30.4963C51.5632 31.0944 51.2272 31.5848 51.1468 31.5858C51.0666 31.5871 50.0853 31.1124 48.9662 30.5313C47.0968 29.5605 46.4447 29.3794 46.4447 29.8311C46.4447 29.9254 47.1388 30.3573 47.9873 30.7909L49.5298 31.579L50.8226 34.0806C51.5606 35.5084 52.1281 36.8312 52.1448 37.1622C52.1711 37.6788 52.0849 37.7949 51.3568 38.2222C48.0359 40.1715 41.9271 41.5164 36.3685 41.5218L33.6087 41.5246L33.1743 40.7837C31.4499 37.8426 29.9662 34.6026 29.003 31.6751C28.257 29.4081 28.1492 29.1473 27.957 29.1473C27.7915 29.1473 26.2164 30.7184 25.3796 31.7187C25.1187 32.0302 24.8122 32.2852 24.6984 32.2852C24.5845 32.2852 23.3553 31.16 21.967 29.7845L19.4425 27.2838L20.8345 25.5571C23.1836 22.643 26.0349 20.2702 27.9388 19.6447C28.7858 19.3667 28.8623 19.3681 29.4837 19.6737C29.9481 19.902 30.5683 20.0014 31.6248 20.0166L33.1124 20.0382Z" fill="#FCFCFC"/>
<path d="M50.9049 39.239C47.2237 41.0548 42.8183 42.0051 37.3126 42.1709C34.9457 42.2422 33.9318 42.3318 33.9815 42.4655C34.021 42.5713 34.2329 43.2461 34.4526 43.9652C34.6722 44.6843 34.9203 45.3457 35.0037 45.4351C35.0952 45.5329 35.8524 45.2669 36.9112 44.7647C38.5282 43.9978 39.0403 43.8922 39.0403 44.3252C39.0403 44.416 38.2073 44.8999 37.1892 45.4006C36.1711 45.9013 35.3381 46.3816 35.3381 46.4677C35.3381 46.554 35.8852 47.2617 36.5537 48.0405C38.2926 50.0662 39.9452 52.5855 40.7364 54.4167L41.4203 55.9994L42.1255 55.8889C45.4765 55.364 50.4693 52.8662 52.7578 50.5701C54.9038 48.4167 55.5861 45.012 54.488 41.9346C54.2057 41.1434 52.8243 38.3867 52.71 38.3867C52.6675 38.3867 51.8552 38.7702 50.9049 39.239Z" fill="#FCFCFC"/>
<path d="M69.5354 68.7633C69.5294 69.3798 68.947 70.4775 68.1639 71.349C67.4767 72.1136 65.5244 73.2523 64.9003 73.2523C64.4548 73.2523 64.3834 73.5591 64.6182 74.4651C64.9116 75.5973 64.6002 76.0996 63.3833 76.457C62.1614 76.8159 61.8121 77.0308 61.4209 77.6652C60.9631 78.4077 60.9774 79.2483 61.4555 79.6888C61.9683 80.1612 62.8941 80.2705 65.7751 80.1989C68.9052 80.1211 69.5758 79.8515 70.3832 78.3463C71.2254 76.7763 72.8316 72.9247 73.1435 71.7273C73.4003 70.7414 73.4014 70.5887 73.1544 70.1165C72.8115 69.4608 72.2865 69.1188 70.9973 68.7114C69.6701 68.292 69.54 68.2965 69.5354 68.7633Z" fill="#FCFCFC"/>
<path d="M34.9659 74.9772C33.4556 75.1444 31.4647 74.9666 30.5036 74.5787C30.0018 74.3763 29.9364 74.4001 29.3494 74.9966C28.8605 75.4934 28.387 75.7312 27.1404 76.1059C24.3139 76.955 23.4121 77.3905 23.09 78.0616C22.8462 78.5696 22.8379 78.7307 23.0341 79.1357C23.5077 80.1126 23.7101 80.1382 30.9307 80.1382C37.6925 80.1382 39.4662 79.9961 39.6832 79.4369C39.7337 79.3069 39.319 78.1111 38.7617 76.7796L37.7486 74.3587L37.073 74.5888C36.7016 74.7154 35.7533 74.8903 34.9659 74.9772Z" fill="#FCFCFC"/>
<path d="M62.4634 46.6081C62.375 46.3455 62.7759 44.2987 63.0681 43.7473C63.3602 43.1959 63.6525 42.7449 63.7177 42.7449C64.013 42.7449 64.6265 43.6242 64.7173 44.1772C64.8076 44.7279 64.718 44.9055 63.8025 45.989C63.2444 46.6497 62.6401 46.4768 62.4634 46.6081Z" fill="#FCFCFC"/>
<path d="M67.972 35.9662C67.8003 36.4532 67.8259 36.5448 68.2201 36.8512C68.462 37.0393 68.7821 37.3142 68.9316 37.4621C69.0811 37.6099 69.2246 37.702 69.2505 37.6666C69.2763 37.6312 69.4709 37.376 69.6828 37.0993C69.8947 36.8226 70.0682 36.5313 70.0682 36.4518C70.0682 36.2355 68.7964 35.4231 68.4579 35.4231C68.2867 35.4231 68.0833 35.6506 67.972 35.9662Z" fill="#FCFCFC"/>
<path d="M32.827 6.99637C31.5063 7.33021 30.0519 7.96355 29.1325 8.60472C28.8707 8.78724 27.9584 9.08726 27.1051 9.27118C24.8852 9.74953 24.3655 10.4407 25.0339 12.0252C25.1842 12.3817 25.5497 12.9211 25.8459 13.2239C26.3441 13.7327 26.3758 13.8382 26.2667 14.622C26.1219 15.6629 26.3116 16.1876 27.1765 17.1391C28.6512 18.7614 30.8687 19.7406 32.2277 19.3696C33.0875 19.1348 33.0398 18.7713 32.1191 18.5421C31.2957 18.3371 30.3629 17.5094 30.06 16.7151C29.7984 16.0288 29.827 14.6016 30.1161 13.9174C30.4539 13.1179 31.1943 12.586 31.9682 12.5869C32.6621 12.5876 33.6991 13.12 33.8713 13.564C33.9545 13.7784 34.0298 13.7244 34.198 13.3288C34.4057 12.8405 34.4831 12.8095 35.764 12.7025C38.1817 12.5003 39.5043 11.4426 39.8331 9.44829C39.9043 9.01683 39.9972 8.60559 40.0399 8.53429C40.1739 8.31028 41.5234 9.09947 42.4128 9.92212C42.8826 10.3567 43.4863 11.1536 43.7541 11.6928C44.1601 12.5104 44.2509 12.6043 44.3002 12.2586C44.4131 11.4703 43.8147 10.3707 42.7353 9.3824C40.2268 7.08598 36.2547 6.12944 32.827 6.99637Z" fill="#FCFCFC"/>
<path d="M34.2803 67.7918C32.9403 68.0521 29.4594 68.0235 28.7447 67.7463C28.3385 67.5887 28.3341 67.5657 29.3837 71.21L30.1261 73.7876L31.0132 74.0334C31.5012 74.1687 32.343 74.3302 32.8843 74.3924C33.9103 74.5102 36.3262 74.2273 37.0402 73.9057C37.533 73.6836 37.5585 73.3086 37.2054 71.4841C37.069 70.7787 36.8613 69.6132 36.7439 68.8941C36.4867 67.319 36.4574 67.2624 35.9793 67.4149C35.7722 67.481 35.0076 67.6506 34.2803 67.7918Z" fill="#FCFCFC"/>
<path d="M63.7225 65.8507C63.1082 67.0337 60.8797 69.1988 59.4343 70.0169C58.636 70.4688 58.3104 70.7397 58.4646 70.8237C58.9921 71.1105 63.967 72.7291 64.3146 72.727C64.8668 72.7239 66.7156 71.7518 67.3947 71.1077C68.0988 70.44 68.7567 69.3592 68.914 68.6119C69.0251 68.0831 68.9787 68.0345 67.2124 66.8311C66.2135 66.1507 65.198 65.4361 64.9556 65.2433C64.7132 65.0505 64.4359 64.917 64.3395 64.9464C64.2431 64.9761 63.9654 65.3829 63.7225 65.8507Z" fill="#FCFCFC"/>
</svg>
