<svg width="1536" height="1024" viewBox="0 0 1536 1024" fill="none" xmlns="http://www.w3.org/2000/svg">
<g clip-path="url(#clip0_151_675)">
<path fill-rule="evenodd" clip-rule="evenodd" d="M154.072 -343.262C154.931 -342.366 157.631 -339.477 160.072 -336.842C162.514 -334.207 175.762 -320.103 189.511 -305.502C222.817 -270.13 308.87 -176.588 349.973 -131.073C358.938 -121.147 367.959 -111.221 370.02 -109.015C375.997 -102.618 428.415 -43.201 452.58 -15.4324C480.081 16.1704 530.054 73.682 556.508 104.177C567.508 116.857 596.983 150.766 622.008 179.532C647.033 208.296 675.331 240.87 684.894 251.915C694.457 262.962 703.907 273.791 705.894 275.982C707.881 278.172 720.251 292.309 733.383 307.399C746.515 322.487 758.44 336.164 759.883 337.793C763.6 341.985 761.648 341.552 756.687 337.083C754.388 335.012 740.807 323.771 726.507 312.104C712.207 300.436 689.707 281.861 676.507 270.827C516.999 137.482 333.462 -9.018 150.012 -149.425C133.962 -161.708 17.4529 -250.43 5.25596 -259.656L0 -263.631L0.255998 -167.124L0.512996 -70.6152L4.01297 -68.8358C15.3929 -63.0471 116.051 -10.7493 145.512 4.68244C207.265 37.0272 345.355 111.412 435.009 160.625C510.008 201.795 521.829 208.422 638.508 274.709C658.307 285.956 691.832 304.79 713.007 316.56C752.319 338.412 762.434 344.337 758.007 342.918C744.281 338.517 725.259 332.254 670.507 314.107C635.308 302.44 594.358 288.982 579.508 284.198C484.687 253.654 479.41 251.982 385.01 222.537C326.985 204.438 270.305 187.393 160.512 155.025C120.912 143.351 70.2874 128.394 48.0126 121.786C25.7378 115.178 5.82595 109.357 3.76297 108.852L0.0129999 107.932V187.627C0.0129999 231.458 0.375997 267.32 0.819993 267.32C2.31598 267.32 106.275 276.663 134.512 279.336C149.912 280.793 185.011 284.113 212.511 286.713C298.992 294.888 413.831 306.669 519.009 318.155C539.083 320.348 561.583 322.773 569.008 323.543C580.697 324.757 597.685 326.738 648.508 332.813C654.557 333.536 677.829 336.242 700.223 338.825C722.617 341.409 745.567 344.247 751.223 345.132L761.507 346.742L717.507 350.374C672.425 354.095 591.642 361.873 525.009 368.908C504.384 371.085 484.359 373.188 480.509 373.583C467.072 374.956 337.125 389.004 289.011 394.284C234.992 400.214 199.065 404.407 151.512 410.335C123.157 413.87 33.6987 424.609 9.51292 427.383L0.512996 428.415L0.254998 510.968C0.103999 559.624 0.369997 593.521 0.902992 593.521C1.82498 593.521 33.9727 582.749 186.011 531.494C286.082 497.757 327.885 483.971 374.51 469.331C406.066 459.422 432.674 451.021 485.509 434.284C497.059 430.625 522.934 422.517 543.008 416.266C563.083 410.014 588.733 401.956 600.008 398.355C611.283 394.756 628.383 389.346 638.008 386.333C647.633 383.319 661.807 378.811 669.507 376.314C697.326 367.293 757.946 349.679 758.522 350.45C758.744 350.747 754.781 353.008 749.716 355.473C731.673 364.258 663.367 401.378 589.008 442.807C547.483 465.942 505.859 489.117 496.509 494.307C387.374 554.88 279.654 617.278 100.512 723.69L0.512996 783.091L0.256998 892.851C0.115999 953.218 0.247998 1002.61 0.548995 1002.61C0.849993 1002.61 14.2399 990.46 30.3047 975.611C98.8862 912.22 111.006 901.168 159.512 857.8C278.386 751.519 338.271 699.204 415.01 634.599C457.048 599.207 488.23 573.301 528.009 540.718C547.533 524.725 574.983 502.171 589.008 490.599C658.928 432.907 701.895 398.204 738.007 370.258C748.732 361.957 758.632 354.245 760.007 353.118C764.529 349.413 760.434 354.162 740.507 375.731C708.091 410.818 589.212 546.655 536.508 608.829C483.036 671.911 448.235 713.547 423.009 744.623C323.027 867.792 217.191 1000.53 203.574 1019.84L200.637 1024H275.217C333.955 1024 349.899 1023.64 350.281 1022.33C350.688 1020.92 366.708 992.524 379.502 970.524C381.426 967.216 391.84 949.168 402.644 930.418C413.448 911.668 425.512 890.913 429.454 884.295C469.802 816.56 483.086 794.659 534.956 710.36C536.36 708.078 543.583 696.653 551.008 684.973C564.187 664.237 572.564 650.889 597.959 610.152C611.647 588.194 651.051 526.662 716.907 424.405C736.816 393.49 762.95 354.218 763.612 354.218C764.241 354.218 763.691 355.425 758.431 365.581C756.146 369.993 748.317 386.537 741.033 402.346C733.75 418.155 726.087 434.699 724.005 439.11C681.624 528.933 630.259 642.512 579.502 758.627C546.775 833.498 468.009 1020.34 468.009 1023.1C468.009 1023.61 489.666 1023.87 516.136 1023.68L564.263 1023.33L569.96 1003.28C573.093 992.249 579.399 969.99 583.973 953.813C588.547 937.637 598.335 903.947 605.724 878.947C613.113 853.948 622.475 821.991 626.53 807.932C646.264 739.502 676.26 640.846 717.943 507.292C728.5 473.468 740.763 434.064 745.195 419.725C760.602 369.877 767.474 349.401 765.383 359.565C762.615 373.025 759.877 387.719 752.053 431.089C747.145 458.295 738.35 507.024 732.508 539.377C710.399 661.823 700.145 721.05 679.04 848.199C667.551 917.412 663.114 944.472 653.175 1005.95L650.365 1023.33L689.34 1023.68C710.777 1023.87 728.548 1023.72 728.83 1023.34C729.113 1022.97 730.38 1004.16 731.647 981.551C734.683 927.355 738.137 867.362 743.017 784.028C745.213 746.528 748.154 695.693 749.552 671.061C750.95 646.429 753.436 603.414 755.077 575.473C756.718 547.532 759.64 496.697 761.571 462.506C766.036 383.43 767.693 356.866 768.203 356.184C768.427 355.885 769.152 368.198 769.815 383.545C770.864 407.807 773.053 445.61 779.498 550.741C780.332 564.344 784.836 641.95 789.506 723.2C794.176 804.449 798.663 882.056 799.476 895.659C800.289 909.261 802.095 941.748 803.489 967.851C804.883 993.953 806.265 1017.26 806.56 1019.66L807.097 1024H845.925H884.753L881.374 1002.28C870.174 930.276 838.754 739.824 828.496 681.756C826.093 668.153 821.594 642.284 818.497 624.27C815.401 606.255 808.845 569.557 803.929 542.719C799.012 515.881 791.408 474.371 787.031 450.474C777.104 396.274 770.992 361.346 771.057 359.203C771.085 358.299 772.696 362.674 774.636 368.924C786.82 408.155 791.065 421.76 798.208 444.458C802.605 458.428 810.245 482.793 815.187 498.602C820.128 514.411 828.815 542.084 834.491 560.099C853.379 620.048 876.585 697.273 904.995 794.723C915.499 830.752 927.285 871.06 931.185 884.295C938.914 910.519 967.245 1009.15 969.683 1018.32L971.193 1024H1019.12H1067.04L1064.38 1016.98C1062.92 1013.12 1059.48 1004.56 1056.74 997.957C1053.99 991.353 1045.23 969.996 1037.25 950.498C997.653 853.663 967.033 781.341 941.019 723.2C932.63 704.45 918.775 673.167 910.23 653.681C885.88 598.155 878.496 581.838 849.731 519.992C839.301 497.566 828.393 474.104 825.491 467.854C808.352 430.934 795.545 403.628 783.166 377.613C772.129 354.418 771.967 353.951 778.055 362.896C781.053 367.302 786.431 375.147 790.006 380.329C804.327 401.091 836.105 450.117 897.005 545.408C903.88 556.165 914.698 573.045 921.045 582.92C927.392 592.795 938.628 610.5 946.012 622.264C953.397 634.029 963.425 649.971 968.296 657.692C992.686 696.347 1012.12 727.637 1026.01 750.606C1034.46 764.576 1044.13 780.519 1047.5 786.034C1050.88 791.548 1065.05 815.011 1079.01 838.172C1092.96 861.334 1110.74 890.812 1118.53 903.68C1137.03 934.267 1187.96 1020.18 1188.88 1022.34C1189.44 1023.67 1205.5 1023.95 1266.01 1023.67L1342.42 1023.33L1309.96 982.475C1292.11 960.003 1265.16 926.313 1250.07 907.609C1191.37 834.847 1166.04 803.567 1155.48 790.824C1079.84 699.491 1023.89 633.521 983.576 588.132C971.515 574.552 955.315 556.183 947.576 547.313C939.837 538.441 916.63 512.02 896.005 488.599C875.381 465.177 855.806 442.906 852.506 439.108C849.206 435.31 840.881 425.97 834.006 418.355C827.131 410.739 817.906 400.51 813.506 395.624C809.106 390.738 798.644 379.391 790.256 370.41C781.868 361.428 775.006 353.741 775.006 353.326C775.006 352.913 776.018 353.458 777.256 354.541C778.493 355.623 784.681 360.442 791.006 365.251C816.238 384.432 853.935 414.494 902.005 453.771C929.78 476.464 970.505 509.569 992.505 527.336C1041.62 567.003 1080.38 598.655 1110 623.295C1122.38 633.588 1140.15 648.353 1149.5 656.106C1165.55 669.41 1192.55 692.204 1219.5 715.194C1226.1 720.824 1247.03 738.865 1266 755.285C1284.98 771.705 1312.88 795.77 1328 808.763C1409.55 878.815 1458.87 923.319 1511 973.893C1521.73 984.297 1531.74 993.881 1533.25 995.19L1536 997.57V889.356V781.143L1485.75 750.603C1386.59 690.34 1351.54 669.465 1286 631.635C1259.78 616.501 1179.95 571.287 1155 557.441C1148.68 553.932 1129.55 543.245 1112.5 533.694C1095.45 524.142 1070.25 510.155 1056.5 502.61C1042.75 495.066 1023.63 484.521 1014 479.177C1004.38 473.833 985.93 463.622 973.005 456.486C960.08 449.351 942.755 439.744 934.505 435.138C919.638 426.839 883.865 407.27 854.006 391.103C845.481 386.486 824.694 375.563 807.814 366.827C790.933 358.092 777.267 350.75 777.445 350.511C778.287 349.385 822.312 362.242 888.006 382.797C910.28 389.766 946.055 400.939 967.505 407.624C988.955 414.31 1019.78 423.979 1036 429.112C1052.23 434.244 1100.83 449.539 1144 463.102C1239.17 492.998 1323.04 520.162 1384 540.833C1504.7 581.762 1531.67 590.917 1533.75 591.676L1536 592.496V510.851V429.205L1532.75 428.495C1528.37 427.538 1341.7 405.204 1275.5 397.716C1014.65 368.21 860.805 352.487 788.962 347.989C767.071 346.619 774.435 345.326 852.506 336.833C872.306 334.678 907.405 330.81 930.505 328.235C953.605 325.662 989.605 321.714 1010.5 319.464C1031.4 317.214 1058.85 314.199 1071.5 312.766C1142.79 304.689 1445.48 274.745 1525.25 267.88L1536 266.955V187.735V108.515L1531.75 109.794C1529.41 110.499 1510.4 116.118 1489.5 122.282C1358.76 160.843 1282.91 183.665 1139 227.747C1090.21 242.693 997.447 271.877 933.005 292.556C877.865 310.252 792.634 337.791 784.006 340.703C779.881 342.095 776.385 343.087 776.237 342.908C776.089 342.727 785.539 337.282 797.237 330.808C834.7 310.071 848.691 302.238 888.506 279.713C909.955 267.577 937.63 251.942 950.005 244.967C971.446 232.882 1031.79 199.758 1083.5 171.687C1096.7 164.521 1115.15 154.478 1124.5 149.369C1174.76 121.9 1301.02 53.8092 1345 30.4483C1360.13 22.415 1395 3.89236 1422.5 -10.7145C1450 -25.32 1486.45 -44.6034 1503.5 -53.5659C1520.55 -62.5284 1534.84 -70.2823 1535.26 -70.797C1535.67 -71.3117 1535.9 -114.574 1535.76 -166.936L1535.5 -262.137L1525.5 -254.543C1520 -250.367 1471.4 -213.278 1417.5 -172.123C1326.53 -102.659 1297.88 -80.5363 1247 -40.467C1236.28 -32.0205 1220.98 -19.9858 1213 -13.7225C1193.16 1.86162 1167.99 21.8575 1126 55.3947C1090.63 83.6526 1025.65 135.491 1000 155.921C968.483 181.029 918.098 222.066 885.506 249.178C769.556 345.631 766.594 347.922 787.413 325.044C796.728 314.808 804.646 305.658 837.414 267.265C880.955 216.248 1005.73 73.8518 1037.1 39.3801C1039.1 37.1742 1055.76 18.2238 1074.1 -2.73194C1092.45 -23.6877 1114.95 -49.2557 1124.11 -59.5498C1133.26 -69.8438 1152.12 -91.2007 1166.02 -107.009C1225.57 -174.731 1323.58 -284.178 1357.5 -320.822C1367.95 -332.112 1377.16 -342.166 1377.97 -343.163C1379.2 -344.69 1366.28 -344.969 1295.97 -344.933L1212.5 -344.89L1193.5 -315.245C1183.05 -298.939 1154.03 -254.284 1129 -216.01C1103.98 -177.736 1072.03 -128.397 1058 -106.368C1018.07 -43.6448 991.343 -2.03943 969.095 32.0272C957.81 49.3065 939.543 77.281 928.501 94.1926C873.607 178.268 851.921 212.209 807.659 283.324C789.568 312.389 774.083 337.072 773.246 338.175C771.231 340.832 771.63 339.803 778.698 324.138C782.016 316.785 791.368 295.729 799.481 277.347C816.484 238.817 838.924 189.466 877.447 105.88C899.504 58.019 911.512 31.7291 936.517 -23.4537C959.203 -73.519 981.02 -121.512 1001.54 -166.501C1010.27 -185.619 1026.82 -222.316 1038.33 -248.051C1049.84 -273.787 1064.36 -306.129 1070.6 -319.921L1081.94 -345L1030.83 -344.654L979.71 -344.307L972.492 -320.912C968.521 -308.044 953.017 -257.51 938.038 -208.613C891.725 -57.4322 879.366 -17.268 862.343 37.3748C843.636 97.4252 839.893 109.382 835.98 121.599C825.305 154.929 802.413 229.632 792.553 263.309C788.356 277.647 781.707 300.346 777.778 313.753C773.85 327.158 770.513 337.961 770.362 337.759C770.211 337.558 770.77 333.507 771.606 328.759C774.487 312.385 779.077 285.286 783.596 257.962C786.089 242.888 791.196 213.711 794.945 193.123C808.142 120.654 812.008 99.1164 819.905 54.0859C824.289 29.0861 831.329 -10.6196 835.549 -34.1489C839.768 -57.6781 846.741 -96.7822 851.044 -121.047C855.347 -145.311 861.623 -180.505 864.991 -199.255C871.951 -238.01 890.005 -342.456 890.005 -343.973C890.006 -344.525 871.667 -344.976 849.253 -344.976H808.499L801.685 -233.011C797.938 -171.43 792.664 -85.2515 789.967 -41.5018C781.23 100.185 771 278.734 769.438 316.785C768.74 333.785 767.095 343.473 767.037 330.929C767.021 327.312 766.118 309.564 765.032 291.491C763.945 273.417 761.686 234.265 760.012 204.486C758.337 174.707 755.413 124.172 753.512 92.1873C748.756 12.1156 748.096 1.21322 746.433 -24.7906C745.634 -37.2906 743.878 -65.5658 742.53 -87.6245C741.183 -109.683 738.29 -156.307 736.101 -191.234C733.913 -226.16 730.868 -275.039 729.334 -299.856L726.546 -344.976H685.776C662.143 -344.976 645.008 -344.468 645.008 -343.767C645.008 -343.102 647.88 -326.408 651.391 -306.669C663.229 -240.104 679.522 -147.981 695.095 -59.5498C698.98 -37.4911 706.15 2.81615 711.028 30.0219C715.906 57.2276 722.826 96.0309 726.406 116.251C729.985 136.472 736.093 170.462 739.978 191.786C743.864 213.109 748.446 238.677 750.162 248.603C751.878 258.53 756.081 282.459 759.503 301.78C762.925 321.099 765.499 336.604 765.222 336.235C764.59 335.389 762.972 330.166 746.577 276.01C732.434 229.292 722.898 198.268 712.263 164.379C708.687 152.982 704.748 140.349 703.51 136.305C702.273 132.261 693.83 104.888 684.748 75.4762C675.667 46.0646 662.387 3.05011 655.237 -20.1115C648.089 -43.2731 635.849 -83.2796 628.038 -109.015C607.971 -175.136 579.222 -267.738 556.754 -338.626L554.741 -344.976H504.381H454.02L462.189 -327.262C487.797 -271.73 500.916 -242.825 517.173 -206.122C544.136 -145.242 621.5 26.9042 633.511 52.749C636.928 60.1019 655.039 99.8076 673.758 140.984C692.477 182.16 716.139 234.198 726.34 256.625C736.54 279.051 748.921 306.273 753.852 317.119C758.783 327.965 762.666 336.838 762.481 336.838C762.295 336.838 756.317 327.663 749.196 316.451C666.275 185.881 641.936 147.74 615.033 106.215C602.644 87.0924 583.488 57.3132 572.464 40.0392C489.624 -89.7675 461.968 -132.547 425.546 -187.22C406.917 -215.187 393.025 -235.894 340.089 -314.61L319.668 -344.976L236.09 -344.933C170.2 -344.9 152.842 -344.547 154.072 -343.262Z" fill="#B2D3B0"/>
</g>
<defs>
<clipPath id="clip0_151_675">
<rect width="1536" height="1024" fill="white"/>
</clipPath>
</defs>
</svg>
