<svg width="80" height="71" viewBox="0 0 80 71" fill="none" xmlns="http://www.w3.org/2000/svg">
<path d="M9.01408 0H70.9859L80 17H0L9.01408 0Z" fill="url(#paint0_linear_1_69)"/>
<rect width="80" height="54" transform="translate(0 17)" fill="#173316"/>
<rect width="80" height="25" transform="translate(0 46)" fill="url(#paint1_linear_1_69)"/>
<path d="M40.9544 31.795C40.7519 31.975 39.1769 35.1006 39.1769 35.1006L38.005 39.8275L42.565 39.4094C42.565 39.4094 46.3581 32.3556 46.435 32.1925C46.5719 31.8962 46.645 31.7744 46.1219 31.7744C45.5988 31.7725 41.1438 31.6262 40.9544 31.795Z" fill="#176CC7"/>
<path d="M43.315 39.1169C43.0881 38.995 36.4056 38.89 36.2481 39.1169C36.1056 39.3231 36.1862 40.405 36.2406 40.5344C36.3381 40.7594 38.4962 41.74 38.4962 41.74L38.455 42.1862C38.455 42.1862 38.6312 42.2312 39.8856 42.2312C41.14 42.2312 41.3875 42.1675 41.3875 42.1675L41.3912 41.7644C41.3912 41.7644 43.3337 40.8194 43.4312 40.6881C43.5137 40.5794 43.5419 39.2387 43.315 39.1169ZM41.3256 40.8269C41.3256 40.8269 41.3875 40.5512 41.2581 40.4875C41.1287 40.4219 38.9087 40.4519 38.7325 40.4612C38.5562 40.4706 38.5562 40.7856 38.5562 40.7856L37.1575 40.0656L37.1312 39.7975L42.4375 39.835L42.4187 40.0881L41.3256 40.8269Z" fill="#F79429"/>
<path d="M39.1113 40.7294C38.935 40.7294 38.8338 40.9131 38.8338 41.23C38.8338 41.5262 38.935 41.7756 39.1581 41.7569C39.3419 41.7419 39.4056 41.4606 39.3888 41.2112C39.3719 40.9131 39.3344 40.7294 39.1113 40.7294Z" fill="#FDFFFF"/>
<path d="M33.4956 48.2669C33.4956 52.7594 37.5662 54.6287 40.2681 54.5481C43.4162 54.4544 46.8025 52.0656 46.5231 47.7794C46.2606 43.7575 42.8744 41.9125 39.9156 41.9331C36.4769 41.9594 33.4956 44.3425 33.4956 48.2669Z" fill="#F79429"/>
<path d="M40.1256 53.8694C40.0788 53.8694 40.03 53.8694 39.9831 53.8675C38.5769 53.8206 37.1875 53.2281 36.1713 52.2437C35.0838 51.19 34.4875 49.765 34.495 48.2331C34.5119 44.4925 37.7819 42.7581 40 42.7581H40.0188C43.0244 42.7712 45.4919 45.1075 45.5613 48.2744C45.5913 49.6844 45.1413 51.0869 44.0088 52.2006C42.9513 53.2356 41.4213 53.8694 40.1256 53.8694ZM39.9963 43.3806C38.0069 43.3806 35.065 45.0081 35.0575 48.2331C35.0519 50.6444 36.9194 53.1231 40.03 53.2281C41.215 53.2656 42.5519 52.8269 43.5363 51.8594C44.56 50.8525 45.0194 49.54 44.9988 48.2837C44.9538 45.5594 42.7263 43.3919 40.0225 43.3806C40.0169 43.3769 40.0019 43.3806 39.9963 43.3806Z" fill="#D25116"/>
<path d="M38.8919 42.5256C38.7625 42.3475 37.4369 42.3981 36.01 43.6262C34.5925 44.8469 34.3806 46.1969 34.6356 46.2681C34.9263 46.3487 35.2806 45.0437 36.505 43.9469C37.63 42.9437 39.1488 42.88 38.8919 42.5256ZM44.59 47.4325C44.1381 47.4962 44.6069 48.85 43.5588 50.365C42.6494 51.6794 41.6181 52.1556 41.7381 52.4444C41.8994 52.8306 43.5512 51.8687 44.3162 50.3012C45.0081 48.8819 44.9256 47.3837 44.59 47.4325Z" fill="#FEFFFA"/>
<path d="M32.7831 31.6975C32.665 31.8063 37.1819 39.85 37.1819 39.85C37.1819 39.85 37.9394 39.9475 39.6306 39.9625C41.3219 39.9775 42.16 39.865 42.16 39.865C42.16 39.865 38.6481 31.7781 38.4381 31.6975C38.335 31.6563 36.9438 31.6413 35.5844 31.6263C34.2231 31.6094 32.8956 31.5925 32.7831 31.6975Z" fill="#2E9DF4"/>
<path d="M42.0531 46.6956C41.8356 44.8113 39.6419 44.6538 38.7325 45.3775C37.8475 46.0825 37.9319 47.065 38.5525 47.1794C39.0419 47.2694 39.1694 46.8813 39.3119 46.7031C39.6344 46.3038 40.1481 46.2663 40.4837 46.5869C40.8644 46.9525 40.63 47.8263 40.0581 47.8619C39.6325 47.8881 39.4169 47.8656 39.3625 47.9388C39.2856 48.0419 39.2969 48.8538 39.3756 48.9438C39.4656 49.0469 39.8256 48.9831 40.135 48.9944C40.5606 49.0113 41.0125 49.6413 40.7144 50.1138C40.405 50.6031 39.5819 50.3838 39.2856 50.0875C38.8937 49.6956 38.5019 49.9206 38.3706 50.0744C38.1644 50.3181 37.945 50.8731 38.7062 51.4131C39.4656 51.9531 41.77 52.0563 42.235 50.3838C42.64 48.9231 41.695 48.3231 41.695 48.3231C41.695 48.3231 42.1769 47.77 42.0531 46.6956Z" fill="#9F3F13"/>
<defs>
<linearGradient id="paint0_linear_1_69" x1="40" y1="0" x2="40" y2="17" gradientUnits="userSpaceOnUse">
<stop stop-color="#D9D9D9" stop-opacity="0"/>
<stop offset="1" stop-color="#ED391D"/>
</linearGradient>
<linearGradient id="paint1_linear_1_69" x1="40" y1="25" x2="40" y2="0" gradientUnits="userSpaceOnUse">
<stop stop-color="#3D9937"/>
<stop offset="1" stop-color="#173316"/>
</linearGradient>
</defs>
</svg>
