<svg width="80" height="121" viewBox="0 0 80 121" fill="none" xmlns="http://www.w3.org/2000/svg">
<path d="M9.01408 0H70.9859L80 17H0L9.01408 0Z" fill="url(#paint0_linear_1_49)"/>
<rect width="80" height="94" transform="translate(0 17)" fill="#173316"/>
<path d="M40.9544 31.795C40.7519 31.975 39.1769 35.1006 39.1769 35.1006L38.005 39.8275L42.565 39.4094C42.565 39.4094 46.3581 32.3556 46.435 32.1925C46.5719 31.8962 46.645 31.7744 46.1219 31.7744C45.5988 31.7725 41.1438 31.6262 40.9544 31.795Z" fill="#176CC7"/>
<path d="M43.315 39.1169C43.0881 38.995 36.4056 38.89 36.2481 39.1169C36.1056 39.3231 36.1263 40.2662 36.1956 40.3881C36.265 40.51 38.5113 41.5544 38.5113 41.5544L38.5094 41.935C38.5094 41.935 38.6331 42.2331 39.8856 42.2331C41.1381 42.2331 41.2675 41.98 41.2675 41.98L41.2788 41.5956C41.2788 41.5956 43.2456 40.6131 43.3488 40.5269C43.4538 40.4387 43.5419 39.2387 43.315 39.1169ZM41.2563 40.6787C41.2563 40.6787 41.2506 40.4162 41.1213 40.3506C40.9919 40.285 38.9088 40.2962 38.7325 40.3056C38.5563 40.315 38.5563 40.63 38.5563 40.63L37.1313 39.9362V39.7975L42.4375 39.835L42.4469 39.9925L41.2563 40.6787Z" fill="#FCC417"/>
<path d="M39.1113 40.5944C38.935 40.5944 38.8338 40.7781 38.8338 41.095C38.8338 41.3913 38.935 41.6406 39.1581 41.6219C39.3419 41.6069 39.4056 41.3256 39.3888 41.0763C39.3719 40.78 39.3344 40.5944 39.1113 40.5944Z" fill="#FDFFFF"/>
<path d="M33.4337 48.01C33.4337 52.5025 37.495 54.5031 40.195 54.4075C43.1725 54.3006 46.7387 51.9794 46.5231 47.6931C46.3187 43.6319 42.9025 41.7063 39.9437 41.7269C36.505 41.7513 33.4337 44.0856 33.4337 48.01Z" fill="#FCC417"/>
<path d="M40.0994 53.6256C40.0525 53.6256 40.0037 53.6256 39.9569 53.6237C38.5506 53.5769 37.1612 52.9844 36.145 52C35.0575 50.9462 34.4612 49.5212 34.4687 47.9894C34.4856 44.2487 37.7556 42.5144 39.9737 42.5144H39.9925C42.9981 42.5275 45.4656 44.8637 45.535 48.0306C45.565 49.4406 44.9875 50.92 43.855 52.0337C42.7975 53.0706 41.395 53.6256 40.0994 53.6256ZM39.97 43.1369C37.9806 43.1369 35.0387 44.7644 35.0312 47.9894C35.0256 50.4006 36.8931 52.8794 40.0037 52.9844C41.1887 53.0219 42.4094 52.5681 43.3956 51.5987C44.4194 50.5919 44.995 49.2944 44.9744 48.0381C44.9294 45.3137 42.7019 43.1462 39.9981 43.135C39.9906 43.135 39.9756 43.1369 39.97 43.1369Z" fill="#FA912C"/>
<path d="M38.8412 42.3644C38.7119 42.1863 37.2456 42.22 35.86 43.5738C34.5231 44.8806 34.3787 46.1125 34.6356 46.1838C34.9262 46.2644 35.2806 44.9594 36.505 43.8625C37.63 42.8575 39.1 42.7188 38.8412 42.3644ZM44.5131 47.215C44.0612 47.2788 44.53 48.6325 43.4819 50.1475C42.5725 51.4619 41.5412 51.9381 41.6612 52.2269C41.8225 52.6131 43.4744 51.6513 44.2394 50.0838C44.9331 48.6644 44.8506 47.1663 44.5131 47.215Z" fill="#FEFFFA"/>
<path d="M38.4719 45.4413C38.3744 45.5856 38.4625 46.8513 38.5206 46.9075C38.6331 47.02 39.4881 46.6169 39.4881 46.6169L39.4562 50.0013C39.4562 50.0013 38.8281 49.9938 38.7625 50.0181C38.6331 50.0669 38.65 51.3719 38.7456 51.4356C38.8412 51.4994 41.4044 51.5331 41.5019 51.4038C41.5994 51.2744 41.575 50.1325 41.53 50.08C41.4494 49.9825 40.8362 50.0219 40.8362 50.0219C40.8362 50.0219 40.8887 45.0381 40.8719 44.8788C40.855 44.7194 40.6787 44.62 40.4687 44.6688C40.2587 44.7175 38.5337 45.3475 38.4719 45.4413Z" fill="#D26A06"/>
<path d="M32.7831 31.6975C32.665 31.8063 37.1819 39.85 37.1819 39.85C37.1819 39.85 37.9394 39.9475 39.6306 39.9625C41.3219 39.9775 42.16 39.865 42.16 39.865C42.16 39.865 38.6481 31.7781 38.4381 31.6975C38.335 31.6563 36.9438 31.6413 35.5844 31.6263C34.2231 31.6094 32.8956 31.5925 32.7831 31.6975Z" fill="#2E9DF4"/>
<rect width="80" height="25" transform="translate(0 96)" fill="url(#paint1_linear_1_49)"/>
<defs>
<linearGradient id="paint0_linear_1_49" x1="40" y1="0" x2="40" y2="17" gradientUnits="userSpaceOnUse">
<stop stop-color="#D9D9D9" stop-opacity="0"/>
<stop offset="1" stop-color="#EDA01D"/>
</linearGradient>
<linearGradient id="paint1_linear_1_49" x1="40" y1="25" x2="40" y2="0" gradientUnits="userSpaceOnUse">
<stop stop-color="#3D9937"/>
<stop offset="1" stop-color="#173316"/>
</linearGradient>
</defs>
</svg>
