<svg width="80" height="71" viewBox="0 0 80 71" fill="none" xmlns="http://www.w3.org/2000/svg">
<path d="M9.01408 0H70.9859L80 17H0L9.01408 0Z" fill="url(#paint0_linear_1_29)"/>
<rect width="80" height="54" transform="translate(0 17)" fill="#173316"/>
<rect width="80" height="25" transform="translate(0 46)" fill="url(#paint1_linear_1_29)"/>
<path d="M40.9544 31.795C40.7519 31.975 39.1769 35.1006 39.1769 35.1006L38.005 39.8275L42.565 39.4094C42.565 39.4094 46.3581 32.3556 46.435 32.1925C46.5719 31.8962 46.645 31.7744 46.1219 31.7744C45.5987 31.7725 41.1437 31.6262 40.9544 31.795Z" fill="#176CC7"/>
<path d="M43.315 39.1169C43.0881 38.995 36.4056 38.89 36.2481 39.1169C36.1056 39.3231 36.1863 40.405 36.2406 40.5344C36.3381 40.7594 38.4963 41.74 38.4963 41.74L38.455 42.1862C38.455 42.1862 38.6313 42.2312 39.8856 42.2312C41.14 42.2312 41.3875 42.1675 41.3875 42.1675L41.3913 41.7644C41.3913 41.7644 43.3338 40.8194 43.4313 40.6881C43.5138 40.5794 43.5419 39.2387 43.315 39.1169ZM41.3256 40.8269C41.3256 40.8269 41.3875 40.5512 41.2581 40.4875C41.1288 40.4219 38.9088 40.4519 38.7325 40.4612C38.5563 40.4706 38.5563 40.7856 38.5563 40.7856L37.1313 39.9362V39.7975L42.4375 39.835L42.4469 39.9925L41.3256 40.8269Z" fill="#CECDD2"/>
<path d="M39.1112 40.5944C38.935 40.5944 38.8337 40.7781 38.8337 41.095C38.8337 41.3913 38.935 41.6406 39.1581 41.6219C39.3419 41.6069 39.4056 41.3256 39.3887 41.0763C39.3719 40.78 39.3344 40.5944 39.1112 40.5944Z" fill="#FDFFFF"/>
<path d="M33.4319 48.2294C33.4319 52.7219 37.5663 54.6288 40.2681 54.5481C43.4163 54.4544 46.7388 52.0656 46.5231 47.7794C46.3188 43.7181 42.8744 41.9125 39.9156 41.9331C36.4769 41.9594 33.4319 44.305 33.4319 48.2294Z" fill="#CECDD2"/>
<path d="M40.0994 53.7119C40.0525 53.7119 40.0038 53.7119 39.9569 53.71C38.5506 53.6631 37.1613 53.0706 36.145 52.0863C35.0575 51.0325 34.4613 49.6075 34.4688 48.0756C34.4856 44.335 37.7556 42.6006 39.9738 42.6006H39.9925C42.9981 42.6138 45.4656 44.95 45.535 48.1169C45.565 49.5269 44.9875 51.0063 43.855 52.12C42.7975 53.1569 41.395 53.7119 40.0994 53.7119ZM39.97 43.2231C37.9806 43.2231 35.0388 44.8506 35.0313 48.0756C35.0256 50.4869 36.8931 52.9656 40.0037 53.0706C41.1887 53.1081 42.4094 52.6544 43.3956 51.685C44.4194 50.6781 44.995 49.3806 44.9744 48.1244C44.9256 45.4 42.6981 43.2325 39.9944 43.2194C39.9906 43.2194 39.9756 43.2231 39.97 43.2231Z" fill="#9B9B9D"/>
<path d="M38.8919 42.5256C38.7625 42.3475 37.4369 42.3981 36.01 43.6262C34.5925 44.8469 34.3806 46.1969 34.6356 46.2681C34.9263 46.3487 35.2806 45.0437 36.505 43.9469C37.63 42.9437 39.1488 42.88 38.8919 42.5256ZM44.4775 47.4475C44.0256 47.5112 44.4944 48.865 43.4462 50.38C42.5369 51.6944 41.5056 52.1706 41.6256 52.4594C41.7869 52.8456 43.4388 51.8837 44.2038 50.3162C44.8956 48.8987 44.8131 47.4006 44.4775 47.4475Z" fill="#FEFFFA"/>
<path d="M32.7831 31.6975C32.665 31.8063 37.1819 39.85 37.1819 39.85C37.1819 39.85 37.9394 39.9475 39.6306 39.9625C41.3219 39.9775 42.16 39.865 42.16 39.865C42.16 39.865 38.6481 31.7781 38.4381 31.6975C38.335 31.6563 36.9437 31.6413 35.5844 31.6263C34.2231 31.6094 32.8956 31.5925 32.7831 31.6975Z" fill="#2E9DF4"/>
<path d="M38.6594 47.1906C38.8544 47.1925 39.0288 46.9281 39.19 46.7669C39.5331 46.4219 39.8931 46.1481 40.3038 46.5194C41.3125 47.4362 39.2875 48.3662 38.5188 49.6375C37.945 50.5862 37.8288 51.3156 37.9881 51.5106C38.1475 51.7056 42.0269 51.6962 42.0794 51.5987C42.1319 51.5012 42.1863 50.2019 42.0963 50.14C42.0063 50.0781 40.0994 50.1137 40.0994 50.1137C40.0994 50.1137 40.2588 49.7425 40.9131 49.1762C41.6313 48.5556 42.2069 47.7025 42.0531 46.6937C41.7344 44.6087 39.6344 44.5319 38.725 45.2575C37.8381 45.9644 38.0294 47.1831 38.6594 47.1906Z" fill="#7F7F7F"/>
<defs>
<linearGradient id="paint0_linear_1_29" x1="40" y1="0" x2="40" y2="17" gradientUnits="userSpaceOnUse">
<stop stop-color="#D9D9D9" stop-opacity="0"/>
<stop offset="1" stop-color="#35A5D6"/>
</linearGradient>
<linearGradient id="paint1_linear_1_29" x1="40" y1="25" x2="40" y2="0" gradientUnits="userSpaceOnUse">
<stop stop-color="#3D9937"/>
<stop offset="1" stop-color="#173316"/>
</linearGradient>
</defs>
</svg>
