<svg width="345" height="211" viewBox="0 0 345 211" fill="none" xmlns="http://www.w3.org/2000/svg">
<path fill-rule="evenodd" clip-rule="evenodd" d="M161.051 0.0671552C161.274 0.117395 161.939 0.254271 162.531 0.371366C165.815 1.02251 169.444 3.70759 170.059 5.9413C170.233 6.57385 170.221 7.01019 170.006 7.87159C169.752 8.88984 169.759 9.03384 170.099 9.56393C170.652 10.4269 170.489 12.0496 169.775 12.7791C169.365 13.1978 169.236 13.5293 169.236 14.1655C169.236 14.6635 169.338 15.031 169.489 15.0745C175.459 16.8001 181.382 20.2099 186.497 24.8648C189.343 27.4558 192.358 30.8066 194.296 33.5331C194.463 33.7676 194.839 34.0155 195.134 34.0837C195.61 34.1943 195.694 34.1304 195.907 33.4992C196.229 32.5457 196.838 32.41 198.074 33.0166C198.597 33.2731 199.204 33.7247 199.423 34.0204L199.821 34.5576L199.171 35.581C198.523 36.6019 198.522 36.6068 198.834 37.502C199.42 39.1874 199.192 40.1917 197.834 41.8893C197.442 42.3789 197.028 43.0106 196.912 43.2933C196.797 43.5759 196.186 44.2435 195.555 44.7768C194.501 45.667 194.325 45.7452 193.4 45.7311C192.512 45.7175 192.331 45.7879 191.879 46.3233C191.596 46.6576 191.122 47.1539 190.825 47.4264C190.031 48.1547 184.513 57.4213 183.979 58.9247C183.73 59.6259 183.742 59.6595 184.513 60.4236C184.947 60.8534 185.803 61.4427 186.414 61.7328C187.026 62.023 188.708 63.1124 190.153 64.1538C195.656 68.1198 198.434 69.9356 199.348 70.1637C201.594 70.7238 202.779 71.44 203.289 72.5473C203.74 73.5258 203.593 74.1671 202.04 77.9871C199.409 84.4622 199.038 84.8 194.366 84.9651C191.117 85.0801 189.67 84.9198 188.806 84.3494C186.926 83.11 187.991 80.0934 190.565 79.3608C192.045 78.9399 192.192 78.7199 191.836 77.4677L191.549 76.4558L187.855 75.1679L184.161 73.8801L182.913 75.1729C180.763 77.3999 178.634 78.4616 175.983 78.6286C173.904 78.7595 172.608 78.459 171.078 77.4918C168.395 75.7945 167.136 72.3687 167.74 68.4084C167.883 67.4758 168.145 66.3737 168.322 65.9591L168.645 65.2055L167.577 63.8856C166.989 63.1597 166.004 62.0194 165.388 61.3517C164.772 60.6837 163.965 59.5818 163.596 58.9028L162.923 57.6683L161.886 57.801C161.316 57.874 160.244 58.1128 159.503 58.3317L158.157 58.7299L158.815 60.1499C159.846 62.3721 160.543 65.3622 161.891 73.3328C162.434 76.5452 162.778 77.6861 164.203 80.9987C165.559 84.1506 165.26 84.4653 160.546 84.8419C159.157 84.9529 155.428 85.0055 152.26 84.959C146.429 84.8736 145.573 84.7713 144.733 84.061C144.213 83.6207 143.972 82.5621 144.204 81.7383C144.497 80.7007 145.606 80.0359 148.653 79.0728C151.271 78.2452 152.26 77.6683 152.26 76.969C152.26 76.6646 149.553 67.4193 148.641 64.6094C146.31 57.427 146.005 55.6098 146.86 53.9988C148.124 51.6173 151.583 48.7707 156.151 46.3534C157.123 45.8387 157.919 45.3088 157.919 45.1759C157.919 44.5572 156.427 40.6958 155.774 39.6254C155.182 38.6544 153.597 35.5345 152.653 33.483C152.109 32.3016 150.835 28.8817 150.725 28.3087C150.655 27.9429 150.531 27.6031 150.449 27.5535C150.367 27.504 149.452 28.4173 148.415 29.5831C145.63 32.7152 142.592 35.5789 141.34 36.2522C140.37 36.7731 140.038 36.8451 138.619 36.8426C136.77 36.8392 135.631 36.5176 133.061 35.2723C131.645 34.5861 131.192 34.455 130.482 34.5264C129.286 34.6466 126.886 33.5346 126.067 32.4802C125.511 31.7646 125.484 31.6366 125.505 29.8016C125.522 28.245 125.606 27.7434 125.938 27.1923C126.164 26.8171 126.411 26.2332 126.487 25.8948C126.693 24.9798 127.461 24.4833 128.672 24.4833C129.996 24.4833 132.385 25.5908 133.577 26.7581C134.31 27.475 134.673 27.6601 135.866 27.9257C136.646 28.0994 137.33 28.2414 137.386 28.2414C137.442 28.2414 137.827 27.6407 138.241 26.9063C140.031 23.7336 143.28 19.7073 145.724 17.6324C147.24 16.3452 149.274 15.0542 150.047 14.888C150.375 14.8176 150.644 14.687 150.644 14.5982C150.644 14.5092 150.225 14.0941 149.713 13.6755C148.448 12.6405 147.991 11.7047 147.991 10.1462C147.991 9.1539 147.909 8.82358 147.593 8.5437C146.061 7.18702 145.86 4.65187 147.208 3.68662C147.486 3.48764 148.441 3.17948 149.33 3.00186C150.219 2.82404 151.174 2.52279 151.452 2.33212C152.318 1.73754 154.128 0.899877 155.393 0.508241C156.56 0.146472 160.158 -0.133806 161.051 0.0671552ZM156.253 1.13051C154.739 1.50929 153.072 2.22788 152.018 2.95537C151.718 3.16247 150.672 3.50287 149.694 3.71155C147.149 4.2543 146.553 5.03856 147.319 6.83633C147.492 7.24082 147.911 7.8528 148.25 8.19637C148.821 8.77374 148.858 8.89341 148.733 9.7827C148.567 10.9637 148.784 11.5591 149.776 12.6387C151.466 14.4794 154.008 15.5904 155.566 15.1695C156.552 14.903 156.497 14.4906 155.441 14.2305C154.497 13.9979 153.428 13.0588 153.081 12.1576C152.781 11.3789 152.814 9.75955 153.145 8.9832C153.532 8.07611 154.381 7.47264 155.268 7.47363C156.064 7.47442 157.253 8.07849 157.45 8.58227C157.545 8.82556 157.632 8.76425 157.825 8.31545C158.063 7.76142 158.151 7.72621 159.62 7.60476C162.391 7.37532 163.907 6.17529 164.284 3.91251C164.366 3.42296 164.472 2.95636 164.521 2.87546C164.675 2.6213 166.222 3.51672 167.242 4.45012C167.78 4.94322 168.472 5.84735 168.779 6.45913C169.244 7.38679 169.349 7.49341 169.405 7.10118C169.534 6.20674 168.849 4.95905 167.611 3.83774C164.736 1.23217 160.182 0.146867 156.253 1.13051ZM164.829 5.00929C164.291 6.86343 162.365 8.16809 159.823 8.4005C158.65 8.5077 158.512 8.56467 158.566 8.91853C158.609 9.20335 158.936 9.41895 159.717 9.67806C160.752 10.0214 160.822 10.0224 161.075 9.69586C161.222 9.50677 161.345 9.28742 161.348 9.20869C161.361 8.91932 162.569 8.46181 163.32 8.46181C164.244 8.46181 164.876 8.85424 165.326 9.70773C165.638 10.2972 165.672 10.3122 165.881 9.95062C166.417 9.02217 167.18 8.46181 167.907 8.46181C168.744 8.46181 168.781 8.31149 168.232 7.12768C167.731 6.0493 166.706 4.80279 165.917 4.31364C165.209 3.87512 165.145 3.91587 164.829 5.00929ZM180.219 8.48001C187.659 9.08032 196.986 11.9001 203.701 15.5793C209.407 18.7049 213.841 22.3332 216.629 26.1566C219.388 29.9411 220.237 34.0416 218.832 36.7969C218.262 37.9148 217.012 39.318 216.586 39.318C216.103 39.318 216.322 38.6316 217.017 37.9708C218.436 36.6212 219.01 34.4554 218.572 32.0984C218.306 30.668 216.879 27.7928 215.627 26.1646C213.604 23.5339 209.615 20.0358 206.21 17.907C198.543 13.1124 188.347 9.86498 178.684 9.13907C177.59 9.05698 177.118 8.94345 177.118 8.76286C177.118 8.49406 177.583 8.24365 177.993 8.29171C178.123 8.30694 179.125 8.3916 180.219 8.48001ZM154.198 8.87264C153.91 9.20731 153.665 9.71901 153.654 10.01C153.562 12.2629 154.329 13.3529 156.175 13.5946C156.996 13.702 157.008 13.7157 157.163 14.6924C157.25 15.2363 156.996 16.4947 157.62 17.1694C157.315 17.1771 157.144 17.1814 156.84 17.1892C156.738 16.6967 156.58 15.928 156.58 15.928L154.875 15.9035C153.664 15.8863 152.953 15.7735 152.42 15.5144C151.708 15.1677 151.62 15.1661 150.649 15.4816C148.467 16.1913 145.198 18.8835 142.505 22.1898L140.91 24.149L143.804 26.9864C145.395 28.547 146.804 29.8238 146.935 29.8238C147.065 29.8238 147.417 29.5344 147.716 29.1809C148.675 28.046 150.48 26.2635 150.67 26.2635C150.89 26.2635 151.014 26.5594 151.869 29.1315C152.973 32.4531 154.674 36.1293 156.651 39.4663L157.149 40.307L160.313 40.3038C166.685 40.2977 173.688 38.7717 177.494 36.5599C178.329 36.0751 178.428 35.9434 178.398 35.3573C178.379 34.9817 177.728 33.4808 176.882 31.8609L175.4 29.0225L173.632 28.1283C172.659 27.6364 171.863 27.1462 171.863 27.0392C171.863 26.5267 172.611 26.7322 174.754 27.8338C176.037 28.493 177.162 29.0316 177.254 29.0302C177.346 29.029 177.731 28.4726 178.11 27.794C178.818 26.5259 181.358 23.0491 181.749 22.8123C182.258 22.5043 181.849 22.068 179.796 20.7271C177.613 19.3024 172.752 16.8494 171.055 16.3169C169.068 15.693 169.172 15.6663 168.566 16.9581C167.916 18.3445 166.591 19.5675 165.184 20.0813C164.49 20.3345 164.027 20.6801 163.591 21.2687C162.456 22.8028 160.626 23.3036 159.141 22.4867C158.374 22.0648 157.717 21.2149 157.717 20.6453C157.717 20.1292 158.21 20.2857 158.595 20.924C159.382 22.228 161.094 22.4954 162.257 21.4958C162.65 21.1581 162.971 20.8053 162.971 20.7115C162.971 20.6178 157.321 18.7204 156.84 17.1892C157.144 17.1814 157.315 17.1771 157.62 17.1694C158.187 17.5546 164.02 19.7848 165.345 19.1369C167.166 18.2464 168.428 16.3388 168.428 14.4782C168.428 13.7269 168.369 13.6045 168.01 13.6045C167.78 13.6045 167.303 13.8191 166.949 14.0812C166.12 14.6956 165.534 14.7986 165.439 14.3468C165.393 14.1267 165.54 13.9368 165.845 13.8235C166.497 13.581 166.903 13.09 166.603 12.9083C166.477 12.8323 166.209 12.5042 166.007 12.179L165.64 11.5878L165.366 12.1333C164.941 12.9818 164.083 13.5015 163.145 13.4775C162.039 13.449 161.32 12.8871 160.95 11.7632C160.695 10.9877 160.523 10.792 159.868 10.5347C159.44 10.3666 158.69 10.1751 158.201 10.1097C157.712 10.044 157.313 9.9166 157.313 9.82641C157.313 9.73621 157.03 9.34774 156.685 8.96323C155.848 8.02943 154.951 7.9966 154.198 8.87264ZM162.011 9.76588C161.346 10.495 161.401 11.5051 162.147 12.2352C162.822 12.8956 163.275 12.9555 163.987 12.4787C164.695 12.0047 164.783 11.8299 164.787 10.9024C164.79 10.2196 164.681 9.98979 164.152 9.55365C163.395 8.93059 162.712 8.99844 162.011 9.76588ZM167.077 9.68301C166.574 10.1453 166.434 11.3332 166.803 12.0081C167.046 12.451 168.186 12.9362 168.415 12.6935C168.507 12.5961 168.645 11.7822 168.721 10.8848L168.86 9.253H168.202C167.805 9.253 167.359 9.4233 167.077 9.68301ZM169.501 11.3793C169.552 11.5698 169.593 11.4139 169.593 11.0332C169.593 10.6524 169.552 10.4965 169.501 10.687C169.45 10.8775 169.45 11.1888 169.501 11.3793ZM187.122 13.1023C196.859 15.7581 205.421 20.2564 210.4 25.3324C215.554 30.5867 216.608 35.441 213.448 39.3708C212.71 40.2886 212.127 40.6294 211.815 40.3244C211.654 40.1671 211.822 39.877 212.426 39.2677C217.304 34.3476 212.882 26.2403 201.889 19.9516C197.155 17.2438 191.014 14.8221 185.707 13.5715C183.904 13.1466 183.383 12.9267 183.383 12.5914C183.383 12.2623 184.703 12.4427 187.122 13.1023ZM181.527 24.3349C179.413 27.0825 178.128 29.035 178.128 29.5012C178.128 29.55 178.924 30.0109 179.897 30.5254C184.493 32.9565 189.034 36.4533 189.649 38.0347C189.773 38.3545 189.778 39.0096 189.663 39.8042C189.5 40.9338 189.629 42.3328 189.924 42.6212C189.984 42.6801 190.236 42.3203 190.483 41.8217C190.731 41.3232 191.059 40.8679 191.213 40.8104C191.634 40.6521 192.516 41.1761 193.08 41.9196C193.601 42.6063 193.764 43.9794 193.41 44.7079C193.273 44.9902 193.337 45.0541 193.757 45.0541C194.805 45.0541 195.188 43.7215 194.605 42.1035C194.338 41.3644 194.341 41.2667 194.625 41.1599C194.8 41.0942 195.025 41.1648 195.126 41.3165C195.3 41.5774 195.358 41.776 195.615 42.9853C195.674 43.2616 195.811 43.4345 195.918 43.3692C196.22 43.1867 196.152 41.94 195.775 40.7718C195.589 40.1924 195.494 39.6618 195.565 39.5927C195.885 39.279 196.328 39.7884 196.636 40.8244C196.91 41.7471 197.007 41.8905 197.169 41.6073C197.411 41.1844 197.222 39.8071 196.816 39.0429C196.417 38.2891 196.437 37.8891 196.872 37.971C197.08 38.0102 197.397 38.4615 197.647 39.0733C198.095 40.175 198.339 40.2322 198.337 39.2355C198.333 37.4453 197.391 36.1513 195.313 35.0824C194.047 34.4314 193.719 34.132 192.444 32.4648C190.354 29.7306 187.572 26.7876 185.118 24.7143C183.938 23.717 182.895 22.9009 182.801 22.9009C182.707 22.9009 182.134 23.5461 181.527 24.3349ZM139.35 26.6096L138.292 28.3403L138.809 28.5268C139.284 28.6981 139.47 29.0239 139.228 29.2607C139.174 29.3135 137.966 29.1281 136.544 28.8484C134.003 28.3492 133.944 28.3257 133.182 27.4987C132.217 26.4521 129.788 25.2331 128.607 25.2029C127.619 25.1774 127.201 25.5933 127.201 26.6023C127.201 27.3444 128.13 29.4689 128.783 30.2194C129.151 30.6423 129.244 30.6709 129.427 30.4172C129.544 30.254 129.587 29.8089 129.521 29.4282C129.159 27.325 129.158 27.2524 129.492 27.2524C129.687 27.2524 129.887 27.5094 129.993 27.8953L130.17 28.5381L130.509 27.7614C130.756 27.1947 130.908 27.0438 131.071 27.203C131.233 27.3622 131.227 27.7673 131.047 28.7001C130.686 30.5726 131.26 31.3891 132.253 30.4172C132.758 29.9233 133.061 29.9118 133.061 30.3865C133.061 31.2392 131.75 31.7818 130.804 31.3201C130.453 31.149 130.154 31.0315 130.138 31.0592C130.122 31.0869 129.933 31.3765 129.717 31.7028C129.501 32.0292 129.215 32.5403 129.081 32.8386C128.866 33.3192 128.886 33.4063 129.26 33.6023C129.506 33.7308 130.072 33.7738 130.614 33.7049C131.385 33.6068 131.702 33.6747 132.455 34.0993C134.378 35.1839 136.74 35.9845 138.316 36.0854C139.652 36.1711 139.938 36.1254 140.73 35.6991C141.799 35.1239 143.876 33.3384 145.31 31.762L146.342 30.6268L143.491 27.7819C141.923 26.2172 140.588 24.924 140.524 24.908C140.46 24.8919 139.932 25.6578 139.35 26.6096ZM126.397 28.3898C126.403 29.1044 127.007 30.3454 127.768 31.2084C128.243 31.7454 128.435 31.848 128.626 31.6664C128.818 31.4835 128.709 31.2461 128.129 30.5833C127.721 30.1165 127.233 29.3095 127.044 28.7901C126.661 27.7355 126.39 27.5675 126.397 28.3898ZM177.724 31.7212C178.271 32.7648 178.909 34.1221 179.14 34.7376C179.371 35.353 180.102 36.9247 180.763 38.2301C182.575 41.8047 182.917 43.878 182.167 46.7496C181.646 48.741 180.779 50.1457 179.184 51.5825L177.916 52.725L178.726 54.553C180.182 57.8382 180.917 58.7162 181.687 58.0906C182.497 57.4327 188.572 47.1976 188.943 45.8654C189.083 45.3648 189.295 44.7139 189.414 44.4188C189.589 43.9887 189.554 43.7099 189.238 43.0116C188.805 42.0525 188.707 40.9308 188.925 39.4072C189.062 38.453 189.034 38.3674 188.297 37.4937C187.427 36.4622 185.73 35.063 183.793 33.7805C182.326 32.8093 177.108 29.8238 176.877 29.8238C176.795 29.8238 177.176 30.6777 177.724 31.7212ZM126.19 30.9111C126.19 31.4556 127.475 32.9885 127.931 32.9885C128.414 32.9885 128.239 32.6169 127.411 31.8848C126.971 31.4957 126.556 31.0064 126.488 30.7973C126.318 30.2728 126.19 30.3216 126.19 30.9111ZM196.541 34.0002C196.344 34.5529 196.374 34.6567 196.825 35.0045C197.103 35.2179 197.47 35.5298 197.641 35.6975C197.813 35.8653 197.977 35.9697 198.007 35.9295C198.036 35.8894 198.259 35.5998 198.502 35.2859C198.745 34.972 198.944 34.6415 198.944 34.5513C198.944 34.3058 197.486 33.3841 197.098 33.3841C196.902 33.3841 196.669 33.6422 196.541 34.0002ZM176.976 37.7137C172.756 39.7739 167.706 40.8521 161.395 41.0402C158.682 41.1211 157.519 41.2228 157.576 41.3745C157.622 41.4945 157.865 42.2602 158.116 43.0761C158.368 43.892 158.653 44.6425 158.748 44.7439C158.853 44.8549 159.721 44.5531 160.935 43.9832C162.788 43.1131 163.375 42.9932 163.375 43.4846C163.375 43.5876 162.421 44.1367 161.253 44.7048C160.086 45.2728 159.131 45.8178 159.131 45.9155C159.131 46.0134 159.759 46.8164 160.525 47.7C162.518 49.9984 164.413 52.8569 165.32 54.9346L166.104 56.7304L166.912 56.605C170.754 56.0094 176.477 53.1754 179.1 50.5702C181.56 48.1268 182.343 44.2639 181.084 40.7722C180.76 39.8744 179.177 36.7466 179.046 36.7466C178.997 36.7466 178.066 37.1818 176.976 37.7137ZM190.919 42.8289C190.585 43.4545 190.125 45.7769 190.226 46.0748C189.821 45.7311 189.136 47.3762 186.158 52.3725C183.462 56.8967 182.424 58.4658 181.921 58.7762C181.678 58.9263 181.318 58.9174 180.66 58.7453C178.733 58.2409 176.502 58.5531 174.46 59.6125C172.799 60.4748 170.494 62.8601 169.606 64.6359C167.851 68.1481 167.654 71.4608 169.034 74.2422C170.133 76.4577 171.83 77.6942 174.289 78.0712C178.536 78.7227 183.027 75.6594 185.232 70.6075C185.866 69.1527 185.896 68.9737 185.902 66.5149C185.908 64.1364 185.869 63.8593 185.371 62.8211C185.076 62.2038 184.462 61.3036 184.007 60.821C183.553 60.3384 183.181 59.7784 183.181 59.5766C183.181 58.843 183.914 57.3455 185.984 53.856C187.145 51.8978 188.321 49.8951 188.597 49.4056C189.273 48.2067 190.53 46.1741 190.226 46.0748C190.429 45.9258 191.122 46.122 191.761 45.3723C192.811 44.143 192.914 43.9415 192.81 43.3166C192.706 42.6892 192.003 41.6915 191.664 41.6915C191.589 41.6915 191.254 42.2032 190.919 42.8289ZM155.918 47.3788C151.812 49.6934 148.516 52.4253 147.625 54.2516C146.977 55.5816 147.013 56.6 147.796 59.0976C148.155 60.2399 149.001 62.9754 149.677 65.1765L150.906 69.1783L151.634 69.3302C152.034 69.4136 153.544 69.4819 154.989 69.4819C157.721 69.4819 159.897 69.129 160.083 68.6559C160.388 67.8768 158.948 62.2623 157.888 60.0988C157.134 58.5604 157.097 58.4097 157.415 58.1822C157.927 57.8159 162.028 56.9013 163.721 56.7761C164.531 56.7159 165.194 56.6261 165.194 56.5763C165.194 56.5264 164.832 55.7285 164.389 54.8032C163.247 52.4186 161.87 50.4834 158.687 46.7885C158.431 46.4915 158.158 46.2468 158.079 46.2446C158 46.2426 157.028 46.7529 155.918 47.3788ZM176.061 53.8297C172.978 55.7572 169.66 56.9869 166.306 57.445C165.083 57.6119 164.051 57.7791 164.012 57.8163C163.867 57.9559 165.062 59.8807 165.618 60.4015C166.188 60.9359 166.21 60.9395 167.362 60.691C169.044 60.3281 170.775 59.7183 172.059 59.0367C173.318 58.3681 176.255 56.4232 177.307 55.562L178.001 54.9935L177.644 54.0787C177.447 53.5755 177.25 53.1637 177.206 53.1637C177.162 53.1637 176.647 53.4634 176.061 53.8297ZM176.278 57.3101C173.904 59.0416 171.026 60.5195 168.933 61.0811C168.044 61.3198 167.199 61.5483 167.055 61.589C166.889 61.6361 167.177 62.13 167.849 62.9516C168.43 63.6603 168.958 64.2403 169.023 64.2403C169.088 64.2403 169.432 63.7646 169.788 63.1835C170.636 61.7955 172.903 59.7359 174.362 59.0272C175.784 58.3365 177.338 57.9163 178.482 57.9132C178.954 57.9118 179.341 57.862 179.341 57.802C179.341 57.5176 178.393 55.9329 178.223 55.9329C178.192 55.9329 177.316 56.5525 176.278 57.3101ZM180.452 59.2707C183.186 59.9813 185.192 62.5254 185.525 65.7028C185.97 69.9578 183.12 74.8451 179.042 76.8175C177.538 77.545 177.363 77.5832 175.506 77.5874C173.73 77.5911 173.446 77.5379 172.366 76.9975C167.422 74.5231 167.361 66.5887 172.25 61.8667C174.157 60.0253 175.817 59.2629 178.107 59.1777C179.064 59.1421 180.119 59.184 180.452 59.2707ZM178.583 59.8828C178.37 60.2169 178.397 60.3053 178.771 60.5013C179.132 60.6904 179.254 60.6679 179.476 60.3704C179.901 59.8021 179.849 59.7199 178.935 59.5161C178.878 59.5035 178.72 59.6686 178.583 59.8828ZM177.748 59.9032C178.029 60.0733 178.33 59.9673 178.33 59.6979C178.33 59.6057 178.141 59.5788 177.909 59.638C177.602 59.7167 177.558 59.7885 177.748 59.9032ZM179.824 60.2349C179.452 60.7154 179.479 60.941 179.943 61.2247C180.296 61.4405 180.379 61.3995 180.658 60.8708C180.832 60.5419 180.92 60.1863 180.853 60.0808C180.66 59.776 180.117 59.8573 179.824 60.2349ZM176.714 60.5577C176.714 60.6813 176.893 60.8922 177.112 61.0259C177.453 61.2346 177.543 61.2083 177.744 60.8419C177.937 60.4893 177.914 60.3692 177.615 60.155C177.229 59.8787 176.714 60.1087 176.714 60.5577ZM176.113 60.0788C175.95 60.1801 175.878 60.3231 175.953 60.3969C176.138 60.5779 176.714 60.3477 176.714 60.0927C176.714 59.8415 176.504 59.8367 176.113 60.0788ZM180.843 60.9041C180.572 61.4154 180.563 61.553 180.787 61.6921C181.265 61.9884 181.546 61.8814 181.862 61.2832C182.145 60.748 182.141 60.6829 181.817 60.498C181.285 60.195 181.198 60.231 180.843 60.9041ZM177.962 60.8959C177.735 61.2514 177.749 61.3479 178.064 61.5819C178.55 61.9425 178.593 61.9358 178.901 61.4529C179.128 61.0975 179.114 61.001 178.798 60.767C178.312 60.4064 178.27 60.4131 177.962 60.8959ZM175.118 60.8388C174.968 61.1129 175.018 61.2534 175.332 61.4452C175.678 61.6565 175.783 61.6397 176.018 61.3358C176.367 60.8851 176.375 60.7389 176.057 60.6131C175.573 60.4218 175.312 60.4845 175.118 60.8388ZM181.77 62.0082C181.768 62.1403 181.945 62.342 182.163 62.4566C182.499 62.6324 182.607 62.5772 182.859 62.0991C183.128 61.5906 183.124 61.5004 182.819 61.2021C182.502 60.892 182.458 60.8995 182.128 61.3192C181.934 61.5659 181.773 61.876 181.77 62.0082ZM179.056 62.007C179.38 62.5104 179.693 62.5291 179.949 62.0604C180.14 61.7111 180.116 61.5892 179.812 61.3681C179.306 61.0012 178.724 61.4929 179.056 62.007ZM176.219 61.4165C176.135 61.6317 176.219 61.8529 176.448 62.0167C176.754 62.2358 176.849 62.2237 177.061 61.9391C177.247 61.6915 177.254 61.5329 177.09 61.339C176.78 60.9739 176.379 61.0097 176.219 61.4165ZM173.63 61.3525C173.314 61.5866 173.309 61.6452 173.579 61.8649C173.823 62.0629 173.946 62.0633 174.187 61.8667C174.885 61.3006 174.356 60.8133 173.63 61.3525ZM174.477 61.8919C174.239 62.3262 174.474 62.6478 175.033 62.6549C175.4 62.6595 175.592 61.8469 175.27 61.6472C174.858 61.3914 174.729 61.4312 174.477 61.8919ZM177.337 62.0343C177.199 62.2855 177.209 62.4706 177.37 62.6276C177.695 62.9455 177.939 62.9127 178.248 62.5096C178.485 62.1998 178.508 62.2249 178.472 62.7491C178.423 63.4554 178.998 63.6811 179.324 63.0838C179.509 62.7463 179.424 62.6276 178.681 62.1895C177.646 61.5787 177.589 61.572 177.337 62.0343ZM182.986 62.2493C182.702 62.7679 182.713 62.8086 183.206 63.0669C183.541 63.2424 183.679 63.2329 183.832 63.0244C183.981 62.8197 184.001 62.8367 183.916 63.0966C183.809 63.424 184.111 63.7911 184.32 63.587C184.467 63.4424 183.612 61.8667 183.386 61.8667C183.281 61.8667 183.101 62.0388 182.986 62.2493ZM180.19 62.1041C179.846 62.4403 179.887 62.6122 180.368 62.8644C180.71 63.0436 180.839 63.0171 181.058 62.7236C181.519 62.1076 180.748 61.5578 180.19 62.1041ZM172.47 62.6567C172.47 62.7313 172.695 62.8929 172.971 63.0157C173.405 63.2094 173.504 63.1825 173.704 62.816C173.894 62.4676 173.871 62.3462 173.57 62.1312C173.262 61.9108 173.148 61.9209 172.838 62.1957C172.635 62.3749 172.47 62.5824 172.47 62.6567ZM175.591 62.4945C175.494 62.7938 175.562 63.0031 175.813 63.1835C176.124 63.4058 176.218 63.383 176.477 63.0211C176.749 62.6405 176.742 62.5741 176.404 62.3321C175.893 61.966 175.753 61.9939 175.591 62.4945ZM186.157 63.1714C186.435 63.7794 186.508 64.4693 186.499 66.416C186.488 68.9888 186.331 69.6992 185.311 71.806C185.061 72.3228 184.911 72.7455 184.979 72.7455C185.046 72.7455 185.818 72.2953 186.695 71.7453C188.653 70.5179 190.144 69.0368 191.015 67.4543L191.675 66.2556L189.485 64.6733C187.219 63.0359 185.973 62.2323 185.865 62.3381C185.831 62.3719 185.962 62.7469 186.157 63.1714ZM181.21 62.8498C180.997 63.1839 181.024 63.2723 181.398 63.4683C181.761 63.6582 181.882 63.6342 182.111 63.328C182.348 63.01 182.338 62.9249 182.037 62.7097C181.576 62.3792 181.503 62.3915 181.21 62.8498ZM173.682 63.2822C173.682 63.3662 173.85 63.5231 174.056 63.6307C174.754 63.9964 175.228 63.0632 174.541 62.6761C174.277 62.5272 174.124 62.5592 173.935 62.8031C173.796 62.9823 173.682 63.1979 173.682 63.2822ZM176.512 63.48C176.512 63.564 176.68 63.7209 176.885 63.8285C177.583 64.1942 178.058 63.261 177.37 62.8739C177.106 62.725 176.953 62.757 176.764 63.0009C176.625 63.1801 176.512 63.3957 176.512 63.48ZM179.341 63.6372C179.341 63.6989 179.52 63.8591 179.739 63.9928C180.08 64.2015 180.171 64.1752 180.371 63.8089C180.565 63.4542 180.541 63.3358 180.228 63.1119C179.903 62.8793 179.816 62.8891 179.596 63.1835C179.456 63.3712 179.341 63.5753 179.341 63.6372ZM171.588 63.4926C171.663 63.6121 171.78 63.5838 171.886 63.4208C172.162 62.9942 172.093 62.7847 171.765 63.0517C171.599 63.1862 171.519 63.3846 171.588 63.4926ZM182.359 63.4742C182.122 63.9062 182.355 64.23 182.906 64.2373C183.253 64.2419 183.422 63.6346 183.159 63.3251C182.838 62.9459 182.626 62.9855 182.359 63.4742ZM172.07 63.4408C171.897 63.7571 171.939 63.8704 172.3 64.0593C172.666 64.251 172.786 64.2298 173.006 63.9355C173.202 63.6736 173.213 63.5114 173.048 63.317C172.728 62.9396 172.315 62.9918 172.07 63.4408ZM177.749 63.7869C177.551 64.1588 177.58 64.2567 177.94 64.4454C178.285 64.626 178.416 64.6001 178.644 64.3054C178.89 63.9881 178.872 63.9005 178.498 63.5925C178.263 63.3995 178.051 63.2659 178.026 63.2958C178.001 63.3257 177.877 63.5468 177.749 63.7869ZM174.899 63.6386C174.726 63.9549 174.769 64.0682 175.129 64.2571C175.495 64.4488 175.615 64.4276 175.835 64.1333C176.031 63.8714 176.042 63.7092 175.877 63.5148C175.557 63.1374 175.145 63.1896 174.899 63.6386ZM180.633 63.7952C180.264 64.27 180.282 64.3437 180.821 64.5839C181.21 64.7573 181.334 64.7259 181.541 64.3997C181.752 64.0692 181.734 63.9626 181.426 63.7339C180.955 63.3848 180.951 63.3852 180.633 63.7952ZM183.413 64.069C183.188 64.4211 183.188 64.519 183.415 64.6594C183.85 64.9292 184.162 64.8616 184.387 64.4486C184.553 64.1461 184.522 64.0203 184.243 63.8613C183.753 63.5822 183.718 63.5909 183.413 64.069ZM173.169 64.0672C173.034 64.4846 173.32 64.8242 173.812 64.8307C174.159 64.8353 174.328 64.228 174.065 63.9185C173.728 63.5203 173.325 63.587 173.169 64.0672ZM176.025 64.1665C175.881 64.532 176.227 65.0315 176.624 65.0315C177.011 65.0315 177.221 64.2278 176.887 64.0207C176.467 63.7604 176.164 63.8117 176.025 64.1665ZM170.927 64.5759C171.009 64.657 171.162 64.5924 171.265 64.4323C171.576 63.9507 171.483 63.7369 171.118 64.0943C170.93 64.2783 170.844 64.495 170.927 64.5759ZM181.564 64.8645C181.564 64.9486 181.742 65.1108 181.96 65.2249C182.283 65.394 182.399 65.3529 182.592 65.0002C182.788 64.64 182.765 64.5235 182.451 64.2986C182.126 64.066 182.039 64.0759 181.819 64.3702C181.679 64.5579 181.564 64.7803 181.564 64.8645ZM178.854 64.3643C178.727 64.6883 179.042 65.2293 179.358 65.2293C179.452 65.2293 179.632 65.04 179.759 64.8085C179.938 64.4804 179.929 64.3505 179.715 64.2181C179.296 63.9582 178.993 64.0097 178.854 64.3643ZM171.495 64.4563C171.268 64.8117 171.282 64.9082 171.597 65.1422C172.083 65.5028 172.126 65.4961 172.434 65.0133C172.661 64.6578 172.647 64.5613 172.331 64.3273C171.845 63.9667 171.803 63.9735 171.495 64.4563ZM174.324 64.6541C174.097 65.0095 174.112 65.106 174.427 65.3402C174.747 65.5782 174.839 65.5602 175.15 65.1976C175.491 64.801 175.491 64.771 175.15 64.5178C174.676 64.1653 174.631 64.1726 174.324 64.6541ZM177.104 64.8588C176.925 65.1869 176.934 65.3169 177.148 65.4492C177.585 65.7202 177.897 65.6533 178.122 65.2397C178.288 64.9373 178.257 64.8115 177.978 64.6525C177.469 64.3623 177.362 64.3876 177.104 64.8588ZM184.483 65.2121C184.716 65.5798 184.967 65.4478 184.852 65.0184C184.781 64.7518 184.675 64.677 184.545 64.8034C184.437 64.9098 184.409 65.0938 184.483 65.2121ZM179.958 65.0107C179.714 65.4571 180.162 65.936 180.652 65.752C181.021 65.6136 181.059 64.9067 180.705 64.7668C180.267 64.5939 180.169 64.6262 179.958 65.0107ZM172.665 65.0441C172.499 65.3471 172.504 65.5256 172.682 65.7364C173.013 66.1263 173.224 66.0928 173.489 65.6086C173.672 65.2742 173.645 65.1454 173.345 64.9227C172.877 64.5755 172.926 64.5666 172.665 65.0441ZM182.776 65.1304C182.576 65.3671 182.576 65.487 182.776 65.7237C183.107 66.1132 183.381 66.0986 183.697 65.6749C184.176 65.0342 183.298 64.515 182.776 65.1304ZM175.509 65.9694C175.742 66.1284 175.951 66.2273 175.976 66.189C176 66.1506 176.144 65.9607 176.296 65.7671C176.534 65.4621 176.52 65.3764 176.188 65.1304C175.846 64.8768 175.765 64.8912 175.446 65.2631C175.101 65.6646 175.103 65.6907 175.509 65.9694ZM170.247 65.6626C170.247 65.9459 170.604 65.8329 170.73 65.5097C170.951 64.9462 170.846 64.7267 170.543 65.1187C170.38 65.3299 170.247 65.5746 170.247 65.6626ZM178.158 65.4536C177.934 65.8056 177.934 65.9035 178.16 66.044C178.566 66.2958 178.857 66.2539 179.157 65.9002C179.386 65.6298 179.369 65.5406 179.042 65.3068C178.537 64.9454 178.476 64.9557 178.158 65.4536ZM181.008 65.6189C180.795 65.953 180.822 66.0414 181.196 66.2374C181.559 66.4273 181.68 66.4034 181.908 66.0972C182.146 65.7791 182.136 65.6941 181.835 65.4789C181.374 65.1484 181.301 65.1606 181.008 65.6189ZM173.79 66.3462C174.301 66.7123 174.441 66.6844 174.603 66.1838C174.7 65.8846 174.632 65.6753 174.38 65.4949C174.07 65.2726 173.976 65.2953 173.717 65.6573C173.445 66.0378 173.452 66.1043 173.79 66.3462ZM170.844 65.6411C170.661 65.9757 170.688 66.1033 170.989 66.3227C171.312 66.5586 171.401 66.5383 171.698 66.1617C171.942 65.8517 171.977 65.6603 171.824 65.4801C171.509 65.108 171.099 65.1755 170.844 65.6411ZM183.838 65.8167C183.624 66.1508 183.651 66.2392 184.026 66.4352C184.386 66.6239 184.509 66.602 184.728 66.309C184.923 66.0471 184.934 65.885 184.769 65.6905C184.454 65.3189 184.127 65.3632 183.838 65.8167ZM176.309 66.2491C176.309 66.3332 176.477 66.49 176.683 66.5976C177.381 66.9633 177.855 66.0301 177.168 65.6431C176.904 65.4941 176.751 65.5262 176.562 65.77C176.423 65.9492 176.309 66.1648 176.309 66.2491ZM179.139 66.4469C179.139 66.531 179.317 66.6931 179.535 66.8073C179.858 66.9764 179.973 66.9353 180.166 66.5826C180.363 66.2224 180.34 66.1059 180.026 65.881C179.701 65.6484 179.614 65.6583 179.394 65.9526C179.254 66.1403 179.139 66.3626 179.139 66.4469ZM181.968 66.6447C181.968 66.7288 182.146 66.8909 182.364 67.0051C182.687 67.1742 182.803 67.1331 182.996 66.7804C183.193 66.4202 183.169 66.3037 182.855 66.0788C182.53 65.8462 182.443 65.8561 182.223 66.1504C182.083 66.3381 181.968 66.5604 181.968 66.6447ZM171.916 66.2095C171.706 66.5389 171.735 66.6419 172.113 66.9012C172.526 67.1843 172.575 67.1746 172.807 66.7614C173.015 66.3903 173.001 66.2764 172.724 66.0699C172.284 65.7416 172.206 65.755 171.916 66.2095ZM174.709 66.3858C174.572 66.637 174.582 66.8221 174.743 66.9792C175.088 67.3176 175.46 67.2565 175.697 66.8221C175.863 66.5197 175.832 66.3939 175.553 66.2349C175.053 65.95 174.936 65.971 174.709 66.3858ZM180.39 66.709C180.194 67.1309 180.22 67.2302 180.577 67.4173C180.805 67.5369 181.01 67.6054 181.032 67.5694C181.054 67.5334 181.196 67.3453 181.348 67.1516C181.587 66.8466 181.572 66.761 181.24 66.5151C180.719 66.1288 180.653 66.1439 180.39 66.709ZM177.526 66.6055C177.355 66.92 177.394 67.0345 177.738 67.2145C178.083 67.3953 178.211 67.3696 178.431 67.0751C178.621 66.8209 178.639 66.6403 178.491 66.4661C178.184 66.1033 177.768 66.1633 177.526 66.6055ZM183.424 67.5743C183.77 67.8113 183.857 67.8121 184.008 67.5797C184.281 67.158 184.225 66.85 183.837 66.6374C183.562 66.4864 183.432 66.5377 183.251 66.8694C183.055 67.2268 183.083 67.3403 183.424 67.5743ZM173.116 66.6534C172.768 66.9944 172.816 67.2747 173.272 67.5532C173.612 67.7606 173.703 67.7367 173.892 67.3904C174.057 67.0897 174.052 66.9103 173.874 66.7001C173.58 66.3541 173.432 66.3448 173.116 66.6534ZM175.946 66.8512C175.812 66.9817 175.703 67.1948 175.703 67.3245C175.703 67.7092 176.356 67.8402 176.682 67.5211C176.928 67.2796 176.936 67.1724 176.722 66.9204C176.409 66.5517 176.265 66.5389 175.946 66.8512ZM191.67 67.9078C190.966 69.25 188.411 71.7067 186.754 72.6349C185.839 73.1476 185.466 73.455 185.642 73.5503C186.247 73.8757 191.95 75.7123 192.348 75.7099C192.981 75.7063 195.101 74.6034 195.879 73.8726C196.686 73.115 197.441 71.8887 197.621 71.0407C197.748 70.4408 197.695 70.3856 195.67 69.0202C194.525 68.2482 193.361 67.4375 193.083 67.2187C192.805 66.9999 192.488 66.8484 192.377 66.8818C192.266 66.9155 191.948 67.3771 191.67 67.9078ZM178.625 67.2319C178.54 67.4956 178.592 67.7156 178.764 67.8222C179.116 68.0405 179.359 67.96 179.63 67.536C179.794 67.2778 179.773 67.1505 179.543 67.0069C179.063 66.7072 178.773 66.7784 178.625 67.2319ZM171.764 67.2084C171.965 67.4268 172.184 67.553 172.249 67.4889C172.314 67.425 172.192 67.2464 171.976 67.0921C171.422 66.6959 171.334 66.7442 171.764 67.2084ZM170.147 67.2084C170.349 67.4268 170.557 67.5623 170.611 67.5098C170.747 67.3769 170.243 66.8116 169.989 66.8116C169.874 66.8116 169.945 66.9902 170.147 67.2084ZM181.455 67.4297C181.369 67.6934 181.421 67.9133 181.593 68.0202C181.974 68.2565 182.084 68.2395 182.372 67.8995C182.573 67.6627 182.573 67.5429 182.372 67.3061C182.015 66.8848 181.614 66.9388 181.455 67.4297ZM174.194 68.1264C174.705 68.4925 174.845 68.4646 175.007 67.964C175.104 67.6647 175.036 67.4555 174.785 67.2751C174.474 67.0527 174.38 67.0755 174.121 67.4375C173.849 67.818 173.856 67.8845 174.194 68.1264ZM184.212 67.5639C184.064 67.8346 184.108 67.9763 184.396 68.1517C184.712 68.3448 184.795 68.3188 184.9 67.9946C185.136 67.2677 184.569 66.9125 184.212 67.5639ZM176.902 67.6279C176.723 67.9561 176.732 68.086 176.945 68.2184C177.366 68.4789 177.668 68.4266 177.808 68.069C177.878 67.8902 177.992 67.799 178.061 67.8665C178.13 67.9337 178.069 68.1274 177.925 68.2965C177.707 68.5532 177.728 68.6513 178.048 68.8883C178.564 69.2708 178.682 69.2556 178.946 68.7726C179.205 68.2989 179.185 68.2704 178.173 67.6821C177.216 67.1251 177.178 67.1236 176.902 67.6279ZM179.448 68.3394C178.951 69.2101 178.938 69.2906 179.263 69.5228C179.519 69.7062 179.682 69.7141 179.88 69.5533C180.253 69.2506 180.217 68.8475 179.796 68.6076C179.601 68.4966 179.538 68.4033 179.654 68.3999C179.771 68.3968 179.965 68.4905 180.085 68.6084C180.243 68.7625 180.396 68.6944 180.631 68.3667C180.811 68.1157 180.958 68.014 180.958 68.1404C180.958 68.267 180.867 68.4256 180.756 68.4929C180.429 68.6903 180.521 68.9093 181.023 69.1332C181.414 69.3076 181.536 69.2748 181.751 68.9371C181.963 68.6044 181.961 68.5028 181.737 68.3718C181.586 68.2838 181.19 68.037 180.857 67.823C180.523 67.6089 180.19 67.4274 180.116 67.4194C180.042 67.4115 179.742 67.8255 179.448 68.3394ZM172.761 68.1106C173.234 68.4523 173.48 68.4721 173.48 68.1685C173.48 67.803 172.803 67.4019 172.571 67.6295C172.436 67.7612 172.499 67.9217 172.761 68.1106ZM169.458 68.0279C169.203 68.7429 169.163 69.7786 169.39 69.7786C169.474 69.7786 169.662 69.5924 169.807 69.3648C170.034 69.0095 170.019 68.9102 169.704 68.6624C169.358 68.39 169.362 68.3803 169.78 68.4921C170.321 68.6375 170.778 68.0042 170.399 67.6331C170.004 67.2462 169.69 67.3779 169.458 68.0279ZM182.263 68.5251C181.738 69.4016 181.729 69.4603 182.075 69.7085C182.345 69.9012 182.511 69.9125 182.709 69.7511C183.074 69.4552 183.048 69.1832 182.625 68.8578C182.306 68.6122 182.323 68.5973 182.808 68.7043C183.241 68.8003 183.372 68.7388 183.486 68.3861C183.578 68.1046 183.531 67.8884 183.354 67.7789C182.914 67.5063 182.844 67.5546 182.263 68.5251ZM175.216 68.5342C175.54 69.0376 175.853 69.0564 176.11 68.5876C176.301 68.2383 176.276 68.1165 175.972 67.8954C175.466 67.5284 174.885 68.0202 175.216 68.5342ZM170.691 68.2358C170.343 68.5768 170.391 68.857 170.847 69.1355C171.186 69.343 171.278 69.3191 171.467 68.9727C171.632 68.6721 171.627 68.4927 171.449 68.2824C171.155 67.9365 171.007 67.9272 170.691 68.2358ZM183.674 68.5418C183.37 68.9494 183.637 69.383 184.192 69.383C184.678 69.383 184.853 68.6442 184.425 68.3995C183.977 68.1438 183.971 68.145 183.674 68.5418ZM173.54 68.5143C173.504 68.6211 173.922 68.9455 174.469 69.2348C175.278 69.6619 175.486 69.7074 175.576 69.4761C175.701 69.1591 175.004 68.7002 174.688 68.8911C174.58 68.9569 174.491 68.8794 174.491 68.7188C174.491 68.2462 173.69 68.0738 173.54 68.5143ZM176.219 68.735C176.135 68.9486 176.217 69.1702 176.438 69.3284C176.926 69.6773 177.069 69.6468 177.227 69.1605C177.447 68.4812 176.479 68.0722 176.219 68.735ZM171.069 70.6851C171.398 71.073 171.722 71.0354 172.015 70.5757C172.227 70.243 172.202 70.1538 171.844 69.9663C171.613 69.8454 171.476 69.6965 171.538 69.6354C171.6 69.5744 171.793 69.6393 171.966 69.7798C172.228 69.9928 172.328 69.9728 172.571 69.6595C172.83 69.3246 172.815 69.2457 172.429 68.9282C172.002 68.5774 171.989 68.5851 171.414 69.4886C170.953 70.2133 170.881 70.4633 171.069 70.6851ZM177.324 69.3747C177.152 69.6909 177.194 69.8043 177.554 69.9932C177.92 70.1848 178.041 70.1637 178.26 69.8694C178.456 69.6075 178.467 69.4453 178.302 69.2509C177.982 68.8735 177.57 68.9257 177.324 69.3747ZM170.038 69.3956C169.872 69.6987 169.876 69.8771 170.055 70.0879C170.386 70.4778 170.597 70.4443 170.862 69.9601C171.045 69.6257 171.018 69.4969 170.717 69.2742C170.249 68.9271 170.299 68.9182 170.038 69.3956ZM180.154 69.5725C179.982 69.887 180.022 70.0015 180.365 70.1815C180.71 70.3623 180.838 70.3365 181.058 70.042C181.248 69.7879 181.266 69.6073 181.118 69.433C180.811 69.0703 180.396 69.1302 180.154 69.5725ZM182.983 69.7703C182.812 70.0834 182.85 70.1987 183.182 70.3727C183.408 70.4912 183.696 70.5256 183.822 70.4495C183.963 70.3644 183.996 70.3993 183.907 70.5391C183.828 70.6647 183.863 70.7675 183.984 70.7675C184.221 70.7675 184.181 70.0359 183.922 69.6302C183.686 69.2621 183.223 69.3312 182.983 69.7703ZM176.017 70.0612C176.279 70.2507 176.478 70.2794 176.613 70.1475C176.747 70.0157 176.684 69.8551 176.421 69.6656C176.159 69.4761 175.961 69.4475 175.826 69.5794C175.691 69.7111 175.755 69.8717 176.017 70.0612ZM172.784 69.724C172.699 69.938 172.782 70.1595 173.005 70.3191C173.3 70.5304 173.414 70.5207 173.673 70.263C173.955 69.9823 173.947 69.9245 173.593 69.6676C173.085 69.2991 172.946 69.3088 172.784 69.724ZM178.432 69.9746C178.362 70.1912 178.373 70.477 178.457 70.6095C178.54 70.7422 178.26 70.6493 177.834 70.403C177.307 70.0988 176.992 70.0201 176.852 70.1572C176.649 70.3563 176.913 70.5391 177.557 70.6439C177.704 70.6681 178.036 70.8008 178.293 70.939C178.636 71.1238 178.832 71.1327 179.029 70.9727C179.467 70.617 179.541 69.9956 179.171 69.7841C178.685 69.5066 178.575 69.5351 178.432 69.9746ZM157.919 70.1103C156.383 70.4056 152.392 70.3731 151.573 70.0586C151.108 69.8798 151.102 69.8537 152.306 73.9887L153.157 76.9133L154.174 77.1922C154.733 77.3457 155.698 77.5288 156.319 77.5994C157.495 77.7331 160.264 77.4121 161.083 77.0472C161.648 76.7952 161.677 76.3697 161.272 74.2996C161.116 73.4993 160.878 72.1768 160.743 71.3609C160.448 69.5739 160.415 69.5096 159.867 69.6826C159.629 69.7576 158.753 69.9501 157.919 70.1103ZM181.21 70.1682C180.998 70.5015 181.024 70.5903 181.388 70.781C181.724 70.9572 181.879 70.9398 182.126 70.6979C182.383 70.4459 182.393 70.3375 182.179 70.0852C181.828 69.672 181.51 69.6993 181.21 70.1682ZM174.017 70.9135C174.482 71.2464 174.68 71.2282 174.833 70.8378C174.912 70.6372 174.813 70.4072 174.576 70.2377C174.241 69.9979 174.159 70.0076 173.93 70.3134C173.71 70.6083 173.724 70.7037 174.017 70.9135ZM169.294 70.579C169.245 71.2593 169.671 71.549 170.148 71.161C170.579 70.8113 170.524 70.622 169.893 70.2873C169.587 70.1249 169.337 69.9847 169.337 69.9847C169.337 69.9847 169.318 70.2481 169.294 70.579ZM179.341 70.9962C179.341 71.0803 179.513 71.2397 179.724 71.3501C180.033 71.5118 180.169 71.4604 180.42 71.0854C180.711 70.6501 180.703 70.6065 180.289 70.4167C179.946 70.2596 179.789 70.2849 179.594 70.5284C179.454 70.7015 179.341 70.9119 179.341 70.9962ZM182.379 70.7545C182.089 71.2862 182.094 71.2963 182.8 71.537C183.452 71.7595 183.787 71.6877 183.787 71.3251C183.787 71.2005 183.648 71.2256 183.446 71.3863C183.145 71.6258 183.122 71.6141 183.247 71.2864C183.387 70.9218 183.094 70.372 182.759 70.372C182.665 70.372 182.495 70.544 182.379 70.7545ZM172.155 70.7175C171.664 71.3748 172.558 71.8726 173.094 71.2407C173.323 70.9703 173.306 70.8811 172.979 70.6473C172.492 70.2988 172.466 70.3009 172.155 70.7175ZM174.988 70.9901C174.902 71.2537 174.954 71.4737 175.126 71.5805C175.508 71.8174 175.617 71.7998 175.911 71.4537C176.123 71.2033 176.101 71.1016 175.784 70.8666C175.264 70.4813 175.147 70.4993 174.988 70.9901ZM198.333 71.2126C198.326 71.912 197.659 73.1575 196.761 74.1463C195.973 75.0138 193.735 76.3058 193.02 76.3058C192.509 76.3058 192.427 76.654 192.696 77.6819C193.033 78.9666 192.676 79.5364 191.281 79.9419C189.88 80.3492 189.48 80.5931 189.031 81.3129C188.506 82.1553 188.523 83.109 189.071 83.6089C189.659 84.1449 190.72 84.2689 194.023 84.1876C197.611 84.0994 198.38 83.7934 199.305 82.0856C200.271 80.3043 202.112 75.9342 202.469 74.5755C202.764 73.457 202.765 73.2837 202.482 72.7479C202.089 72.004 201.487 71.6159 200.009 71.1536C198.488 70.6778 198.339 70.6829 198.333 71.2126ZM180.746 71.8341C181.068 71.9747 181.262 71.9391 181.513 71.6936C181.826 71.3871 181.822 71.3449 181.454 71.0723C181.096 70.8079 181.023 70.8213 180.687 71.213C180.324 71.6359 180.325 71.6505 180.746 71.8341ZM170.247 71.5896C170.247 71.6737 170.425 71.8358 170.642 71.95C170.966 72.1191 171.081 72.0779 171.274 71.7253C171.471 71.3651 171.448 71.2486 171.133 71.0237C170.808 70.7911 170.722 70.801 170.502 71.0953C170.361 71.283 170.247 71.5053 170.247 71.5896ZM173.269 71.3772C173.086 71.7118 173.113 71.8384 173.413 72.053C173.673 72.239 173.857 72.2562 174.035 72.1116C174.393 71.821 174.349 71.4153 173.935 71.179C173.478 70.9185 173.528 70.9034 173.269 71.3772ZM176.135 72.0864C176.445 72.4516 176.847 72.4158 177.006 72.0089C177.091 71.7937 177.006 71.5726 176.778 71.4088C176.471 71.1896 176.376 71.2017 176.164 71.4863C175.979 71.734 175.971 71.8926 176.135 72.0864ZM181.749 72.215C182.021 72.4805 183.181 72.5772 183.181 72.3343C183.181 72.2213 183.09 72.1838 182.979 72.251C182.867 72.3183 182.776 72.2666 182.776 72.1361C182.776 72.0058 182.617 71.782 182.423 71.639C182.125 71.4201 182.029 71.4306 181.816 71.7055C181.66 71.9057 181.635 72.1029 181.749 72.215ZM171.264 72.1946C171.26 72.2724 171.446 72.4352 171.678 72.5564C172.02 72.7354 172.151 72.7089 172.379 72.415C172.625 72.0979 172.607 72.0101 172.235 71.7041C171.83 71.3706 171.799 71.3706 171.541 71.7041C171.392 71.8962 171.267 72.1169 171.264 72.1946ZM169.323 72.105C169.39 72.1707 169.557 72.1155 169.693 71.9824C169.888 71.7911 169.877 71.7011 169.639 71.5558C169.424 71.4244 169.318 71.4596 169.269 71.6784C169.231 71.8471 169.255 72.0392 169.323 72.105ZM174.324 71.9725C174.097 72.328 174.112 72.4245 174.427 72.6585C174.913 73.0191 174.956 73.0123 175.264 72.5295C175.491 72.1741 175.476 72.0776 175.161 71.8436C174.675 71.483 174.632 71.4897 174.324 71.9725ZM177.153 72.1703C176.926 72.5258 176.941 72.6223 177.256 72.8563C177.744 73.2182 177.784 73.2111 178.104 72.7105C178.344 72.3341 178.332 72.2473 178.013 72.0182C177.529 71.6725 177.463 71.6841 177.153 72.1703ZM169.733 72.3746C169.648 72.6383 169.699 72.8582 169.871 72.9651C170.284 73.2208 170.413 73.1811 170.665 72.7204C170.844 72.3922 170.835 72.2623 170.621 72.13C170.17 71.8499 169.877 71.9304 169.733 72.3746ZM178.443 72.5918C178.036 73.1607 178.046 73.2819 178.524 73.5323C178.845 73.7005 178.962 73.6617 179.146 73.3252C179.331 72.9882 179.304 72.8567 179.003 72.6201C178.654 72.3458 178.659 72.3363 179.088 72.452C179.354 72.5234 179.543 72.4866 179.543 72.3632C179.543 71.9812 178.764 72.143 178.443 72.5918ZM175.494 72.5604C175.329 72.8634 175.333 73.0418 175.512 73.2527C175.842 73.6425 176.054 73.6091 176.318 73.1249C176.501 72.7904 176.474 72.6617 176.174 72.4389C175.706 72.0918 175.755 72.0829 175.494 72.5604ZM172.581 72.4931C172.401 72.9526 173.032 73.4232 173.413 73.1136C173.752 72.8381 173.76 72.4138 173.43 72.2831C172.951 72.0944 172.715 72.1529 172.581 72.4931ZM179.745 72.7137C179.745 72.805 179.972 72.9813 180.25 73.1051C180.64 73.2788 180.759 73.2746 180.768 73.0875C180.775 72.9538 180.863 73.0446 180.964 73.2895C181.069 73.5464 181.32 73.7345 181.557 73.7345C182.235 73.7345 182.022 73.2163 181.21 72.8905C180.346 72.5434 179.745 72.471 179.745 72.7137ZM170.839 72.9684C170.66 73.2966 170.669 73.4265 170.883 73.5588C171.32 73.8298 171.632 73.763 171.858 73.3494C172.023 73.047 171.992 72.9212 171.713 72.7621C171.204 72.472 171.097 72.4973 170.839 72.9684ZM173.687 73.1328C173.515 73.4473 173.555 73.5618 173.898 73.7418C174.243 73.9224 174.374 73.8965 174.602 73.6018C174.756 73.4028 174.885 73.3336 174.888 73.4477C174.892 73.5618 174.796 73.7519 174.676 73.8698C174.518 74.0239 174.585 74.1726 174.914 74.3977C175.339 74.6894 175.391 74.6835 175.659 74.3089C175.987 73.8506 175.976 73.8342 174.947 73.2151C174.014 72.6537 173.951 72.6496 173.687 73.1328ZM176.512 73.24C176.311 73.4768 176.311 73.5966 176.512 73.8334C176.854 74.2365 177.174 74.206 177.47 73.7424C177.676 73.4198 177.659 73.3215 177.367 73.1552C176.895 72.8858 176.804 72.8946 176.512 73.24ZM179.251 73.4821C179.167 73.6957 179.249 73.9172 179.47 74.0755C179.957 74.4244 180.101 74.3939 180.258 73.9076C180.479 73.2283 179.51 72.8193 179.251 73.4821ZM171.863 73.8506C171.863 73.9968 172.041 74.2094 172.259 74.3235C172.582 74.4926 172.698 74.4515 172.891 74.0988C173.087 73.7406 173.065 73.6225 172.765 73.4073C172.363 73.1203 171.863 73.3664 171.863 73.8506ZM169.769 73.4378C169.892 73.7515 170.247 73.8494 170.247 73.5697C170.247 73.3605 170.026 73.1411 169.815 73.1411C169.726 73.1411 169.705 73.2746 169.769 73.4378ZM177.573 73.9264C177.36 74.2596 177.386 74.3484 177.75 74.5391C178.086 74.7154 178.241 74.698 178.488 74.4561C178.746 74.2041 178.755 74.0957 178.541 73.8433C178.191 73.4301 177.872 73.4574 177.573 73.9264ZM170.247 74.1176C170.247 74.3154 170.39 74.5937 170.565 74.7359C170.829 74.9503 170.915 74.9462 171.067 74.7108C171.346 74.28 171.294 73.9722 170.908 73.7606C170.475 73.5236 170.247 73.6471 170.247 74.1176ZM180.409 74.1133C180.215 74.4169 180.226 74.5399 180.465 74.734C180.884 75.0738 181.679 74.405 181.336 74.0011C181.021 73.6291 180.693 73.6686 180.409 74.1133ZM172.874 74.5565C172.874 74.6406 173.052 74.8028 173.27 74.9169C173.593 75.086 173.709 75.0449 173.902 74.6922C174.098 74.332 174.075 74.2155 173.761 73.9906C173.436 73.758 173.349 73.7679 173.129 74.0622C172.989 74.25 172.874 74.4723 172.874 74.5565ZM175.912 74.3148C175.631 74.8293 175.642 74.8752 176.099 75.1147C176.42 75.2826 176.537 75.2443 176.719 74.9112C176.886 74.6052 176.882 74.428 176.703 74.2163C176.377 73.8322 176.162 73.8591 175.912 74.3148ZM178.648 74.5925C178.426 74.9416 178.74 75.307 179.269 75.3139C179.619 75.3184 179.783 74.7098 179.516 74.3951C179.235 74.063 178.943 74.1293 178.648 74.5925ZM174.194 75.4448C174.694 75.8025 174.842 75.7831 175.09 75.3285C175.26 75.0194 175.215 74.8859 174.86 74.6424C174.453 74.3641 174.395 74.3732 174.119 74.7587C173.849 75.1357 173.857 75.2035 174.194 75.4448ZM171.21 74.8441C171.004 75.2868 171.024 75.3991 171.353 75.6341C171.695 75.8792 171.773 75.8517 172.093 75.3744C172.355 74.9838 172.393 74.7719 172.233 74.5842C171.889 74.1779 171.471 74.2842 171.21 74.8441ZM177.126 75.6614C177.358 75.8204 177.568 75.9193 177.592 75.881C177.617 75.8426 177.761 75.6527 177.912 75.4591C178.151 75.1541 178.137 75.0684 177.805 74.8224C177.463 74.5688 177.382 74.5832 177.063 74.9551C176.718 75.3566 176.72 75.3827 177.126 75.6614ZM179.824 75.0696C179.476 75.518 179.476 75.7124 179.821 75.7124C180.194 75.7124 180.621 75.1881 180.458 74.93C180.275 74.64 180.133 74.6713 179.824 75.0696ZM172.26 75.5329C172.044 76.0436 172.048 76.1737 172.286 76.3211C172.717 76.5881 172.835 76.5471 173.196 76.0082C173.464 75.6088 173.479 75.4553 173.277 75.217C172.888 74.7577 172.543 74.8649 172.26 75.5329ZM175.19 75.5394C175.055 75.9559 175.341 76.2963 175.831 76.3029C176.152 76.307 176.308 75.5928 176.044 75.3335C175.698 74.9952 175.338 75.0819 175.19 75.5394ZM177.984 75.6948C177.732 76.0904 177.969 76.3058 178.656 76.3058C179.066 76.3058 179.257 75.7093 178.916 75.4976C178.485 75.2308 178.249 75.2809 177.984 75.6948ZM173.381 76.0341C173.095 76.4619 173.082 76.5833 173.307 76.7232C173.753 76.9995 174.044 76.9265 174.382 76.4542C174.674 76.0463 174.672 75.9888 174.355 75.7619C173.873 75.4171 173.776 75.4442 173.381 76.0341ZM176.214 76.2959C175.848 76.9874 175.835 77.097 176.119 77.097C176.237 77.097 176.275 77.0045 176.203 76.8913C176.12 76.7586 176.253 76.7297 176.579 76.8098C176.961 76.9038 177.138 76.8359 177.305 76.5315C177.481 76.2083 177.455 76.0895 177.17 75.9269C176.64 75.6248 176.55 75.6594 176.214 76.2959ZM174.613 76.421C174.401 76.9613 174.476 77.097 174.984 77.097C175.638 77.097 175.858 76.7078 175.392 76.3747C174.91 76.0299 174.763 76.0386 174.613 76.421ZM177.522 76.5036C177.522 76.6124 177.664 76.7014 177.837 76.7014C178.01 76.7014 178.096 76.6124 178.027 76.5036C177.959 76.3948 177.817 76.3058 177.712 76.3058C177.608 76.3058 177.522 76.3948 177.522 76.5036ZM158.705 78.263C156.974 78.4527 154.691 78.251 153.589 77.8109C153.014 77.5812 152.939 77.6081 152.266 78.285C151.706 78.8487 151.163 79.1185 149.734 79.5436C146.494 80.507 145.46 81.0011 145.091 81.7626C144.812 82.339 144.802 82.5218 145.027 82.9813C145.57 84.0897 145.802 84.1188 154.079 84.1188C161.83 84.1188 163.864 83.9576 164.112 83.323C164.17 83.1755 163.695 81.8188 163.056 80.308L161.895 77.5612L161.12 77.8223C160.694 77.9659 159.607 78.1643 158.705 78.263Z" fill="#3F3F46"/>
<path d="M156.58 15.928L156.84 17.1892C157.321 18.7204 162.971 20.6178 162.971 20.7115C162.971 20.8053 162.65 21.1581 162.257 21.4958C161.094 22.4954 159.382 22.228 158.595 20.924C158.21 20.2857 157.717 20.1292 157.717 20.6453C157.717 21.2149 158.374 22.0648 159.141 22.4867C160.626 23.3036 162.456 22.8028 163.591 21.2687C164.027 20.6801 164.49 20.3345 165.184 20.0813C166.591 19.5675 167.916 18.3445 168.566 16.9581C169.172 15.6663 169.068 15.693 171.055 16.3169C172.752 16.8494 177.613 19.3024 179.796 20.7271C181.849 22.068 182.258 22.5043 181.749 22.8123C181.358 23.0491 178.818 26.5259 178.11 27.794C177.731 28.4726 177.346 29.029 177.254 29.0302C177.162 29.0316 176.037 28.493 174.754 27.8338C172.611 26.7322 171.863 26.5267 171.863 27.0392C171.863 27.1462 172.659 27.6364 173.632 28.1283L175.4 29.0225L176.882 31.8609C177.728 33.4808 178.379 34.9817 178.398 35.3573C178.428 35.9434 178.329 36.0751 177.494 36.5599C173.688 38.7717 166.685 40.2977 160.313 40.3038L157.149 40.307L156.651 39.4663C154.674 36.1293 152.973 32.4531 151.869 29.1315C151.014 26.5594 150.89 26.2635 150.67 26.2635C150.48 26.2635 148.675 28.046 147.716 29.1809C147.417 29.5344 147.065 29.8238 146.935 29.8238C146.804 29.8238 145.395 28.547 143.804 26.9864L140.91 24.149L142.505 22.1898C145.198 18.8835 148.467 16.1913 150.649 15.4816C151.62 15.1661 151.708 15.1677 152.42 15.5144C152.953 15.7735 153.664 15.8863 154.875 15.9035L156.58 15.928Z" fill="#1F1F1F"/>
<path d="M176.976 37.7137C172.756 39.7739 167.706 40.8521 161.395 41.0402C158.682 41.1211 157.519 41.2228 157.576 41.3745C157.622 41.4945 157.865 42.2602 158.116 43.0761C158.368 43.892 158.653 44.6425 158.748 44.7439C158.853 44.8549 159.721 44.5531 160.935 43.9832C162.788 43.1131 163.375 42.9932 163.375 43.4846C163.375 43.5876 162.421 44.1367 161.253 44.7048C160.086 45.2728 159.131 45.8178 159.131 45.9155C159.131 46.0134 159.759 46.8164 160.525 47.7C162.518 49.9984 164.413 52.8569 165.32 54.9346L166.104 56.7304L166.912 56.605C170.754 56.0094 176.477 53.1754 179.1 50.5702C181.56 48.1268 182.343 44.2639 181.084 40.7722C180.76 39.8744 179.177 36.7466 179.046 36.7466C178.997 36.7466 178.066 37.1818 176.976 37.7137Z" fill="#1F1F1F"/>
<path d="M198.333 71.2126C198.326 71.912 197.659 73.1575 196.761 74.1463C195.973 75.0138 193.735 76.3058 193.02 76.3058C192.509 76.3058 192.427 76.654 192.696 77.6819C193.033 78.9666 192.676 79.5364 191.281 79.9419C189.88 80.3492 189.48 80.5931 189.031 81.3129C188.506 82.1553 188.523 83.109 189.071 83.6089C189.659 84.1449 190.72 84.2689 194.023 84.1876C197.611 84.0994 198.38 83.7934 199.305 82.0856C200.271 80.3043 202.112 75.9342 202.469 74.5755C202.764 73.457 202.765 73.2837 202.482 72.7479C202.089 72.004 201.487 71.6159 200.009 71.1536C198.488 70.6778 198.339 70.6829 198.333 71.2126Z" fill="#1F1F1F"/>
<path d="M158.705 78.263C156.974 78.4527 154.691 78.251 153.589 77.8109C153.014 77.5812 152.939 77.6081 152.266 78.285C151.706 78.8487 151.163 79.1185 149.734 79.5436C146.494 80.507 145.46 81.0011 145.091 81.7626C144.812 82.339 144.802 82.5218 145.027 82.9813C145.57 84.0897 145.802 84.1188 154.079 84.1188C161.83 84.1188 163.864 83.9576 164.112 83.323C164.17 83.1755 163.695 81.8188 163.056 80.308L161.895 77.5612L161.12 77.8223C160.694 77.9659 159.607 78.1643 158.705 78.263Z" fill="#1F1F1F"/>
<path d="M190.226 46.0748C190.125 45.7769 190.585 43.4545 190.919 42.8289C191.254 42.2032 191.589 41.6915 191.664 41.6915C192.003 41.6915 192.706 42.6892 192.81 43.3166C192.914 43.9415 192.811 44.143 191.761 45.3723C191.122 46.122 190.429 45.9258 190.226 46.0748Z" fill="#1F1F1F"/>
<path d="M196.541 34.0002C196.344 34.5529 196.374 34.6567 196.825 35.0045C197.103 35.2179 197.47 35.5298 197.641 35.6975C197.813 35.8653 197.977 35.9697 198.007 35.9295C198.036 35.8894 198.259 35.5998 198.502 35.2859C198.745 34.972 198.944 34.6415 198.944 34.5513C198.944 34.3058 197.486 33.3841 197.098 33.3841C196.902 33.3841 196.669 33.6422 196.541 34.0002Z" fill="#1F1F1F"/>
<path d="M156.253 1.13051C154.739 1.50929 153.072 2.22788 152.018 2.95537C151.718 3.16247 150.672 3.50287 149.694 3.71155C147.149 4.2543 146.553 5.03856 147.319 6.83633C147.492 7.24082 147.911 7.8528 148.25 8.19637C148.821 8.77374 148.858 8.89341 148.733 9.7827C148.567 10.9637 148.784 11.5591 149.776 12.6387C151.466 14.4794 154.008 15.5904 155.566 15.1695C156.552 14.903 156.497 14.4906 155.441 14.2305C154.497 13.9979 153.428 13.0588 153.081 12.1576C152.781 11.3789 152.814 9.75955 153.145 8.9832C153.532 8.07611 154.381 7.47264 155.268 7.47363C156.064 7.47442 157.253 8.07849 157.45 8.58227C157.545 8.82556 157.632 8.76425 157.825 8.31545C158.063 7.76142 158.151 7.72621 159.62 7.60476C162.391 7.37532 163.907 6.17529 164.284 3.91251C164.366 3.42296 164.472 2.95636 164.521 2.87546C164.675 2.6213 166.222 3.51672 167.242 4.45012C167.78 4.94322 168.472 5.84735 168.779 6.45913C169.244 7.38679 169.349 7.49341 169.405 7.10118C169.534 6.20674 168.849 4.95905 167.611 3.83774C164.736 1.23217 160.182 0.146867 156.253 1.13051Z" fill="#3F3F46"/>
<path d="M157.919 70.1103C156.383 70.4056 152.392 70.3731 151.573 70.0586C151.108 69.8798 151.102 69.8537 152.306 73.9887L153.157 76.9133L154.174 77.1922C154.733 77.3457 155.698 77.5288 156.319 77.5994C157.495 77.7331 160.264 77.4121 161.083 77.0472C161.648 76.7952 161.677 76.3697 161.272 74.2996C161.116 73.4993 160.878 72.1768 160.743 71.3609C160.448 69.5739 160.415 69.5096 159.867 69.6826C159.629 69.7576 158.753 69.9501 157.919 70.1103Z" fill="#3F3F46"/>
<path d="M191.67 67.9078C190.966 69.25 188.411 71.7067 186.754 72.6349C185.839 73.1476 185.466 73.455 185.642 73.5503C186.247 73.8757 191.95 75.7123 192.348 75.7099C192.981 75.7063 195.101 74.6034 195.879 73.8726C196.686 73.115 197.441 71.8887 197.621 71.0407C197.748 70.4408 197.695 70.3856 195.67 69.0202C194.525 68.2482 193.361 67.4375 193.083 67.2187C192.805 66.9999 192.488 66.8484 192.377 66.8818C192.266 66.9155 191.948 67.3771 191.67 67.9078Z" fill="#3F3F46"/>
<path d="M109.696 106.408H132.864C132.949 108.883 132.992 111.4 132.992 113.96C132.992 116.52 132.971 119.101 132.928 121.704C132.928 124.307 132.928 126.931 132.928 129.576C132.928 133.245 132.971 136.915 133.056 140.584C133.141 144.253 133.291 147.88 133.504 151.464H110.208C110.293 149.16 110.357 146.856 110.4 144.552C110.485 142.205 110.528 139.901 110.528 137.64C110.528 137.128 110.379 136.701 110.08 136.36C109.781 136.019 109.355 135.848 108.8 135.848H99.328C98.9013 135.848 98.5813 136.019 98.368 136.36C98.1973 136.701 98.112 137.107 98.112 137.576C98.112 139.88 98.1333 142.205 98.176 144.552C98.2613 146.899 98.3893 149.203 98.56 151.464H74.688C74.688 149.203 74.752 146.877 74.88 144.488C75.008 142.056 75.1573 139.603 75.328 137.128C75.5413 134.653 75.7547 132.179 75.968 129.704C76.1813 127.187 76.352 124.691 76.48 122.216C76.608 119.699 76.672 117.224 76.672 114.792C76.672 113.384 76.6507 111.976 76.608 110.568C76.608 109.16 76.5867 107.773 76.544 106.408H99.392C99.1787 108.243 98.9653 110.141 98.752 112.104C98.5387 114.067 98.368 116.051 98.24 118.056C98.1547 120.019 98.112 121.96 98.112 123.88C98.112 124.264 98.1973 124.584 98.368 124.84C98.5813 125.096 98.9013 125.224 99.328 125.224H108.8C109.397 125.224 109.824 125.053 110.08 124.712C110.379 124.371 110.528 123.923 110.528 123.368C110.528 120.467 110.443 117.587 110.272 114.728C110.144 111.827 109.952 109.053 109.696 106.408ZM172.727 125.352C178.316 125.352 183.031 125.629 186.871 126.184C190.711 126.696 193.783 127.485 196.087 128.552C198.434 129.619 200.119 130.963 201.143 132.584C202.167 134.205 202.679 136.125 202.679 138.344C202.679 140.776 201.847 142.931 200.183 144.808C198.519 146.643 196.215 148.179 193.271 149.416C190.327 150.653 186.935 151.592 183.095 152.232C179.298 152.829 175.244 153.128 170.935 153.128C166.284 153.128 161.996 152.808 158.071 152.168C154.188 151.528 150.796 150.547 147.895 149.224C145.036 147.901 142.839 146.216 141.303 144.168C139.767 142.077 139.063 139.581 139.191 136.68L163.447 134.568C163.276 135.677 163.511 136.68 164.151 137.576C164.791 138.472 165.73 139.176 166.967 139.688C168.247 140.2 169.698 140.456 171.319 140.456C172.471 140.456 173.495 140.328 174.391 140.072C175.33 139.816 176.119 139.475 176.759 139.048C177.442 138.621 177.954 138.131 178.295 137.576C178.636 137.021 178.807 136.467 178.807 135.912C178.807 134.675 178.274 133.821 177.207 133.352C176.183 132.883 174.647 132.648 172.599 132.648C172.514 132.648 172.322 132.648 172.023 132.648C171.724 132.648 171.383 132.648 170.999 132.648C170.615 132.648 170.21 132.648 169.783 132.648C169.356 132.648 168.951 132.648 168.567 132.648C168.226 132.648 167.948 132.648 167.735 132.648C162.103 132.648 157.388 132.328 153.591 131.688C149.794 131.005 146.786 130.109 144.567 129C142.391 127.848 140.876 126.525 140.023 125.032C139.17 123.539 138.85 121.96 139.063 120.296C139.788 118.333 140.812 116.563 142.135 114.984C143.5 113.363 145.122 111.933 146.999 110.696C148.876 109.416 150.988 108.349 153.335 107.496C155.682 106.6 158.242 105.939 161.015 105.512C163.788 105.043 166.732 104.787 169.847 104.744C174.54 104.659 178.786 105.021 182.583 105.832C186.38 106.6 189.623 107.752 192.311 109.288C194.999 110.781 197.047 112.595 198.455 114.728C199.863 116.861 200.503 119.229 200.375 121.832L177.015 123.304C177.399 121.981 177.356 120.893 176.887 120.04C176.46 119.187 175.714 118.547 174.647 118.12C173.623 117.651 172.386 117.416 170.935 117.416C169.911 117.416 168.887 117.544 167.863 117.8C166.882 118.013 165.986 118.333 165.175 118.76C164.364 119.187 163.724 119.699 163.255 120.296C162.786 120.893 162.551 121.576 162.551 122.344C162.551 122.941 162.722 123.475 163.063 123.944C163.447 124.371 164.023 124.712 164.791 124.968C165.559 125.224 166.562 125.352 167.799 125.352C167.884 125.352 168.098 125.352 168.439 125.352C168.78 125.352 169.164 125.352 169.591 125.352C170.018 125.352 170.444 125.352 170.871 125.352C171.34 125.352 171.724 125.352 172.023 125.352C172.364 125.352 172.599 125.352 172.727 125.352ZM241.04 125.352C246.629 125.352 251.344 125.629 255.184 126.184C259.024 126.696 262.096 127.485 264.4 128.552C266.746 129.619 268.432 130.963 269.456 132.584C270.48 134.205 270.992 136.125 270.992 138.344C270.992 140.776 270.16 142.931 268.496 144.808C266.832 146.643 264.528 148.179 261.584 149.416C258.64 150.653 255.248 151.592 251.408 152.232C247.61 152.829 243.557 153.128 239.248 153.128C234.597 153.128 230.309 152.808 226.384 152.168C222.501 151.528 219.109 150.547 216.208 149.224C213.349 147.901 211.152 146.216 209.616 144.168C208.08 142.077 207.376 139.581 207.504 136.68L231.76 134.568C231.589 135.677 231.824 136.68 232.464 137.576C233.104 138.472 234.042 139.176 235.28 139.688C236.56 140.2 238.01 140.456 239.632 140.456C240.784 140.456 241.808 140.328 242.704 140.072C243.642 139.816 244.432 139.475 245.072 139.048C245.754 138.621 246.266 138.131 246.608 137.576C246.949 137.021 247.12 136.467 247.12 135.912C247.12 134.675 246.586 133.821 245.52 133.352C244.496 132.883 242.96 132.648 240.912 132.648C240.826 132.648 240.634 132.648 240.336 132.648C240.037 132.648 239.696 132.648 239.312 132.648C238.928 132.648 238.522 132.648 238.096 132.648C237.669 132.648 237.264 132.648 236.88 132.648C236.538 132.648 236.261 132.648 236.048 132.648C230.416 132.648 225.701 132.328 221.904 131.688C218.106 131.005 215.098 130.109 212.88 129C210.704 127.848 209.189 126.525 208.336 125.032C207.482 123.539 207.162 121.96 207.376 120.296C208.101 118.333 209.125 116.563 210.448 114.984C211.813 113.363 213.434 111.933 215.312 110.696C217.189 109.416 219.301 108.349 221.648 107.496C223.994 106.6 226.554 105.939 229.328 105.512C232.101 105.043 235.045 104.787 238.16 104.744C242.853 104.659 247.098 105.021 250.896 105.832C254.693 106.6 257.936 107.752 260.624 109.288C263.312 110.781 265.36 112.595 266.768 114.728C268.176 116.861 268.816 119.229 268.688 121.832L245.328 123.304C245.712 121.981 245.669 120.893 245.2 120.04C244.773 119.187 244.026 118.547 242.96 118.12C241.936 117.651 240.698 117.416 239.248 117.416C238.224 117.416 237.2 117.544 236.176 117.8C235.194 118.013 234.298 118.333 233.488 118.76C232.677 119.187 232.037 119.699 231.568 120.296C231.098 120.893 230.864 121.576 230.864 122.344C230.864 122.941 231.034 123.475 231.376 123.944C231.76 124.371 232.336 124.712 233.104 124.968C233.872 125.224 234.874 125.352 236.112 125.352C236.197 125.352 236.41 125.352 236.752 125.352C237.093 125.352 237.477 125.352 237.904 125.352C238.33 125.352 238.757 125.352 239.184 125.352C239.653 125.352 240.037 125.352 240.336 125.352C240.677 125.352 240.912 125.352 241.04 125.352Z" fill="#3D9937"/>
<path d="M75.4798 164.408C75.4371 167.48 75.4798 170.531 75.6077 173.56C75.7358 176.547 75.8851 179.555 76.0558 182.584C76.2691 185.571 76.4824 188.557 76.6958 191.544C76.9091 194.488 77.0798 197.453 77.2078 200.44C77.3358 203.427 77.3998 206.435 77.3998 209.464H55.5118C55.5971 205.581 55.6611 201.699 55.7038 197.816C55.7891 193.891 55.8318 189.987 55.8318 186.104C55.8318 185.293 55.7464 184.632 55.5758 184.12C55.4051 183.608 55.1918 183.203 54.9358 182.904C54.7224 182.605 54.4664 182.413 54.1678 182.328C53.9118 182.243 53.6771 182.243 53.4638 182.328C53.2931 182.413 53.1864 182.541 53.1438 182.712L46.2958 209.464H31.5758C30.8931 205.496 30.1891 201.528 29.4638 197.56C28.7384 193.549 27.9491 189.411 27.0958 185.144C27.0958 184.547 27.0104 184.056 26.8398 183.672C26.6691 183.245 26.4344 182.925 26.1358 182.712C25.8371 182.499 25.5384 182.392 25.2398 182.392C24.9411 182.349 24.6424 182.413 24.3438 182.584C24.0451 182.755 23.8104 183.032 23.6398 183.416C23.4691 183.8 23.3838 184.269 23.3838 184.824C23.3838 188.877 23.4904 192.995 23.7038 197.176C23.9171 201.315 24.1731 205.411 24.4718 209.464H3.41575C3.41575 206.52 3.45842 203.512 3.54375 200.44C3.67175 197.368 3.79975 194.296 3.92775 191.224C4.09842 188.109 4.22642 184.995 4.31175 181.88C4.43975 178.765 4.50375 175.693 4.50375 172.664C4.50375 171.299 4.50375 169.933 4.50375 168.568C4.50375 167.16 4.48242 165.773 4.43975 164.408H35.4798C35.8638 166.883 36.2904 169.4 36.7598 171.96C37.2291 174.477 37.7624 176.995 38.3598 179.512C38.9998 182.029 39.7038 184.547 40.4718 187.064C40.6424 187.32 40.8558 187.512 41.1118 187.64C41.3678 187.768 41.6024 187.811 41.8158 187.768C42.0718 187.683 42.2211 187.533 42.2638 187.32L47.7038 164.408H75.4798ZM132.255 164.408C132.725 166.925 133.301 169.464 133.983 172.024C134.709 174.541 135.477 177.08 136.287 179.64C137.098 182.157 137.93 184.675 138.783 187.192C139.637 189.709 140.469 192.227 141.279 194.744C142.133 197.261 142.922 199.757 143.647 202.232C144.373 204.664 144.991 207.075 145.503 209.464H119.647L118.815 204.472C118.645 204.344 118.41 204.195 118.111 204.024C117.813 203.853 117.493 203.768 117.151 203.768H107.679C107.167 203.768 106.783 203.832 106.527 203.96C106.271 204.088 106.058 204.259 105.887 204.472L105.055 209.464H81.2473C81.8446 207.075 82.5273 204.664 83.2953 202.232C84.0633 199.757 84.8739 197.283 85.7273 194.808C86.5806 192.291 87.4553 189.773 88.3513 187.256C89.2473 184.739 90.1006 182.2 90.9113 179.64C91.7646 177.08 92.5539 174.541 93.2793 172.024C94.0046 169.464 94.6233 166.925 95.1353 164.408H132.255ZM106.655 198.712C106.655 199.139 106.741 199.501 106.911 199.8C107.125 200.099 107.402 200.248 107.743 200.248H117.023C117.365 200.248 117.663 200.184 117.919 200.056C118.218 199.885 118.453 199.651 118.623 199.352C118.794 199.053 118.879 198.691 118.879 198.264C118.879 198.008 118.773 197.325 118.559 196.216C118.389 195.064 118.133 193.677 117.791 192.056C117.493 190.435 117.13 188.771 116.703 187.064C116.319 185.315 115.914 183.672 115.487 182.136C115.061 180.6 114.655 179.363 114.271 178.424C113.887 177.443 113.525 176.952 113.183 176.952C113.098 176.952 112.991 176.952 112.863 176.952C112.735 176.952 112.629 176.952 112.543 176.952C112.074 176.952 111.605 177.464 111.135 178.488C110.666 179.512 110.218 180.835 109.791 182.456C109.365 184.035 108.959 185.741 108.575 187.576C108.191 189.368 107.85 191.096 107.551 192.76C107.295 194.381 107.082 195.747 106.911 196.856C106.741 197.965 106.655 198.584 106.655 198.712ZM150.94 164.408H197.404C199.836 164.408 201.841 164.856 203.42 165.752C205.041 166.648 206.236 167.821 207.004 169.272C207.814 170.68 208.22 172.173 208.22 173.752C208.22 175.373 207.793 176.931 206.94 178.424C206.129 179.917 204.87 181.176 203.164 182.2C201.5 183.181 199.409 183.757 196.892 183.928C196.465 184.141 196.166 184.419 195.996 184.76C195.868 185.059 195.889 185.379 196.06 185.72C196.273 186.061 196.678 186.403 197.276 186.744C200.433 186.957 203.036 187.661 205.084 188.856C207.174 190.008 208.732 191.437 209.756 193.144C210.822 194.851 211.356 196.643 211.356 198.52C211.356 199.885 211.078 201.229 210.524 202.552C210.012 203.832 209.201 205.005 208.092 206.072C206.982 207.096 205.553 207.928 203.804 208.568C202.054 209.165 199.964 209.464 197.532 209.464H149.724C149.724 206.691 149.788 203.939 149.916 201.208C150.086 198.477 150.278 195.768 150.492 193.08C150.705 190.392 150.876 187.683 151.004 184.952C151.174 182.221 151.26 179.448 151.26 176.632C151.26 174.627 151.238 172.6 151.196 170.552C151.153 168.504 151.068 166.456 150.94 164.408ZM173.276 187.896C172.849 188.28 172.55 188.813 172.38 189.496C172.209 190.179 172.124 190.904 172.124 191.672C172.124 192.269 172.166 192.845 172.252 193.4C172.38 193.955 172.529 194.467 172.7 194.936C172.87 195.363 173.062 195.683 173.276 195.896C173.276 195.939 173.297 195.96 173.34 195.96H182.62C184.198 195.96 185.35 195.597 186.076 194.872C186.801 194.104 187.164 193.251 187.164 192.312C187.164 191.757 187.057 191.224 186.844 190.712C186.673 190.157 186.396 189.667 186.012 189.24C185.628 188.813 185.201 188.472 184.732 188.216C184.262 187.96 183.729 187.832 183.132 187.832H173.34C173.34 187.832 173.318 187.853 173.276 187.896ZM173.34 177.208C173.297 177.208 173.276 177.229 173.276 177.272C173.062 177.485 172.87 177.827 172.7 178.296C172.529 178.723 172.38 179.235 172.252 179.832C172.166 180.387 172.124 180.963 172.124 181.56C172.124 182.328 172.209 183.053 172.38 183.736C172.55 184.419 172.849 184.931 173.276 185.272C173.276 185.315 173.297 185.336 173.34 185.336H182.108C183.046 185.336 183.836 185.123 184.476 184.696C185.158 184.269 185.67 183.715 186.012 183.032C186.353 182.349 186.524 181.645 186.524 180.92C186.524 179.939 186.204 179.085 185.564 178.36C184.924 177.592 183.985 177.208 182.748 177.208H173.34ZM264.005 164.408C264.475 166.925 265.051 169.464 265.733 172.024C266.459 174.541 267.227 177.08 268.037 179.64C268.848 182.157 269.68 184.675 270.533 187.192C271.387 189.709 272.219 192.227 273.029 194.744C273.883 197.261 274.672 199.757 275.397 202.232C276.123 204.664 276.741 207.075 277.253 209.464H251.397L250.565 204.472C250.395 204.344 250.16 204.195 249.861 204.024C249.563 203.853 249.243 203.768 248.901 203.768H239.429C238.917 203.768 238.533 203.832 238.277 203.96C238.021 204.088 237.808 204.259 237.637 204.472L236.805 209.464H212.997C213.595 207.075 214.277 204.664 215.045 202.232C215.813 199.757 216.624 197.283 217.477 194.808C218.331 192.291 219.205 189.773 220.101 187.256C220.997 184.739 221.851 182.2 222.661 179.64C223.515 177.08 224.304 174.541 225.029 172.024C225.755 169.464 226.373 166.925 226.885 164.408H264.005ZM238.405 198.712C238.405 199.139 238.491 199.501 238.661 199.8C238.875 200.099 239.152 200.248 239.493 200.248H248.773C249.115 200.248 249.413 200.184 249.669 200.056C249.968 199.885 250.203 199.651 250.373 199.352C250.544 199.053 250.629 198.691 250.629 198.264C250.629 198.008 250.523 197.325 250.309 196.216C250.139 195.064 249.883 193.677 249.541 192.056C249.243 190.435 248.88 188.771 248.453 187.064C248.069 185.315 247.664 183.672 247.237 182.136C246.811 180.6 246.405 179.363 246.021 178.424C245.637 177.443 245.275 176.952 244.933 176.952C244.848 176.952 244.741 176.952 244.613 176.952C244.485 176.952 244.379 176.952 244.293 176.952C243.824 176.952 243.355 177.464 242.885 178.488C242.416 179.512 241.968 180.835 241.541 182.456C241.115 184.035 240.709 185.741 240.325 187.576C239.941 189.368 239.6 191.096 239.301 192.76C239.045 194.381 238.832 195.747 238.661 196.856C238.491 197.965 238.405 198.584 238.405 198.712ZM281.858 164.408H325.57C329.068 164.408 331.97 165.048 334.274 166.328C336.62 167.565 338.391 169.187 339.586 171.192C340.78 173.155 341.378 175.245 341.378 177.464C341.378 179.853 340.716 182.136 339.394 184.312C338.071 186.488 336.108 188.259 333.506 189.624C330.946 190.989 327.724 191.672 323.842 191.672C323.671 191.672 323.244 191.672 322.562 191.672C321.922 191.672 321.26 191.672 320.578 191.672C319.895 191.672 319.426 191.672 319.17 191.672C319.127 191.672 319.042 191.715 318.914 191.8C318.828 191.885 318.786 191.992 318.786 192.12C318.786 192.376 318.85 192.589 318.978 192.76C319.148 192.931 319.362 193.059 319.618 193.144C319.874 193.229 320.13 193.272 320.386 193.272H334.146L342.466 209.464H314.562C313.879 207.331 313.154 205.219 312.386 203.128C311.66 201.037 310.85 199.011 309.954 197.048C309.1 195.085 308.098 193.208 306.946 191.416H315.202C316.012 191.416 316.759 191.267 317.442 190.968C318.167 190.669 318.786 190.264 319.298 189.752C319.81 189.197 320.215 188.579 320.514 187.896C320.812 187.171 320.962 186.403 320.962 185.592C320.962 184.483 320.684 183.501 320.13 182.648C319.618 181.752 318.892 181.048 317.954 180.536C317.015 180.024 315.927 179.768 314.69 179.768H306.242C305.73 179.768 305.282 179.896 304.898 180.152C304.556 180.365 304.3 180.643 304.13 180.984C303.959 181.325 303.874 181.688 303.874 182.072C303.874 184.589 303.938 186.552 304.066 187.96C304.236 189.368 304.471 190.328 304.77 190.84C305.068 191.352 305.431 191.565 305.858 191.48C305.602 191.48 305.324 191.693 305.026 192.12C304.77 192.547 304.556 193.165 304.386 193.976C304.215 194.744 304.13 195.704 304.13 196.856C304.13 198.051 304.13 199.395 304.13 200.888C304.172 202.381 304.215 203.875 304.258 205.368C304.3 206.819 304.343 208.184 304.386 209.464H281.602C281.559 207.075 281.559 204.621 281.602 202.104C281.687 199.544 281.772 196.941 281.858 194.296C281.943 191.651 282.028 188.984 282.114 186.296C282.199 183.565 282.242 180.877 282.242 178.232C282.242 175.885 282.199 173.56 282.114 171.256C282.071 168.952 281.986 166.669 281.858 164.408Z" fill="#1F1F1F"/>
</svg>
