<svg width="22" height="20" viewBox="0 0 22 20" fill="none" xmlns="http://www.w3.org/2000/svg">
<path fill-rule="evenodd" clip-rule="evenodd" d="M8.32054 0.0158012C8.37257 0.0276224 8.52836 0.0598284 8.66681 0.0873802C9.43546 0.240591 10.2848 0.872374 10.4286 1.39795C10.4693 1.54679 10.4665 1.64946 10.4162 1.85214C10.3567 2.09173 10.3586 2.12561 10.4381 2.25034C10.5676 2.45339 10.5293 2.83521 10.3622 3.00685C10.2663 3.10537 10.2361 3.18338 10.2361 3.33305C10.2361 3.45024 10.26 3.53671 10.2953 3.54695C11.6925 3.95297 13.0789 4.75527 14.2758 5.85055C14.942 6.46018 15.6476 7.24862 16.1012 7.89013C16.1402 7.94533 16.2284 8.00364 16.2972 8.0197C16.4087 8.04571 16.4285 8.03068 16.4783 7.88217C16.5535 7.6578 16.6961 7.62587 16.9854 7.76861C17.1077 7.82898 17.2498 7.93523 17.301 8.0048L17.3944 8.13121L17.2422 8.37201C17.0905 8.6122 17.0903 8.61336 17.1632 8.82401C17.3005 9.22058 17.247 9.45686 16.9292 9.85631C16.8375 9.9715 16.7405 10.1202 16.7135 10.1867C16.6866 10.2532 16.5436 10.4102 16.3959 10.5357C16.1492 10.7452 16.108 10.7636 15.8914 10.7603C15.6837 10.7571 15.6414 10.7736 15.5355 10.8996C15.4694 10.9783 15.3584 11.095 15.2888 11.1592C15.1029 11.3305 13.8116 13.5109 13.6865 13.8646C13.6282 14.0296 13.631 14.0375 13.8116 14.2173C13.9132 14.3185 14.1134 14.4571 14.2565 14.5254C14.3996 14.5936 14.7934 14.85 15.1315 15.095C16.4194 16.0282 17.0697 16.4554 17.2836 16.5091C17.8093 16.6409 18.0865 16.8094 18.2059 17.07C18.3114 17.3002 18.277 17.4511 17.9137 18.3499C17.2979 19.8734 17.2109 19.9529 16.1175 19.9918C15.3571 20.0188 15.0186 19.9811 14.8162 19.8469C14.3764 19.5553 14.6254 18.8455 15.228 18.6731C15.5743 18.5741 15.6088 18.5223 15.5255 18.2277L15.4582 17.9896L14.5937 17.6866L13.7291 17.3835L13.4371 17.6877C12.934 18.2117 12.4357 18.4616 11.8152 18.5008C11.3285 18.5316 11.0252 18.461 10.6673 18.2334C10.0393 17.834 9.7447 17.0279 9.88607 16.0961C9.91942 15.8767 9.98067 15.6173 10.0222 15.5198L10.0979 15.3425L9.84771 15.0319C9.71017 14.8611 9.47964 14.5928 9.33547 14.4357C9.1913 14.2785 9.00253 14.0192 8.91598 13.8595L8.75862 13.569L8.51592 13.6002C8.38245 13.6174 8.13148 13.6736 7.95818 13.7251L7.64312 13.8188L7.79722 14.1529C8.03835 14.6758 8.20163 15.3793 8.51697 17.2548C8.64411 18.0106 8.72466 18.2791 9.05821 19.0585C9.37563 19.8001 9.30553 19.8742 8.20229 19.9628C7.87711 19.9889 7.00445 20.0013 6.26304 19.9904C4.89834 19.9703 4.69784 19.9462 4.50146 19.7791C4.37966 19.6755 4.32319 19.4264 4.37758 19.2325C4.44612 18.9884 4.70574 18.832 5.41881 18.6054C6.03147 18.4106 6.26304 18.2749 6.26304 18.1104C6.26304 18.0387 5.62943 15.8634 5.41597 15.2022C4.87043 13.5122 4.79906 13.0847 4.99913 12.7056C5.29494 12.1453 6.10455 11.4754 7.17354 10.9067C7.40115 10.7856 7.58741 10.6609 7.58741 10.6296C7.58741 10.484 7.2382 9.57549 7.08547 9.32361C6.94694 9.09515 6.57583 8.36107 6.35485 7.87835C6.22762 7.60037 5.9295 6.79569 5.90377 6.66086C5.88735 6.57481 5.85826 6.49485 5.83906 6.48317C5.81991 6.47154 5.60569 6.68641 5.3631 6.96072C4.71127 7.69769 4.00018 8.3715 3.70712 8.52992C3.48028 8.65251 3.40261 8.66944 3.07039 8.66884C2.63756 8.66805 2.37108 8.59237 1.76968 8.29936C1.4383 8.13791 1.33221 8.10705 1.1661 8.12385C0.885998 8.15215 0.324277 7.8905 0.132624 7.6424C0.00250535 7.47401 -0.00378456 7.4439 0.00108719 7.01215C0.00524946 6.64588 0.0247383 6.52785 0.102497 6.39819C0.155424 6.3099 0.213266 6.17252 0.23105 6.09289C0.279106 5.87759 0.458988 5.76077 0.742353 5.76077C1.05235 5.76077 1.61132 6.02135 1.89043 6.29603C2.06189 6.4647 2.14679 6.50826 2.42609 6.57076C2.60861 6.61162 2.76867 6.64504 2.78177 6.64504C2.79488 6.64504 2.88498 6.5037 2.98194 6.33089C3.40091 5.58439 4.16133 4.63701 4.73336 4.14881C5.0882 3.84592 5.56416 3.54215 5.74508 3.50306C5.82184 3.48649 5.88466 3.45578 5.88466 3.43488C5.88466 3.41394 5.78665 3.31625 5.66685 3.21777C5.37071 2.97422 5.26386 2.75404 5.26386 2.38735C5.26386 2.15386 5.24466 2.07614 5.17068 2.01028C4.81221 1.69106 4.76519 1.09456 5.08058 0.867441C5.14562 0.820622 5.3691 0.748112 5.57722 0.706319C5.78533 0.664479 6.00882 0.593598 6.07385 0.548734C6.27657 0.408834 6.70018 0.211736 6.99617 0.119586C7.26946 0.034464 8.11152 -0.0314837 8.32054 0.0158012ZM7.19748 0.266001C6.84316 0.355126 6.45295 0.524207 6.20629 0.695382C6.13605 0.74411 5.89128 0.824205 5.66235 0.873305C5.06677 1.00101 4.92733 1.18554 5.10664 1.60855C5.14699 1.70372 5.24504 1.84772 5.3245 1.92856C5.45816 2.06441 5.46668 2.09257 5.4374 2.30181C5.39857 2.5797 5.44946 2.71979 5.68151 2.97381C6.07716 3.40691 6.67208 3.66833 7.03671 3.56929C7.26738 3.5066 7.25457 3.40956 7.00758 3.34836C6.78664 3.29363 6.53638 3.07266 6.45512 2.86062C6.38493 2.67739 6.3926 2.29637 6.47017 2.1137C6.56079 1.90026 6.75945 1.75827 6.96709 1.7585C7.15325 1.75869 7.43146 1.90082 7.47767 2.01936C7.5 2.0766 7.5202 2.06218 7.56532 1.95658C7.62104 1.82622 7.6418 1.81793 7.98547 1.78936C8.63412 1.73537 8.98896 1.45301 9.07717 0.92059C9.09628 0.805403 9.12121 0.695615 9.13265 0.67658C9.1686 0.616776 9.53067 0.827463 9.76929 1.04709C9.89534 1.16311 10.0573 1.37585 10.1291 1.5198C10.2381 1.73807 10.2624 1.76315 10.2757 1.67087C10.3059 1.46041 10.1454 1.16683 9.8558 0.902998C9.18279 0.289923 8.1171 0.0345569 7.19748 0.266001ZM9.20455 1.17866C9.07878 1.61492 8.62807 1.9219 8.03301 1.97659C7.75849 2.00181 7.72613 2.01522 7.73876 2.09848C7.74893 2.16549 7.82541 2.21622 8.00827 2.27719C8.25049 2.35799 8.26676 2.35822 8.32602 2.28138C8.36036 2.23689 8.38917 2.18527 8.38997 2.16675C8.393 2.09866 8.67575 1.99102 8.85161 1.99102C9.06771 1.99102 9.21557 2.08335 9.32109 2.28417C9.39403 2.42286 9.40202 2.4264 9.45092 2.34132C9.57636 2.12286 9.75482 1.99102 9.92505 1.99102C10.121 1.99102 10.1295 1.95564 10.001 1.6771C9.88394 1.42336 9.644 1.13007 9.4593 1.01497C9.29366 0.911794 9.27871 0.921381 9.20455 1.17866ZM12.8067 1.9953C14.5478 2.13655 16.7307 2.80002 18.3024 3.66572C19.6378 4.40115 20.6756 5.25488 21.328 6.1545C21.9738 7.04496 22.1726 8.00978 21.8437 8.65809C21.7103 8.92114 21.4178 9.25129 21.3181 9.25129C21.2049 9.25129 21.2562 9.0898 21.4189 8.93431C21.7511 8.61676 21.8853 8.10715 21.7828 7.55257C21.7205 7.21599 21.3866 6.53949 21.0935 6.15637C20.62 5.53738 19.6864 4.71432 18.8896 4.2134C17.0951 3.08527 14.709 2.32117 12.4473 2.15037C12.1914 2.13105 12.0808 2.10434 12.0808 2.06185C12.0808 1.9986 12.1897 1.93968 12.2857 1.95099C12.316 1.95457 12.5505 1.97449 12.8067 1.9953ZM6.71659 2.08768C6.64924 2.16643 6.59187 2.28682 6.58912 2.35529C6.56779 2.88538 6.74719 3.14186 7.17927 3.19873C7.3713 3.22401 7.37414 3.22722 7.41051 3.45703C7.4308 3.58502 7.37137 3.88112 7.51736 4.03986C7.44606 4.04167 7.40608 4.04269 7.33479 4.04451C7.31107 3.92863 7.27405 3.74777 7.27405 3.74777L6.87495 3.742C6.59149 3.73795 6.42509 3.71142 6.30051 3.65045C6.13378 3.56887 6.11325 3.5685 5.88603 3.64273C5.3752 3.80971 4.61024 4.44317 3.97999 5.22114L3.60652 5.68212L4.28384 6.34974C4.65631 6.71694 4.98608 7.01736 5.01663 7.01736C5.04719 7.01736 5.12939 6.94927 5.1994 6.8661C5.42392 6.59906 5.84649 6.17964 5.8909 6.17964C5.94246 6.17964 5.9714 6.24926 6.17152 6.85447C6.42996 7.63602 6.82803 8.50102 7.29066 9.2862L7.4072 9.48399L8.14766 9.48325C9.63898 9.48181 11.2779 9.12275 12.1689 8.60233C12.3642 8.48826 12.3874 8.45727 12.3803 8.31937C12.3758 8.23099 12.2236 7.87784 12.0256 7.49668L11.6787 6.82883L11.2649 6.61842C11.0372 6.50267 10.851 6.38734 10.851 6.36217C10.851 6.24158 11.026 6.28994 11.5275 6.54912C11.8278 6.70424 12.091 6.83097 12.1126 6.83064C12.1341 6.83036 12.2243 6.69944 12.313 6.53977C12.4787 6.2414 13.0731 5.42331 13.1646 5.3676C13.2838 5.29514 13.1881 5.19247 12.7075 4.87697C12.1967 4.54175 11.0589 3.96455 10.6618 3.83927C10.1967 3.69248 10.221 3.6862 10.0792 3.99015C9.92708 4.31635 9.61708 4.60411 9.2877 4.72502C9.12542 4.78459 9.01696 4.8659 8.91498 5.0044C8.64921 5.36537 8.22097 5.48321 7.87338 5.291C7.69393 5.19173 7.54011 4.99174 7.54011 4.85771C7.54011 4.73628 7.65542 4.7731 7.74557 4.92328C7.9298 5.23012 8.33047 5.29304 8.60267 5.05783C8.69462 4.97839 8.76987 4.89536 8.76987 4.8733C8.76987 4.85124 7.4474 4.40481 7.33479 4.04451C7.40608 4.04269 7.44606 4.04167 7.51736 4.03986C7.65017 4.13049 9.01531 4.65526 9.3254 4.50279C9.75151 4.29327 10.0469 3.84443 10.0469 3.40663C10.0469 3.22987 10.0332 3.20106 9.94917 3.20106C9.89544 3.20106 9.78367 3.25156 9.70085 3.31322C9.50688 3.45778 9.36976 3.48202 9.34753 3.37573C9.33675 3.32393 9.37118 3.27925 9.44237 3.25258C9.59495 3.19552 9.69007 3.08001 9.61973 3.03724C9.59032 3.01937 9.5276 2.94216 9.4803 2.86565L9.39436 2.72654L9.33041 2.85489C9.23099 3.05455 9.02997 3.17681 8.81045 3.17118C8.55168 3.16448 8.38335 3.03226 8.29689 2.76782C8.23724 2.58533 8.1969 2.53931 8.04365 2.47876C7.94342 2.4392 7.76785 2.39415 7.65344 2.37874C7.53907 2.36329 7.44551 2.33332 7.44551 2.3121C7.44551 2.29087 7.37944 2.19947 7.2987 2.10899C7.10264 1.88928 6.89283 1.88155 6.71659 2.08768ZM8.54521 2.29786C8.38945 2.4694 8.40246 2.70708 8.57703 2.87886C8.73496 3.03426 8.84101 3.04836 9.00764 2.93615C9.17323 2.82464 9.194 2.7835 9.19485 2.56527C9.19542 2.40462 9.17011 2.35054 9.04619 2.24792C8.8691 2.10132 8.70919 2.11728 8.54521 2.29786ZM9.7307 2.27835C9.61307 2.38712 9.58038 2.66664 9.66675 2.82544C9.72346 2.92964 9.99037 3.0438 10.0441 2.9867C10.0656 2.9638 10.0977 2.77229 10.1156 2.56113L10.148 2.17718H9.9941C9.90116 2.17718 9.79682 2.21725 9.7307 2.27835ZM10.2981 2.67748C10.31 2.7223 10.3198 2.68563 10.3198 2.59604C10.3198 2.50645 10.31 2.46977 10.2981 2.51459C10.2862 2.55941 10.2862 2.63267 10.2981 2.67748ZM14.4221 3.0829C16.701 3.70779 18.7049 4.76621 19.8702 5.96057C21.0765 7.19687 21.3231 8.33906 20.5836 9.26372C20.4109 9.47966 20.2743 9.55985 20.2014 9.48809C20.1638 9.45109 20.203 9.38281 20.3444 9.23947C21.4862 8.08178 20.4511 6.17419 17.8783 4.69449C16.7704 4.05736 15.333 3.48756 14.091 3.19329C13.6691 3.09332 13.547 3.04157 13.547 2.96268C13.547 2.88524 13.8561 2.92768 14.4221 3.0829ZM13.1127 5.72587C12.6179 6.37236 12.3173 6.83176 12.3173 6.94145C12.3173 6.95295 12.5035 7.06139 12.7311 7.18244C13.8069 7.75446 14.8697 8.57725 15.0135 8.94934C15.0426 9.02459 15.0438 9.17874 15.0169 9.36569C14.9787 9.63148 15.009 9.96066 15.0779 10.0285C15.092 10.0424 15.151 9.95772 15.2089 9.8404C15.2668 9.72312 15.3436 9.61598 15.3796 9.60244C15.4782 9.56521 15.6847 9.68849 15.8167 9.86344C15.9386 10.025 15.9767 10.3481 15.8939 10.5195C15.8618 10.5859 15.8768 10.601 15.9752 10.601C16.2204 10.601 16.31 10.2874 16.1735 9.90672C16.1111 9.7328 16.1116 9.70981 16.1783 9.68467C16.2192 9.66922 16.2719 9.68584 16.2956 9.72153C16.3361 9.78292 16.3498 9.82965 16.41 10.1142C16.4237 10.1792 16.4557 10.2199 16.4809 10.2045C16.5516 10.1616 16.5355 9.86823 16.4474 9.59336C16.4038 9.45705 16.3815 9.33218 16.3981 9.31594C16.4731 9.24212 16.5767 9.36196 16.6487 9.60574C16.7129 9.82285 16.7358 9.85659 16.7737 9.78995C16.8303 9.69044 16.7859 9.36639 16.6911 9.18655C16.5976 9.00919 16.6024 8.91508 16.704 8.93435C16.7528 8.94357 16.8271 9.04977 16.8854 9.19372C16.9904 9.45295 17.0473 9.4664 17.0468 9.23188C17.0461 8.81065 16.8256 8.50618 16.3392 8.25468C16.043 8.10151 15.9662 8.03105 15.6678 7.63877C15.1786 6.99544 14.5274 6.30297 13.9532 5.81513C13.6769 5.58048 13.4329 5.38845 13.4109 5.38845C13.3889 5.38845 13.2547 5.54027 13.1127 5.72587ZM3.24151 6.26108L2.99391 6.66831L3.11494 6.7122C3.22605 6.7525 3.26956 6.82915 3.21295 6.88486C3.20032 6.89729 2.91761 6.85368 2.58477 6.78787C1.99013 6.6704 1.97637 6.66486 1.79791 6.47028C1.57216 6.22404 1.00358 5.93721 0.727217 5.93009C0.49588 5.92408 0.398018 6.02196 0.398018 6.25936C0.398018 6.43398 0.615546 6.93387 0.768368 7.11044C0.854498 7.20994 0.876302 7.21669 0.91906 7.15698C0.94654 7.11859 0.956472 7.01387 0.941147 6.92428C0.856388 6.42942 0.856154 6.41234 0.934385 6.41234C0.979887 6.41234 1.02671 6.47279 1.05159 6.56359L1.09293 6.71485L1.17225 6.53208C1.23009 6.39875 1.26571 6.36324 1.30379 6.4007C1.34186 6.43817 1.3404 6.53348 1.2983 6.75297C1.21382 7.19356 1.34806 7.38568 1.58048 7.15698C1.69859 7.04077 1.76968 7.03807 1.76968 7.14977C1.76968 7.3504 1.46266 7.47806 1.24135 7.36944C1.15929 7.32918 1.08914 7.30154 1.0855 7.30805C1.08186 7.31457 1.03749 7.3827 0.986933 7.45949C0.936371 7.53628 0.869395 7.65654 0.838131 7.72673C0.787758 7.83982 0.792537 7.8603 0.880087 7.90642C0.937555 7.93667 1.07004 7.94677 1.19689 7.93057C1.37743 7.90749 1.45155 7.92345 1.62778 8.02337C2.07773 8.27855 2.6307 8.46695 2.99944 8.49068C3.31218 8.51084 3.37906 8.50008 3.56447 8.39979C3.81472 8.26445 4.30081 7.84433 4.63635 7.47341L4.87795 7.20631L4.21066 6.53693C3.84367 6.16875 3.53117 5.86447 3.51623 5.8607C3.50128 5.85693 3.37769 6.03713 3.24151 6.26108ZM0.209864 6.67994C0.211235 6.84809 0.35261 7.14009 0.530926 7.34314C0.641935 7.4695 0.686918 7.49365 0.731567 7.45093C0.776501 7.40788 0.751005 7.35203 0.615353 7.19607C0.51981 7.08624 0.405538 6.89636 0.361408 6.77414C0.271825 6.52599 0.208303 6.48648 0.209864 6.67994ZM12.2225 7.46382C12.3508 7.70937 12.4999 8.02873 12.554 8.17356C12.6081 8.31835 12.7791 8.68815 12.9339 8.99532C13.3581 9.8364 13.438 10.3242 13.2624 10.9999C13.1406 11.4685 12.9377 11.799 12.5644 12.1371L12.2676 12.4059L12.4571 12.836C12.7979 13.609 12.9699 13.8156 13.1502 13.6684C13.3397 13.5136 14.7615 11.1053 14.8485 10.7919C14.8811 10.6741 14.9307 10.5209 14.9587 10.4515C14.9995 10.3503 14.9913 10.2847 14.9175 10.1204C14.816 9.89471 14.7932 9.63078 14.8442 9.27228C14.8762 9.04777 14.8696 9.02762 14.6971 8.82205C14.4936 8.57934 14.0963 8.25012 13.643 7.94835C13.2998 7.71984 12.0784 7.01736 12.0244 7.01736C12.0051 7.01736 12.0944 7.21827 12.2225 7.46382ZM0.161526 7.27319C0.161526 7.40132 0.46225 7.762 0.56905 7.762C0.682093 7.762 0.641134 7.67455 0.447351 7.50231C0.344383 7.41076 0.247181 7.29562 0.231289 7.24643C0.191511 7.12301 0.161526 7.1345 0.161526 7.27319ZM16.6266 8.00006C16.5806 8.13009 16.5874 8.15452 16.6932 8.23634C16.7581 8.28656 16.844 8.35995 16.8841 8.39942C16.9242 8.43888 16.9627 8.46346 16.9697 8.45401C16.9766 8.44456 17.0288 8.37643 17.0856 8.30257C17.1425 8.22871 17.189 8.15094 17.189 8.12972C17.189 8.07196 16.8478 7.85508 16.757 7.85508C16.7111 7.85508 16.6565 7.91582 16.6266 8.00006ZM12.0477 8.8738C11.06 9.35857 9.87808 9.61226 8.40094 9.65652C7.76591 9.67555 7.4939 9.69947 7.50724 9.73517C7.51783 9.76342 7.57468 9.94358 7.63362 10.1356C7.69255 10.3275 7.7591 10.5041 7.78147 10.528C7.80602 10.5541 8.00917 10.4831 8.29324 10.349C8.72706 10.1443 8.86447 10.1161 8.86447 10.2317C8.86447 10.2559 8.64098 10.3851 8.36784 10.5188C8.09469 10.6524 7.8712 10.7807 7.8712 10.8036C7.8712 10.8267 8.01797 11.0156 8.19732 11.2235C8.66388 11.7643 9.10725 12.4369 9.31953 12.9258L9.503 13.3483L9.6922 13.3188C10.5912 13.1787 11.9308 12.5119 12.5448 11.8989C13.1205 11.324 13.3036 10.415 13.009 9.59345C12.9332 9.38221 12.5626 8.64627 12.532 8.64627C12.5206 8.64627 12.3026 8.74866 12.0477 8.8738ZM15.3109 10.0774C15.2326 10.2246 15.125 10.771 15.1487 10.8411C15.0539 10.7603 14.8935 11.1473 14.1966 12.3229C13.5656 13.3875 13.3226 13.7567 13.2049 13.8297C13.148 13.865 13.0637 13.8629 12.9098 13.8224C12.4588 13.7037 11.9366 13.7772 11.4588 14.0265C11.0699 14.2294 10.5305 14.7906 10.3227 15.2084C9.91195 16.0349 9.86574 16.8143 10.1888 17.4688C10.4461 17.9901 10.8432 18.281 11.4186 18.3697C12.4126 18.523 13.4637 17.8022 13.9797 16.6135C14.1283 16.2712 14.1351 16.2291 14.1367 15.6506C14.1381 15.0909 14.1288 15.0257 14.0125 14.7814C13.9432 14.6362 13.7996 14.4244 13.6932 14.3108C13.5868 14.1973 13.4997 14.0655 13.4997 14.018C13.4997 13.8454 13.6715 13.4931 14.1558 12.672C14.4275 12.2112 14.7027 11.74 14.7674 11.6248C14.9257 11.3428 15.2198 10.8645 15.1487 10.8411C15.1961 10.8061 15.3582 10.8522 15.508 10.6758C15.7536 10.3866 15.7776 10.3392 15.7534 10.1921C15.7291 10.0445 15.5645 9.80977 15.4852 9.80977C15.4677 9.80977 15.3893 9.93017 15.3109 10.0774ZM7.11901 11.1479C6.15823 11.6926 5.38679 12.3354 5.17825 12.7651C5.02642 13.078 5.03484 13.3177 5.21827 13.9053C5.30213 14.1741 5.50021 14.8177 5.65843 15.3356L5.94605 16.2772L6.11637 16.313C6.21007 16.3326 6.56339 16.3487 6.90158 16.3487C7.5412 16.3487 8.05036 16.2656 8.09378 16.1543C8.16525 15.971 7.82825 14.65 7.58017 14.1409C7.40375 13.7789 7.39504 13.7434 7.46944 13.6899C7.58925 13.6037 8.54908 13.3885 8.9453 13.3591C9.13497 13.3449 9.29016 13.3238 9.29016 13.3121C9.29016 13.3003 9.2053 13.1126 9.10162 12.8949C8.83443 12.3338 8.51219 11.8784 7.76724 11.0091C7.70736 10.9392 7.64327 10.8816 7.62487 10.8811C7.60642 10.8806 7.37882 11.0007 7.11901 11.1479ZM11.8334 12.6658C11.1119 13.1193 10.3354 13.4087 9.5503 13.5165C9.26414 13.5557 9.02259 13.5951 9.01351 13.6038C8.9795 13.6367 9.25927 14.0896 9.3893 14.2121C9.52268 14.3379 9.52793 14.3387 9.79748 14.2802C10.1912 14.1948 10.5963 14.0514 10.8967 13.891C11.1914 13.7337 11.8789 13.276 12.125 13.0734L12.2874 12.9397L12.2038 12.7244C12.1579 12.606 12.1118 12.5091 12.1014 12.5091C12.0911 12.5091 11.9705 12.5796 11.8334 12.6658ZM11.8842 13.4847C11.3285 13.8921 10.6549 14.2399 10.1652 14.372C9.95707 14.4282 9.75931 14.4819 9.72568 14.4915C9.68676 14.5026 9.75411 14.6188 9.91157 14.8122C10.0474 14.9789 10.171 15.1154 10.1863 15.1154C10.2016 15.1154 10.2821 15.0034 10.3652 14.8667C10.5637 14.5401 11.0942 14.0555 11.4358 13.8887C11.7687 13.7262 12.1323 13.6274 12.4 13.6266C12.5106 13.6263 12.6011 13.6146 12.6011 13.6005C12.6011 13.5336 12.3793 13.1607 12.3395 13.1607C12.3321 13.1607 12.1272 13.3065 11.8842 13.4847ZM12.8612 13.946C13.501 14.1133 13.9705 14.7119 14.0484 15.4595C14.1526 16.4607 13.4854 17.6106 12.5311 18.0747C12.1791 18.2459 12.1381 18.2549 11.7036 18.2558C11.2878 18.2567 11.2214 18.2442 10.9687 18.1171C9.81144 17.5348 9.79715 15.6679 10.9415 14.5569C11.3877 14.1236 11.7764 13.9442 12.3123 13.9242C12.5362 13.9158 12.7832 13.9257 12.8612 13.946ZM12.4237 14.0901C12.3738 14.1687 12.3801 14.1895 12.4677 14.2356C12.5522 14.2801 12.5808 14.2748 12.6328 14.2048C12.7322 14.0711 12.7199 14.0517 12.506 14.0038C12.4927 14.0008 12.4557 14.0397 12.4237 14.0901ZM12.2283 14.0949C12.2941 14.1349 12.3646 14.11 12.3646 14.0466C12.3646 14.0249 12.3202 14.0185 12.266 14.0325C12.1941 14.051 12.1838 14.0679 12.2283 14.0949ZM12.7142 14.1729C12.627 14.286 12.6333 14.3391 12.7419 14.4058C12.8245 14.4566 12.844 14.4469 12.9094 14.3225C12.95 14.2452 12.9706 14.1615 12.9549 14.1367C12.9099 14.0649 12.7827 14.0841 12.7142 14.1729ZM11.9862 14.2489C11.9862 14.278 12.0281 14.3276 12.0794 14.359C12.1592 14.4081 12.1804 14.4019 12.2273 14.3158C12.2724 14.2328 12.2671 14.2045 12.1971 14.1541C12.1067 14.0891 11.9862 14.1432 11.9862 14.2489ZM11.8457 14.1362C11.8074 14.16 11.7905 14.1937 11.8081 14.211C11.8514 14.2536 11.9862 14.1994 11.9862 14.1395C11.9862 14.0804 11.9372 14.0792 11.8457 14.1362ZM12.9525 14.3304C12.8893 14.4507 12.887 14.4831 12.9395 14.5158C13.0513 14.5855 13.1171 14.5603 13.1911 14.4196C13.2573 14.2936 13.2564 14.2783 13.1805 14.2348C13.056 14.1635 13.0358 14.172 12.9525 14.3304ZM12.2782 14.3285C12.2251 14.4121 12.2285 14.4348 12.3023 14.4899C12.4161 14.5747 12.4261 14.5731 12.4982 14.4595C12.5513 14.3759 12.5479 14.3532 12.4741 14.2981C12.3604 14.2133 12.3503 14.2149 12.2782 14.3285ZM11.6128 14.315C11.5777 14.3795 11.5893 14.4126 11.6627 14.4577C11.7437 14.5074 11.7684 14.5034 11.8235 14.432C11.9052 14.3259 11.907 14.2915 11.8325 14.2619C11.7191 14.2169 11.6581 14.2317 11.6128 14.315ZM13.1697 14.5902C13.1691 14.6212 13.2105 14.6687 13.2616 14.6957C13.3402 14.737 13.3654 14.7241 13.4245 14.6116C13.4874 14.4919 13.4864 14.4707 13.4152 14.4005C13.341 14.3275 13.3305 14.3293 13.2533 14.4281C13.2079 14.4861 13.1703 14.5591 13.1697 14.5902ZM12.5343 14.5899C12.6102 14.7083 12.6835 14.7127 12.7435 14.6024C12.7882 14.5202 12.7825 14.4916 12.7112 14.4395C12.5929 14.3532 12.4568 14.4689 12.5343 14.5899ZM11.8704 14.451C11.8507 14.5016 11.8704 14.5536 11.9239 14.5922C11.9956 14.6437 12.0178 14.6409 12.0676 14.5739C12.1109 14.5156 12.1127 14.4783 12.0742 14.4327C12.0017 14.3468 11.9078 14.3552 11.8704 14.451ZM11.2644 14.4359C11.1906 14.491 11.1892 14.5048 11.2525 14.5565C11.3096 14.603 11.3383 14.6031 11.3949 14.5569C11.5581 14.4237 11.4343 14.309 11.2644 14.4359ZM11.4627 14.5628C11.4071 14.665 11.462 14.7407 11.5928 14.7423C11.6788 14.7434 11.7236 14.5522 11.6483 14.5052C11.5518 14.445 11.5216 14.4544 11.4627 14.5628ZM12.132 14.5963C12.0998 14.6554 12.1022 14.699 12.1398 14.7359C12.2158 14.8107 12.273 14.803 12.3452 14.7081C12.4008 14.6353 12.4062 14.6412 12.3977 14.7645C12.3863 14.9307 12.5207 14.9838 12.5972 14.8432C12.6404 14.7638 12.6204 14.7359 12.4466 14.6328C12.2044 14.4891 12.1911 14.4875 12.132 14.5963ZM13.4541 14.6469C13.3877 14.7689 13.3903 14.7785 13.5057 14.8393C13.5841 14.8806 13.6165 14.8783 13.6521 14.8293C13.6871 14.7811 13.6917 14.7851 13.6718 14.8463C13.6467 14.9233 13.7175 15.0097 13.7663 14.9616C13.8009 14.9276 13.6007 14.5569 13.5477 14.5569C13.5231 14.5569 13.4811 14.5974 13.4541 14.6469ZM12.7997 14.6127C12.7193 14.6918 12.7288 14.7323 12.8414 14.7916C12.9215 14.8338 12.9517 14.8276 13.0031 14.7585C13.1108 14.6136 12.9304 14.4842 12.7997 14.6127ZM10.9929 14.7428C10.9929 14.7603 11.0457 14.7983 11.1103 14.8272C11.2118 14.8728 11.2349 14.8665 11.2818 14.7802C11.3264 14.6983 11.3208 14.6697 11.2505 14.6191C11.1784 14.5673 11.1516 14.5696 11.079 14.6343C11.0316 14.6764 10.9929 14.7253 10.9929 14.7428ZM11.7234 14.7046C11.7007 14.775 11.7165 14.8243 11.7755 14.8667C11.8482 14.919 11.8701 14.9137 11.9307 14.8285C11.9945 14.7389 11.9928 14.7233 11.9137 14.6664C11.794 14.5802 11.7614 14.5868 11.7234 14.7046ZM14.1962 14.8639C14.2614 15.0069 14.2785 15.1693 14.2764 15.6273C14.2737 16.2327 14.237 16.3998 13.9984 16.8955C13.9398 17.0171 13.9048 17.1166 13.9205 17.1166C13.9362 17.1166 14.117 17.0107 14.3224 16.8812C14.7804 16.5925 15.1294 16.244 15.3333 15.8716L15.4878 15.5896L14.9753 15.2172C14.4449 14.832 14.1533 14.6429 14.128 14.6678C14.12 14.6757 14.1507 14.764 14.1962 14.8639ZM13.0386 14.7882C12.9887 14.8668 12.995 14.8876 13.0826 14.9337C13.1674 14.9784 13.1957 14.9728 13.2493 14.9007C13.3049 14.8259 13.3025 14.8059 13.2322 14.7552C13.1241 14.6775 13.1071 14.6803 13.0386 14.7882ZM11.2767 14.8899C11.2767 14.9097 11.316 14.9466 11.3641 14.9719C11.5274 15.058 11.6385 14.8384 11.4777 14.7473C11.4159 14.7123 11.38 14.7198 11.3358 14.7772C11.3033 14.8194 11.2767 14.8701 11.2767 14.8899ZM11.9389 14.9365C11.9389 14.9562 11.9782 14.9931 12.0262 15.0185C12.1896 15.1045 12.3007 14.8849 12.1399 14.7939C12.078 14.7588 12.0422 14.7664 11.998 14.8237C11.9655 14.8659 11.9389 14.9166 11.9389 14.9365ZM12.6011 14.9735C12.6011 14.988 12.643 15.0257 12.6942 15.0571C12.7741 15.1062 12.7953 15.1 12.8421 15.0139C12.8875 14.9304 12.8818 14.9025 12.8086 14.8498C12.7326 14.7951 12.7122 14.7974 12.6608 14.8667C12.6279 14.9109 12.6011 14.9589 12.6011 14.9735ZM10.7865 14.9394C10.8041 14.9675 10.8315 14.9609 10.8562 14.9225C10.9208 14.8222 10.9048 14.7729 10.8279 14.8357C10.7891 14.8673 10.7705 14.914 10.7865 14.9394ZM13.3073 14.9351C13.252 15.0368 13.3065 15.1129 13.4355 15.1147C13.5168 15.1157 13.5562 14.9729 13.4948 14.9C13.4195 14.8108 13.3699 14.8201 13.3073 14.9351ZM10.8994 14.9272C10.8589 15.0017 10.8687 15.0283 10.9531 15.0728C11.0387 15.1179 11.067 15.1129 11.1184 15.0436C11.1642 14.982 11.1668 14.9439 11.1282 14.8981C11.0533 14.8093 10.9568 14.8216 10.8994 14.9272ZM12.2285 15.0087C12.1822 15.0962 12.1889 15.1192 12.2732 15.1636C12.354 15.2061 12.3845 15.2 12.4379 15.1307C12.4954 15.056 12.4912 15.0354 12.4037 14.9629C12.3488 14.9175 12.2991 14.8861 12.2933 14.8931C12.2875 14.9002 12.2583 14.9522 12.2285 15.0087ZM11.5615 14.9738C11.5211 15.0482 11.5309 15.0749 11.6153 15.1193C11.7009 15.1644 11.7292 15.1594 11.7806 15.0902C11.8264 15.0286 11.829 14.9904 11.7904 14.9447C11.7155 14.8559 11.619 14.8681 11.5615 14.9738ZM12.9034 15.0106C12.8172 15.1223 12.8214 15.1397 12.9474 15.1962C13.0385 15.237 13.0674 15.2296 13.1161 15.1529C13.1655 15.0751 13.1611 15.05 13.089 14.9962C12.9789 14.9141 12.9778 14.9142 12.9034 15.0106ZM13.554 15.0751C13.5015 15.1579 13.5015 15.1809 13.5545 15.214C13.6563 15.2775 13.7293 15.2615 13.7822 15.1644C13.8209 15.0932 13.8137 15.0636 13.7484 15.0262C13.6337 14.9605 13.6255 14.9626 13.554 15.0751ZM11.1566 15.0746C11.1249 15.1728 11.1919 15.2527 11.3071 15.2543C11.3883 15.2554 11.4277 15.1125 11.3663 15.0396C11.2873 14.946 11.193 14.9616 11.1566 15.0746ZM11.8249 15.098C11.7914 15.184 11.8723 15.3015 11.9651 15.3015C12.0558 15.3015 12.1048 15.1124 12.0267 15.0637C11.9284 15.0025 11.8574 15.0145 11.8249 15.098ZM10.6317 15.1943C10.6511 15.2134 10.6867 15.1982 10.711 15.1606C10.7838 15.0472 10.7619 14.9969 10.6765 15.081C10.6325 15.1243 10.6123 15.1753 10.6317 15.1943ZM13.1213 15.2622C13.1213 15.282 13.163 15.3202 13.214 15.347C13.2896 15.3868 13.3167 15.3771 13.3619 15.2942C13.4079 15.2094 13.4025 15.182 13.3289 15.1291C13.2528 15.0744 13.2325 15.0767 13.181 15.1459C13.1482 15.1901 13.1213 15.2424 13.1213 15.2622ZM12.4871 15.1445C12.4573 15.2208 12.5312 15.3481 12.6052 15.3481C12.6271 15.3481 12.6693 15.3035 12.6989 15.2491C12.7409 15.1719 12.7387 15.1413 12.6887 15.1101C12.5906 15.049 12.5196 15.0611 12.4871 15.1445ZM10.7647 15.1662C10.7116 15.2498 10.715 15.2725 10.7888 15.3276C10.9025 15.4124 10.9125 15.4108 10.9846 15.2972C11.0377 15.2136 11.0343 15.1909 10.9606 15.1358C10.8468 15.051 10.8368 15.0526 10.7647 15.1662ZM11.4269 15.2127C11.3738 15.2964 11.3772 15.3191 11.4509 15.3742C11.526 15.4302 11.5474 15.4259 11.6203 15.3406C11.7001 15.2473 11.7001 15.2402 11.6203 15.1807C11.5092 15.0977 11.4988 15.0994 11.4269 15.2127ZM12.0776 15.2609C12.0356 15.3381 12.0378 15.3687 12.0877 15.3998C12.19 15.4636 12.263 15.4478 12.3159 15.3505C12.3546 15.2794 12.3474 15.2498 12.2821 15.2124C12.163 15.1441 12.1379 15.15 12.0776 15.2609ZM13.8046 15.344C13.859 15.4305 13.9179 15.3995 13.891 15.2984C13.8743 15.2357 13.8494 15.2181 13.8191 15.2479C13.7937 15.2729 13.7872 15.3162 13.8046 15.344ZM12.7456 15.2966C12.6885 15.4017 12.7933 15.5144 12.9079 15.4711C12.9943 15.4385 13.0031 15.2722 12.9203 15.2393C12.8179 15.1986 12.7948 15.2062 12.7456 15.2966ZM11.0386 15.3045C10.9998 15.3758 11.0009 15.4178 11.0427 15.4674C11.1201 15.5591 11.1695 15.5513 11.2315 15.4373C11.2743 15.3586 11.2679 15.3283 11.1977 15.2759C11.0881 15.1942 11.0997 15.1922 11.0386 15.3045ZM13.4051 15.3248C13.3582 15.3805 13.3582 15.4087 13.4051 15.4644C13.4824 15.556 13.5466 15.5526 13.6207 15.4529C13.7327 15.3022 13.5273 15.18 13.4051 15.3248ZM11.7043 15.5222C11.7587 15.5596 11.8078 15.5829 11.8134 15.5739C11.8191 15.5648 11.8528 15.5202 11.8883 15.4746C11.9442 15.4028 11.9408 15.3827 11.8631 15.3248C11.7831 15.2651 11.7643 15.2685 11.6895 15.356C11.6087 15.4505 11.6093 15.4566 11.7043 15.5222ZM10.4726 15.45C10.4726 15.5167 10.5562 15.4901 10.5858 15.4141C10.6375 15.2815 10.613 15.2298 10.5421 15.322C10.5039 15.3718 10.4726 15.4293 10.4726 15.45ZM12.3243 15.4008C12.2717 15.4837 12.2718 15.5067 12.3247 15.5398C12.4198 15.599 12.4878 15.5891 12.558 15.5059C12.6117 15.4423 12.6076 15.4213 12.5311 15.3663C12.413 15.2813 12.3986 15.2837 12.3243 15.4008ZM12.9913 15.4397C12.9414 15.5184 12.9477 15.5392 13.0353 15.5853C13.1201 15.63 13.1484 15.6243 13.202 15.5523C13.2576 15.4774 13.2552 15.4574 13.1849 15.4068C13.0768 15.329 13.0598 15.3319 12.9913 15.4397ZM11.3019 15.6109C11.4216 15.697 11.4542 15.6905 11.4921 15.5727C11.5148 15.5022 11.499 15.453 11.4401 15.4106C11.3674 15.3583 11.3455 15.3636 11.2849 15.4488C11.2211 15.5383 11.2227 15.554 11.3019 15.6109ZM10.6124 15.445C10.5696 15.5237 10.576 15.5537 10.6463 15.6053C10.7219 15.6609 10.7427 15.6561 10.8122 15.5675C10.8693 15.4945 10.8777 15.4495 10.8419 15.4071C10.7681 15.3195 10.672 15.3354 10.6124 15.445ZM13.6535 15.4863C13.6036 15.5649 13.6099 15.5857 13.6975 15.6318C13.7818 15.6762 13.8105 15.6711 13.8618 15.6021C13.9075 15.5405 13.9101 15.5023 13.8715 15.4566C13.7978 15.3691 13.7212 15.3796 13.6535 15.4863ZM11.8916 15.588C11.8916 15.6078 11.9309 15.6447 11.9789 15.67C12.1423 15.7561 12.2534 15.5365 12.0926 15.4454C12.0307 15.4104 11.9949 15.4179 11.9507 15.4753C11.9182 15.5175 11.8916 15.5682 11.8916 15.588ZM12.5538 15.6346C12.5538 15.6543 12.5954 15.6925 12.6464 15.7194C12.722 15.7592 12.7491 15.7495 12.7943 15.6665C12.8403 15.5817 12.8349 15.5543 12.7613 15.5014C12.6853 15.4467 12.6649 15.449 12.6135 15.5183C12.5806 15.5624 12.5538 15.6147 12.5538 15.6346ZM13.2159 15.6811C13.2159 15.7009 13.2576 15.739 13.3086 15.7659C13.3842 15.8057 13.4113 15.796 13.4565 15.713C13.5025 15.6283 13.4971 15.6009 13.4235 15.548C13.3474 15.4932 13.3271 15.4955 13.2756 15.5648C13.2428 15.609 13.2159 15.6613 13.2159 15.6811ZM10.8633 15.5787C10.8141 15.6562 10.821 15.6805 10.9095 15.7415C11.0062 15.8081 11.0175 15.8058 11.0718 15.7086C11.1204 15.6213 11.1173 15.5944 11.0525 15.5459C10.9493 15.4686 10.9312 15.4718 10.8633 15.5787ZM11.5171 15.6202C11.4849 15.6793 11.4873 15.7228 11.5249 15.7598C11.6058 15.8394 11.6927 15.8251 11.7483 15.7229C11.7871 15.6517 11.7798 15.6221 11.7145 15.5847C11.5976 15.5177 11.5701 15.5226 11.5171 15.6202ZM12.8466 15.6962C12.8006 15.7955 12.8068 15.8189 12.8903 15.8629C12.9438 15.891 12.9917 15.9071 12.9969 15.8987C13.002 15.8902 13.0353 15.8459 13.0708 15.8004C13.1267 15.7286 13.1233 15.7085 13.0456 15.6506C12.9236 15.5597 12.9081 15.5633 12.8466 15.6962ZM12.1764 15.6719C12.1362 15.7459 12.1455 15.7728 12.2259 15.8152C12.3067 15.8577 12.3367 15.8517 12.3882 15.7824C12.4326 15.7226 12.4367 15.6801 12.4022 15.6391C12.3302 15.5537 12.233 15.5678 12.1764 15.6719ZM13.5567 15.8998C13.6376 15.9556 13.6581 15.9558 13.6934 15.9011C13.7572 15.8019 13.7442 15.7294 13.6535 15.6794C13.589 15.6439 13.5586 15.6559 13.5161 15.734C13.4703 15.8181 13.4768 15.8448 13.5567 15.8998ZM11.1443 15.6832C11.0627 15.7634 11.0741 15.8293 11.1807 15.8949C11.2601 15.9437 11.2815 15.9381 11.3259 15.8566C11.3643 15.7858 11.3632 15.7436 11.3215 15.6941C11.2528 15.6127 11.218 15.6105 11.1443 15.6832ZM11.8064 15.7297C11.7752 15.7604 11.7497 15.8105 11.7497 15.8411C11.7497 15.9316 11.9024 15.9624 11.9787 15.8873C12.0365 15.8305 12.0382 15.8053 11.9882 15.746C11.9149 15.6592 11.8811 15.6562 11.8064 15.7297ZM15.4865 15.9783C15.3217 16.2941 14.7238 16.8722 14.336 17.0906C14.1219 17.2112 14.0345 17.2835 14.0759 17.306C14.2174 17.3825 15.5521 17.8146 15.6454 17.8141C15.7935 17.8133 16.2895 17.5537 16.4717 17.3818C16.6607 17.2035 16.8372 16.915 16.8794 16.7155C16.9092 16.5743 16.8967 16.5613 16.4228 16.2401C16.1548 16.0584 15.8824 15.8676 15.8174 15.8162C15.7523 15.7647 15.6779 15.729 15.6521 15.7369C15.6262 15.7448 15.5517 15.8534 15.4865 15.9783ZM12.4336 15.8193C12.4136 15.8813 12.4257 15.9331 12.4659 15.9582C12.5484 16.0095 12.6054 15.9906 12.6686 15.8908C12.7071 15.8301 12.7022 15.8001 12.6484 15.7663C12.536 15.6958 12.4681 15.7126 12.4336 15.8193ZM10.8276 15.8137C10.8749 15.8651 10.926 15.8948 10.9413 15.8797C10.9566 15.8647 10.9278 15.8227 10.8774 15.7864C10.7478 15.6932 10.7271 15.7045 10.8276 15.8137ZM10.4493 15.8137C10.4965 15.8651 10.5454 15.897 10.5579 15.8847C10.5897 15.8534 10.4717 15.7204 10.4122 15.7204C10.3854 15.7204 10.402 15.7624 10.4493 15.8137ZM13.0958 15.8658C13.0758 15.9279 13.0879 15.9796 13.1281 16.0047C13.2173 16.0604 13.2431 16.0564 13.3105 15.9764C13.3575 15.9206 13.3575 15.8924 13.3105 15.8367C13.2269 15.7376 13.1331 15.7503 13.0958 15.8658ZM11.3965 16.0297C11.5162 16.1159 11.5488 16.1093 11.5867 15.9915C11.6094 15.9211 11.5936 15.8719 11.5347 15.8294C11.462 15.7771 11.4401 15.7825 11.3795 15.8676C11.3157 15.9572 11.3173 15.9728 11.3965 16.0297ZM13.7412 15.8974C13.7066 15.9611 13.7169 15.9944 13.7841 16.0357C13.858 16.0811 13.8775 16.075 13.9021 15.9987C13.9573 15.8277 13.8246 15.7441 13.7412 15.8974ZM12.0303 15.9125C11.9883 15.9897 11.9905 16.0202 12.0404 16.0514C12.1388 16.1127 12.2096 16.1004 12.2424 16.0162C12.2588 15.9742 12.2854 15.9527 12.3015 15.9686C12.3176 15.9844 12.3033 16.03 12.2697 16.0698C12.2187 16.1302 12.2235 16.1533 12.2984 16.209C12.4192 16.299 12.4468 16.2954 12.5086 16.1818C12.5693 16.0703 12.5645 16.0636 12.3278 15.9252C12.1037 15.7941 12.0948 15.7938 12.0303 15.9125ZM12.6262 16.0799C12.5098 16.2847 12.5068 16.3037 12.5828 16.3583C12.6427 16.4015 12.6809 16.4033 12.7273 16.3655C12.8144 16.2943 12.806 16.1994 12.7075 16.143C12.662 16.1169 12.6471 16.0949 12.6744 16.0941C12.7017 16.0934 12.7471 16.1154 12.7753 16.1432C12.8122 16.1794 12.8481 16.1634 12.903 16.0863C12.9451 16.0272 12.9794 16.0033 12.9794 16.033C12.9794 16.0628 12.9582 16.1002 12.9322 16.116C12.8558 16.1624 12.8772 16.2139 12.9947 16.2666C13.0862 16.3077 13.1148 16.2999 13.1652 16.2205C13.2149 16.1422 13.2142 16.1183 13.1617 16.0875C13.1265 16.0668 13.0338 16.0087 12.9558 15.9583C12.8778 15.908 12.7998 15.8653 12.7824 15.8634C12.7652 15.8615 12.6949 15.9589 12.6262 16.0799ZM11.0611 16.026C11.1718 16.1064 11.2294 16.1111 11.2294 16.0396C11.2294 15.9536 11.071 15.8593 11.0166 15.9128C10.985 15.9438 10.9999 15.9816 11.0611 16.026ZM10.2881 16.0066C10.2285 16.1748 10.219 16.4185 10.272 16.4185C10.2918 16.4185 10.3358 16.3747 10.3697 16.3211C10.4228 16.2375 10.4194 16.2142 10.3457 16.1559C10.2647 16.0918 10.2657 16.0895 10.3633 16.1158C10.4901 16.15 10.597 16.001 10.5082 15.9137C10.4157 15.8226 10.3423 15.8536 10.2881 16.0066ZM13.2849 16.1236C13.1621 16.3298 13.1599 16.3436 13.241 16.402C13.3041 16.4473 13.3429 16.45 13.3894 16.412C13.4747 16.3424 13.4687 16.2784 13.3697 16.2018C13.2949 16.144 13.2991 16.1405 13.4125 16.1657C13.5138 16.1883 13.5445 16.1738 13.5713 16.0908C13.5926 16.0246 13.5816 15.9737 13.5403 15.948C13.4374 15.8838 13.4209 15.8952 13.2849 16.1236ZM11.6356 16.1257C11.7116 16.2441 11.7848 16.2486 11.8448 16.1383C11.8895 16.0561 11.8838 16.0274 11.8125 15.9754C11.6943 15.889 11.5581 16.0047 11.6356 16.1257ZM10.5767 16.0555C10.4951 16.1357 10.5065 16.2017 10.6131 16.2672C10.6926 16.316 10.7139 16.3104 10.7583 16.2289C10.7968 16.1581 10.7956 16.1159 10.7539 16.0665C10.6852 15.9851 10.6505 15.9829 10.5767 16.0555ZM13.6153 16.1275C13.544 16.2234 13.6065 16.3254 13.7365 16.3254C13.8503 16.3254 13.8912 16.1516 13.791 16.094C13.6862 16.0338 13.6847 16.0341 13.6153 16.1275ZM11.2434 16.121C11.2349 16.1461 11.3328 16.2225 11.4609 16.2905C11.6501 16.391 11.6988 16.4017 11.72 16.3473C11.7491 16.2727 11.5861 16.1648 11.5122 16.2097C11.4868 16.2252 11.4659 16.2069 11.4659 16.1691C11.4659 16.0579 11.2786 16.0174 11.2434 16.121ZM11.8704 16.1729C11.8508 16.2232 11.87 16.2753 11.9217 16.3126C12.0358 16.3947 12.0694 16.3875 12.1063 16.2731C12.1579 16.1132 11.9312 16.017 11.8704 16.1729ZM10.6651 16.6318C10.742 16.723 10.8178 16.7142 10.8864 16.606C10.9361 16.5278 10.9303 16.5068 10.8465 16.4627C10.7925 16.4342 10.7602 16.3992 10.7749 16.3848C10.7895 16.3705 10.8346 16.3857 10.875 16.4188C10.9364 16.4689 10.9598 16.4642 11.0166 16.3905C11.0772 16.3117 11.0736 16.2931 10.9834 16.2184C10.8836 16.1358 10.8803 16.1377 10.7458 16.3503C10.638 16.5208 10.6211 16.5796 10.6651 16.6318ZM12.1291 16.3235C12.0887 16.3979 12.0985 16.4245 12.1828 16.469C12.2685 16.5141 12.2967 16.5091 12.3482 16.4398C12.394 16.3782 12.3965 16.3401 12.358 16.2943C12.2831 16.2055 12.1866 16.2178 12.1291 16.3235ZM10.4237 16.3284C10.3849 16.3997 10.386 16.4417 10.4278 16.4913C10.5052 16.583 10.5546 16.5751 10.6166 16.4612C10.6594 16.3825 10.6531 16.3522 10.5828 16.2998C10.4732 16.2181 10.4848 16.216 10.4237 16.3284ZM12.7913 16.37C12.7511 16.444 12.7604 16.4709 12.8408 16.5133C12.9216 16.5558 12.9515 16.5498 13.0031 16.4805C13.0475 16.4207 13.0516 16.3782 13.0171 16.3372C12.9451 16.2518 12.8479 16.2659 12.7913 16.37ZM13.4535 16.4165C13.4134 16.4902 13.4224 16.5173 13.5001 16.5583C13.553 16.5862 13.6204 16.5943 13.6499 16.5764C13.6828 16.5563 13.6905 16.5645 13.6698 16.5974C13.6512 16.627 13.6593 16.6512 13.6877 16.6512C13.7433 16.6512 13.7339 16.479 13.6731 16.3836C13.6179 16.297 13.5097 16.3132 13.4535 16.4165ZM11.8232 16.485C11.8845 16.5296 11.931 16.5363 11.9625 16.5053C11.9941 16.4743 11.9791 16.4365 11.9178 16.3919C11.8564 16.3473 11.8099 16.3406 11.7784 16.3716C11.7469 16.4026 11.7618 16.4404 11.8232 16.485ZM11.0664 16.4056C11.0467 16.456 11.066 16.5081 11.1182 16.5457C11.1873 16.5954 11.2139 16.5931 11.2746 16.5325C11.3406 16.4664 11.3387 16.4528 11.2558 16.3924C11.137 16.3057 11.1044 16.308 11.0664 16.4056ZM12.3884 16.4646C12.3719 16.5156 12.3745 16.5828 12.3941 16.614C12.4137 16.6452 12.3481 16.6234 12.2483 16.5654C12.125 16.4938 12.0514 16.4753 12.0186 16.5076C11.971 16.5544 12.0329 16.5974 12.1835 16.6221C12.218 16.6278 12.2956 16.659 12.3558 16.6915C12.4361 16.735 12.4819 16.7371 12.528 16.6994C12.6305 16.6158 12.6478 16.4695 12.5612 16.4198C12.4475 16.3545 12.4217 16.3612 12.3884 16.4646ZM7.58741 16.4965C7.22789 16.566 6.29398 16.5584 6.10223 16.4844C5.99325 16.4423 5.99207 16.4362 6.27369 17.4091L6.47286 18.0972L6.71087 18.1629C6.84179 18.199 7.06764 18.2421 7.21285 18.2587C7.48813 18.2901 8.13631 18.2146 8.32787 18.1287C8.46007 18.0695 8.46692 17.9693 8.37218 17.4823C8.33557 17.294 8.27986 16.9828 8.24836 16.7908C8.17935 16.3703 8.1715 16.3552 8.04323 16.3959C7.98765 16.4136 7.78251 16.4588 7.58741 16.4965ZM13.0386 16.5102C12.9889 16.5886 12.9949 16.6095 13.0801 16.6544C13.1588 16.6958 13.195 16.6917 13.2529 16.6348C13.3131 16.5755 13.3153 16.55 13.2652 16.4906C13.1832 16.3934 13.1086 16.3998 13.0386 16.5102ZM11.3551 16.6855C11.4639 16.7639 11.5102 16.7596 11.546 16.6677C11.5644 16.6205 11.5414 16.5664 11.4859 16.5265C11.4076 16.4701 11.3882 16.4724 11.3347 16.5443C11.2832 16.6137 11.2864 16.6362 11.3551 16.6855ZM10.2497 16.6068C10.2383 16.7669 10.3378 16.8351 10.4496 16.7438C10.5503 16.6615 10.5374 16.6169 10.3898 16.5382C10.3183 16.5 10.2598 16.467 10.2598 16.467C10.2598 16.467 10.2552 16.529 10.2497 16.6068ZM12.6011 16.705C12.6011 16.7248 12.6415 16.7623 12.6908 16.7882C12.7631 16.8263 12.7948 16.8142 12.8535 16.726C12.9217 16.6235 12.9198 16.6133 12.8229 16.5686C12.7428 16.5317 12.7059 16.5376 12.6602 16.5949C12.6276 16.6356 12.6011 16.6852 12.6011 16.705ZM13.3122 16.6481C13.2442 16.7732 13.2454 16.7756 13.4106 16.8322C13.5633 16.8846 13.6416 16.8677 13.6416 16.7824C13.6416 16.7531 13.609 16.759 13.5618 16.7968C13.4914 16.8531 13.4859 16.8504 13.5153 16.7733C13.5481 16.6875 13.4793 16.5581 13.401 16.5581C13.3791 16.5581 13.3392 16.5986 13.3122 16.6481ZM10.9193 16.6394C10.8044 16.7941 11.0136 16.9112 11.1391 16.7625C11.1927 16.6989 11.1886 16.6779 11.1121 16.6229C10.9982 16.5409 10.9921 16.5414 10.9193 16.6394ZM11.5822 16.7035C11.5622 16.7656 11.5743 16.8173 11.6146 16.8425C11.704 16.8982 11.7295 16.8941 11.7982 16.8126C11.8479 16.7537 11.8428 16.7298 11.7685 16.6745C11.6468 16.5838 11.6195 16.5881 11.5822 16.7035ZM17.0461 16.7559C17.0445 16.9205 16.8882 17.2135 16.6781 17.4462C16.4937 17.6503 15.97 17.9543 15.8025 17.9543C15.683 17.9543 15.6638 18.0362 15.7268 18.2781C15.8055 18.5804 15.722 18.7145 15.3955 18.8099C15.0677 18.9057 14.974 18.9631 14.869 19.1324C14.7462 19.3306 14.75 19.5551 14.8783 19.6727C15.0159 19.7988 15.2643 19.828 16.0372 19.8088C16.877 19.7881 17.0569 19.7161 17.2735 19.3143C17.4995 18.8951 17.9304 17.8669 18.0141 17.5472C18.083 17.284 18.0833 17.2432 18.017 17.1171C17.925 16.9421 17.7842 16.8508 17.4383 16.742C17.0822 16.6301 17.0473 16.6313 17.0461 16.7559ZM12.93 16.9021C13.0053 16.9352 13.0506 16.9268 13.1094 16.8691C13.1826 16.797 13.1817 16.787 13.0956 16.7229C13.0119 16.6607 12.9948 16.6638 12.9161 16.756C12.8312 16.8555 12.8315 16.8589 12.93 16.9021ZM10.4726 16.8446C10.4726 16.8644 10.5143 16.9026 10.5652 16.9294C10.6409 16.9692 10.668 16.9595 10.7131 16.8765C10.7592 16.7918 10.7538 16.7644 10.6802 16.7115C10.6041 16.6567 10.5838 16.6591 10.5323 16.7283C10.4995 16.7725 10.4726 16.8248 10.4726 16.8446ZM11.18 16.7946C11.1372 16.8734 11.1435 16.9032 11.2137 16.9537C11.2745 16.9974 11.3177 17.0015 11.3593 16.9674C11.443 16.8991 11.4328 16.8036 11.3358 16.748C11.2288 16.6867 11.2407 16.6832 11.18 16.7946ZM11.8509 16.9615C11.9233 17.0474 12.0173 17.039 12.0546 16.9433C12.0744 16.8926 12.0547 16.8406 12.0011 16.8021C11.9295 16.7505 11.9072 16.7533 11.8575 16.8203C11.8142 16.8786 11.8124 16.9159 11.8509 16.9615ZM13.1648 16.9918C13.2282 17.0542 13.4997 17.077 13.4997 17.0198C13.4997 16.9933 13.4784 16.9844 13.4524 17.0002C13.4264 17.0161 13.4051 17.0039 13.4051 16.9732C13.4051 16.9425 13.3679 16.8899 13.3224 16.8562C13.2526 16.8047 13.2302 16.8072 13.1803 16.8719C13.1439 16.919 13.1379 16.9654 13.1648 16.9918ZM10.7106 16.987C10.7098 17.0053 10.7534 17.0436 10.8076 17.0721C10.8876 17.1142 10.9184 17.108 10.9717 17.0388C11.0292 16.9642 11.025 16.9436 10.938 16.8716C10.8432 16.7931 10.836 16.7931 10.7755 16.8716C10.7406 16.9167 10.7114 16.9687 10.7106 16.987ZM10.2564 16.9659C10.2721 16.9813 10.3111 16.9684 10.3429 16.937C10.3887 16.892 10.386 16.8709 10.3303 16.8367C10.2801 16.8057 10.2552 16.814 10.2438 16.8655C10.2349 16.9052 10.2406 16.9504 10.2564 16.9659ZM11.4269 16.9347C11.3738 17.0183 11.3772 17.0411 11.4509 17.0961C11.5647 17.181 11.5747 17.1794 11.6468 17.0658C11.6999 16.9821 11.6965 16.9594 11.6227 16.9044C11.509 16.8195 11.499 16.8211 11.4269 16.9347ZM12.0891 16.9813C12.0359 17.0649 12.0393 17.0876 12.1131 17.1427C12.2273 17.2278 12.2368 17.2261 12.3115 17.1084C12.3677 17.0198 12.365 16.9994 12.2902 16.9455C12.1771 16.8641 12.1617 16.8669 12.0891 16.9813ZM10.3525 17.0293C10.3325 17.0914 10.3445 17.1431 10.3848 17.1682C10.4813 17.2284 10.5115 17.2191 10.5704 17.1107C10.6124 17.0335 10.6102 17.0029 10.5603 16.9718C10.4546 16.9059 10.3862 16.9248 10.3525 17.0293ZM12.3909 17.0804C12.2956 17.2143 12.298 17.2428 12.4099 17.3017C12.4851 17.3413 12.5125 17.3322 12.5555 17.253C12.5986 17.1737 12.5924 17.1427 12.522 17.0871C12.4404 17.0225 12.4415 17.0203 12.5419 17.0475C12.6041 17.0643 12.6484 17.0557 12.6484 17.0266C12.6484 16.9368 12.4661 16.9748 12.3909 17.0804ZM11.7008 17.073C11.662 17.1443 11.663 17.1863 11.7049 17.2359C11.7823 17.3276 11.8317 17.3198 11.8937 17.2059C11.9365 17.1272 11.9301 17.0969 11.8598 17.0445C11.7503 16.9628 11.7619 16.9607 11.7008 17.073ZM11.0191 17.0572C10.9769 17.1653 11.1245 17.276 11.2137 17.2032C11.293 17.1384 11.295 17.0385 11.2176 17.0078C11.1057 16.9634 11.0502 16.9772 11.0191 17.0572ZM12.6957 17.1091C12.6957 17.1306 12.7489 17.1721 12.8139 17.2012C12.905 17.2421 12.9329 17.2411 12.9351 17.1971C12.9368 17.1656 12.9574 17.187 12.9809 17.2446C13.0056 17.305 13.0643 17.3493 13.1198 17.3493C13.2783 17.3493 13.2285 17.2274 13.0386 17.1507C12.8362 17.069 12.6957 17.052 12.6957 17.1091ZM10.6113 17.169C10.5693 17.2463 10.5715 17.2768 10.6215 17.308C10.7238 17.3717 10.7968 17.356 10.8496 17.2587C10.8884 17.1875 10.8811 17.1579 10.8159 17.1205C10.6967 17.0522 10.6716 17.0582 10.6113 17.169ZM11.2777 17.2077C11.2375 17.2817 11.2468 17.3087 11.3273 17.351C11.408 17.3935 11.4385 17.3874 11.4919 17.3181C11.528 17.2712 11.5582 17.255 11.559 17.2818C11.5598 17.3087 11.5374 17.3534 11.5092 17.3811C11.4724 17.4174 11.488 17.4524 11.5649 17.5053C11.6645 17.574 11.6766 17.5726 11.7393 17.4844C11.816 17.3766 11.8136 17.3727 11.5727 17.2271C11.3545 17.095 11.3396 17.094 11.2777 17.2077ZM11.9389 17.2329C11.8919 17.2886 11.8919 17.3169 11.9389 17.3726C12.0189 17.4674 12.094 17.4602 12.1632 17.3512C12.2114 17.2752 12.2074 17.2521 12.1391 17.213C12.0286 17.1496 12.0074 17.1517 11.9389 17.2329ZM12.5799 17.2899C12.5603 17.3402 12.5794 17.3923 12.6312 17.4295C12.7453 17.5116 12.7789 17.5045 12.8158 17.39C12.8674 17.2302 12.6407 17.134 12.5799 17.2899ZM10.851 17.3766C10.851 17.411 10.8927 17.461 10.9436 17.4879C11.0193 17.5277 11.0464 17.518 11.0915 17.435C11.1374 17.3507 11.1323 17.3229 11.0619 17.2723C10.968 17.2048 10.851 17.2627 10.851 17.3766ZM10.3609 17.2795C10.3897 17.3533 10.4726 17.3763 10.4726 17.3105C10.4726 17.2613 10.4209 17.2097 10.3716 17.2097C10.3508 17.2097 10.346 17.2411 10.3609 17.2795ZM12.1872 17.3944C12.1375 17.4729 12.1435 17.4938 12.2287 17.5386C12.3074 17.5801 12.3436 17.576 12.4015 17.5191C12.4618 17.4598 12.4639 17.4343 12.4139 17.3749C12.3318 17.2777 12.2572 17.2841 12.1872 17.3944ZM10.4726 17.4394C10.4726 17.486 10.5062 17.5515 10.5472 17.5849C10.609 17.6354 10.6291 17.6344 10.6647 17.579C10.7299 17.4776 10.7178 17.4052 10.6273 17.3554C10.5261 17.2997 10.4726 17.3287 10.4726 17.4394ZM12.851 17.4384C12.8057 17.5099 12.8083 17.5388 12.8642 17.5845C12.9621 17.6644 13.1483 17.5071 13.0681 17.412C12.9943 17.3245 12.9174 17.3338 12.851 17.4384ZM11.0875 17.5427C11.0875 17.5625 11.1292 17.6007 11.1801 17.6275C11.2557 17.6673 11.2828 17.6576 11.328 17.5746C11.3741 17.4899 11.3686 17.4625 11.2951 17.4096C11.219 17.3548 11.1987 17.3572 11.1472 17.4264C11.1144 17.4706 11.0875 17.5229 11.0875 17.5427ZM11.7986 17.4858C11.7328 17.6069 11.7353 17.6177 11.8423 17.674C11.9174 17.7136 11.9448 17.7045 11.9875 17.6262C12.0266 17.5542 12.0257 17.5125 11.9837 17.4627C11.9074 17.3723 11.857 17.3786 11.7986 17.4858ZM12.4389 17.5512C12.3868 17.6333 12.4604 17.7193 12.5842 17.7209C12.6662 17.722 12.7045 17.5788 12.6421 17.5047C12.5762 17.4266 12.5079 17.4422 12.4389 17.5512ZM11.3965 17.7517C11.5134 17.8359 11.5481 17.8313 11.6063 17.7244C11.6459 17.6516 11.6353 17.6202 11.5523 17.5629C11.4572 17.4974 11.4436 17.4996 11.379 17.5903C11.3158 17.679 11.3176 17.6949 11.3965 17.7517ZM10.6981 17.6104C10.6499 17.7145 10.6546 17.741 10.7315 17.7963C10.8116 17.8539 10.8299 17.8475 10.9048 17.7352C10.9661 17.6432 10.9749 17.5934 10.9376 17.5492C10.857 17.4536 10.7592 17.4786 10.6981 17.6104ZM12.0827 17.8027C12.1371 17.8401 12.1862 17.8634 12.1918 17.8543C12.1975 17.8453 12.2312 17.8006 12.2667 17.7551C12.3226 17.6833 12.3192 17.6632 12.2415 17.6053C12.1615 17.5456 12.1426 17.549 12.0679 17.6365C11.9871 17.731 11.9876 17.7371 12.0827 17.8027ZM12.7142 17.6634C12.6328 17.7689 12.6326 17.8147 12.7135 17.8147C12.8008 17.8147 12.9007 17.6913 12.8625 17.6306C12.8196 17.5624 12.7865 17.5697 12.7142 17.6634ZM10.9438 17.7724C10.8932 17.8926 10.8942 17.9232 10.9499 17.9579C11.0507 18.0207 11.0785 18.0111 11.1629 17.8843C11.2255 17.7903 11.2292 17.7542 11.1819 17.6981C11.0908 17.59 11.01 17.6153 10.9438 17.7724ZM11.6295 17.774C11.598 17.872 11.6648 17.9521 11.7796 17.9536C11.8547 17.9546 11.8913 17.7865 11.8293 17.7255C11.7485 17.6459 11.6643 17.6663 11.6295 17.774ZM12.2836 17.8106C12.2245 17.9036 12.28 17.9543 12.4409 17.9543C12.5367 17.9543 12.5815 17.8139 12.5015 17.7642C12.4007 17.7014 12.3454 17.7131 12.2836 17.8106ZM11.2062 17.8904C11.1392 17.991 11.1361 18.0196 11.189 18.0525C11.2932 18.1175 11.3614 18.1004 11.4404 17.9892C11.5088 17.8933 11.5083 17.8797 11.4341 17.8263C11.3213 17.7452 11.2986 17.7516 11.2062 17.8904ZM11.8692 17.952C11.7836 18.1147 11.7806 18.1405 11.8471 18.1405C11.8746 18.1405 11.8835 18.1187 11.8667 18.0921C11.8472 18.0608 11.8784 18.0541 11.9547 18.0729C12.0442 18.095 12.0856 18.079 12.1245 18.0074C12.1659 17.9314 12.1597 17.9034 12.0929 17.8651C11.9689 17.7941 11.9479 17.8022 11.8692 17.952ZM11.4946 17.9814C11.445 18.1085 11.4624 18.1405 11.5814 18.1405C11.7344 18.1405 11.7859 18.0489 11.6769 17.9705C11.5641 17.8894 11.5297 17.8914 11.4946 17.9814ZM12.1754 18.0009C12.1754 18.0265 12.2086 18.0474 12.2491 18.0474C12.2896 18.0474 12.3097 18.0265 12.2936 18.0009C12.2775 17.9753 12.2444 17.9543 12.2199 17.9543C12.1954 17.9543 12.1754 17.9753 12.1754 18.0009ZM7.77135 18.4148C7.36614 18.4595 6.832 18.412 6.57413 18.3084C6.43952 18.2544 6.42197 18.2607 6.26447 18.42C6.13331 18.5526 6.00626 18.6161 5.67181 18.7161C4.91348 18.9428 4.67154 19.0591 4.58513 19.2383C4.51971 19.3739 4.51749 19.4169 4.57013 19.525C4.69718 19.7858 4.75148 19.7927 6.68873 19.7927C8.50287 19.7927 8.97874 19.7547 9.03697 19.6054C9.05049 19.5707 8.93925 19.2515 8.78974 18.896L8.51791 18.2497L8.33666 18.3111C8.23701 18.3449 7.98259 18.3916 7.77135 18.4148Z" fill="#E8EEEB"/>
<path d="M7.27405 3.74777L7.33479 4.04451C7.4474 4.40481 8.76987 4.85124 8.76987 4.8733C8.76987 4.89536 8.69462 4.97839 8.60267 5.05783C8.33047 5.29304 7.9298 5.23012 7.74557 4.92328C7.65542 4.7731 7.54011 4.73628 7.54011 4.85771C7.54011 4.99174 7.69393 5.19173 7.87338 5.291C8.22097 5.48321 8.64921 5.36537 8.91498 5.0044C9.01696 4.8659 9.12542 4.78459 9.2877 4.72502C9.61708 4.60411 9.92708 4.31635 10.0792 3.99015C10.221 3.6862 10.1967 3.69248 10.6618 3.83927C11.0589 3.96455 12.1967 4.54175 12.7075 4.87697C13.1881 5.19247 13.2838 5.29514 13.1646 5.3676C13.0731 5.42331 12.4787 6.2414 12.313 6.53977C12.2243 6.69944 12.1341 6.83036 12.1126 6.83064C12.091 6.83097 11.8278 6.70424 11.5275 6.54912C11.026 6.28994 10.851 6.24158 10.851 6.36217C10.851 6.38734 11.0372 6.50267 11.2649 6.61842L11.6787 6.82883L12.0256 7.49668C12.2236 7.87784 12.3758 8.23099 12.3803 8.31937C12.3874 8.45727 12.3642 8.48826 12.1689 8.60233C11.2779 9.12275 9.63898 9.48181 8.14766 9.48325L7.4072 9.48399L7.29066 9.2862C6.82803 8.50102 6.42996 7.63602 6.17152 6.85447C5.9714 6.24926 5.94246 6.17964 5.8909 6.17964C5.84649 6.17964 5.42392 6.59906 5.1994 6.8661C5.12939 6.94927 5.04719 7.01736 5.01663 7.01736C4.98608 7.01736 4.65631 6.71694 4.28384 6.34974L3.60652 5.68212L3.97999 5.22114C4.61024 4.44317 5.3752 3.80971 5.88603 3.64273C6.11325 3.5685 6.13378 3.56887 6.30051 3.65045C6.42509 3.71142 6.59149 3.73795 6.87495 3.742L7.27405 3.74777Z" fill="#C98107"/>
<path d="M12.0477 8.8738C11.06 9.35857 9.87808 9.61226 8.40094 9.65652C7.76591 9.67555 7.4939 9.69947 7.50724 9.73517C7.51783 9.76342 7.57468 9.94358 7.63362 10.1356C7.69255 10.3275 7.7591 10.5041 7.78147 10.528C7.80602 10.5541 8.00917 10.4831 8.29324 10.349C8.72706 10.1443 8.86447 10.1161 8.86447 10.2317C8.86447 10.2559 8.64098 10.3851 8.36784 10.5188C8.09469 10.6524 7.8712 10.7807 7.8712 10.8036C7.8712 10.8267 8.01797 11.0156 8.19732 11.2235C8.66388 11.7643 9.10725 12.4369 9.31953 12.9258L9.503 13.3483L9.6922 13.3188C10.5912 13.1787 11.9308 12.5119 12.5448 11.8989C13.1205 11.324 13.3036 10.415 13.009 9.59345C12.9332 9.38221 12.5626 8.64627 12.532 8.64627C12.5206 8.64627 12.3026 8.74866 12.0477 8.8738Z" fill="#C98107"/>
<path d="M17.0461 16.7559C17.0445 16.9205 16.8882 17.2135 16.6781 17.4462C16.4937 17.6503 15.97 17.9543 15.8025 17.9543C15.683 17.9543 15.6638 18.0362 15.7268 18.2781C15.8055 18.5804 15.722 18.7145 15.3955 18.8099C15.0677 18.9057 14.974 18.9631 14.869 19.1324C14.7462 19.3306 14.75 19.5551 14.8783 19.6727C15.0159 19.7988 15.2643 19.828 16.0372 19.8088C16.877 19.7881 17.0569 19.7161 17.2735 19.3143C17.4995 18.8951 17.9304 17.8669 18.0141 17.5472C18.083 17.284 18.0833 17.2432 18.017 17.1171C17.925 16.9421 17.7842 16.8508 17.4383 16.742C17.0822 16.6301 17.0473 16.6313 17.0461 16.7559Z" fill="#C98107"/>
<path d="M7.77135 18.4148C7.36614 18.4595 6.832 18.412 6.57413 18.3084C6.43952 18.2544 6.42197 18.2607 6.26447 18.42C6.13331 18.5526 6.00626 18.6161 5.67181 18.7161C4.91348 18.9428 4.67154 19.0591 4.58513 19.2383C4.51971 19.3739 4.51749 19.4169 4.57013 19.525C4.69718 19.7858 4.75148 19.7927 6.68873 19.7927C8.50287 19.7927 8.97874 19.7547 9.03697 19.6054C9.05049 19.5707 8.93925 19.2515 8.78974 18.896L8.51791 18.2497L8.33666 18.3111C8.23701 18.3449 7.98259 18.3916 7.77135 18.4148Z" fill="#C98107"/>
<path d="M15.1487 10.8411C15.125 10.771 15.2326 10.2246 15.3109 10.0774C15.3893 9.93017 15.4677 9.80977 15.4852 9.80977C15.5645 9.80977 15.7291 10.0445 15.7534 10.1921C15.7776 10.3392 15.7536 10.3866 15.508 10.6758C15.3582 10.8522 15.1961 10.8061 15.1487 10.8411Z" fill="#E8EEEB"/>
<path d="M16.6266 8.00006C16.5806 8.13009 16.5874 8.15452 16.6932 8.23634C16.7581 8.28656 16.844 8.35995 16.8841 8.39942C16.9242 8.43888 16.9627 8.46346 16.9697 8.45401C16.9766 8.44456 17.0288 8.37643 17.0856 8.30257C17.1425 8.22871 17.189 8.15094 17.189 8.12972C17.189 8.07196 16.8478 7.85508 16.757 7.85508C16.7111 7.85508 16.6565 7.91582 16.6266 8.00006Z" fill="#E8EEEB"/>
<path d="M7.19748 0.266001C6.84316 0.355126 6.45295 0.524207 6.20629 0.695382C6.13605 0.74411 5.89128 0.824205 5.66235 0.873305C5.06677 1.00101 4.92733 1.18554 5.10664 1.60855C5.14699 1.70372 5.24504 1.84772 5.3245 1.92856C5.45816 2.06441 5.46668 2.09257 5.4374 2.30181C5.39857 2.5797 5.44946 2.71979 5.68151 2.97381C6.07716 3.40691 6.67208 3.66833 7.03671 3.56929C7.26738 3.5066 7.25457 3.40956 7.00758 3.34836C6.78664 3.29363 6.53638 3.07266 6.45512 2.86062C6.38493 2.67739 6.3926 2.29637 6.47017 2.1137C6.56079 1.90026 6.75945 1.75827 6.96709 1.7585C7.15325 1.75869 7.43146 1.90082 7.47767 2.01936C7.5 2.0766 7.5202 2.06218 7.56532 1.95658C7.62104 1.82622 7.6418 1.81793 7.98547 1.78936C8.63412 1.73537 8.98896 1.45301 9.07717 0.92059C9.09628 0.805403 9.12121 0.695615 9.13265 0.67658C9.1686 0.616776 9.53067 0.827463 9.76929 1.04709C9.89534 1.16311 10.0573 1.37585 10.1291 1.5198C10.2381 1.73807 10.2624 1.76315 10.2757 1.67087C10.3059 1.46041 10.1454 1.16683 9.8558 0.902998C9.18279 0.289923 8.1171 0.0345569 7.19748 0.266001Z" fill="#E8EEEB"/>
<path d="M7.58741 16.4965C7.22789 16.566 6.29398 16.5584 6.10223 16.4844C5.99325 16.4423 5.99207 16.4362 6.27369 17.4091L6.47286 18.0972L6.71087 18.1629C6.84179 18.199 7.06764 18.2421 7.21285 18.2587C7.48813 18.2901 8.13631 18.2146 8.32787 18.1287C8.46007 18.0695 8.46692 17.9693 8.37218 17.4823C8.33557 17.294 8.27986 16.9828 8.24836 16.7908C8.17935 16.3703 8.1715 16.3552 8.04323 16.3959C7.98765 16.4136 7.78251 16.4588 7.58741 16.4965Z" fill="#E8EEEB"/>
<path d="M15.4865 15.9783C15.3217 16.2941 14.7238 16.8722 14.336 17.0906C14.1219 17.2112 14.0345 17.2835 14.0759 17.306C14.2174 17.3825 15.5521 17.8146 15.6454 17.8141C15.7935 17.8133 16.2895 17.5537 16.4717 17.3818C16.6607 17.2035 16.8372 16.915 16.8794 16.7155C16.9092 16.5743 16.8967 16.5613 16.4228 16.2401C16.1548 16.0584 15.8824 15.8676 15.8174 15.8162C15.7523 15.7647 15.6779 15.729 15.6521 15.7369C15.6262 15.7448 15.5517 15.8534 15.4865 15.9783Z" fill="#E8EEEB"/>
</svg>
