<svg width="653" height="85" viewBox="0 0 653 85" fill="none" xmlns="http://www.w3.org/2000/svg">
<path fill-rule="evenodd" clip-rule="evenodd" d="M35.5514 0.0671552C35.7737 0.117395 36.4394 0.254271 37.0309 0.371366C40.3151 1.02251 43.9439 3.70759 44.5585 5.9413C44.7325 6.57385 44.7206 7.01019 44.5056 7.87159C44.2515 8.88984 44.2594 9.03384 44.5991 9.56393C45.1525 10.4269 44.989 12.0496 44.275 12.7791C43.8649 13.1978 43.7362 13.5293 43.7362 14.1655C43.7362 14.6635 43.8382 15.031 43.9888 15.0745C49.9589 16.8001 55.8825 20.2099 60.9966 24.8648C63.8429 27.4558 66.858 30.8066 68.7959 33.5331C68.9626 33.7676 69.3395 34.0155 69.6335 34.0837C70.1099 34.1943 70.1943 34.1304 70.4072 33.4992C70.7287 32.5457 71.338 32.41 72.574 33.0166C73.0966 33.2731 73.7035 33.7247 73.9226 34.0204L74.3213 34.5576L73.6712 35.581C73.0229 36.6019 73.0221 36.6068 73.3337 37.502C73.9204 39.1874 73.6916 40.1917 72.3337 41.8893C71.9421 42.3789 71.5276 43.0106 71.4124 43.2933C71.2972 43.5759 70.6864 44.2435 70.0551 44.7768C69.0012 45.667 68.825 45.7452 67.8998 45.7311C67.012 45.7175 66.8313 45.7879 66.3788 46.3233C66.0965 46.6576 65.6222 47.1539 65.3249 47.4264C64.5307 48.1547 59.0133 57.4213 58.4788 58.9247C58.2296 59.6259 58.2417 59.6595 59.0133 60.4236C59.4474 60.8534 60.3028 61.4427 60.9142 61.7328C61.5255 62.023 63.208 63.1124 64.6529 64.1538C70.1557 68.1199 72.9341 69.9356 73.8482 70.1637C76.0945 70.7238 77.2788 71.44 77.7888 72.5473C78.2397 73.5258 78.0926 74.1671 76.5403 77.9871C73.909 84.4622 73.5376 84.8 68.8658 84.9651C65.6167 85.0801 64.1703 84.9198 63.3056 84.3494C61.4265 83.11 62.4905 80.0934 65.0652 79.3608C66.5447 78.9399 66.6923 78.7199 66.3364 77.4677L66.0488 76.4558L62.3547 75.1679L58.6606 73.8801L57.4129 75.1729C55.2634 77.3998 53.1342 78.4616 50.4833 78.6286C48.4036 78.7595 47.1075 78.459 45.5783 77.4918C42.8951 75.7945 41.6364 72.3687 42.2405 68.4084C42.383 67.4758 42.6447 66.3737 42.8223 65.9591L43.1455 65.2055L42.0766 63.8856C41.4889 63.1597 40.5039 62.0194 39.8879 61.3517C39.2719 60.6837 38.4654 59.5818 38.0955 58.9028L37.4232 57.6683L36.3862 57.801C35.8159 57.874 34.7436 58.1128 34.0031 58.3317L32.657 58.7299L33.3154 60.1499C34.3457 62.3721 35.0433 65.3622 36.3907 73.3328C36.9339 76.5452 37.2781 77.6861 38.7032 80.9987C40.0595 84.1506 39.76 84.4653 35.0461 84.8419C33.6567 84.9529 29.9281 85.0055 26.7603 84.959C20.9293 84.8736 20.0726 84.7713 19.2335 84.061C18.7131 83.6207 18.4718 82.5621 18.7042 81.7383C18.997 80.7007 20.1063 80.0359 23.1531 79.0728C25.7708 78.2452 26.7603 77.6683 26.7603 76.969C26.7603 76.6646 24.053 67.4193 23.141 64.6094C20.81 57.427 20.5051 55.6098 21.3599 53.9988C22.6238 51.6173 26.0831 48.7707 30.6506 46.3534C31.6231 45.8387 32.4189 45.3088 32.4189 45.1759C32.4189 44.5572 30.9269 40.6958 30.2743 39.6254C29.6824 38.6544 28.0967 35.5345 27.1525 33.483C26.6089 32.3016 25.3351 28.8817 25.2252 28.3087C25.1551 27.9429 25.0308 27.6031 24.9487 27.5535C24.8669 27.504 23.9516 28.4173 22.915 29.5831C20.13 32.7152 17.0917 35.5789 15.8395 36.2522C14.8703 36.7731 14.5384 36.8451 13.1189 36.8426C11.2696 36.8392 10.131 36.5176 7.56134 35.2723C6.14547 34.5861 5.69218 34.455 4.98242 34.5264C3.78562 34.6466 1.38554 33.5346 0.566658 32.4802C0.0106964 31.7646 -0.0161743 31.6366 0.00463867 29.8016C0.0224228 28.245 0.105698 27.7434 0.437935 27.1923C0.664078 26.8171 0.911224 26.2332 0.987213 25.8948C1.19254 24.9798 1.96113 24.4833 3.17187 24.4833C4.49639 24.4833 6.88474 25.5908 8.07729 26.7581C8.80988 27.475 9.17264 27.6601 10.366 27.9257C11.1459 28.0994 11.8298 28.2414 11.8858 28.2414C11.9417 28.2414 12.3267 27.6407 12.741 26.9063C14.5312 23.7336 17.7802 19.7073 20.2244 17.6324C21.7405 16.3452 23.7741 15.0542 24.5471 14.888C24.8752 14.8176 25.1435 14.687 25.1435 14.5982C25.1435 14.5092 24.7248 14.0941 24.2129 13.6755C22.9476 12.6405 22.491 11.7047 22.491 10.1462C22.491 9.1539 22.409 8.82358 22.0929 8.5437C20.5613 7.18702 20.3604 4.65187 21.7079 3.68662C21.9858 3.48764 22.9407 3.17948 23.8299 3.00186C24.7191 2.82404 25.674 2.52279 25.9519 2.33212C26.8181 1.73754 28.628 0.899877 29.8927 0.508241C31.0604 0.146472 34.6583 -0.133806 35.5514 0.0671552ZM30.7528 1.13051C29.239 1.50929 27.5717 2.22788 26.5178 2.95537C26.2177 3.16247 25.1718 3.50287 24.1937 3.71155C21.6489 4.2543 21.0532 5.03856 21.8193 6.83633C21.9917 7.24082 22.4106 7.8528 22.7501 8.19637C23.3212 8.77374 23.3576 8.89341 23.2325 9.7827C23.0666 10.9637 23.2841 11.5591 24.2755 12.6387C25.966 14.4794 28.508 15.5904 30.0659 15.1695C31.0515 14.903 30.9968 14.4906 29.9415 14.2305C28.9975 13.9979 27.9282 13.0588 27.581 12.1576C27.2811 11.3789 27.3138 9.75955 27.6453 8.9832C28.0325 8.07611 28.8813 7.47264 29.7685 7.47363C30.5639 7.47442 31.7526 8.07849 31.9501 8.58227C32.0454 8.82556 32.1317 8.76425 32.3245 8.31545C32.5626 7.76142 32.6513 7.72621 34.1197 7.60476C36.8913 7.37532 38.4074 6.17529 38.7843 3.91251C38.8659 3.42296 38.9724 2.95636 39.0213 2.87546C39.1749 2.6213 40.722 3.51672 41.7415 4.45012C42.2801 4.94322 42.9721 5.84735 43.279 6.45913C43.7445 7.38679 43.8486 7.49341 43.9051 7.10118C44.0345 6.20674 43.3486 4.95905 42.1111 3.83774C39.2356 1.23217 34.6822 0.146867 30.7528 1.13051ZM39.3285 5.00929C38.7912 6.86343 36.8654 8.16809 34.3228 8.4005C33.1499 8.5077 33.0117 8.56467 33.0656 8.91853C33.1091 9.20335 33.4359 9.41895 34.2171 9.67806C35.2521 10.0214 35.3216 10.0224 35.5748 9.69586C35.7215 9.50677 35.8446 9.28742 35.848 9.20869C35.861 8.91932 37.0691 8.46181 37.8205 8.46181C38.7439 8.46181 39.3756 8.85424 39.8265 9.70773C40.1381 10.2972 40.1723 10.3122 40.3812 9.95062C40.9172 9.02217 41.6797 8.46181 42.407 8.46181C43.2441 8.46181 43.2807 8.31149 42.7316 7.12768C42.2314 6.0493 41.2062 4.80279 40.417 4.31364C39.7093 3.87512 39.6454 3.91587 39.3285 5.00929ZM54.7194 8.48001C62.1589 9.08032 71.4855 11.9001 78.2013 15.5793C83.9068 18.7049 88.3414 22.3333 91.1289 26.1566C93.8883 29.9411 94.7375 34.0416 93.3323 36.7969C92.7624 37.9148 91.5122 39.318 91.0862 39.318C90.6026 39.318 90.8221 38.6316 91.5171 37.9708C92.9364 36.6212 93.5099 34.4554 93.0718 32.0984C92.8059 30.668 91.3791 27.7928 90.1269 26.1646C88.1037 23.5339 84.1148 20.0358 80.7103 17.907C73.0429 13.1124 62.8474 9.86498 53.1841 9.13907C52.0904 9.05698 51.6179 8.94345 51.6179 8.76286C51.6179 8.49406 52.0833 8.24365 52.4933 8.29171C52.6231 8.30694 53.6249 8.3916 54.7194 8.48001ZM28.6982 8.87264C28.4104 9.20731 28.1652 9.71901 28.1535 10.01C28.0624 12.2629 28.8289 13.3529 30.675 13.5946C31.4955 13.702 31.5077 13.7157 31.6631 14.6924C31.7498 15.2363 31.4958 16.4947 32.1196 17.1694C31.815 17.1771 31.6442 17.1814 31.3395 17.1892C31.2382 16.6967 31.08 15.928 31.08 15.928L29.3748 15.9035C28.1636 15.8863 27.4527 15.7735 26.9203 15.5144C26.208 15.1677 26.1202 15.1661 25.1494 15.4816C22.9668 16.1913 19.6983 18.8835 17.0054 22.1898L15.4097 24.149L18.3037 26.9864C19.8951 28.547 21.3041 29.8238 21.4347 29.8238C21.5652 29.8238 21.9165 29.5344 22.2156 29.1809C23.1749 28.046 24.9804 26.2635 25.1702 26.2635C25.3905 26.2635 25.5142 26.5594 26.3692 29.1315C27.4735 32.4531 29.1743 36.1293 31.151 39.4663L31.6489 40.307L34.8127 40.3038C41.1847 40.2977 48.1875 38.7717 51.9944 36.5599C52.829 36.0751 52.9278 35.9434 52.8977 35.3573C52.8785 34.9817 52.228 33.4808 51.382 31.8609L49.9001 29.0225L48.1317 28.1283C47.1591 27.6364 46.3634 27.1462 46.3634 27.0392C46.3634 26.5267 47.111 26.7322 49.254 27.8338C50.5368 28.493 51.6617 29.0316 51.7537 29.0302C51.8458 29.029 52.231 28.4726 52.6099 27.794C53.3179 26.5259 55.8578 23.0491 56.2488 22.8123C56.7581 22.5043 56.3493 22.068 54.2956 20.7271C52.1132 19.3024 47.2516 16.8494 45.555 16.3169C43.5676 15.693 43.6717 15.6663 43.0658 16.9581C42.4157 18.3445 41.0912 19.5675 39.6838 20.0813C38.9904 20.3345 38.527 20.6801 38.0913 21.2687C36.9557 22.8028 35.126 23.3036 33.6408 22.4867C32.874 22.0648 32.2168 21.2149 32.2168 20.6453C32.2168 20.1292 32.7095 20.2857 33.0947 20.924C33.8819 22.228 35.5938 22.4954 36.7569 21.4958C37.1497 21.1581 37.4713 20.8053 37.4713 20.7115C37.4713 20.6178 31.8207 18.7204 31.3395 17.1892C31.6442 17.1814 31.815 17.1771 32.1196 17.1694C32.6871 17.5546 38.5199 19.7848 39.8449 19.1369C41.6655 18.2464 42.9278 16.3388 42.9278 14.4782C42.9278 13.7269 42.8692 13.6045 42.5101 13.6045C42.2805 13.6045 41.8029 13.8191 41.4491 14.0812C40.6203 14.6956 40.0344 14.7986 39.9394 14.3468C39.8934 14.1267 40.0405 13.9368 40.3447 13.8235C40.9966 13.581 41.403 13.09 41.1025 12.9083C40.9768 12.8323 40.7088 12.5042 40.5067 12.179L40.1395 11.5878L39.8663 12.1333C39.4415 12.9818 38.5826 13.5015 37.6447 13.4775C36.539 13.449 35.8198 12.8871 35.4503 11.7632C35.1955 10.9877 35.0231 10.792 34.3683 10.5347C33.9401 10.3666 33.1899 10.1751 32.701 10.1097C32.2124 10.044 31.8126 9.9166 31.8126 9.82641C31.8126 9.73621 31.5303 9.34774 31.1853 8.96323C30.3477 8.02943 29.4512 7.9966 28.6982 8.87264ZM36.5113 9.76588C35.8458 10.495 35.9014 11.5051 36.6473 12.2352C37.3221 12.8956 37.7752 12.9555 38.4872 12.4787C39.1947 12.0047 39.2834 11.8299 39.2871 10.9024C39.2895 10.2196 39.1814 9.98979 38.6519 9.55365C37.8953 8.93059 37.212 8.99844 36.5113 9.76588ZM41.5766 9.68301C41.074 10.1453 40.9344 11.3332 41.3034 12.0081C41.5457 12.451 42.6861 12.9362 42.9155 12.6935C43.0074 12.5961 43.1449 11.7822 43.2213 10.8848L43.3597 9.253H42.7021C42.305 9.253 41.8591 9.4233 41.5766 9.68301ZM44.0011 11.3793C44.0519 11.5698 44.0935 11.4139 44.0935 11.0332C44.0935 10.6524 44.0519 10.4965 44.0011 10.687C43.9502 10.8775 43.9502 11.1888 44.0011 11.3793ZM61.6215 13.1023C71.3588 15.7581 79.9209 20.2564 84.8999 25.3324C90.0539 30.5867 91.1079 35.441 87.9481 39.3708C87.2103 40.2886 86.6266 40.6294 86.315 40.3244C86.1543 40.1671 86.3221 39.877 86.9261 39.2677C91.8045 34.3476 87.3818 26.2403 76.3889 19.9516C71.6555 17.2438 65.5138 14.8221 60.2069 13.5715C58.4044 13.1466 57.8828 12.9267 57.8828 12.5914C57.8828 12.2623 59.2033 12.4427 61.6215 13.1023ZM56.0269 24.3349C53.9128 27.0825 52.6283 29.035 52.6283 29.5012C52.6283 29.55 53.424 30.0109 54.3966 30.5254C58.9931 32.9565 63.5343 36.4533 64.1487 38.0347C64.2728 38.3545 64.2782 39.0096 64.1633 39.8042C63.9998 40.9338 64.1293 42.3328 64.424 42.6212C64.4842 42.6801 64.736 42.3203 64.9834 41.8217C65.2309 41.3232 65.5591 40.8679 65.7127 40.8104C66.1341 40.6521 67.0164 41.1761 67.5805 41.9196C68.1015 42.6063 68.2639 43.9794 67.9103 44.7079C67.7733 44.9902 67.8373 45.0541 68.2575 45.0541C69.3053 45.0541 69.6881 43.7215 69.1049 42.1035C68.8385 41.3644 68.8405 41.2667 69.1253 41.1599C69.3001 41.0942 69.5254 41.1648 69.6265 41.3165C69.7999 41.5774 69.8581 41.776 70.1153 42.9853C70.1741 43.2616 70.3106 43.4345 70.4185 43.3692C70.7204 43.1867 70.6517 41.94 70.2754 40.7718C70.0889 40.1924 69.9939 39.6618 70.0646 39.5927C70.3849 39.279 70.8277 39.7883 71.1355 40.8244C71.4095 41.7471 71.5074 41.8905 71.6694 41.6073C71.9111 41.1844 71.7216 39.8071 71.3164 39.0429C70.9168 38.2891 70.9375 37.8891 71.3718 37.971C71.5803 38.0102 71.8974 38.4615 72.1466 39.0733C72.5954 40.175 72.8385 40.2322 72.8365 39.2355C72.8333 37.4453 71.8911 36.1513 69.8128 35.0824C68.5473 34.4314 68.2191 34.132 66.9443 32.4648C64.8538 29.7306 62.0718 26.7876 59.6182 24.7143C58.4377 23.717 57.3951 22.9009 57.3011 22.9009C57.2072 22.9009 56.6338 23.5461 56.0269 24.3349ZM13.8501 26.6096L12.7921 28.3403L13.3093 28.5268C13.784 28.6981 13.9699 29.0239 13.728 29.2607C13.6741 29.3135 12.4662 29.1281 11.044 28.8484C8.5033 28.3492 8.44449 28.3257 7.68198 27.4987C6.71739 26.4522 4.28802 25.2331 3.10719 25.2029C2.11875 25.1774 1.70061 25.5933 1.70061 26.6023C1.70061 27.3444 2.63006 29.4689 3.28302 30.2194C3.65103 30.6423 3.74419 30.6709 3.92689 30.4172C4.0443 30.254 4.08674 29.8089 4.02126 29.4282C3.6591 27.325 3.6581 27.2524 3.99237 27.2524C4.18678 27.2524 4.38685 27.5094 4.49315 27.8953L4.66978 28.5381L5.0087 27.7614C5.25586 27.1947 5.40804 27.0438 5.57072 27.203C5.73341 27.3622 5.72714 27.7673 5.54728 28.7001C5.18634 30.5726 5.75989 31.3891 6.75298 30.4172C7.2576 29.9233 7.56134 29.9118 7.56134 30.3865C7.56134 31.2392 6.24955 31.7818 5.30396 31.3201C4.95332 31.149 4.6536 31.0315 4.63805 31.0592C4.62248 31.0869 4.43293 31.3765 4.21689 31.7028C4.00085 32.0292 3.71468 32.5403 3.5811 32.8386C3.36587 33.3192 3.38629 33.4063 3.76037 33.6023C4.00591 33.7308 4.57198 33.7738 5.114 33.7049C5.88539 33.6068 6.20206 33.6747 6.95506 34.0993C8.87758 35.1839 11.2403 35.9845 12.8158 36.0854C14.152 36.1711 14.4378 36.1254 15.23 35.6991C16.2993 35.1239 18.3762 33.3384 19.8099 31.762L20.8422 30.6268L17.991 27.7819C16.423 26.2172 15.0877 24.924 15.0239 24.908C14.96 24.8919 14.4319 25.6578 13.8501 26.6096ZM0.896683 28.3898C0.90255 29.1044 1.5066 30.3454 2.26849 31.2084C2.74281 31.7454 2.93501 31.848 3.12579 31.6664C3.31777 31.4835 3.20883 31.2461 2.62923 30.5833C2.221 30.1165 1.73275 29.3095 1.5442 28.7901C1.16143 27.7355 0.890015 27.5675 0.896683 28.3898ZM52.2235 31.7212C52.7714 32.7648 53.4088 34.1221 53.6398 34.7376C53.871 35.353 54.6016 36.9247 55.2632 38.2301C57.0754 41.8047 57.4169 43.878 56.6666 46.7496C56.1462 48.741 55.2794 50.1457 53.6841 51.5825L52.4159 52.725L53.2259 54.553C54.6818 57.8382 55.4168 58.7162 56.1872 58.0906C56.997 57.4327 63.072 47.1976 63.4434 45.8654C63.5828 45.3648 63.7948 44.7139 63.9145 44.4188C64.0887 43.9887 64.0537 43.7099 63.7383 43.0116C63.3048 42.0525 63.2073 40.9308 63.4254 39.4072C63.5618 38.453 63.5337 38.3674 62.7969 37.4937C61.9271 36.4622 60.2297 35.063 58.293 33.7805C56.8262 32.8093 51.6078 29.8238 51.377 29.8238C51.2947 29.8238 51.6759 30.6777 52.2235 31.7212ZM0.690147 30.9111C0.690147 31.4556 1.97506 32.9885 2.43139 32.9885C2.91439 32.9885 2.73939 32.6169 1.91141 31.8848C1.47145 31.4957 1.05613 31.0064 0.988228 30.7973C0.818268 30.2728 0.690147 30.3216 0.690147 30.9111ZM71.0411 34.0002C70.8443 34.5529 70.8736 34.6567 71.3255 35.0045C71.6027 35.2179 71.9697 35.5298 72.1411 35.6975C72.3125 35.8653 72.477 35.9697 72.5067 35.9295C72.5362 35.8894 72.7593 35.5998 73.0022 35.2859C73.2452 34.972 73.444 34.6415 73.444 34.5513C73.444 34.3058 71.9861 33.3841 71.5981 33.3841C71.4019 33.3841 71.1686 33.6422 71.0411 34.0002ZM51.4764 37.7137C47.2565 39.7739 42.2063 40.8521 35.8949 41.0402C33.1816 41.1211 32.0194 41.2228 32.0764 41.3745C32.1216 41.4945 32.3646 42.2602 32.6164 43.0761C32.8682 43.892 33.1525 44.6425 33.2481 44.7439C33.353 44.8549 34.221 44.5531 35.4348 43.9832C37.2884 43.1131 37.8755 42.9932 37.8755 43.4846C37.8755 43.5876 36.9206 44.1367 35.7535 44.7048C34.5864 45.2728 33.6315 45.8178 33.6315 45.9155C33.6315 46.0134 34.2586 46.8164 35.0249 47.7C37.0184 49.9984 38.9128 52.8569 39.8198 54.9346L40.6037 56.7304L41.4121 56.605C45.2535 56.0094 50.977 53.1754 53.6004 50.5702C56.0605 48.1268 56.8426 44.2639 55.5838 40.7722C55.2602 39.8744 53.6766 36.7466 53.5456 36.7466C53.4969 36.7466 52.5657 37.1818 51.4764 37.7137ZM65.4195 42.8289C65.0846 43.4545 64.625 45.7769 64.7263 46.0748C64.3211 45.7311 63.636 47.3762 60.6583 52.3725C57.962 56.8967 56.9236 58.4658 56.421 58.7762C56.1779 58.9263 55.8178 58.9174 55.16 58.7453C53.2332 58.2409 51.0019 58.5531 48.9603 59.6125C47.2985 60.4748 44.9938 62.8601 44.1062 64.6359C42.351 68.1481 42.1536 71.4608 43.5339 74.2422C44.6333 76.4577 46.3299 77.6942 48.7885 78.0712C53.0355 78.7227 57.5267 75.6594 59.7315 70.6075C60.3663 69.1527 60.3956 68.9737 60.4021 66.5149C60.4083 64.1364 60.3685 63.8593 59.8714 62.8211C59.5755 62.2038 58.9618 61.3036 58.5072 60.821C58.0525 60.3384 57.6807 59.7784 57.6807 59.5766C57.6807 58.843 58.4145 57.3455 60.4837 53.856C61.6448 51.8978 62.8207 49.8951 63.097 49.4056C63.7734 48.2067 65.0302 46.1741 64.7263 46.0748C64.9289 45.9258 65.6216 46.122 66.2614 45.3723C67.3109 44.143 67.4135 43.9415 67.3101 43.3166C67.206 42.6892 66.5027 41.6915 66.1642 41.6915C66.0894 41.6915 65.7543 42.2032 65.4195 42.8289ZM30.4176 47.3788C26.3124 49.6934 23.0163 52.4253 22.1253 54.2516C21.4765 55.5816 21.5125 56.6 22.2962 59.0976C22.6545 60.2399 23.5009 62.9754 24.1769 65.1765L25.4058 69.1783L26.1336 69.3302C26.5339 69.4136 28.0436 69.4819 29.4886 69.4819C32.2215 69.4819 34.397 69.129 34.5825 68.6559C34.8879 67.8768 33.448 62.2623 32.388 60.0988C31.6342 58.5604 31.597 58.4097 31.9149 58.1822C32.4268 57.8159 36.5279 56.9013 38.2208 56.7761C39.0312 56.7159 39.6943 56.6261 39.6943 56.5763C39.6943 56.5264 39.3317 55.7285 38.8888 54.8032C37.7471 52.4186 36.3703 50.4834 33.1873 46.7885C32.9314 46.4915 32.6576 46.2468 32.579 46.2446C32.5002 46.2426 31.5277 46.7529 30.4176 47.3788ZM50.5607 53.8297C47.4782 55.7572 44.1602 56.9869 40.8058 57.445C39.5832 57.6119 38.5511 57.7791 38.5123 57.8163C38.367 57.9559 39.5623 59.8807 40.1179 60.4015C40.6878 60.9359 40.7102 60.9395 41.862 60.691C43.5442 60.3281 45.2751 59.7183 46.5588 59.0367C47.8177 58.3681 50.7551 56.4232 51.8066 55.562L52.5006 54.9935L52.1435 54.0787C51.9473 53.5755 51.7504 53.1637 51.7062 53.1637C51.6619 53.1637 51.1466 53.4634 50.5607 53.8297ZM50.7778 57.3101C48.4038 59.0416 45.5255 60.5195 43.433 61.0811C42.5438 61.3198 41.6989 61.5483 41.5552 61.589C41.3889 61.6361 41.6766 62.13 42.3494 62.9516C42.9296 63.6603 43.4579 64.2403 43.5232 64.2403C43.5885 64.2403 43.9324 63.7646 44.2877 63.1835C45.1359 61.7955 47.4026 59.7359 48.8621 59.0272C50.2842 58.3365 51.8379 57.9164 52.982 57.9132C53.4543 57.9118 53.8409 57.862 53.8409 57.802C53.8409 57.5176 52.8935 55.9329 52.7233 55.9329C52.6918 55.9329 51.8161 56.5525 50.7778 57.3101ZM54.9524 59.2707C57.6859 59.9813 59.6923 62.5254 60.0248 65.7028C60.4702 69.9578 57.6196 74.8451 53.542 76.8175C52.038 77.545 51.8626 77.5832 50.0064 77.5874C48.2295 77.5911 47.946 77.5379 46.8664 76.9975C41.9216 74.5231 41.8606 66.5887 46.75 61.8667C48.6566 60.0252 50.3172 59.2629 52.6069 59.1777C53.5636 59.1421 54.619 59.184 54.9524 59.2707ZM53.0832 59.8828C52.87 60.2169 52.8969 60.3053 53.2712 60.5013C53.6323 60.6904 53.7544 60.6679 53.9765 60.3704C54.4011 59.8021 54.3488 59.7199 53.4349 59.5161C53.3781 59.5035 53.2199 59.6686 53.0832 59.8828ZM52.248 59.9032C52.5293 60.0733 52.8304 59.9673 52.8304 59.6979C52.8304 59.6057 52.6409 59.5788 52.4091 59.638C52.1021 59.7167 52.0582 59.7885 52.248 59.9032ZM54.3243 60.2349C53.9516 60.7154 53.9787 60.941 54.4425 61.2247C54.7958 61.4405 54.8788 61.3995 55.1581 60.8708C55.3319 60.5419 55.4197 60.1863 55.353 60.0808C55.1604 59.776 54.6171 59.8573 54.3243 60.2349ZM51.2137 60.5577C51.2137 60.6813 51.3929 60.8922 51.6118 61.0259C51.9531 61.2346 52.0435 61.2083 52.2437 60.8419C52.4365 60.4893 52.4141 60.3692 52.1148 60.155C51.7286 59.8787 51.2137 60.1087 51.2137 60.5577ZM50.6132 60.0788C50.4497 60.1801 50.3776 60.3231 50.453 60.3969C50.6379 60.5779 51.2137 60.3477 51.2137 60.0927C51.2137 59.8415 51.0045 59.8367 50.6132 60.0788ZM55.3427 60.9041C55.0725 61.4154 55.0628 61.553 55.2871 61.6921C55.7646 61.9884 56.0457 61.8814 56.3618 61.2832C56.6447 60.748 56.6409 60.6829 56.3165 60.498C55.7848 60.195 55.6983 60.231 55.3427 60.9041ZM52.4616 60.8959C52.2346 61.2514 52.2492 61.3479 52.5645 61.5819C53.0505 61.9425 53.0933 61.9358 53.4013 61.4529C53.6283 61.0975 53.6137 61.001 53.2985 60.767C52.8124 60.4064 52.7696 60.4131 52.4616 60.8959ZM49.6181 60.8388C49.4684 61.1129 49.5179 61.2534 49.8317 61.4452C50.1775 61.6565 50.283 61.6397 50.5185 61.3358C50.8675 60.8851 50.8754 60.7389 50.5569 60.6131C50.0727 60.4218 49.8119 60.4845 49.6181 60.8388ZM56.2705 62.0082C56.268 62.1403 56.4449 62.342 56.6633 62.4566C56.999 62.6324 57.1067 62.5772 57.3593 62.0991C57.6279 61.5906 57.6239 61.5004 57.3193 61.2021C57.0025 60.892 56.9578 60.8995 56.6278 61.3192C56.4338 61.5659 56.2729 61.876 56.2705 62.0082ZM53.5555 62.007C53.8801 62.5104 54.1931 62.5291 54.4494 62.0604C54.6404 61.7111 54.6161 61.5892 54.3116 61.3681C53.8061 61.0012 53.2243 61.4929 53.5555 62.007ZM50.7191 61.4165C50.6347 61.6317 50.7189 61.8529 50.9477 62.0167C51.2539 62.2358 51.3489 62.2237 51.5615 61.9391C51.7466 61.6915 51.7541 61.5329 51.5898 61.339C51.2802 60.9739 50.8786 61.0097 50.7191 61.4165ZM48.1295 61.3525C47.8144 61.5867 47.8086 61.6452 48.079 61.8649C48.3227 62.0629 48.4456 62.0633 48.6875 61.8667C49.3845 61.3006 48.8556 60.8133 48.1295 61.3525ZM48.9769 61.8919C48.7394 62.3262 48.9739 62.6478 49.5329 62.6549C49.9005 62.6595 50.0918 61.8469 49.7701 61.6472C49.3576 61.3914 49.2287 61.4312 48.9769 61.8919ZM51.8365 62.0343C51.6991 62.2855 51.7094 62.4706 51.8699 62.6276C52.1946 62.9455 52.439 62.9127 52.7478 62.5096C52.985 62.1998 53.0085 62.2249 52.9721 62.7491C52.9232 63.4554 53.4977 63.6811 53.8243 63.0838C54.0088 62.7463 53.9235 62.6276 53.1811 62.1895C52.1461 61.5787 52.0891 61.572 51.8365 62.0343ZM57.4857 62.2493C57.2021 62.7679 57.2132 62.8086 57.7063 63.0669C58.0412 63.2424 58.1794 63.2329 58.3318 63.0244C58.4812 62.8197 58.501 62.8367 58.4159 63.0966C58.3088 63.424 58.6111 63.7911 58.8197 63.587C58.9674 63.4424 58.1119 61.8667 57.8858 61.8667C57.7807 61.8667 57.6009 62.0388 57.4857 62.2493ZM54.6897 62.1041C54.3461 62.4403 54.3866 62.6122 54.8679 62.8644C55.2099 63.0436 55.3392 63.0171 55.5585 62.7236C56.0189 62.1076 55.2479 61.5578 54.6897 62.1041ZM46.9697 62.6567C46.9697 62.7313 47.1952 62.8929 47.4711 63.0157C47.905 63.2094 48.0036 63.1825 48.2041 62.816C48.3945 62.4676 48.3708 62.3462 48.0703 62.1312C47.7623 61.9108 47.6477 61.9209 47.3375 62.1957C47.1352 62.3749 46.9697 62.5824 46.9697 62.6567ZM50.091 62.4945C49.994 62.7938 50.0615 63.0031 50.3133 63.1835C50.6242 63.4058 50.7177 63.383 50.9766 63.0211C51.249 62.6405 51.2422 62.5741 50.9041 62.3321C50.3926 61.966 50.2533 61.9939 50.091 62.4945ZM60.6565 63.1714C60.935 63.7794 61.008 64.4693 60.9991 66.416C60.9875 68.9888 60.8309 69.6992 59.8112 71.806C59.5612 72.3228 59.4114 72.7455 59.4785 72.7455C59.5456 72.7455 60.3182 72.2953 61.1955 71.7453C63.1528 70.5179 64.6436 69.0368 65.5151 67.4543L66.1751 66.2556L63.9852 64.6733C61.7191 63.0359 60.4732 62.2323 60.3651 62.3381C60.3307 62.3719 60.4619 62.7469 60.6565 63.1714ZM55.7105 62.8498C55.4973 63.1839 55.5241 63.2723 55.8984 63.4683C56.2608 63.6582 56.3818 63.6342 56.6106 63.328C56.8483 63.01 56.8381 62.9249 56.5374 62.7097C56.0756 62.3792 56.0029 62.3915 55.7105 62.8498ZM48.1823 63.2822C48.1823 63.3662 48.3502 63.5231 48.5555 63.6307C49.2536 63.9964 49.7283 63.0632 49.0412 62.6761C48.7768 62.5272 48.6236 62.5592 48.4349 62.8031C48.2958 62.9823 48.1823 63.1979 48.1823 63.2822ZM51.0116 63.48C51.0116 63.564 51.1795 63.7209 51.3848 63.8285C52.0829 64.1942 52.5576 63.261 51.8705 62.8739C51.6061 62.725 51.4529 62.757 51.2642 63.0009C51.1252 63.1801 51.0116 63.3957 51.0116 63.48ZM53.8409 63.6372C53.8409 63.6989 54.0201 63.8591 54.239 63.9928C54.5803 64.2015 54.6707 64.1752 54.871 63.8089C55.065 63.4542 55.0405 63.3358 54.7277 63.1119C54.4027 62.8793 54.3158 62.8891 54.0959 63.1835C53.9557 63.3712 53.8409 63.5753 53.8409 63.6372ZM46.0877 63.4926C46.1631 63.6121 46.2799 63.5838 46.3856 63.4208C46.6617 62.9942 46.5932 62.7847 46.2646 63.0517C46.0991 63.1862 46.0194 63.3846 46.0877 63.4926ZM56.8586 63.4742C56.6223 63.9062 56.8549 64.23 57.4064 64.2373C57.7534 64.2419 57.9218 63.6346 57.6595 63.3251C57.3379 62.9459 57.1257 62.9855 56.8586 63.4742ZM46.57 63.4408C46.3972 63.7571 46.4392 63.8704 46.7995 64.0593C47.1655 64.251 47.2862 64.2298 47.5061 63.9355C47.7017 63.6736 47.7126 63.5114 47.5479 63.317C47.2278 62.9396 46.8155 62.9918 46.57 63.4408ZM52.249 63.7869C52.0513 64.1588 52.0798 64.2567 52.4402 64.4454C52.7851 64.626 52.9155 64.6001 53.1439 64.3054C53.3896 63.9881 53.3716 63.9005 52.9976 63.5925C52.7629 63.3995 52.5507 63.2659 52.5261 63.2958C52.5012 63.3257 52.3765 63.5468 52.249 63.7869ZM49.3993 63.6386C49.2265 63.9549 49.2685 64.0682 49.6288 64.2571C49.9948 64.4488 50.1155 64.4276 50.3354 64.1333C50.531 63.8714 50.5419 63.7092 50.3772 63.5148C50.0571 63.1374 49.6448 63.1896 49.3993 63.6386ZM55.1327 63.7952C54.7645 64.27 54.7822 64.3437 55.3208 64.5839C55.7099 64.7573 55.8335 64.7259 56.0415 64.3997C56.2525 64.0692 56.2339 63.9626 55.9257 63.7339C55.4552 63.3848 55.4508 63.3852 55.1327 63.7952ZM57.9127 64.069C57.6882 64.4211 57.6884 64.519 57.9147 64.6594C58.3496 64.9292 58.6616 64.8616 58.8874 64.4486C59.0529 64.1461 59.022 64.0203 58.7431 63.8613C58.2532 63.5822 58.2178 63.5909 57.9127 64.069ZM47.6689 64.0672C47.5337 64.4846 47.8199 64.8242 48.3122 64.8307C48.6592 64.8353 48.8275 64.228 48.5652 63.9185C48.2275 63.5203 47.8248 63.587 47.6689 64.0672ZM50.5245 64.1665C50.3812 64.532 50.7272 65.0315 51.1237 65.0315C51.5113 65.0315 51.7205 64.2278 51.3869 64.0207C50.9669 63.7604 50.6636 63.8117 50.5245 64.1665ZM45.4265 64.5759C45.5094 64.657 45.6615 64.5924 45.765 64.4323C46.0762 63.9507 45.9829 63.7369 45.6177 64.0943C45.4297 64.2783 45.3436 64.495 45.4265 64.5759ZM56.0639 64.8645C56.0639 64.9486 56.242 65.1108 56.4596 65.2249C56.7828 65.394 56.8986 65.3529 57.0916 65.0002C57.2884 64.64 57.2652 64.5235 56.9507 64.2986C56.6258 64.066 56.5388 64.0759 56.319 64.3702C56.1787 64.5579 56.0639 64.7803 56.0639 64.8645ZM53.3538 64.3643C53.2267 64.6883 53.5424 65.2293 53.8585 65.2293C53.9522 65.2293 54.1323 65.04 54.2588 64.8085C54.4383 64.4804 54.4288 64.3505 54.2154 64.2181C53.7962 63.9582 53.4929 64.0097 53.3538 64.3643ZM45.9946 64.4563C45.7676 64.8117 45.7822 64.9082 46.0975 65.1422C46.5835 65.5028 46.6263 65.4961 46.9343 65.0133C47.1613 64.6578 47.1467 64.5613 46.8315 64.3273C46.3454 63.9667 46.3026 63.9735 45.9946 64.4563ZM48.8239 64.6541C48.597 65.0095 48.6115 65.106 48.9268 65.3402C49.2475 65.5782 49.3388 65.5602 49.6505 65.1976C49.9912 64.801 49.9912 64.771 49.6505 64.5178C49.1758 64.1653 49.1311 64.1726 48.8239 64.6541ZM51.6041 64.8588C51.4247 65.1869 51.4342 65.3169 51.6476 65.4492C52.0847 65.7202 52.3965 65.6533 52.6225 65.2397C52.788 64.9373 52.7571 64.8115 52.4782 64.6525C51.9691 64.3623 51.8618 64.3876 51.6041 64.8588ZM58.9834 65.2121C59.2156 65.5798 59.4672 65.4478 59.3524 65.0184C59.2813 64.7518 59.1746 64.677 59.0454 64.8034C58.9367 64.9098 58.9088 65.0938 58.9834 65.2121ZM54.4585 65.0107C54.2144 65.4571 54.6622 65.936 55.1519 65.752C55.5209 65.6136 55.5589 64.9067 55.205 64.7668C54.7673 64.5939 54.6689 64.6262 54.4585 65.0107ZM47.1649 65.0441C46.9992 65.3471 47.0036 65.5256 47.1825 65.7364C47.5131 66.1263 47.7243 66.0928 47.9891 65.6086C48.172 65.2742 48.1449 65.1454 47.8446 64.9227C47.3765 64.5755 47.426 64.5666 47.1649 65.0441ZM57.2765 65.1304C57.0758 65.3671 57.0758 65.487 57.2765 65.7237C57.6067 66.1132 57.881 66.0986 58.1974 65.6749C58.6762 65.0342 57.7983 64.515 57.2765 65.1304ZM50.0094 65.9694C50.2416 66.1284 50.4514 66.2273 50.4756 66.189C50.4999 66.1506 50.6438 65.9607 50.7955 65.7671C51.0344 65.4621 51.0199 65.3764 50.6878 65.1304C50.3459 64.8768 50.2654 64.8912 49.9459 65.2631C49.6008 65.6646 49.6032 65.6907 50.0094 65.9694ZM44.7467 65.6626C44.7467 65.9459 45.1036 65.8329 45.2303 65.5097C45.4512 64.9462 45.3463 64.7267 45.0433 65.1187C44.8802 65.3299 44.7467 65.5746 44.7467 65.6626ZM52.6582 65.4536C52.4337 65.8056 52.4339 65.9035 52.6603 66.044C53.0663 66.2958 53.3571 66.2539 53.657 65.9002C53.8862 65.6298 53.8688 65.5406 53.542 65.3068C53.0372 64.9454 52.9759 64.9557 52.6582 65.4536ZM55.5084 65.6189C55.2952 65.953 55.322 66.0414 55.6963 66.2374C56.0587 66.4273 56.1797 66.4034 56.4085 66.0972C56.6462 65.7791 56.6361 65.6941 56.3353 65.4789C55.8736 65.1484 55.8008 65.1606 55.5084 65.6189ZM48.2898 66.3462C48.8013 66.7123 48.9405 66.6844 49.1028 66.1838C49.1998 65.8846 49.1323 65.6753 48.8805 65.4949C48.5697 65.2726 48.4761 65.2953 48.2172 65.6573C47.9448 66.0378 47.9517 66.1043 48.2898 66.3462ZM45.344 65.6411C45.1612 65.9757 45.1882 66.1033 45.4885 66.3227C45.8117 66.5586 45.9008 66.5383 46.1977 66.1617C46.4416 65.8517 46.4774 65.6603 46.3244 65.4801C46.0091 65.108 45.5987 65.1755 45.344 65.6411ZM58.3377 65.8167C58.1245 66.1508 58.1514 66.2392 58.5256 66.4352C58.886 66.6239 59.0086 66.602 59.2275 66.309C59.4231 66.0471 59.434 65.8849 59.2693 65.6905C58.9541 65.3189 58.6271 65.3632 58.3377 65.8167ZM50.8095 66.2491C50.8095 66.3332 50.9774 66.49 51.1827 66.5976C51.8808 66.9633 52.3555 66.0301 51.6684 65.6431C51.404 65.4941 51.2509 65.5262 51.0621 65.77C50.9231 65.9492 50.8095 66.1648 50.8095 66.2491ZM53.6388 66.4469C53.6388 66.531 53.8168 66.6931 54.0345 66.8073C54.3576 66.9764 54.4734 66.9352 54.6664 66.5826C54.8633 66.2224 54.84 66.1059 54.5256 65.881C54.2006 65.6484 54.1137 65.6583 53.8938 65.9526C53.7536 66.1403 53.6388 66.3626 53.6388 66.4469ZM56.4681 66.6447C56.4681 66.7288 56.6462 66.8909 56.8638 67.0051C57.187 67.1742 57.3028 67.133 57.4958 66.7804C57.6926 66.4202 57.6694 66.3037 57.3549 66.0788C57.0299 65.8462 56.943 65.8561 56.7232 66.1504C56.5829 66.3381 56.4681 66.5604 56.4681 66.6447ZM46.4157 66.2095C46.2058 66.5389 46.2351 66.6419 46.6132 66.9012C47.0263 67.1843 47.0748 67.1746 47.3066 66.7614C47.5145 66.3903 47.501 66.2764 47.2241 66.0699C46.7836 65.7416 46.706 65.755 46.4157 66.2095ZM49.2093 66.3858C49.0719 66.637 49.0822 66.8221 49.2426 66.9792C49.5884 67.3176 49.9599 67.2565 50.1973 66.8221C50.3629 66.5197 50.3319 66.3939 50.053 66.2349C49.5533 65.95 49.4361 65.971 49.2093 66.3858ZM54.89 66.709C54.6935 67.1309 54.7198 67.2302 55.0769 67.4173C55.3053 67.5369 55.5102 67.6054 55.5322 67.5694C55.554 67.5334 55.6961 67.3453 55.8479 67.1516C56.0868 66.8466 56.0722 66.761 55.7402 66.5151C55.219 66.1288 55.1529 66.1439 54.89 66.709ZM52.0265 66.6055C51.8547 66.92 51.8943 67.0345 52.2381 67.2145C52.5833 67.3953 52.7112 67.3696 52.9313 67.0751C53.1212 66.8209 53.1388 66.6403 52.9911 66.4661C52.6835 66.1033 52.2684 66.1633 52.0265 66.6055ZM57.924 67.5743C58.2698 67.8113 58.3575 67.8121 58.508 67.5797C58.7809 67.158 58.7251 66.85 58.3375 66.6374C58.062 66.4865 57.9321 66.5377 57.7506 66.8694C57.5548 67.2268 57.5827 67.3403 57.924 67.5743ZM47.6164 66.6534C47.268 66.9944 47.3165 67.2747 47.772 67.5532C48.1115 67.7607 48.2029 67.7367 48.3924 67.3904C48.5567 67.0897 48.5519 66.9103 48.3736 66.7001C48.0802 66.3541 47.9317 66.3448 47.6164 66.6534ZM50.4457 66.8512C50.3123 66.9817 50.2032 67.1948 50.2032 67.3245C50.2032 67.7092 50.8556 67.8402 51.1817 67.5211C51.4285 67.2796 51.4358 67.1724 51.2222 66.9204C50.9093 66.5517 50.7648 66.5389 50.4457 66.8512ZM66.1696 67.9078C65.4656 69.2501 62.9109 71.7067 61.2539 72.6349C60.3388 73.1476 59.9656 73.455 60.1424 73.5503C60.7471 73.8757 66.45 75.7122 66.8485 75.7099C67.4814 75.7063 69.6008 74.6034 70.3793 73.8726C71.1864 73.115 71.9406 71.8887 72.1209 71.0407C72.2482 70.4408 72.1951 70.3856 70.1703 69.0202C69.0252 68.2482 67.8612 67.4375 67.5833 67.2187C67.3054 66.9999 66.9875 66.8484 66.877 66.8818C66.7664 66.9155 66.4481 67.3771 66.1696 67.9078ZM53.1255 67.2319C53.04 67.4956 53.0915 67.7156 53.2635 67.8222C53.616 68.0405 53.8595 67.96 54.1297 67.536C54.294 67.2778 54.2732 67.1505 54.043 67.0069C53.5628 66.7072 53.2726 66.7784 53.1255 67.2319ZM46.2636 67.2084C46.4653 67.4268 46.6839 67.553 46.7492 67.4889C46.8145 67.425 46.6916 67.2464 46.476 67.0921C45.9222 66.6959 45.8341 66.7442 46.2636 67.2084ZM44.6468 67.2084C44.8485 67.4268 45.0575 67.5623 45.111 67.5098C45.2468 67.3769 44.7428 66.8116 44.4886 66.8116C44.3738 66.8116 44.4449 66.9902 44.6468 67.2084ZM55.9548 67.4297C55.8693 67.6934 55.9208 67.9134 56.0928 68.0202C56.474 68.2565 56.5841 68.2395 56.8723 67.8995C57.073 67.6627 57.073 67.5429 56.8723 67.3061C56.515 66.8848 56.114 66.9388 55.9548 67.4297ZM48.694 68.1264C49.2055 68.4925 49.3447 68.4646 49.507 67.964C49.604 67.6647 49.5365 67.4555 49.2847 67.2751C48.9739 67.0527 48.8803 67.0755 48.6214 67.4375C48.349 67.818 48.3559 67.8845 48.694 68.1264ZM58.7124 67.5639C58.5644 67.8346 58.6085 67.9763 58.8957 68.1517C59.2115 68.3447 59.2946 68.3188 59.3997 67.9946C59.6355 67.2677 59.0687 66.9125 58.7124 67.5639ZM51.402 67.6279C51.2226 67.9561 51.2321 68.086 51.4455 68.2184C51.8656 68.4789 52.1682 68.4266 52.3084 68.069C52.3783 67.8902 52.4921 67.799 52.5608 67.8665C52.6295 67.9337 52.5685 68.1274 52.425 68.2965C52.2074 68.5532 52.2278 68.6513 52.5479 68.8883C53.064 69.2708 53.1819 69.2556 53.446 68.7726C53.7051 68.2989 53.6849 68.2704 52.6734 67.6821C51.7157 67.1251 51.6779 67.1236 51.402 67.6279ZM53.9482 68.3394C53.4511 69.2101 53.4383 69.2906 53.7627 69.5228C54.0189 69.7062 54.1818 69.7141 54.3801 69.5533C54.7525 69.2506 54.7166 68.8475 54.2956 68.6076C54.1012 68.4967 54.0375 68.4033 54.1541 68.3999C54.2707 68.3968 54.465 68.4905 54.5854 68.6084C54.7428 68.7625 54.8964 68.6945 55.1311 68.3667C55.3107 68.1157 55.4576 68.014 55.4576 68.1404C55.4576 68.267 55.3667 68.4256 55.2556 68.4929C54.9292 68.6903 55.0207 68.9092 55.5229 69.1332C55.9138 69.3076 56.0358 69.2748 56.2513 68.9371C56.4635 68.6045 56.4608 68.5028 56.2365 68.3718C56.086 68.2838 55.69 68.037 55.3566 67.823C55.0231 67.6089 54.6899 67.4274 54.6159 67.4194C54.5422 67.4115 54.2416 67.8255 53.9482 68.3394ZM47.2609 68.1106C47.734 68.4524 47.9802 68.4721 47.9802 68.1685C47.9802 67.803 47.3033 67.4019 47.0707 67.6295C46.9359 67.7612 46.9994 67.9217 47.2609 68.1106ZM43.9581 68.0279C43.7034 68.7429 43.6628 69.7786 43.8896 69.7786C43.974 69.7786 44.162 69.5924 44.3071 69.3648C44.5339 69.0095 44.5193 68.9102 44.2042 68.6624C43.8581 68.39 43.8625 68.3803 44.2796 68.4921C44.8212 68.6375 45.278 68.0042 44.8988 67.6331C44.5035 67.2462 44.1897 67.3779 43.9581 68.0279ZM56.7626 68.5251C56.2379 69.4016 56.2286 69.4603 56.5752 69.7085C56.8446 69.9012 57.0107 69.9125 57.2094 69.7511C57.5736 69.4552 57.5479 69.1832 57.1249 68.8578C56.8056 68.6122 56.8234 68.5973 57.308 68.7043C57.7409 68.8003 57.8721 68.7388 57.9864 68.3861C58.0776 68.1046 58.0305 67.8884 57.8539 67.7789C57.4143 67.5063 57.3438 67.5546 56.7626 68.5251ZM49.7157 68.5342C50.0403 69.0376 50.3534 69.0564 50.6096 68.5876C50.8006 68.2383 50.7763 68.1165 50.4718 67.8954C49.9663 67.5284 49.3845 68.0202 49.7157 68.5342ZM45.1913 68.2358C44.8429 68.5768 44.8914 68.857 45.3469 69.1355C45.6864 69.343 45.7777 69.3191 45.9673 68.9727C46.1316 68.6721 46.1268 68.4927 45.9485 68.2824C45.6551 67.9365 45.5065 67.9272 45.1913 68.2358ZM58.1744 68.5418C57.8698 68.9494 58.1368 69.383 58.6924 69.383C59.1784 69.383 59.3532 68.6442 58.925 68.3995C58.4773 68.1438 58.4709 68.145 58.1744 68.5418ZM48.0402 68.5143C48.0038 68.6211 48.4219 68.9455 48.9694 69.2348C49.7776 69.6619 49.9857 69.7074 50.0765 69.4761C50.2008 69.1591 49.5042 68.7002 49.1885 68.8911C49.0798 68.9569 48.9906 68.8794 48.9906 68.7188C48.9906 68.2462 48.1903 68.0738 48.0402 68.5143ZM50.7191 68.735C50.6353 68.9486 50.7171 69.1702 50.9382 69.3284C51.4259 69.6773 51.5692 69.6468 51.727 69.1605C51.9473 68.4812 50.9788 68.0722 50.7191 68.735ZM45.569 70.6851C45.8978 71.073 46.2215 71.0354 46.5148 70.5757C46.7272 70.243 46.7021 70.1538 46.344 69.9663C46.1134 69.8454 45.9756 69.6965 46.038 69.6354C46.1005 69.5744 46.2931 69.6393 46.4659 69.7798C46.7282 69.9928 46.8284 69.9728 47.0707 69.6595C47.33 69.3246 47.3147 69.2457 46.9289 68.9282C46.5024 68.5774 46.4885 68.5851 45.914 69.4886C45.4532 70.2133 45.381 70.4633 45.569 70.6851ZM51.8244 69.3747C51.6516 69.6909 51.6936 69.8043 52.054 69.9932C52.42 70.1848 52.5406 70.1637 52.7605 69.8694C52.9561 69.6075 52.967 69.4453 52.8023 69.2509C52.4822 68.8735 52.0699 68.9257 51.8244 69.3747ZM44.5377 69.3956C44.372 69.6987 44.3764 69.8771 44.5553 70.0879C44.8859 70.4778 45.0971 70.4444 45.3618 69.9601C45.5447 69.6257 45.5177 69.4969 45.2173 69.2742C44.7493 68.9271 44.7988 68.9182 44.5377 69.3956ZM54.6537 69.5725C54.4819 69.887 54.5215 70.0015 54.8653 70.1815C55.2105 70.3623 55.3384 70.3365 55.5585 70.042C55.7485 69.7879 55.766 69.6073 55.6183 69.433C55.3107 69.0703 54.8956 69.1302 54.6537 69.5725ZM57.483 69.7703C57.3119 70.0834 57.3501 70.1987 57.6823 70.3727C57.9082 70.4912 58.1964 70.5256 58.3223 70.4495C58.4628 70.3644 58.4957 70.3993 58.4072 70.5391C58.328 70.6647 58.3625 70.7675 58.484 70.7675C58.7215 70.7675 58.6812 70.0359 58.4216 69.6302C58.1857 69.2621 57.7233 69.3312 57.483 69.7703ZM50.5173 70.0612C50.7794 70.2507 50.9778 70.2794 51.1126 70.1475C51.2474 70.0157 51.1836 69.8551 50.9214 69.6656C50.6591 69.4761 50.4607 69.4475 50.3259 69.5794C50.1913 69.7111 50.2549 69.8717 50.5173 70.0612ZM47.2835 69.724C47.1995 69.938 47.2819 70.1595 47.5052 70.3191C47.8001 70.5304 47.9139 70.5207 48.1732 70.263C48.4551 69.9823 48.4472 69.9245 48.0931 69.6676C47.5853 69.2991 47.4462 69.3088 47.2835 69.724ZM52.9321 69.9746C52.8617 70.1912 52.8729 70.477 52.9565 70.6095C53.0404 70.7422 52.7601 70.6493 52.3337 70.403C51.8066 70.0988 51.4924 70.0201 51.3523 70.1572C51.1488 70.3563 51.4133 70.5391 52.0568 70.6439C52.2043 70.6681 52.5356 70.8008 52.7928 70.939C53.136 71.1238 53.3318 71.1327 53.5289 70.9727C53.9666 70.617 54.0406 69.9956 53.6705 69.7841C53.1847 69.5066 53.0746 69.5351 52.9321 69.9746ZM32.4189 70.1103C30.8828 70.4056 26.8924 70.3731 26.0732 70.0586C25.6075 69.8798 25.6025 69.8537 26.8057 73.9887L27.6568 76.9133L28.6737 77.1922C29.2331 77.3456 30.1981 77.5288 30.8185 77.5994C31.9947 77.7331 34.7642 77.4121 35.5827 77.0472C36.1476 76.7952 36.1768 76.3697 35.7721 74.2996C35.6156 73.4993 35.3776 72.1768 35.243 71.3609C34.9481 69.5739 34.9146 69.5096 34.3665 69.6826C34.129 69.7576 33.2526 69.9501 32.4189 70.1103ZM55.7105 70.1682C55.4979 70.5015 55.5235 70.5903 55.8875 70.781C56.224 70.9572 56.3786 70.9398 56.6259 70.6979C56.8834 70.4459 56.8927 70.3375 56.6787 70.0852C56.3283 69.672 56.0096 69.6993 55.7105 70.1682ZM48.5171 70.9135C48.9821 71.2464 49.18 71.2282 49.333 70.8378C49.4116 70.6372 49.3132 70.4072 49.0763 70.2377C48.7415 69.9979 48.6586 70.0076 48.4302 70.3134C48.2099 70.6083 48.2237 70.7037 48.5171 70.9135ZM43.7942 70.579C43.7455 71.2593 44.1707 71.549 44.6482 71.161C45.0787 70.8113 45.0235 70.622 44.393 70.2873C44.0872 70.1249 43.8372 69.9847 43.8372 69.9847C43.8372 69.9847 43.8178 70.2481 43.7942 70.579ZM53.8409 70.9962C53.8409 71.0803 54.0135 71.2397 54.2245 71.3501C54.5333 71.5118 54.6687 71.4604 54.9197 71.0854C55.2111 70.6501 55.2026 70.6065 54.7887 70.4167C54.4464 70.2596 54.2889 70.2849 54.0935 70.5284C53.9545 70.7015 53.8409 70.9119 53.8409 70.9962ZM56.8794 70.7545C56.5888 71.2862 56.594 71.2963 57.2997 71.537C57.9521 71.7595 58.287 71.6877 58.287 71.3251C58.287 71.2005 58.1477 71.2256 57.946 71.3863C57.6451 71.6258 57.6217 71.6141 57.7474 71.2864C57.8872 70.9218 57.5936 70.372 57.2589 70.372C57.1651 70.372 56.9946 70.544 56.8794 70.7545ZM46.655 70.7175C46.1641 71.3748 47.0582 71.8726 47.5942 71.2407C47.8233 70.9703 47.806 70.8811 47.4792 70.6473C46.9923 70.2988 46.9663 70.3009 46.655 70.7175ZM49.4878 70.9901C49.4023 71.2537 49.4538 71.4737 49.6258 71.5805C50.008 71.8175 50.1169 71.7998 50.4105 71.4537C50.6229 71.2033 50.6009 71.1016 50.2836 70.8666C49.7636 70.4813 49.647 70.4993 49.4878 70.9901ZM72.8333 71.2126C72.8264 71.912 72.1587 73.1575 71.261 74.1463C70.4732 75.0138 68.2352 76.3058 67.5198 76.3058C67.0091 76.3058 66.9273 76.654 67.1965 77.6819C67.5328 78.9666 67.1759 79.5364 65.7808 79.9419C64.3801 80.3492 63.9798 80.5931 63.5313 81.3129C63.0065 82.1553 63.0228 83.109 63.5709 83.6089C64.1588 84.1449 65.22 84.2689 68.5226 84.1876C72.1108 84.0994 72.8796 83.7934 73.8052 82.0856C74.7706 80.3043 76.6118 75.9342 76.9694 74.5755C77.2638 73.457 77.265 73.2837 76.9819 72.7479C76.5888 72.004 75.987 71.6159 74.5091 71.1536C72.9877 70.6777 72.8385 70.6829 72.8333 71.2126ZM55.2463 71.8341C55.568 71.9747 55.7618 71.9391 56.0128 71.6936C56.3258 71.3871 56.322 71.3449 55.9538 71.0723C55.5965 70.8079 55.5231 70.8214 55.187 71.213C54.8241 71.6359 54.8255 71.6505 55.2463 71.8341ZM44.7467 71.5896C44.7467 71.6737 44.9247 71.8358 45.1424 71.95C45.4655 72.1191 45.5813 72.0779 45.7743 71.7253C45.9711 71.3651 45.9479 71.2486 45.6334 71.0237C45.3085 70.7911 45.2216 70.801 45.0017 71.0953C44.8614 71.283 44.7467 71.5053 44.7467 71.5896ZM47.7692 71.3772C47.5861 71.7118 47.6132 71.8384 47.9131 72.053C48.1728 72.239 48.3573 72.2562 48.5353 72.1116C48.893 71.821 48.8494 71.4153 48.4349 71.179C47.9777 70.9185 48.0283 70.9034 47.7692 71.3772ZM50.6355 72.0864C50.9451 72.4516 51.3466 72.4158 51.5061 72.0089C51.5906 71.7937 51.5063 71.5726 51.2775 71.4088C50.9714 71.1897 50.8764 71.2017 50.6638 71.4863C50.4787 71.734 50.4712 71.8926 50.6355 72.0864ZM56.2495 72.215C56.5207 72.4805 57.6807 72.5772 57.6807 72.3343C57.6807 72.2213 57.5897 72.1838 57.4786 72.251C57.3674 72.3183 57.2765 72.2666 57.2765 72.1361C57.2765 72.0058 57.1172 71.7821 56.9228 71.639C56.6249 71.4201 56.5291 71.4306 56.3157 71.7055C56.1603 71.9057 56.1349 72.1029 56.2495 72.215ZM45.7636 72.1946C45.76 72.2724 45.9465 72.4352 46.1779 72.5564C46.5196 72.7354 46.6512 72.7089 46.8789 72.415C47.1247 72.0979 47.1069 72.0101 46.7353 71.7041C46.3301 71.3706 46.2994 71.3706 46.0407 71.7041C45.8917 71.8962 45.767 72.1169 45.7636 72.1946ZM43.8227 72.105C43.89 72.1707 44.0565 72.1155 44.1925 71.9824C44.3879 71.7911 44.3766 71.7011 44.1388 71.5558C43.9239 71.4244 43.8176 71.4596 43.7689 71.6784C43.7311 71.8471 43.7554 72.0392 43.8227 72.105ZM48.8239 71.9725C48.597 72.328 48.6115 72.4245 48.9268 72.6585C49.4128 73.0191 49.4557 73.0123 49.7636 72.5295C49.9906 72.1741 49.976 72.0776 49.6608 71.8436C49.1747 71.483 49.1319 71.4897 48.8239 71.9725ZM51.6532 72.1703C51.4263 72.5258 51.4408 72.6223 51.7561 72.8563C52.2439 73.2182 52.2844 73.2111 52.6037 72.7105C52.844 72.3341 52.8324 72.2473 52.5127 72.0182C52.0293 71.6725 51.9634 71.6841 51.6532 72.1703ZM44.2333 72.3746C44.1479 72.6383 44.1994 72.8582 44.3714 72.9651C44.7838 73.2208 44.9128 73.1811 45.1646 72.7204C45.344 72.3922 45.3345 72.2623 45.1211 72.13C44.6697 71.8499 44.3774 71.9304 44.2333 72.3746ZM52.943 72.5918C52.5358 73.1607 52.5461 73.2819 53.024 73.5323C53.3454 73.7005 53.4624 73.6617 53.6463 73.3252C53.8306 72.9882 53.8039 72.8567 53.5032 72.6201C53.1544 72.3458 53.1592 72.3363 53.5883 72.452C53.854 72.5234 54.043 72.4866 54.043 72.3632C54.043 71.9812 53.2641 72.143 52.943 72.5918ZM49.9942 72.5604C49.8285 72.8634 49.833 73.0418 50.0118 73.2527C50.3424 73.6425 50.5536 73.6091 50.8184 73.1249C51.0013 72.7904 50.9742 72.6617 50.6739 72.4389C50.2058 72.0918 50.2553 72.0829 49.9942 72.5604ZM47.0815 72.4931C46.9012 72.9526 47.5319 73.4232 47.9131 73.1136C48.252 72.8381 48.2605 72.4138 47.9296 72.2831C47.4515 72.0944 47.2146 72.1529 47.0815 72.4931ZM54.2451 72.7137C54.2451 72.805 54.4724 72.9813 54.7503 73.1051C55.1397 73.2788 55.2586 73.2746 55.2683 73.0875C55.2754 72.9538 55.3635 73.0446 55.4639 73.2895C55.5694 73.5464 55.8204 73.7345 56.0575 73.7345C56.7347 73.7345 56.5217 73.2163 55.7103 72.8905C54.8457 72.5434 54.2451 72.471 54.2451 72.7137ZM45.3392 72.9684C45.1597 73.2966 45.1692 73.4265 45.3826 73.5588C45.8198 73.8298 46.1316 73.763 46.3576 73.3494C46.5231 73.047 46.4921 72.9212 46.2132 72.7621C45.7042 72.472 45.5969 72.4973 45.3392 72.9684ZM48.1867 73.1328C48.0149 73.4473 48.0545 73.5618 48.3983 73.7418C48.7433 73.9224 48.8736 73.8965 49.1018 73.6018C49.256 73.4028 49.3849 73.3336 49.3884 73.4477C49.392 73.5618 49.2962 73.7519 49.1757 73.8698C49.0183 74.0239 49.0852 74.1726 49.4138 74.3977C49.8394 74.6894 49.8908 74.6835 50.1587 74.3089C50.4867 73.8506 50.4762 73.8342 49.4472 73.2151C48.5145 72.6537 48.451 72.6496 48.1867 73.1328ZM51.0116 73.24C50.8109 73.4768 50.8109 73.5966 51.0116 73.8334C51.3535 74.2365 51.6742 74.206 51.9701 73.7424C52.176 73.4198 52.1589 73.3215 51.867 73.1552C51.3947 72.8857 51.3044 72.8946 51.0116 73.24ZM53.7506 73.4821C53.6667 73.6957 53.7485 73.9172 53.9696 74.0755C54.4573 74.4244 54.6006 74.3939 54.7584 73.9076C54.9787 73.2283 54.0103 72.8193 53.7506 73.4821ZM46.3634 73.8506C46.3634 73.9968 46.5415 74.2094 46.7591 74.3235C47.0823 74.4926 47.1981 74.4515 47.3911 74.0988C47.5869 73.7406 47.5653 73.6225 47.2646 73.4073C46.8634 73.1203 46.3634 73.3664 46.3634 73.8506ZM44.2693 73.4378C44.3924 73.7515 44.7467 73.8494 44.7467 73.5697C44.7467 73.3605 44.5258 73.1411 44.3152 73.1411C44.2261 73.1411 44.2055 73.2746 44.2693 73.4378ZM52.0728 73.9264C51.8602 74.2596 51.8858 74.3484 52.2498 74.5391C52.5863 74.7154 52.7409 74.698 52.9883 74.4561C53.2457 74.2041 53.255 74.0957 53.041 73.8433C52.6906 73.4301 52.3719 73.4574 52.0728 73.9264ZM44.7467 74.1176C44.7467 74.3154 44.8899 74.5937 45.0652 74.7359C45.3293 74.9503 45.4152 74.9462 45.5674 74.7108C45.8459 74.28 45.7941 73.9722 45.4077 73.7606C44.9752 73.5236 44.7467 73.6471 44.7467 74.1176ZM54.909 74.1133C54.7154 74.4169 54.7265 74.5399 54.9653 74.734C55.3837 75.0738 56.1789 74.405 55.8364 74.0011C55.5209 73.6291 55.1927 73.6686 54.909 74.1133ZM47.3739 74.5565C47.3739 74.6406 47.5519 74.8028 47.7696 74.9169C48.0927 75.086 48.2085 75.0449 48.4015 74.6922C48.5984 74.332 48.5751 74.2155 48.2607 73.9906C47.9357 73.758 47.8488 73.7679 47.6289 74.0622C47.4887 74.25 47.3739 74.4723 47.3739 74.5565ZM50.4124 74.3148C50.1311 74.8293 50.1418 74.8752 50.5989 75.1147C50.9198 75.2826 51.037 75.2443 51.2191 74.9112C51.3865 74.6052 51.3824 74.428 51.203 74.2163C50.8772 73.8322 50.6615 73.8591 50.4124 74.3148ZM53.1479 74.5925C52.9256 74.9416 53.2401 75.307 53.7687 75.3139C54.1192 75.3184 54.2831 74.7098 54.0161 74.3951C53.7346 74.063 53.443 74.1293 53.1479 74.5925ZM48.694 75.4448C49.1935 75.8025 49.3419 75.7831 49.5904 75.3285C49.7596 75.0194 49.7145 74.8859 49.3597 74.6424C48.9534 74.3641 48.8952 74.3732 48.6194 74.7587C48.3494 75.1357 48.3569 75.2035 48.694 75.4448ZM45.7102 74.8441C45.5041 75.2868 45.5243 75.3991 45.8527 75.6341C46.1951 75.8792 46.2733 75.8517 46.5932 75.3744C46.8551 74.9838 46.8927 74.7719 46.7334 74.5842C46.3889 74.1779 45.9709 74.2842 45.7102 74.8441ZM51.6261 75.6614C51.8583 75.8204 52.0681 75.9193 52.0924 75.881C52.1166 75.8426 52.2605 75.6527 52.4123 75.4591C52.6512 75.1541 52.6366 75.0684 52.3046 74.8224C51.9626 74.5688 51.8822 74.5832 51.5627 74.9551C51.2175 75.3566 51.2199 75.3827 51.6261 75.6614ZM54.3243 75.0696C53.9765 75.518 53.9757 75.7124 54.3215 75.7124C54.6943 75.7124 55.121 75.1881 54.9579 74.93C54.7748 74.64 54.6333 74.6713 54.3243 75.0696ZM46.7599 75.5329C46.5437 76.0436 46.5481 76.1737 46.7858 76.3211C47.2166 76.5881 47.3353 76.5471 47.6962 76.0082C47.9636 75.6088 47.9794 75.4553 47.7773 75.217C47.3878 74.7577 47.0426 74.8649 46.7599 75.5329ZM49.6899 75.5394C49.5549 75.9559 49.8406 76.2963 50.3311 76.3029C50.6518 76.307 50.8085 75.5928 50.5435 75.3335C50.1979 74.9952 49.8382 75.0819 49.6899 75.5394ZM52.4844 75.6948C52.232 76.0904 52.4689 76.3058 53.1564 76.3058C53.5658 76.3058 53.7572 75.7093 53.4157 75.4976C52.9848 75.2308 52.7486 75.2809 52.4844 75.6948ZM47.8811 76.0341C47.5946 76.4619 47.5816 76.5833 47.8074 76.7232C48.2526 76.9995 48.544 76.9265 48.8819 76.4542C49.1739 76.0463 49.1717 75.9888 48.8548 75.7619C48.3728 75.4171 48.276 75.4442 47.8811 76.0341ZM50.7137 76.2959C50.3483 76.9874 50.3354 77.097 50.6193 77.097C50.7369 77.097 50.7749 77.0044 50.7034 76.8913C50.6197 76.7586 50.7531 76.7297 51.0791 76.8098C51.4614 76.9038 51.6383 76.8359 51.8046 76.5315C51.9814 76.2083 51.9549 76.0895 51.6698 75.9269C51.1397 75.6248 51.05 75.6594 50.7137 76.2959ZM49.1133 76.421C48.9013 76.9613 48.9757 77.097 49.4839 77.097C50.1377 77.097 50.3578 76.7078 49.8924 76.3747C49.4104 76.0299 49.2633 76.0386 49.1133 76.421ZM52.022 76.5036C52.022 76.6124 52.1639 76.7014 52.3371 76.7014C52.5103 76.7014 52.596 76.6124 52.5273 76.5036C52.4586 76.3948 52.3169 76.3058 52.2122 76.3058C52.1075 76.3058 52.022 76.3948 52.022 76.5036ZM33.2049 78.263C31.4735 78.4527 29.1913 78.251 28.0895 77.8109C27.5143 77.5812 27.4393 77.6081 26.7664 78.285C26.2059 78.8487 25.6631 79.1185 24.2341 79.5436C20.9939 80.507 19.9602 81.0011 19.591 81.7626C19.3115 82.339 19.302 82.5218 19.5269 82.9813C20.0698 84.0897 20.3018 84.1188 28.5791 84.1188C36.3304 84.1188 38.3637 83.9576 38.6125 83.323C38.6703 83.1755 38.195 81.8188 37.5561 80.308L36.3947 77.5612L35.6203 77.8223C35.1945 77.9659 34.1074 78.1643 33.2049 78.263Z" fill="#3F3F46"/>
<path d="M31.08 15.928L31.3395 17.1892C31.8207 18.7204 37.4713 20.6178 37.4713 20.7115C37.4713 20.8053 37.1497 21.1581 36.7569 21.4958C35.5938 22.4954 33.8819 22.228 33.0947 20.924C32.7095 20.2857 32.2168 20.1292 32.2168 20.6453C32.2168 21.2149 32.874 22.0648 33.6408 22.4867C35.126 23.3036 36.9557 22.8028 38.0913 21.2687C38.527 20.6801 38.9904 20.3345 39.6838 20.0813C41.0912 19.5675 42.4157 18.3445 43.0658 16.9581C43.6717 15.6663 43.5676 15.693 45.555 16.3169C47.2516 16.8494 52.1132 19.3024 54.2956 20.7271C56.3493 22.068 56.7581 22.5043 56.2488 22.8123C55.8578 23.0491 53.3179 26.5259 52.6099 27.794C52.231 28.4726 51.8458 29.029 51.7537 29.0302C51.6617 29.0316 50.5368 28.493 49.254 27.8338C47.111 26.7322 46.3634 26.5267 46.3634 27.0392C46.3634 27.1462 47.1591 27.6364 48.1317 28.1283L49.9001 29.0225L51.382 31.8609C52.228 33.4808 52.8785 34.9817 52.8977 35.3573C52.9278 35.9434 52.829 36.0751 51.9944 36.5599C48.1875 38.7717 41.1847 40.2977 34.8127 40.3038L31.6489 40.307L31.151 39.4663C29.1743 36.1293 27.4735 32.4531 26.3692 29.1315C25.5142 26.5594 25.3905 26.2635 25.1702 26.2635C24.9804 26.2635 23.1749 28.046 22.2156 29.1809C21.9165 29.5344 21.5652 29.8238 21.4347 29.8238C21.3041 29.8238 19.8951 28.547 18.3037 26.9864L15.4097 24.149L17.0054 22.1898C19.6983 18.8835 22.9668 16.1913 25.1494 15.4816C26.1202 15.1661 26.208 15.1677 26.9203 15.5144C27.4527 15.7735 28.1636 15.8863 29.3748 15.9035L31.08 15.928Z" fill="#1F1F1F"/>
<path d="M51.4764 37.7137C47.2565 39.7739 42.2063 40.8521 35.8949 41.0402C33.1816 41.1211 32.0194 41.2228 32.0764 41.3745C32.1216 41.4945 32.3646 42.2602 32.6164 43.0761C32.8682 43.892 33.1525 44.6425 33.2481 44.7439C33.353 44.8549 34.221 44.5531 35.4348 43.9832C37.2884 43.1131 37.8755 42.9932 37.8755 43.4846C37.8755 43.5876 36.9206 44.1367 35.7535 44.7048C34.5864 45.2728 33.6315 45.8178 33.6315 45.9155C33.6315 46.0134 34.2586 46.8164 35.0249 47.7C37.0184 49.9984 38.9128 52.8569 39.8198 54.9346L40.6037 56.7304L41.4121 56.605C45.2535 56.0094 50.977 53.1754 53.6004 50.5702C56.0605 48.1268 56.8426 44.2639 55.5838 40.7722C55.2602 39.8744 53.6766 36.7466 53.5456 36.7466C53.4969 36.7466 52.5657 37.1818 51.4764 37.7137Z" fill="#1F1F1F"/>
<path d="M72.8333 71.2126C72.8264 71.912 72.1587 73.1575 71.261 74.1463C70.4732 75.0138 68.2352 76.3058 67.5198 76.3058C67.0091 76.3058 66.9273 76.654 67.1965 77.6819C67.5328 78.9666 67.1759 79.5364 65.7808 79.9419C64.3801 80.3492 63.9798 80.5931 63.5313 81.3129C63.0065 82.1553 63.0228 83.109 63.5709 83.6089C64.1588 84.1449 65.22 84.2689 68.5226 84.1876C72.1108 84.0994 72.8796 83.7934 73.8052 82.0856C74.7706 80.3043 76.6118 75.9342 76.9694 74.5755C77.2638 73.457 77.265 73.2837 76.9819 72.7479C76.5888 72.004 75.987 71.6159 74.5091 71.1536C72.9877 70.6777 72.8385 70.6829 72.8333 71.2126Z" fill="#1F1F1F"/>
<path d="M33.2049 78.263C31.4735 78.4527 29.1913 78.251 28.0895 77.8109C27.5143 77.5812 27.4393 77.6081 26.7664 78.285C26.2059 78.8487 25.6631 79.1185 24.2341 79.5436C20.9939 80.507 19.9602 81.0011 19.591 81.7626C19.3115 82.339 19.302 82.5218 19.5269 82.9813C20.0698 84.0897 20.3018 84.1188 28.5791 84.1188C36.3304 84.1188 38.3637 83.9576 38.6125 83.323C38.6703 83.1755 38.195 81.8188 37.5561 80.308L36.3947 77.5612L35.6203 77.8223C35.1945 77.9659 34.1074 78.1643 33.2049 78.263Z" fill="#1F1F1F"/>
<path d="M64.7263 46.0748C64.625 45.7769 65.0846 43.4545 65.4195 42.8289C65.7543 42.2032 66.0894 41.6915 66.1642 41.6915C66.5027 41.6915 67.206 42.6892 67.3101 43.3166C67.4135 43.9415 67.3109 44.143 66.2614 45.3723C65.6216 46.122 64.9289 45.9258 64.7263 46.0748Z" fill="#E8EEEB"/>
<path d="M71.0411 34.0002C70.8443 34.5529 70.8736 34.6567 71.3255 35.0045C71.6027 35.2179 71.9697 35.5298 72.1411 35.6975C72.3125 35.8653 72.477 35.9697 72.5067 35.9295C72.5362 35.8894 72.7593 35.5998 73.0022 35.2859C73.2452 34.972 73.444 34.6415 73.444 34.5513C73.444 34.3058 71.9861 33.3841 71.5981 33.3841C71.4019 33.3841 71.1686 33.6422 71.0411 34.0002Z" fill="#E8EEEB"/>
<path d="M30.7528 1.13051C29.239 1.50929 27.5717 2.22788 26.5178 2.95537C26.2177 3.16247 25.1718 3.50287 24.1937 3.71155C21.6489 4.2543 21.0532 5.03856 21.8193 6.83633C21.9917 7.24082 22.4106 7.8528 22.7501 8.19637C23.3212 8.77374 23.3576 8.89341 23.2325 9.7827C23.0666 10.9637 23.2841 11.5591 24.2755 12.6387C25.966 14.4794 28.508 15.5904 30.0659 15.1695C31.0515 14.903 30.9968 14.4906 29.9415 14.2305C28.9975 13.9979 27.9282 13.0588 27.581 12.1576C27.2811 11.3789 27.3138 9.75955 27.6453 8.9832C28.0325 8.07611 28.8813 7.47264 29.7685 7.47363C30.5639 7.47442 31.7526 8.07849 31.9501 8.58227C32.0454 8.82556 32.1317 8.76425 32.3245 8.31545C32.5626 7.76142 32.6513 7.72621 34.1197 7.60476C36.8913 7.37532 38.4074 6.17529 38.7843 3.91251C38.8659 3.42296 38.9724 2.95636 39.0213 2.87546C39.1749 2.6213 40.722 3.51672 41.7415 4.45012C42.2801 4.94322 42.9721 5.84735 43.279 6.45913C43.7445 7.38679 43.8486 7.49341 43.9051 7.10118C44.0345 6.20674 43.3486 4.95905 42.1111 3.83774C39.2356 1.23217 34.6822 0.146867 30.7528 1.13051Z" fill="#3F3F46"/>
<path d="M32.4189 70.1103C30.8828 70.4056 26.8924 70.3731 26.0732 70.0586C25.6075 69.8798 25.6025 69.8537 26.8057 73.9887L27.6568 76.9133L28.6737 77.1922C29.2331 77.3456 30.1981 77.5288 30.8185 77.5994C31.9947 77.7331 34.7642 77.4121 35.5827 77.0472C36.1476 76.7952 36.1768 76.3697 35.7721 74.2996C35.6156 73.4993 35.3776 72.1768 35.243 71.3609C34.9481 69.5739 34.9146 69.5096 34.3665 69.6826C34.129 69.7576 33.2526 69.9501 32.4189 70.1103Z" fill="#3F3F46"/>
<path d="M66.1696 67.9078C65.4656 69.2501 62.9109 71.7067 61.2539 72.6349C60.3388 73.1476 59.9656 73.455 60.1424 73.5503C60.7471 73.8757 66.45 75.7122 66.8485 75.7099C67.4814 75.7063 69.6008 74.6034 70.3793 73.8726C71.1864 73.115 71.9406 71.8887 72.1209 71.0407C72.2482 70.4408 72.1951 70.3856 70.1703 69.0202C69.0252 68.2482 67.8612 67.4375 67.5833 67.2187C67.3054 66.9999 66.9875 66.8484 66.877 66.8818C66.7664 66.9155 66.4481 67.3771 66.1696 67.9078Z" fill="#3F3F46"/>
<path d="M132.134 21.408H155.302C155.387 23.8827 155.43 26.4 155.43 28.96C155.43 31.52 155.408 34.1013 155.366 36.704C155.366 39.3067 155.366 41.9307 155.366 44.576C155.366 48.2453 155.408 51.9147 155.494 55.584C155.579 59.2533 155.728 62.88 155.942 66.464H132.646C132.731 64.16 132.795 61.856 132.838 59.552C132.923 57.2053 132.966 54.9013 132.966 52.64C132.966 52.128 132.816 51.7013 132.518 51.36C132.219 51.0187 131.792 50.848 131.238 50.848H121.766C121.339 50.848 121.019 51.0187 120.806 51.36C120.635 51.7013 120.55 52.1067 120.55 52.576C120.55 54.88 120.571 57.2053 120.614 59.552C120.699 61.8987 120.827 64.2027 120.998 66.464H97.1255C97.1255 64.2027 97.1895 61.8773 97.3175 59.488C97.4455 57.056 97.5948 54.6027 97.7655 52.128C97.9788 49.6533 98.1922 47.1787 98.4055 44.704C98.6188 42.1867 98.7895 39.6907 98.9175 37.216C99.0455 34.6987 99.1095 32.224 99.1095 29.792C99.1095 28.384 99.0882 26.976 99.0455 25.568C99.0455 24.16 99.0242 22.7733 98.9815 21.408H121.83C121.616 23.2427 121.403 25.1413 121.19 27.104C120.976 29.0667 120.806 31.0507 120.678 33.056C120.592 35.0187 120.55 36.96 120.55 38.88C120.55 39.264 120.635 39.584 120.806 39.84C121.019 40.096 121.339 40.224 121.766 40.224H131.238C131.835 40.224 132.262 40.0533 132.518 39.712C132.816 39.3707 132.966 38.9227 132.966 38.368C132.966 35.4667 132.88 32.5867 132.71 29.728C132.582 26.8267 132.39 24.0533 132.134 21.408ZM195.165 40.352C200.754 40.352 205.469 40.6293 209.309 41.184C213.149 41.696 216.221 42.4853 218.525 43.552C220.871 44.6187 222.557 45.9627 223.581 47.584C224.605 49.2053 225.117 51.1253 225.117 53.344C225.117 55.776 224.285 57.9307 222.621 59.808C220.957 61.6427 218.653 63.1787 215.709 64.416C212.765 65.6533 209.373 66.592 205.533 67.232C201.735 67.8293 197.682 68.128 193.373 68.128C188.722 68.128 184.434 67.808 180.509 67.168C176.626 66.528 173.234 65.5467 170.333 64.224C167.474 62.9013 165.277 61.216 163.741 59.168C162.205 57.0773 161.501 54.5813 161.629 51.68L185.885 49.568C185.714 50.6773 185.949 51.68 186.589 52.576C187.229 53.472 188.167 54.176 189.405 54.688C190.685 55.2 192.135 55.456 193.757 55.456C194.909 55.456 195.933 55.328 196.829 55.072C197.767 54.816 198.557 54.4747 199.197 54.048C199.879 53.6213 200.391 53.1307 200.733 52.576C201.074 52.0213 201.245 51.4667 201.245 50.912C201.245 49.6747 200.711 48.8213 199.645 48.352C198.621 47.8827 197.085 47.648 195.037 47.648C194.951 47.648 194.759 47.648 194.461 47.648C194.162 47.648 193.821 47.648 193.437 47.648C193.053 47.648 192.647 47.648 192.221 47.648C191.794 47.648 191.389 47.648 191.005 47.648C190.663 47.648 190.386 47.648 190.173 47.648C184.541 47.648 179.826 47.328 176.029 46.688C172.231 46.0053 169.223 45.1093 167.005 44C164.829 42.848 163.314 41.5253 162.461 40.032C161.607 38.5387 161.287 36.96 161.501 35.296C162.226 33.3333 163.25 31.5627 164.573 29.984C165.938 28.3627 167.559 26.9333 169.437 25.696C171.314 24.416 173.426 23.3493 175.773 22.496C178.119 21.6 180.679 20.9387 183.453 20.512C186.226 20.0427 189.17 19.7867 192.285 19.744C196.978 19.6587 201.223 20.0213 205.021 20.832C208.818 21.6 212.061 22.752 214.749 24.288C217.437 25.7813 219.485 27.5947 220.893 29.728C222.301 31.8613 222.941 34.2293 222.812 36.832L199.453 38.304C199.837 36.9813 199.794 35.8933 199.325 35.04C198.898 34.1867 198.151 33.5467 197.085 33.12C196.061 32.6507 194.823 32.416 193.373 32.416C192.349 32.416 191.325 32.544 190.301 32.8C189.319 33.0133 188.423 33.3333 187.613 33.76C186.802 34.1867 186.162 34.6987 185.693 35.296C185.223 35.8933 184.989 36.576 184.989 37.344C184.989 37.9413 185.159 38.4747 185.501 38.944C185.885 39.3707 186.461 39.712 187.229 39.968C187.997 40.224 188.999 40.352 190.237 40.352C190.322 40.352 190.535 40.352 190.877 40.352C191.218 40.352 191.602 40.352 192.029 40.352C192.455 40.352 192.882 40.352 193.309 40.352C193.778 40.352 194.162 40.352 194.461 40.352C194.802 40.352 195.037 40.352 195.165 40.352ZM263.477 40.352C269.066 40.352 273.781 40.6293 277.621 41.184C281.461 41.696 284.533 42.4853 286.837 43.552C289.184 44.6187 290.869 45.9627 291.893 47.584C292.917 49.2053 293.429 51.1253 293.429 53.344C293.429 55.776 292.597 57.9307 290.933 59.808C289.269 61.6427 286.965 63.1787 284.021 64.416C281.077 65.6533 277.685 66.592 273.845 67.232C270.048 67.8293 265.994 68.128 261.685 68.128C257.034 68.128 252.746 67.808 248.821 67.168C244.938 66.528 241.546 65.5467 238.645 64.224C235.786 62.9013 233.589 61.216 232.053 59.168C230.517 57.0773 229.813 54.5813 229.941 51.68L254.197 49.568C254.026 50.6773 254.261 51.68 254.901 52.576C255.541 53.472 256.48 54.176 257.717 54.688C258.997 55.2 260.448 55.456 262.069 55.456C263.221 55.456 264.245 55.328 265.141 55.072C266.08 54.816 266.869 54.4747 267.509 54.048C268.192 53.6213 268.704 53.1307 269.045 52.576C269.386 52.0213 269.557 51.4667 269.557 50.912C269.557 49.6747 269.024 48.8213 267.957 48.352C266.933 47.8827 265.397 47.648 263.349 47.648C263.264 47.648 263.072 47.648 262.773 47.648C262.474 47.648 262.133 47.648 261.749 47.648C261.365 47.648 260.96 47.648 260.533 47.648C260.106 47.648 259.701 47.648 259.317 47.648C258.976 47.648 258.698 47.648 258.485 47.648C252.853 47.648 248.138 47.328 244.341 46.688C240.544 46.0053 237.536 45.1093 235.317 44C233.141 42.848 231.626 41.5253 230.773 40.032C229.92 38.5387 229.6 36.96 229.813 35.296C230.538 33.3333 231.562 31.5627 232.885 29.984C234.25 28.3627 235.872 26.9333 237.749 25.696C239.626 24.416 241.738 23.3493 244.085 22.496C246.432 21.6 248.992 20.9387 251.765 20.512C254.538 20.0427 257.482 19.7867 260.597 19.744C265.29 19.6587 269.536 20.0213 273.333 20.832C277.13 21.6 280.373 22.752 283.061 24.288C285.749 25.7813 287.797 27.5947 289.205 29.728C290.613 31.8613 291.253 34.2293 291.125 36.832L267.765 38.304C268.149 36.9813 268.106 35.8933 267.637 35.04C267.21 34.1867 266.464 33.5467 265.397 33.12C264.373 32.6507 263.136 32.416 261.685 32.416C260.661 32.416 259.637 32.544 258.613 32.8C257.632 33.0133 256.736 33.3333 255.925 33.76C255.114 34.1867 254.474 34.6987 254.005 35.296C253.536 35.8933 253.301 36.576 253.301 37.344C253.301 37.9413 253.472 38.4747 253.813 38.944C254.197 39.3707 254.773 39.712 255.541 39.968C256.309 40.224 257.312 40.352 258.549 40.352C258.634 40.352 258.848 40.352 259.189 40.352C259.53 40.352 259.914 40.352 260.341 40.352C260.768 40.352 261.194 40.352 261.621 40.352C262.09 40.352 262.474 40.352 262.773 40.352C263.114 40.352 263.349 40.352 263.477 40.352Z" fill="#3D9937"/>
<path d="M383.386 21.408C383.343 24.48 383.386 27.5307 383.514 30.56C383.642 33.5467 383.791 36.5547 383.962 39.584C384.175 42.5707 384.389 45.5573 384.602 48.544C384.815 51.488 384.986 54.4533 385.114 57.44C385.242 60.4267 385.306 63.4347 385.306 66.464H363.418C363.503 62.5813 363.567 58.6987 363.61 54.816C363.695 50.8907 363.738 46.9867 363.738 43.104C363.738 42.2933 363.653 41.632 363.482 41.12C363.311 40.608 363.098 40.2027 362.842 39.904C362.629 39.6053 362.373 39.4133 362.074 39.328C361.818 39.2427 361.583 39.2427 361.37 39.328C361.199 39.4133 361.093 39.5413 361.05 39.712L354.202 66.464H339.482C338.799 62.496 338.095 58.528 337.37 54.56C336.645 50.5493 335.855 46.4107 335.002 42.144C335.002 41.5467 334.917 41.056 334.746 40.672C334.575 40.2453 334.341 39.9253 334.042 39.712C333.743 39.4987 333.445 39.392 333.146 39.392C332.847 39.3493 332.549 39.4133 332.25 39.584C331.951 39.7547 331.717 40.032 331.546 40.416C331.375 40.8 331.29 41.2693 331.29 41.824C331.29 45.8773 331.397 49.9947 331.61 54.176C331.823 58.3147 332.079 62.4107 332.378 66.464H311.322C311.322 63.52 311.365 60.512 311.45 57.44C311.578 54.368 311.706 51.296 311.834 48.224C312.005 45.1093 312.133 41.9947 312.218 38.88C312.346 35.7653 312.41 32.6933 312.41 29.664C312.41 28.2987 312.41 26.9333 312.41 25.568C312.41 24.16 312.389 22.7733 312.346 21.408H343.386C343.77 23.8827 344.197 26.4 344.666 28.96C345.135 31.4773 345.669 33.9947 346.266 36.512C346.906 39.0293 347.61 41.5467 348.378 44.064C348.549 44.32 348.762 44.512 349.018 44.64C349.274 44.768 349.509 44.8107 349.722 44.768C349.978 44.6827 350.127 44.5333 350.17 44.32L355.61 21.408H383.386ZM440.162 21.408C440.631 23.9253 441.207 26.464 441.89 29.024C442.615 31.5413 443.383 34.08 444.194 36.64C445.004 39.1573 445.836 41.6747 446.69 44.192C447.543 46.7093 448.375 49.2267 449.186 51.744C450.039 54.2613 450.828 56.7573 451.554 59.232C452.279 61.664 452.898 64.0747 453.41 66.464H427.554L426.722 61.472C426.551 61.344 426.316 61.1947 426.018 61.024C425.719 60.8533 425.399 60.768 425.058 60.768H415.586C415.074 60.768 414.69 60.832 414.434 60.96C414.178 61.088 413.964 61.2587 413.794 61.472L412.962 66.464H389.154C389.751 64.0747 390.434 61.664 391.202 59.232C391.97 56.7573 392.78 54.2827 393.634 51.808C394.487 49.2907 395.362 46.7733 396.258 44.256C397.154 41.7387 398.007 39.2 398.818 36.64C399.671 34.08 400.46 31.5413 401.186 29.024C401.911 26.464 402.53 23.9253 403.042 21.408H440.162ZM414.562 55.712C414.562 56.1387 414.647 56.5013 414.818 56.8C415.031 57.0987 415.308 57.248 415.65 57.248H424.93C425.271 57.248 425.57 57.184 425.826 57.056C426.124 56.8853 426.359 56.6507 426.53 56.352C426.7 56.0533 426.786 55.6907 426.786 55.264C426.786 55.008 426.679 54.3253 426.466 53.216C426.295 52.064 426.039 50.6773 425.698 49.056C425.399 47.4347 425.036 45.7707 424.61 44.064C424.226 42.3147 423.82 40.672 423.394 39.136C422.967 37.6 422.562 36.3627 422.178 35.424C421.794 34.4427 421.431 33.952 421.09 33.952C421.004 33.952 420.898 33.952 420.77 33.952C420.642 33.952 420.535 33.952 420.45 33.952C419.98 33.952 419.511 34.464 419.042 35.488C418.572 36.512 418.124 37.8347 417.698 39.456C417.271 41.0347 416.866 42.7413 416.482 44.576C416.098 46.368 415.756 48.096 415.458 49.76C415.202 51.3813 414.988 52.7467 414.818 53.856C414.647 54.9653 414.562 55.584 414.562 55.712ZM458.846 21.408H505.31C507.742 21.408 509.747 21.856 511.326 22.752C512.947 23.648 514.142 24.8213 514.91 26.272C515.721 27.68 516.126 29.1733 516.126 30.752C516.126 32.3733 515.699 33.9307 514.846 35.424C514.035 36.9173 512.777 38.176 511.07 39.2C509.406 40.1813 507.315 40.7573 504.798 40.928C504.371 41.1413 504.073 41.4187 503.902 41.76C503.774 42.0587 503.795 42.3787 503.966 42.72C504.179 43.0613 504.585 43.4027 505.182 43.744C508.339 43.9573 510.942 44.6613 512.99 45.856C515.081 47.008 516.638 48.4373 517.662 50.144C518.729 51.8507 519.262 53.6427 519.262 55.52C519.262 56.8853 518.985 58.2293 518.43 59.552C517.918 60.832 517.107 62.0053 515.998 63.072C514.889 64.096 513.459 64.928 511.71 65.568C509.961 66.1653 507.87 66.464 505.438 66.464H457.63C457.63 63.6907 457.694 60.9387 457.822 58.208C457.993 55.4773 458.185 52.768 458.398 50.08C458.611 47.392 458.782 44.6827 458.91 41.952C459.081 39.2213 459.166 36.448 459.166 33.632C459.166 31.6267 459.145 29.6 459.102 27.552C459.059 25.504 458.974 23.456 458.846 21.408ZM481.182 44.896C480.755 45.28 480.457 45.8133 480.286 46.496C480.115 47.1787 480.03 47.904 480.03 48.672C480.03 49.2693 480.073 49.8453 480.158 50.4C480.286 50.9547 480.435 51.4667 480.606 51.936C480.777 52.3627 480.969 52.6827 481.182 52.896C481.182 52.9387 481.203 52.96 481.246 52.96H490.526C492.105 52.96 493.257 52.5973 493.982 51.872C494.707 51.104 495.07 50.2507 495.07 49.312C495.07 48.7573 494.963 48.224 494.75 47.712C494.579 47.1573 494.302 46.6667 493.918 46.24C493.534 45.8133 493.107 45.472 492.638 45.216C492.169 44.96 491.635 44.832 491.038 44.832H481.246C481.246 44.832 481.225 44.8533 481.182 44.896ZM481.246 34.208C481.203 34.208 481.182 34.2293 481.182 34.272C480.969 34.4853 480.777 34.8267 480.606 35.296C480.435 35.7227 480.286 36.2347 480.158 36.832C480.073 37.3867 480.03 37.9627 480.03 38.56C480.03 39.328 480.115 40.0533 480.286 40.736C480.457 41.4187 480.755 41.9307 481.182 42.272C481.182 42.3147 481.203 42.336 481.246 42.336H490.014C490.953 42.336 491.742 42.1227 492.382 41.696C493.065 41.2693 493.577 40.7147 493.918 40.032C494.259 39.3493 494.43 38.6453 494.43 37.92C494.43 36.9387 494.11 36.0853 493.47 35.36C492.83 34.592 491.891 34.208 490.654 34.208H481.246ZM571.912 21.408C572.381 23.9253 572.957 26.464 573.64 29.024C574.365 31.5413 575.133 34.08 575.944 36.64C576.754 39.1573 577.586 41.6747 578.44 44.192C579.293 46.7093 580.125 49.2267 580.936 51.744C581.789 54.2613 582.578 56.7573 583.304 59.232C584.029 61.664 584.648 64.0747 585.16 66.464H559.304L558.472 61.472C558.301 61.344 558.066 61.1947 557.768 61.024C557.469 60.8533 557.149 60.768 556.808 60.768H547.336C546.824 60.768 546.44 60.832 546.184 60.96C545.928 61.088 545.714 61.2587 545.544 61.472L544.712 66.464H520.904C521.501 64.0747 522.184 61.664 522.952 59.232C523.72 56.7573 524.53 54.2827 525.384 51.808C526.237 49.2907 527.112 46.7733 528.008 44.256C528.904 41.7387 529.757 39.2 530.568 36.64C531.421 34.08 532.21 31.5413 532.936 29.024C533.661 26.464 534.28 23.9253 534.792 21.408H571.912ZM546.312 55.712C546.312 56.1387 546.397 56.5013 546.568 56.8C546.781 57.0987 547.058 57.248 547.4 57.248H556.68C557.021 57.248 557.32 57.184 557.576 57.056C557.874 56.8853 558.109 56.6507 558.28 56.352C558.45 56.0533 558.536 55.6907 558.536 55.264C558.536 55.008 558.429 54.3253 558.216 53.216C558.045 52.064 557.789 50.6773 557.448 49.056C557.149 47.4347 556.786 45.7707 556.36 44.064C555.976 42.3147 555.57 40.672 555.144 39.136C554.717 37.6 554.312 36.3627 553.928 35.424C553.544 34.4427 553.181 33.952 552.84 33.952C552.754 33.952 552.648 33.952 552.52 33.952C552.392 33.952 552.285 33.952 552.2 33.952C551.73 33.952 551.261 34.464 550.792 35.488C550.322 36.512 549.874 37.8347 549.448 39.456C549.021 41.0347 548.616 42.7413 548.232 44.576C547.848 46.368 547.506 48.096 547.208 49.76C546.952 51.3813 546.738 52.7467 546.568 53.856C546.397 54.9653 546.312 55.584 546.312 55.712ZM589.764 21.408H633.476C636.975 21.408 639.876 22.048 642.18 23.328C644.527 24.5653 646.297 26.1867 647.492 28.192C648.687 30.1547 649.284 32.2453 649.284 34.464C649.284 36.8533 648.623 39.136 647.3 41.312C645.977 43.488 644.015 45.2587 641.412 46.624C638.852 47.9893 635.631 48.672 631.748 48.672C631.577 48.672 631.151 48.672 630.468 48.672C629.828 48.672 629.167 48.672 628.484 48.672C627.801 48.672 627.332 48.672 627.076 48.672C627.033 48.672 626.948 48.7147 626.82 48.8C626.735 48.8853 626.692 48.992 626.692 49.12C626.692 49.376 626.756 49.5893 626.884 49.76C627.055 49.9307 627.268 50.0587 627.524 50.144C627.78 50.2293 628.036 50.272 628.292 50.272H642.052L650.372 66.464H622.468C621.785 64.3307 621.06 62.2187 620.292 60.128C619.567 58.0373 618.756 56.0107 617.86 54.048C617.007 52.0853 616.004 50.208 614.852 48.416H623.108C623.919 48.416 624.665 48.2667 625.348 47.968C626.073 47.6693 626.692 47.264 627.204 46.752C627.716 46.1973 628.121 45.5787 628.42 44.896C628.719 44.1707 628.868 43.4027 628.868 42.592C628.868 41.4827 628.591 40.5013 628.036 39.648C627.524 38.752 626.799 38.048 625.86 37.536C624.921 37.024 623.833 36.768 622.596 36.768H614.148C613.636 36.768 613.188 36.896 612.804 37.152C612.463 37.3653 612.207 37.6427 612.036 37.984C611.865 38.3253 611.78 38.688 611.78 39.072C611.78 41.5893 611.844 43.552 611.972 44.96C612.143 46.368 612.377 47.328 612.676 47.84C612.975 48.352 613.337 48.5653 613.764 48.48C613.508 48.48 613.231 48.6933 612.932 49.12C612.676 49.5467 612.463 50.1653 612.292 50.976C612.121 51.744 612.036 52.704 612.036 53.856C612.036 55.0507 612.036 56.3947 612.036 57.888C612.079 59.3813 612.121 60.8747 612.164 62.368C612.207 63.8187 612.249 65.184 612.292 66.464H589.508C589.465 64.0747 589.465 61.6213 589.508 59.104C589.593 56.544 589.679 53.9413 589.764 51.296C589.849 48.6507 589.935 45.984 590.02 43.296C590.105 40.5653 590.148 37.8773 590.148 35.232C590.148 32.8853 590.105 30.56 590.02 28.256C589.977 25.952 589.892 23.6693 589.764 21.408Z" fill="#1F1F1F"/>
</svg>
